%TF.GenerationSoftware,KiCad,Pcbnew,10.0.2*%
%TF.CreationDate,2026-10-03T18:43:32+07:00*%
%TF.ProjectId,rt_hw_v1,72745f68-775f-4763-912e-6b696361645f,rev?*%
%TF.SameCoordinates,Original*%
%TF.FileFunction,Copper,L1,Top*%
%TF.FilePolarity,Positive*%
%FSLAX46Y46*%
G04 Gerber Fmt 4.6, Leading zero omitted, Abs format (unit mm)*
G04 Created by KiCad (PCBNEW 10.0.2) date 2026-10-03 18:43:32*
%MOMM*%
%LPD*%
G01*
G04 APERTURE LIST*
G04 Aperture macros list*
%AMRoundRect*
0 Rectangle with rounded corners*
0 $1 Rounding radius*
0 $2 $3 $4 $5 $6 $7 $8 $9 X,Y pos of 4 corners*
0 Add a 4 corners polygon primitive as box body*
4,1,4,$2,$3,$4,$5,$6,$7,$8,$9,$2,$3,0*
0 Add four circle primitives for the rounded corners*
1,1,$1+$1,$2,$3*
1,1,$1+$1,$4,$5*
1,1,$1+$1,$6,$7*
1,1,$1+$1,$8,$9*
0 Add four rect primitives between the rounded corners*
20,1,$1+$1,$2,$3,$4,$5,0*
20,1,$1+$1,$4,$5,$6,$7,0*
20,1,$1+$1,$6,$7,$8,$9,0*
20,1,$1+$1,$8,$9,$2,$3,0*%
%AMFreePoly0*
4,1,23,0.550000,-0.750000,0.000000,-0.750000,0.000000,-0.745722,-0.065263,-0.745722,-0.191342,-0.711940,-0.304381,-0.646677,-0.396677,-0.554381,-0.461940,-0.441342,-0.495722,-0.315263,-0.495722,-0.250000,-0.500000,-0.250000,-0.500000,0.250000,-0.495722,0.250000,-0.495722,0.315263,-0.461940,0.441342,-0.396677,0.554381,-0.304381,0.646677,-0.191342,0.711940,-0.065263,0.745722,0.000000,0.745722,
0.000000,0.750000,0.550000,0.750000,0.550000,-0.750000,0.550000,-0.750000,$1*%
%AMFreePoly1*
4,1,23,0.000000,0.745722,0.065263,0.745722,0.191342,0.711940,0.304381,0.646677,0.396677,0.554381,0.461940,0.441342,0.495722,0.315263,0.495722,0.250000,0.500000,0.250000,0.500000,-0.250000,0.495722,-0.250000,0.495722,-0.315263,0.461940,-0.441342,0.396677,-0.554381,0.304381,-0.646677,0.191342,-0.711940,0.065263,-0.745722,0.000000,-0.745722,0.000000,-0.750000,-0.550000,-0.750000,
-0.550000,0.750000,0.000000,0.750000,0.000000,0.745722,0.000000,0.745722,$1*%
%AMFreePoly2*
4,1,21,-0.125000,1.200000,0.125000,1.200000,0.125000,1.700000,0.375000,1.700000,0.375000,1.200000,0.825000,1.200000,0.825000,-1.200000,0.375000,-1.200000,0.375000,-1.700000,0.125000,-1.700000,0.125000,-1.200000,-0.125000,-1.200000,-0.125000,-1.700000,-0.375000,-1.700000,-0.375000,-1.200000,-0.825000,-1.200000,-0.825000,1.200000,-0.375000,1.200000,-0.375000,1.700000,-0.125000,1.700000,
-0.125000,1.200000,-0.125000,1.200000,$1*%
%AMFreePoly3*
4,1,21,-0.300000,0.050000,-0.296194,0.069134,-0.285355,0.085355,-0.269134,0.096194,-0.250000,0.100000,0.250000,0.100000,0.269134,0.096194,0.285355,0.085355,0.296194,0.069134,0.300000,0.050000,0.300000,-0.050000,0.296194,-0.069134,0.285355,-0.085355,0.269134,-0.096194,0.250000,-0.100000,-0.250000,-0.100000,-0.269134,-0.096194,-0.285355,-0.085355,-0.296194,-0.069134,-0.300000,-0.050000,
-0.300000,0.050000,-0.300000,0.050000,$1*%
G04 Aperture macros list end*
%TA.AperFunction,SMDPad,CuDef*%
%ADD10RoundRect,0.250000X0.475000X-0.337500X0.475000X0.337500X-0.475000X0.337500X-0.475000X-0.337500X0*%
%TD*%
%TA.AperFunction,SMDPad,CuDef*%
%ADD11R,1.000000X1.500000*%
%TD*%
%TA.AperFunction,SMDPad,CuDef*%
%ADD12R,0.700000X1.500000*%
%TD*%
%TA.AperFunction,SMDPad,CuDef*%
%ADD13R,1.500000X2.800000*%
%TD*%
%TA.AperFunction,SMDPad,CuDef*%
%ADD14RoundRect,0.250000X0.450000X-0.350000X0.450000X0.350000X-0.450000X0.350000X-0.450000X-0.350000X0*%
%TD*%
%TA.AperFunction,SMDPad,CuDef*%
%ADD15RoundRect,0.250000X-0.350000X-0.450000X0.350000X-0.450000X0.350000X0.450000X-0.350000X0.450000X0*%
%TD*%
%TA.AperFunction,SMDPad,CuDef*%
%ADD16RoundRect,0.250000X-0.262500X-0.450000X0.262500X-0.450000X0.262500X0.450000X-0.262500X0.450000X0*%
%TD*%
%TA.AperFunction,SMDPad,CuDef*%
%ADD17R,3.500000X2.950000*%
%TD*%
%TA.AperFunction,SMDPad,CuDef*%
%ADD18RoundRect,0.250000X0.250000X0.475000X-0.250000X0.475000X-0.250000X-0.475000X0.250000X-0.475000X0*%
%TD*%
%TA.AperFunction,SMDPad,CuDef*%
%ADD19RoundRect,0.250000X-0.337500X-0.475000X0.337500X-0.475000X0.337500X0.475000X-0.337500X0.475000X0*%
%TD*%
%TA.AperFunction,SMDPad,CuDef*%
%ADD20RoundRect,0.250000X-0.450000X0.350000X-0.450000X-0.350000X0.450000X-0.350000X0.450000X0.350000X0*%
%TD*%
%TA.AperFunction,SMDPad,CuDef*%
%ADD21RoundRect,0.250000X-0.475000X0.337500X-0.475000X-0.337500X0.475000X-0.337500X0.475000X0.337500X0*%
%TD*%
%TA.AperFunction,SMDPad,CuDef*%
%ADD22FreePoly0,270.000000*%
%TD*%
%TA.AperFunction,SMDPad,CuDef*%
%ADD23R,1.500000X1.000000*%
%TD*%
%TA.AperFunction,SMDPad,CuDef*%
%ADD24FreePoly1,270.000000*%
%TD*%
%TA.AperFunction,SMDPad,CuDef*%
%ADD25RoundRect,0.250000X-0.450000X0.262500X-0.450000X-0.262500X0.450000X-0.262500X0.450000X0.262500X0*%
%TD*%
%TA.AperFunction,SMDPad,CuDef*%
%ADD26RoundRect,0.060000X-0.240000X-0.060000X0.240000X-0.060000X0.240000X0.060000X-0.240000X0.060000X0*%
%TD*%
%TA.AperFunction,ComponentPad*%
%ADD27C,0.500000*%
%TD*%
%TA.AperFunction,SMDPad,CuDef*%
%ADD28FreePoly2,0.000000*%
%TD*%
%TA.AperFunction,SMDPad,CuDef*%
%ADD29RoundRect,0.150000X0.150000X0.425000X-0.150000X0.425000X-0.150000X-0.425000X0.150000X-0.425000X0*%
%TD*%
%TA.AperFunction,SMDPad,CuDef*%
%ADD30RoundRect,0.075000X0.075000X0.500000X-0.075000X0.500000X-0.075000X-0.500000X0.075000X-0.500000X0*%
%TD*%
%TA.AperFunction,SMDPad,CuDef*%
%ADD31RoundRect,0.250000X0.840000X0.750000X-0.840000X0.750000X-0.840000X-0.750000X0.840000X-0.750000X0*%
%TD*%
%TA.AperFunction,SMDPad,CuDef*%
%ADD32RoundRect,0.200000X0.200000X-0.750000X0.200000X0.750000X-0.200000X0.750000X-0.200000X-0.750000X0*%
%TD*%
%TA.AperFunction,SMDPad,CuDef*%
%ADD33RoundRect,0.250000X0.350000X0.450000X-0.350000X0.450000X-0.350000X-0.450000X0.350000X-0.450000X0*%
%TD*%
%TA.AperFunction,SMDPad,CuDef*%
%ADD34RoundRect,0.250000X0.337500X0.475000X-0.337500X0.475000X-0.337500X-0.475000X0.337500X-0.475000X0*%
%TD*%
%TA.AperFunction,SMDPad,CuDef*%
%ADD35RoundRect,0.062500X0.062500X-0.375000X0.062500X0.375000X-0.062500X0.375000X-0.062500X-0.375000X0*%
%TD*%
%TA.AperFunction,SMDPad,CuDef*%
%ADD36RoundRect,0.062500X0.375000X-0.062500X0.375000X0.062500X-0.375000X0.062500X-0.375000X-0.062500X0*%
%TD*%
%TA.AperFunction,HeatsinkPad*%
%ADD37R,1.600000X1.600000*%
%TD*%
%TA.AperFunction,SMDPad,CuDef*%
%ADD38RoundRect,0.250001X0.624999X-0.462499X0.624999X0.462499X-0.624999X0.462499X-0.624999X-0.462499X0*%
%TD*%
%TA.AperFunction,SMDPad,CuDef*%
%ADD39RoundRect,0.250000X0.262500X0.450000X-0.262500X0.450000X-0.262500X-0.450000X0.262500X-0.450000X0*%
%TD*%
%TA.AperFunction,SMDPad,CuDef*%
%ADD40RoundRect,0.250000X0.475000X-0.250000X0.475000X0.250000X-0.475000X0.250000X-0.475000X-0.250000X0*%
%TD*%
%TA.AperFunction,SMDPad,CuDef*%
%ADD41R,1.500000X0.900000*%
%TD*%
%TA.AperFunction,SMDPad,CuDef*%
%ADD42R,0.900000X1.500000*%
%TD*%
%TA.AperFunction,HeatsinkPad*%
%ADD43C,0.600000*%
%TD*%
%TA.AperFunction,HeatsinkPad*%
%ADD44R,3.900000X3.900000*%
%TD*%
%TA.AperFunction,SMDPad,CuDef*%
%ADD45R,1.050000X0.650000*%
%TD*%
%TA.AperFunction,SMDPad,CuDef*%
%ADD46RoundRect,0.250000X-0.475000X0.250000X-0.475000X-0.250000X0.475000X-0.250000X0.475000X0.250000X0*%
%TD*%
%TA.AperFunction,SMDPad,CuDef*%
%ADD47RoundRect,0.075000X-0.650000X-0.075000X0.650000X-0.075000X0.650000X0.075000X-0.650000X0.075000X0*%
%TD*%
%TA.AperFunction,SMDPad,CuDef*%
%ADD48RoundRect,0.250000X-0.450000X0.325000X-0.450000X-0.325000X0.450000X-0.325000X0.450000X0.325000X0*%
%TD*%
%TA.AperFunction,SMDPad,CuDef*%
%ADD49RoundRect,0.150000X0.825000X0.150000X-0.825000X0.150000X-0.825000X-0.150000X0.825000X-0.150000X0*%
%TD*%
%TA.AperFunction,SMDPad,CuDef*%
%ADD50RoundRect,0.250000X0.450000X-0.262500X0.450000X0.262500X-0.450000X0.262500X-0.450000X-0.262500X0*%
%TD*%
%TA.AperFunction,SMDPad,CuDef*%
%ADD51FreePoly3,0.000000*%
%TD*%
%TA.AperFunction,SMDPad,CuDef*%
%ADD52RoundRect,0.050000X-0.050000X0.212500X-0.050000X-0.212500X0.050000X-0.212500X0.050000X0.212500X0*%
%TD*%
%TA.AperFunction,HeatsinkPad*%
%ADD53C,0.500000*%
%TD*%
%TA.AperFunction,SMDPad,CuDef*%
%ADD54R,2.450000X1.950000*%
%TD*%
%TA.AperFunction,SMDPad,CuDef*%
%ADD55O,0.364000X1.742000*%
%TD*%
%TA.AperFunction,SMDPad,CuDef*%
%ADD56RoundRect,0.200000X-0.200000X0.750000X-0.200000X-0.750000X0.200000X-0.750000X0.200000X0.750000X0*%
%TD*%
%TA.AperFunction,ComponentPad*%
%ADD57R,1.700000X1.700000*%
%TD*%
%TA.AperFunction,ComponentPad*%
%ADD58C,1.700000*%
%TD*%
%TA.AperFunction,ComponentPad*%
%ADD59C,1.800000*%
%TD*%
%TA.AperFunction,ComponentPad*%
%ADD60C,2.500000*%
%TD*%
%TA.AperFunction,ComponentPad*%
%ADD61C,2.200000*%
%TD*%
%TA.AperFunction,ViaPad*%
%ADD62C,0.600000*%
%TD*%
%TA.AperFunction,ViaPad*%
%ADD63C,2.000000*%
%TD*%
%TA.AperFunction,Conductor*%
%ADD64C,0.200000*%
%TD*%
%TA.AperFunction,Conductor*%
%ADD65C,1.000000*%
%TD*%
G04 APERTURE END LIST*
D10*
%TO.P,C19,1*%
%TO.N,+3.3V*%
X186800000Y-84147500D03*
%TO.P,C19,2*%
%TO.N,GND*%
X186800000Y-82072500D03*
%TD*%
D11*
%TO.P,J4,1,CD/DAT3_1*%
%TO.N,/DAT3*%
X146975000Y-114625000D03*
%TO.P,J4,2,CMD_2*%
%TO.N,/CMD*%
X144475000Y-114625000D03*
%TO.P,J4,3,VSS_3*%
%TO.N,GND*%
X141975000Y-114625000D03*
%TO.P,J4,4,VDD_4*%
%TO.N,+3.3V*%
X139475000Y-114625000D03*
%TO.P,J4,5,CLK_5*%
%TO.N,/CLK*%
X136975000Y-114625000D03*
%TO.P,J4,6,VSS_6*%
%TO.N,GND*%
X134475000Y-114625000D03*
%TO.P,J4,7,DAT0_7*%
%TO.N,/DAT0*%
X132045000Y-114625000D03*
%TO.P,J4,8,DAT1_8*%
%TO.N,/DAT1*%
X130345000Y-114625000D03*
%TO.P,J4,9,DAT2_9*%
%TO.N,/DAT2*%
X149475000Y-114625000D03*
D12*
%TO.P,J4,10,CARD_DETECT_10*%
%TO.N,/CARD_DETECT*%
X129045000Y-114625000D03*
%TO.P,J4,11,WRITE_PROTECT_11*%
%TO.N,unconnected-(J4-WRITE_PROTECT-Pad11)*%
X127845000Y-114625000D03*
D13*
%TO.P,J4,SH,SHELL_SH*%
%TO.N,unconnected-(J4-SHELL-PadSH)*%
X126450000Y-116425000D03*
%TO.N,unconnected-(J4-SHELL-PadSH)_2*%
X126450000Y-137925000D03*
%TO.N,unconnected-(J4-SHELL-PadSH)_1*%
X151550000Y-116425000D03*
%TO.N,unconnected-(J4-SHELL-PadSH)_3*%
X153750000Y-137925000D03*
%TD*%
D14*
%TO.P,R9,1*%
%TO.N,Net-(D5-A)*%
X150600000Y-87810000D03*
%TO.P,R9,2*%
%TO.N,Net-(U3-IO4)*%
X150600000Y-85810000D03*
%TD*%
D15*
%TO.P,R7,1*%
%TO.N,/ILIM*%
X168150000Y-102987500D03*
%TO.P,R7,2*%
%TO.N,GND*%
X170150000Y-102987500D03*
%TD*%
D16*
%TO.P,R25,1*%
%TO.N,+3.3V*%
X129875000Y-107550000D03*
%TO.P,R25,2*%
%TO.N,/DAT0*%
X131700000Y-107550000D03*
%TD*%
D10*
%TO.P,C10,1*%
%TO.N,VDD*%
X203450000Y-114437500D03*
%TO.P,C10,2*%
%TO.N,GND*%
X203450000Y-112362500D03*
%TD*%
D17*
%TO.P,L2,1,1_1*%
%TO.N,Net-(U8-L2)*%
X193400000Y-124505000D03*
%TO.P,L2,2,2_2*%
%TO.N,Net-(U8-L1)*%
X193400000Y-129955000D03*
%TD*%
D18*
%TO.P,C21,1*%
%TO.N,+3.3V*%
X160350000Y-137250000D03*
%TO.P,C21,2*%
%TO.N,GND*%
X158450000Y-137250000D03*
%TD*%
D15*
%TO.P,R6,1*%
%TO.N,/TMR*%
X168150000Y-105237500D03*
%TO.P,R6,2*%
%TO.N,GND*%
X170150000Y-105237500D03*
%TD*%
%TO.P,R12,1*%
%TO.N,Net-(Q2-B)*%
X184900000Y-93100000D03*
%TO.P,R12,2*%
%TO.N,/RTS*%
X186900000Y-93100000D03*
%TD*%
D19*
%TO.P,C16,1*%
%TO.N,+5V*%
X202612500Y-119480000D03*
%TO.P,C16,2*%
%TO.N,GND*%
X204687500Y-119480000D03*
%TD*%
D20*
%TO.P,R14,1*%
%TO.N,Net-(D4-A)*%
X173650000Y-115237500D03*
%TO.P,R14,2*%
%TO.N,VDD*%
X173650000Y-117237500D03*
%TD*%
D21*
%TO.P,C5,1*%
%TO.N,+BATT*%
X157650000Y-112450000D03*
%TO.P,C5,2*%
%TO.N,GND*%
X157650000Y-114525000D03*
%TD*%
D22*
%TO.P,JP2,1,A_1*%
%TO.N,GND*%
X211900000Y-124930000D03*
D23*
%TO.P,JP2,2,C_2*%
%TO.N,Net-(JP2-C)*%
X211900000Y-126230000D03*
D24*
%TO.P,JP2,3,B_3*%
%TO.N,Net-(JP2-B)*%
X211900000Y-127530000D03*
%TD*%
D15*
%TO.P,R8,1*%
%TO.N,GND*%
X209650000Y-94600000D03*
%TO.P,R8,2*%
%TO.N,Net-(J1-CC2)*%
X211650000Y-94600000D03*
%TD*%
D25*
%TO.P,R22,1*%
%TO.N,+3.3V*%
X131890000Y-88087500D03*
%TO.P,R22,2*%
%TO.N,/BIN*%
X131890000Y-89912500D03*
%TD*%
D26*
%TO.P,U8,1,VOUT_1*%
%TO.N,+5V*%
X203000000Y-125600000D03*
%TO.P,U8,2,L2_2*%
%TO.N,Net-(U8-L2)*%
X203000000Y-126100000D03*
%TO.P,U8,3,PGND_3*%
%TO.N,GND*%
X203000000Y-126600000D03*
%TO.P,U8,4,L1_4*%
%TO.N,Net-(U8-L1)*%
X203000000Y-127100000D03*
%TO.P,U8,5,VIN_5*%
%TO.N,VDD*%
X203000000Y-127600000D03*
%TO.P,U8,6,EN_6*%
%TO.N,Net-(JP2-C)*%
X205800000Y-127600000D03*
%TO.P,U8,7,PS/SYNC_7*%
%TO.N,Net-(JP2-B)*%
X205800000Y-127100000D03*
%TO.P,U8,8,VINA_8*%
X205800000Y-126600000D03*
%TO.P,U8,9,GND_9*%
%TO.N,GND*%
X205800000Y-126100000D03*
%TO.P,U8,10,FB_10*%
%TO.N,+5V*%
X205800000Y-125600000D03*
D27*
%TO.P,U8,11,PGND_11*%
%TO.N,GND*%
X203825000Y-126600000D03*
X204400000Y-125650000D03*
D28*
X204400000Y-126600000D03*
D27*
X204400000Y-127550000D03*
X204975000Y-126600000D03*
%TD*%
D29*
%TO.P,J1,A1,GND_A1*%
%TO.N,GND*%
X216250000Y-87630000D03*
%TO.P,J1,A4,VBUS_A4*%
%TO.N,VBUS*%
X215450000Y-87630000D03*
D30*
%TO.P,J1,A5,CC1_A5*%
%TO.N,Net-(J1-CC1)*%
X214300000Y-87630000D03*
%TO.P,J1,A6,D+_A6*%
%TO.N,Net-(U2-UD+)*%
X213300000Y-87630000D03*
%TO.P,J1,A7,D-_A7*%
%TO.N,Net-(U2-UD-)*%
X212800000Y-87630000D03*
%TO.P,J1,A8*%
%TO.N,N/C*%
X211800000Y-87630000D03*
D29*
%TO.P,J1,A9,VBUS_A9*%
%TO.N,VBUS*%
X210650000Y-87630000D03*
%TO.P,J1,A12,GND_A12*%
%TO.N,GND*%
X209850000Y-87630000D03*
%TO.P,J1,B1,GND_B1*%
X209850000Y-87630000D03*
%TO.P,J1,B4,VBUS_B4*%
%TO.N,VBUS*%
X210650000Y-87630000D03*
D30*
%TO.P,J1,B5,CC2_B5*%
%TO.N,Net-(J1-CC2)*%
X211300000Y-87630000D03*
%TO.P,J1,B6,D+_B6*%
%TO.N,Net-(U2-UD+)*%
X212300000Y-87630000D03*
%TO.P,J1,B7,D-_B7*%
%TO.N,Net-(U2-UD-)*%
X213800000Y-87630000D03*
%TO.P,J1,B8*%
%TO.N,N/C*%
X214800000Y-87630000D03*
D29*
%TO.P,J1,B9,VBUS_B9*%
%TO.N,VBUS*%
X215450000Y-87630000D03*
%TO.P,J1,B12,GND_B12*%
%TO.N,GND*%
X216250000Y-87630000D03*
D31*
%TO.P,J1,SH*%
%TO.N,N/C*%
X218160000Y-87055000D03*
X218160000Y-83125000D03*
X207940000Y-87055000D03*
X207940000Y-83125000D03*
%TD*%
D19*
%TO.P,C17,1*%
%TO.N,+5V*%
X202612500Y-121730000D03*
%TO.P,C17,2*%
%TO.N,GND*%
X204687500Y-121730000D03*
%TD*%
D10*
%TO.P,C18,1*%
%TO.N,+3.3V*%
X184680000Y-84210000D03*
%TO.P,C18,2*%
%TO.N,GND*%
X184680000Y-82135000D03*
%TD*%
D32*
%TO.P,Q2,1,B_1*%
%TO.N,Net-(Q2-B)*%
X184900000Y-90600000D03*
%TO.P,Q2,2,E_2*%
%TO.N,/DTR*%
X186800000Y-90600000D03*
%TO.P,Q2,3,C_3*%
%TO.N,/IO0*%
X185850000Y-87600000D03*
%TD*%
D25*
%TO.P,R23,1*%
%TO.N,+3.3V*%
X129890000Y-88087500D03*
%TO.P,R23,2*%
%TO.N,/BQ27441_GPOUT*%
X129890000Y-89912500D03*
%TD*%
D15*
%TO.P,R16,1*%
%TO.N,VDD*%
X205450000Y-114437314D03*
%TO.P,R16,2*%
%TO.N,Net-(JP1-B)*%
X207450000Y-114437314D03*
%TD*%
D33*
%TO.P,R2,1*%
%TO.N,+3.3V*%
X142100000Y-90610000D03*
%TO.P,R2,2*%
%TO.N,/EN*%
X140100000Y-90610000D03*
%TD*%
D15*
%TO.P,R13,1*%
%TO.N,/ISET*%
X168150000Y-120487500D03*
%TO.P,R13,2*%
%TO.N,GND*%
X170150000Y-120487500D03*
%TD*%
D17*
%TO.P,L1,1,1_1*%
%TO.N,Net-(U6-L2)*%
X188450000Y-106425000D03*
%TO.P,L1,2,2_2*%
%TO.N,Net-(U6-L1)*%
X188450000Y-111875000D03*
%TD*%
D16*
%TO.P,R26,1*%
%TO.N,+3.3V*%
X129875000Y-109650000D03*
%TO.P,R26,2*%
%TO.N,/DAT1*%
X131700000Y-109650000D03*
%TD*%
D34*
%TO.P,C11,1*%
%TO.N,Net-(JP1-B)*%
X207487500Y-112400000D03*
%TO.P,C11,2*%
%TO.N,GND*%
X205412500Y-112400000D03*
%TD*%
D35*
%TO.P,U5,1,TS_1*%
%TO.N,/TS*%
X168400000Y-115175000D03*
%TO.P,U5,2,BAT_2*%
%TO.N,+BATT*%
X168900000Y-115175000D03*
%TO.P,U5,3,BAT_3*%
X169400000Y-115175000D03*
%TO.P,U5,4,~{CE}_4*%
%TO.N,GND*%
X169900000Y-115175000D03*
D36*
%TO.P,U5,5,EN2_5*%
%TO.N,VDD*%
X170587500Y-114487500D03*
%TO.P,U5,6,EN1_6*%
%TO.N,GND*%
X170587500Y-113987500D03*
%TO.P,U5,7,~{PGOOD}_7*%
%TO.N,/~{PGOOD}*%
X170587500Y-113487500D03*
%TO.P,U5,8,VSS_8*%
%TO.N,GND*%
X170587500Y-112987500D03*
D35*
%TO.P,U5,9,~{CHG}_9*%
%TO.N,/~{CHG}*%
X169900000Y-112300000D03*
%TO.P,U5,10,OUT_10*%
%TO.N,VDD*%
X169400000Y-112300000D03*
%TO.P,U5,11,OUT_11*%
X168900000Y-112300000D03*
%TO.P,U5,12,ILIM_12*%
%TO.N,/ILIM*%
X168400000Y-112300000D03*
D36*
%TO.P,U5,13,IN_13*%
%TO.N,VBUS*%
X167712500Y-112987500D03*
%TO.P,U5,14,TMR_14*%
%TO.N,/TMR*%
X167712500Y-113487500D03*
%TO.P,U5,15,SYSOFF_15*%
%TO.N,GND*%
X167712500Y-113987500D03*
%TO.P,U5,16,ISET_16*%
%TO.N,/ISET*%
X167712500Y-114487500D03*
D37*
%TO.P,U5,17,VSS_17*%
%TO.N,GND*%
X169150000Y-113737500D03*
%TD*%
D38*
%TO.P,D5,1,K_1*%
%TO.N,GND*%
X150700000Y-93697500D03*
%TO.P,D5,2,A_2*%
%TO.N,Net-(D5-A)*%
X150700000Y-90722500D03*
%TD*%
D14*
%TO.P,R30,1*%
%TO.N,GND*%
X167100000Y-140500000D03*
%TO.P,R30,2*%
%TO.N,Net-(R30-Pad2)*%
X167100000Y-138500000D03*
%TD*%
D33*
%TO.P,R11,1*%
%TO.N,Net-(Q1-B)*%
X191100000Y-87300000D03*
%TO.P,R11,2*%
%TO.N,/DTR*%
X189100000Y-87300000D03*
%TD*%
D21*
%TO.P,C4,1*%
%TO.N,VBUS*%
X162650000Y-112450000D03*
%TO.P,C4,2*%
%TO.N,GND*%
X162650000Y-114525000D03*
%TD*%
D39*
%TO.P,R10,1*%
%TO.N,+3.3V*%
X160062500Y-127250000D03*
%TO.P,R10,2*%
%TO.N,/SCL*%
X158237500Y-127250000D03*
%TD*%
D33*
%TO.P,R4,1*%
%TO.N,+3.3V*%
X142937500Y-83170000D03*
%TO.P,R4,2*%
%TO.N,/IO0*%
X140937500Y-83170000D03*
%TD*%
D34*
%TO.P,C15,1*%
%TO.N,Net-(JP2-B)*%
X212437500Y-130480000D03*
%TO.P,C15,2*%
%TO.N,GND*%
X210362500Y-130480000D03*
%TD*%
D19*
%TO.P,C12,1*%
%TO.N,+3.3V*%
X197662500Y-101400000D03*
%TO.P,C12,2*%
%TO.N,GND*%
X199737500Y-101400000D03*
%TD*%
D33*
%TO.P,R5,1*%
%TO.N,GND*%
X216800000Y-94550000D03*
%TO.P,R5,2*%
%TO.N,Net-(J1-CC1)*%
X214800000Y-94550000D03*
%TD*%
D40*
%TO.P,C23,1*%
%TO.N,Net-(U4-V_{DD})*%
X116640000Y-91950000D03*
%TO.P,C23,2*%
%TO.N,GND*%
X116640000Y-90050000D03*
%TD*%
D41*
%TO.P,U3,1,GND_1*%
%TO.N,GND*%
X156950000Y-81590000D03*
%TO.P,U3,2,3V3_2*%
%TO.N,+3.3V*%
X156950000Y-82860000D03*
%TO.P,U3,3,EN_3*%
%TO.N,/EN*%
X156950000Y-84130000D03*
%TO.P,U3,4,IO4_4*%
%TO.N,Net-(U3-IO4)*%
X156950000Y-85400000D03*
%TO.P,U3,5,IO5_5*%
%TO.N,/DAT0*%
X156950000Y-86670000D03*
%TO.P,U3,6,IO6_6*%
%TO.N,/DAT1*%
X156950000Y-87940000D03*
%TO.P,U3,7,IO7_7*%
%TO.N,/DAT2*%
X156950000Y-89210000D03*
%TO.P,U3,8,IO15_8*%
%TO.N,/CLK*%
X156950000Y-90480000D03*
%TO.P,U3,9,IO16_9*%
%TO.N,/CMD*%
X156950000Y-91750000D03*
%TO.P,U3,10,IO17_10*%
%TO.N,/BQ27441_GPOUT*%
X156950000Y-93020000D03*
%TO.P,U3,11,IO18_11*%
%TO.N,/CARD_DETECT*%
X156950000Y-94290000D03*
%TO.P,U3,12,IO8_12*%
%TO.N,/LED_CS*%
X156950000Y-95560000D03*
%TO.P,U3,13,IO19_13*%
%TO.N,unconnected-(U3-IO19-Pad13)*%
X156950000Y-96830000D03*
%TO.P,U3,14,IO20_14*%
%TO.N,unconnected-(U3-IO20-Pad14)*%
X156950000Y-98100000D03*
D42*
%TO.P,U3,15,IO3_15*%
%TO.N,unconnected-(U3-IO3-Pad15)*%
X158715000Y-99350000D03*
%TO.P,U3,16,IO46_16*%
%TO.N,unconnected-(U3-IO46-Pad16)*%
X159985000Y-99350000D03*
%TO.P,U3,17,IO9_17*%
%TO.N,/ADS_DRDY*%
X161255000Y-99350000D03*
%TO.P,U3,18,IO10_18*%
%TO.N,/CS*%
X162525000Y-99350000D03*
%TO.P,U3,19,IO11_19*%
%TO.N,/MOSI*%
X163795000Y-99350000D03*
%TO.P,U3,20,IO12_20*%
%TO.N,/SCK*%
X165065000Y-99350000D03*
%TO.P,U3,21,IO13_21*%
%TO.N,/MISO*%
X166335000Y-99350000D03*
%TO.P,U3,22,IO14_22*%
%TO.N,/DAT3*%
X167605000Y-99350000D03*
%TO.P,U3,23,IO21_23*%
%TO.N,/ANSW*%
X168875000Y-99350000D03*
%TO.P,U3,24,IO47_24*%
%TO.N,unconnected-(U3-IO47-Pad24)*%
X170145000Y-99350000D03*
%TO.P,U3,25,IO48_25*%
%TO.N,unconnected-(U3-IO48-Pad25)*%
X171415000Y-99350000D03*
%TO.P,U3,26,IO45_26*%
%TO.N,unconnected-(U3-IO45-Pad26)*%
X172685000Y-99350000D03*
D41*
%TO.P,U3,27,IO0_27*%
%TO.N,/IO0*%
X174450000Y-98100000D03*
%TO.P,U3,28,IO35_28*%
%TO.N,unconnected-(U3-IO35-Pad28)*%
X174450000Y-96830000D03*
%TO.P,U3,29,IO36_29*%
%TO.N,unconnected-(U3-IO36-Pad29)*%
X174450000Y-95560000D03*
%TO.P,U3,30,IO37_30*%
%TO.N,unconnected-(U3-IO37-Pad30)*%
X174450000Y-94290000D03*
%TO.P,U3,31,IO38_31*%
%TO.N,unconnected-(U3-IO38-Pad31)*%
X174450000Y-93020000D03*
%TO.P,U3,32,IO39_32*%
%TO.N,unconnected-(U3-IO39-Pad32)*%
X174450000Y-91750000D03*
%TO.P,U3,33,IO40_33*%
%TO.N,unconnected-(U3-IO40-Pad33)*%
X174450000Y-90480000D03*
%TO.P,U3,34,IO41_34*%
%TO.N,unconnected-(U3-IO41-Pad34)*%
X174450000Y-89210000D03*
%TO.P,U3,35,IO42_35*%
%TO.N,unconnected-(U3-IO42-Pad35)*%
X174450000Y-87940000D03*
%TO.P,U3,36,RXD0_36*%
%TO.N,/RXD0*%
X174450000Y-86670000D03*
%TO.P,U3,37,TXD0_37*%
%TO.N,/TXD0*%
X174450000Y-85400000D03*
%TO.P,U3,38,IO2_38*%
%TO.N,/SCL*%
X174450000Y-84130000D03*
%TO.P,U3,39,IO1_39*%
%TO.N,/SDA*%
X174450000Y-82860000D03*
%TO.P,U3,40,GND_40*%
%TO.N,GND*%
X174450000Y-81590000D03*
D43*
%TO.P,U3,41,GND_41*%
X162800000Y-88610000D03*
X162800000Y-90010000D03*
X163500000Y-87910000D03*
X163500000Y-89310000D03*
X163500000Y-90710000D03*
X164200000Y-88610000D03*
D44*
X164200000Y-89310000D03*
D43*
X164200000Y-90010000D03*
X164900000Y-87910000D03*
X164900000Y-89310000D03*
X164900000Y-90710000D03*
X165600000Y-88610000D03*
X165600000Y-90010000D03*
%TD*%
D20*
%TO.P,R15,1*%
%TO.N,Net-(D6-A)*%
X175900000Y-115237500D03*
%TO.P,R15,2*%
%TO.N,VDD*%
X175900000Y-117237500D03*
%TD*%
D45*
%TO.P,SW3,1,1_1*%
%TO.N,GND*%
X143275000Y-87585000D03*
X139125000Y-87585000D03*
%TO.P,SW3,2,2_2*%
%TO.N,/IO0*%
X143275000Y-85435000D03*
X139125000Y-85435000D03*
%TD*%
D46*
%TO.P,C22,1*%
%TO.N,+BATT*%
X131967312Y-91824998D03*
%TO.P,C22,2*%
%TO.N,GND*%
X131967312Y-93724998D03*
%TD*%
D47*
%TO.P,U7,1,ADDR_1*%
%TO.N,GND*%
X157065000Y-133050000D03*
%TO.P,U7,2,ALERT/RDY_2*%
%TO.N,/ADS_DRDY*%
X157065000Y-133550000D03*
%TO.P,U7,3,GND_3*%
%TO.N,GND*%
X157065000Y-134050000D03*
%TO.P,U7,4,AIN0_4*%
%TO.N,/AIN0*%
X157065000Y-134550000D03*
%TO.P,U7,5,AIN1_5*%
%TO.N,/AIN1*%
X157065000Y-135050000D03*
%TO.P,U7,6,AIN2_6*%
%TO.N,/AIN2*%
X161365000Y-135050000D03*
%TO.P,U7,7,AIN3_7*%
%TO.N,/AIN3*%
X161365000Y-134550000D03*
%TO.P,U7,8,VDD_8*%
%TO.N,+3.3V*%
X161365000Y-134050000D03*
%TO.P,U7,9,SDA_9*%
%TO.N,/SDA*%
X161365000Y-133550000D03*
%TO.P,U7,10,SCL_10*%
%TO.N,/SCL*%
X161365000Y-133050000D03*
%TD*%
D48*
%TO.P,D4,1,K_1*%
%TO.N,/~{PGOOD}*%
X173650000Y-111212500D03*
%TO.P,D4,2,A_2*%
%TO.N,Net-(D4-A)*%
X173650000Y-113262500D03*
%TD*%
D15*
%TO.P,R17,1*%
%TO.N,VDD*%
X210400000Y-132517314D03*
%TO.P,R17,2*%
%TO.N,Net-(JP2-B)*%
X212400000Y-132517314D03*
%TD*%
D39*
%TO.P,R3,1*%
%TO.N,+3.3V*%
X160062500Y-129500000D03*
%TO.P,R3,2*%
%TO.N,/ADS_DRDY*%
X158237500Y-129500000D03*
%TD*%
D20*
%TO.P,R32,1*%
%TO.N,+3.3V*%
X175300000Y-127400000D03*
%TO.P,R32,2*%
%TO.N,/ANSW*%
X175300000Y-129400000D03*
%TD*%
%TO.P,R31,1*%
%TO.N,Net-(R31-Pad1)*%
X186200000Y-122500000D03*
%TO.P,R31,2*%
%TO.N,GND*%
X186200000Y-124500000D03*
%TD*%
D21*
%TO.P,C26,1*%
%TO.N,/ANSW*%
X175300000Y-132062500D03*
%TO.P,C26,2*%
%TO.N,GND*%
X175300000Y-134137500D03*
%TD*%
D19*
%TO.P,C6,1*%
%TO.N,VDD*%
X168112500Y-107487500D03*
%TO.P,C6,2*%
%TO.N,GND*%
X170187500Y-107487500D03*
%TD*%
D21*
%TO.P,C8,1*%
%TO.N,/IO0*%
X145637500Y-85432500D03*
%TO.P,C8,2*%
%TO.N,GND*%
X145637500Y-87507500D03*
%TD*%
D19*
%TO.P,C13,1*%
%TO.N,+3.3V*%
X197662500Y-103650000D03*
%TO.P,C13,2*%
%TO.N,GND*%
X199737500Y-103650000D03*
%TD*%
D25*
%TO.P,R24,1*%
%TO.N,+3.3V*%
X127900000Y-107737500D03*
%TO.P,R24,2*%
%TO.N,/CARD_DETECT*%
X127900000Y-109562500D03*
%TD*%
D49*
%TO.P,U2,1,GND_1*%
%TO.N,GND*%
X201575000Y-94245000D03*
%TO.P,U2,2,TXD_2*%
%TO.N,/RXD0*%
X201575000Y-92975000D03*
%TO.P,U2,3,RXD_3*%
%TO.N,/TXD0*%
X201575000Y-91705000D03*
%TO.P,U2,4,V3_4*%
%TO.N,+3.3V*%
X201575000Y-90435000D03*
%TO.P,U2,5,UD+_5*%
%TO.N,Net-(U2-UD+)*%
X201575000Y-89165000D03*
%TO.P,U2,6,UD-_6*%
%TO.N,Net-(U2-UD-)*%
X201575000Y-87895000D03*
%TO.P,U2,7,NC_7*%
%TO.N,unconnected-(U2-NC-Pad7)*%
X201575000Y-86625000D03*
%TO.P,U2,8,~{OUT}/~{DTR}_8*%
%TO.N,unconnected-(U2-~{OUT}{slash}~{DTR}-Pad8)*%
X201575000Y-85355000D03*
%TO.P,U2,9,~{CTS}_9*%
%TO.N,unconnected-(U2-~{CTS}-Pad9)*%
X196625000Y-85355000D03*
%TO.P,U2,10,~{DSR}_10*%
%TO.N,unconnected-(U2-~{DSR}-Pad10)*%
X196625000Y-86625000D03*
%TO.P,U2,11,~{RI}_11*%
%TO.N,unconnected-(U2-~{RI}-Pad11)*%
X196625000Y-87895000D03*
%TO.P,U2,12,~{DCD}_12*%
%TO.N,unconnected-(U2-~{DCD}-Pad12)*%
X196625000Y-89165000D03*
%TO.P,U2,13,~{DTR}_13*%
%TO.N,/DTR*%
X196625000Y-90435000D03*
%TO.P,U2,14,~{RTS}_14*%
%TO.N,/RTS*%
X196625000Y-91705000D03*
%TO.P,U2,15,R232_15*%
%TO.N,unconnected-(U2-R232-Pad15)*%
X196625000Y-92975000D03*
%TO.P,U2,16,VCC_16*%
%TO.N,+3.3V*%
X196625000Y-94245000D03*
%TD*%
D10*
%TO.P,C14,1*%
%TO.N,VDD*%
X208400000Y-132517500D03*
%TO.P,C14,2*%
%TO.N,GND*%
X208400000Y-130442500D03*
%TD*%
D50*
%TO.P,R19,1*%
%TO.N,VDD*%
X129890000Y-93662500D03*
%TO.P,R19,2*%
%TO.N,+BATT*%
X129890000Y-91837500D03*
%TD*%
D25*
%TO.P,R21,1*%
%TO.N,+3.3V*%
X120390000Y-83837500D03*
%TO.P,R21,2*%
%TO.N,/SCL*%
X120390000Y-85662500D03*
%TD*%
%TO.P,R18,1*%
%TO.N,+3.3V*%
X162150000Y-127087500D03*
%TO.P,R18,2*%
%TO.N,/SDA*%
X162150000Y-128912500D03*
%TD*%
D51*
%TO.P,U4,1,SDA_1*%
%TO.N,/SDA*%
X120600000Y-90000000D03*
%TO.P,U4,2,SCL_2*%
%TO.N,/SCL*%
X120600000Y-90400000D03*
%TO.P,U4,3,V_{SS}_3*%
%TO.N,GND*%
X120600000Y-90800000D03*
%TO.P,U4,4,NC_4*%
%TO.N,unconnected-(U4-NC-Pad4)*%
X120600000Y-91200000D03*
%TO.P,U4,5,V_{DD}_5*%
%TO.N,Net-(U4-V_{DD})*%
X120600000Y-91600000D03*
%TO.P,U4,6,BAT_6*%
%TO.N,+BATT*%
X120600000Y-92000000D03*
%TO.P,U4,7,SRN_7*%
%TO.N,VDD*%
X124400000Y-92000000D03*
%TO.P,U4,8,SRP_8*%
%TO.N,+BATT*%
X124400000Y-91600000D03*
%TO.P,U4,9,NC_9*%
%TO.N,unconnected-(U4-NC-Pad9)*%
X124400000Y-91200000D03*
%TO.P,U4,10,BIN_10*%
%TO.N,/BIN*%
X124400000Y-90800000D03*
%TO.P,U4,11,NC_11*%
%TO.N,unconnected-(U4-NC-Pad11)*%
X124400000Y-90400000D03*
%TO.P,U4,12,GPOUT_12*%
%TO.N,/BQ27441_GPOUT*%
X124400000Y-90000000D03*
D52*
%TO.P,U4,13,PAD_13*%
%TO.N,GND*%
X121375000Y-89812500D03*
X121375000Y-92187500D03*
D53*
X121525000Y-91000000D03*
X122500000Y-90275000D03*
X122500000Y-91000000D03*
D54*
X122500000Y-91000000D03*
D53*
X122500000Y-91725000D03*
X123475000Y-91000000D03*
D52*
X123625000Y-89812500D03*
X123625000Y-92187500D03*
%TD*%
D16*
%TO.P,R27,1*%
%TO.N,+3.3V*%
X145187500Y-105850000D03*
%TO.P,R27,2*%
%TO.N,/DAT2*%
X147012500Y-105850000D03*
%TD*%
D46*
%TO.P,C24,1*%
%TO.N,+3.3V*%
X142400000Y-109450000D03*
%TO.P,C24,2*%
%TO.N,GND*%
X142400000Y-111350000D03*
%TD*%
D48*
%TO.P,D6,1,K_1*%
%TO.N,/~{CHG}*%
X175900000Y-111212500D03*
%TO.P,D6,2,A_2*%
%TO.N,Net-(D6-A)*%
X175900000Y-113262500D03*
%TD*%
D21*
%TO.P,C7,1*%
%TO.N,/EN*%
X145300000Y-92772500D03*
%TO.P,C7,2*%
%TO.N,GND*%
X145300000Y-94847500D03*
%TD*%
D25*
%TO.P,R20,1*%
%TO.N,+3.3V*%
X122390000Y-83837500D03*
%TO.P,R20,2*%
%TO.N,/SDA*%
X122390000Y-85662500D03*
%TD*%
D55*
%TO.P,U1,1,DIR_1*%
%TO.N,+5V*%
X177797500Y-105670000D03*
%TO.P,U1,2,A0_2*%
%TO.N,/MOSI*%
X178447500Y-105670000D03*
%TO.P,U1,3,A1_3*%
%TO.N,/A1*%
X179097500Y-105670000D03*
%TO.P,U1,4,A2_4*%
%TO.N,/A2*%
X179747500Y-105670000D03*
%TO.P,U1,5,A3_5*%
%TO.N,/A3*%
X180407500Y-105670000D03*
%TO.P,U1,6,A4_6*%
%TO.N,/A4*%
X181057500Y-105670000D03*
%TO.P,U1,7,A5_7*%
%TO.N,/A5*%
X181707500Y-105670000D03*
%TO.P,U1,8,A6_8*%
%TO.N,/A6*%
X182357500Y-105670000D03*
%TO.P,U1,9,A7_9*%
%TO.N,/A7*%
X183007500Y-105670000D03*
%TO.P,U1,10,GND_10*%
%TO.N,GND*%
X183657500Y-105670000D03*
%TO.P,U1,11,B7_11*%
%TO.N,/B7*%
X183657500Y-99930000D03*
%TO.P,U1,12,B6_12*%
%TO.N,/B6*%
X183007500Y-99930000D03*
%TO.P,U1,13,B5_13*%
%TO.N,/B5*%
X182357500Y-99930000D03*
%TO.P,U1,14,B4_14*%
%TO.N,/B4*%
X181707500Y-99930000D03*
%TO.P,U1,15,B3_15*%
%TO.N,/B3*%
X181057500Y-99930000D03*
%TO.P,U1,16,B2_16*%
%TO.N,/B2*%
X180407500Y-99930000D03*
%TO.P,U1,17,B1_17*%
%TO.N,/B1*%
X179747500Y-99930000D03*
%TO.P,U1,18,B0_18*%
%TO.N,/B0*%
X179097500Y-99930000D03*
%TO.P,U1,19,~{OE}_19*%
%TO.N,/LED_CS*%
X178447500Y-99930000D03*
%TO.P,U1,20,VCC_20*%
%TO.N,+5V*%
X177797500Y-99930000D03*
%TD*%
D26*
%TO.P,U6,1,VOUT_1*%
%TO.N,+3.3V*%
X198050000Y-107500000D03*
%TO.P,U6,2,L2_2*%
%TO.N,Net-(U6-L2)*%
X198050000Y-108000000D03*
%TO.P,U6,3,PGND_3*%
%TO.N,GND*%
X198050000Y-108500000D03*
%TO.P,U6,4,L1_4*%
%TO.N,Net-(U6-L1)*%
X198050000Y-109000000D03*
%TO.P,U6,5,VIN_5*%
%TO.N,VDD*%
X198050000Y-109500000D03*
%TO.P,U6,6,EN_6*%
%TO.N,Net-(JP1-C)*%
X200850000Y-109500000D03*
%TO.P,U6,7,PS/SYNC_7*%
%TO.N,Net-(JP1-B)*%
X200850000Y-109000000D03*
%TO.P,U6,8,VINA_8*%
X200850000Y-108500000D03*
%TO.P,U6,9,GND_9*%
%TO.N,GND*%
X200850000Y-108000000D03*
%TO.P,U6,10,FB_10*%
%TO.N,+3.3V*%
X200850000Y-107500000D03*
D27*
%TO.P,U6,11,PGND_11*%
%TO.N,GND*%
X198875000Y-108500000D03*
X199450000Y-107550000D03*
D28*
X199450000Y-108500000D03*
D27*
X199450000Y-109450000D03*
X200025000Y-108500000D03*
%TD*%
D16*
%TO.P,R28,1*%
%TO.N,+3.3V*%
X145175000Y-109450000D03*
%TO.P,R28,2*%
%TO.N,/DAT3*%
X147000000Y-109450000D03*
%TD*%
D22*
%TO.P,JP1,1,A_1*%
%TO.N,GND*%
X206950000Y-106850000D03*
D23*
%TO.P,JP1,2,C_2*%
%TO.N,Net-(JP1-C)*%
X206950000Y-108150000D03*
D24*
%TO.P,JP1,3,B_3*%
%TO.N,Net-(JP1-B)*%
X206950000Y-109450000D03*
%TD*%
D19*
%TO.P,C9,1*%
%TO.N,+3.3V*%
X198062500Y-96900000D03*
%TO.P,C9,2*%
%TO.N,GND*%
X200137500Y-96900000D03*
%TD*%
D50*
%TO.P,R1,1*%
%TO.N,+3.3V*%
X175432500Y-103734000D03*
%TO.P,R1,2*%
%TO.N,/LED_CS*%
X175432500Y-101909000D03*
%TD*%
D56*
%TO.P,Q1,1,B_1*%
%TO.N,Net-(Q1-B)*%
X190900000Y-89800000D03*
%TO.P,Q1,2,E_2*%
%TO.N,/RTS*%
X189000000Y-89800000D03*
%TO.P,Q1,3,C_3*%
%TO.N,/EN*%
X189950000Y-92800000D03*
%TD*%
D45*
%TO.P,SW1,1,1_1*%
%TO.N,GND*%
X143055000Y-94835000D03*
X138905000Y-94835000D03*
%TO.P,SW1,2,2_2*%
%TO.N,/EN*%
X143055000Y-92685000D03*
X138905000Y-92685000D03*
%TD*%
D10*
%TO.P,C20,1*%
%TO.N,+3.3V*%
X188900000Y-84147500D03*
%TO.P,C20,2*%
%TO.N,GND*%
X188900000Y-82072500D03*
%TD*%
D57*
%TO.P,J3,1,Pin_1_1*%
%TO.N,+BATT*%
X160150000Y-109447500D03*
D58*
%TO.P,J3,2,Pin_2_2*%
%TO.N,/TS*%
X160150000Y-111987500D03*
%TO.P,J3,3,Pin_3_3*%
%TO.N,GND*%
X160150000Y-114527500D03*
%TD*%
D59*
%TO.P,SW9,*%
%TO.N,*%
X180420000Y-131010000D03*
X171820000Y-131010000D03*
%TO.P,SW9,1,B_1*%
%TO.N,Net-(R30-Pad2)*%
X167390000Y-133510000D03*
%TO.P,SW9,2,DTA_2*%
%TO.N,/AIN1*%
X167390000Y-131010000D03*
%TO.P,SW9,3,A_3*%
%TO.N,+3.3V*%
X167390000Y-128510000D03*
%TO.P,SW9,4,A_4*%
X173620000Y-122280000D03*
%TO.P,SW9,5,DTA_5*%
%TO.N,/AIN0*%
X176120000Y-122280000D03*
%TO.P,SW9,6,B_6*%
%TO.N,Net-(R31-Pad1)*%
X178620000Y-122280000D03*
D60*
%TO.P,SW9,7,GND_7*%
%TO.N,unconnected-(SW9-GND-Pad7)*%
X182450000Y-126010000D03*
%TO.P,SW9,8,GND_8*%
%TO.N,unconnected-(SW9-GND-Pad8)*%
X182450000Y-136010000D03*
%TO.P,SW9,9,GND_9*%
%TO.N,unconnected-(SW9-GND-Pad9)*%
X169800000Y-136010000D03*
%TO.P,SW9,10,GND_10*%
%TO.N,unconnected-(SW9-GND-Pad10)*%
X169800000Y-126010000D03*
D61*
%TO.P,SW9,a,a_a*%
%TO.N,unconnected-(SW9-Pada)*%
X179640000Y-136800000D03*
%TO.P,SW9,b,b_b*%
%TO.N,unconnected-(SW9-Padb)*%
X179640000Y-141300000D03*
%TO.P,SW9,c,c_c*%
%TO.N,/ANSW*%
X172640000Y-136800000D03*
%TO.P,SW9,d,d_d*%
%TO.N,GND*%
X172640000Y-141300000D03*
%TD*%
D57*
%TO.P,J2,1,Pin_1_1*%
%TO.N,+BATT*%
X120100000Y-96750000D03*
D58*
%TO.P,J2,2,Pin_2_2*%
%TO.N,unconnected-(J2-Pin_2-Pad2)*%
X122640000Y-96750000D03*
%TO.P,J2,3,Pin_3_3*%
%TO.N,GND*%
X125180000Y-96750000D03*
%TD*%
D62*
%TO.N,*%
X110300000Y-143500000D03*
X110300000Y-81850000D03*
X220300000Y-81850000D03*
X220300000Y-143500000D03*
D63*
%TO.N,+3.3V*%
X172700000Y-103200000D03*
X141300000Y-105150000D03*
X180800000Y-111400000D03*
X125400000Y-83700000D03*
X126600000Y-104950000D03*
X194500000Y-102100000D03*
X139300000Y-109950000D03*
%TO.N,GND*%
X134400000Y-103100000D03*
X206650000Y-98450000D03*
X119000000Y-102000000D03*
X179200000Y-93700000D03*
X137490000Y-90600000D03*
X117090000Y-94205000D03*
X192400000Y-81850000D03*
%TO.N,/DAT3*%
X155884326Y-103684326D03*
X162900000Y-104700000D03*
%TO.N,/CMD*%
X153000000Y-101300000D03*
X139000000Y-97800000D03*
%TO.N,/CLK*%
X153900000Y-98700000D03*
X141000000Y-96700000D03*
%TO.N,/DAT0*%
X130900000Y-98850000D03*
X148600000Y-95500000D03*
%TO.N,/DAT1*%
X128699997Y-98850000D03*
X146300000Y-96800000D03*
%TO.N,/DAT2*%
X143500000Y-96900000D03*
X149500000Y-105400000D03*
%TO.N,VDD*%
X120800000Y-100000000D03*
X198500000Y-132500000D03*
X173900000Y-108937500D03*
X195800000Y-116400000D03*
X172900000Y-119737500D03*
%TO.N,+5V*%
X188700000Y-99300000D03*
%TO.N,+BATT*%
X128640000Y-95450000D03*
X134890000Y-91500000D03*
X169900000Y-118237500D03*
X163650000Y-118237500D03*
%TO.N,VBUS*%
X164800000Y-108600000D03*
X206850000Y-101500000D03*
%TO.N,Net-(U2-UD+)*%
X210850000Y-99700000D03*
X195650000Y-82500000D03*
%TO.N,Net-(U2-UD-)*%
X213750000Y-99050000D03*
X199650000Y-82950000D03*
%TO.N,/IO0*%
X137100000Y-83100000D03*
X191850000Y-84600000D03*
%TO.N,/EN*%
X136600000Y-94400000D03*
X189900000Y-96700000D03*
%TO.N,/SCL*%
X181100000Y-85255771D03*
X116600000Y-101500000D03*
X115700000Y-87600000D03*
%TO.N,/LED_CS*%
X186100000Y-99100000D03*
X133500000Y-98500000D03*
%TO.N,/ADS_DRDY*%
X155800000Y-109800000D03*
X151900000Y-109300000D03*
%TO.N,/MOSI*%
X173000000Y-106187500D03*
X156200000Y-107300000D03*
%TO.N,/SCK*%
X158600000Y-106400000D03*
%TO.N,/MISO*%
X161100000Y-106500000D03*
%TO.N,/ANSW*%
X166000000Y-103700000D03*
X182514046Y-114347833D03*
%TO.N,/RXD0*%
X182000000Y-89600000D03*
X206100000Y-93200000D03*
%TO.N,/TXD0*%
X182069239Y-87230761D03*
X204900000Y-91100000D03*
%TO.N,/SDA*%
X116300000Y-84900000D03*
X181700000Y-82900000D03*
X161600000Y-121800000D03*
%TO.N,/AIN0*%
X182100000Y-118700000D03*
X163900000Y-137600000D03*
%TO.N,/B0*%
X179600000Y-96800000D03*
%TD*%
%TO.N,+3.3V*%
D64*
X124615000Y-83700000D02*
X125400000Y-83700000D01*
X163100000Y-134050000D02*
X163400000Y-133750000D01*
X145175000Y-109450000D02*
X142400000Y-109450000D01*
D65*
X168900000Y-122700000D02*
X173200000Y-122700000D01*
D64*
X202200000Y-99900000D02*
X198000000Y-99900000D01*
X129890000Y-88087500D02*
X131890000Y-88087500D01*
X196450000Y-103650000D02*
X197662500Y-103650000D01*
X142100000Y-89400000D02*
X142100000Y-90610000D01*
X186737500Y-84210000D02*
X186800000Y-84147500D01*
X186800000Y-84147500D02*
X188900000Y-84147500D01*
X142400000Y-109450000D02*
X140700000Y-109450000D01*
X125140000Y-87750000D02*
X125140000Y-84500000D01*
X163400000Y-133750000D02*
X163400000Y-127750000D01*
X155500000Y-115468871D02*
X155500000Y-112000000D01*
X202950000Y-100650000D02*
X202200000Y-99900000D01*
X129875000Y-109650000D02*
X129875000Y-107550000D01*
X154100000Y-106900000D02*
X150700000Y-103500000D01*
X159100000Y-116800000D02*
X156831129Y-116800000D01*
D65*
X167390000Y-127100000D02*
X166700000Y-127100000D01*
D64*
X142950000Y-103500000D02*
X141300000Y-105150000D01*
X159900000Y-135750000D02*
X159900000Y-134250000D01*
X164896815Y-120300000D02*
X166148407Y-121551593D01*
X194500000Y-102100000D02*
X195200000Y-101400000D01*
X127900000Y-106250000D02*
X127900000Y-107737500D01*
X126600000Y-104950000D02*
X127900000Y-106250000D01*
X198450000Y-85050000D02*
X197700000Y-84300000D01*
X147500000Y-83060000D02*
X147300000Y-82860000D01*
X128087500Y-107550000D02*
X127900000Y-107737500D01*
X125477500Y-88087500D02*
X125140000Y-87750000D01*
X139700000Y-109950000D02*
X139300000Y-109950000D01*
X160225000Y-127087500D02*
X160062500Y-127250000D01*
D65*
X167390000Y-127100000D02*
X167390000Y-124210000D01*
D64*
X197555000Y-94245000D02*
X196625000Y-94245000D01*
X198000000Y-99900000D02*
X197950000Y-99900000D01*
D65*
X166700000Y-127100000D02*
X166687500Y-127087500D01*
D64*
X150700000Y-103500000D02*
X142950000Y-103500000D01*
X136900000Y-88900000D02*
X141600000Y-88900000D01*
X198062500Y-99837500D02*
X198000000Y-99900000D01*
X175432500Y-103734000D02*
X173234000Y-103734000D01*
X198062500Y-96900000D02*
X198062500Y-94989145D01*
D65*
X167390000Y-124210000D02*
X168900000Y-122700000D01*
D64*
X160062500Y-129500000D02*
X160062500Y-127250000D01*
X160062500Y-127250000D02*
X160062500Y-120300000D01*
D65*
X173620000Y-122280000D02*
X173620000Y-124120000D01*
D64*
X143247500Y-82860000D02*
X142937500Y-83170000D01*
X139950000Y-110200000D02*
X139700000Y-109950000D01*
X195200000Y-101400000D02*
X197662500Y-101400000D01*
X162737500Y-127087500D02*
X162150000Y-127087500D01*
X155500000Y-112000000D02*
X154100000Y-110600000D01*
X131890000Y-88087500D02*
X136087500Y-88087500D01*
X142000000Y-105850000D02*
X141300000Y-105150000D01*
X124477500Y-83837500D02*
X122390000Y-83837500D01*
X139475000Y-110675000D02*
X139950000Y-110200000D01*
X125140000Y-84500000D02*
X124477500Y-83837500D01*
X147300000Y-82860000D02*
X143247500Y-82860000D01*
X197662500Y-100187500D02*
X197662500Y-101400000D01*
X199000000Y-91200000D02*
X199000000Y-92800000D01*
D65*
X173620000Y-124120000D02*
X175300000Y-125800000D01*
D64*
X120390000Y-83837500D02*
X122390000Y-83837500D01*
X189747500Y-83300000D02*
X188900000Y-84147500D01*
X197662500Y-103650000D02*
X197662500Y-101400000D01*
X197950000Y-99900000D02*
X197662500Y-100187500D01*
X160350000Y-136200000D02*
X159900000Y-135750000D01*
X198062500Y-96900000D02*
X198062500Y-99837500D01*
X167296815Y-122700000D02*
X168900000Y-122700000D01*
X173234000Y-103734000D02*
X172700000Y-103200000D01*
X201575000Y-90435000D02*
X199765000Y-90435000D01*
X163400000Y-127750000D02*
X162737500Y-127087500D01*
X139475000Y-114625000D02*
X139475000Y-110675000D01*
X160062500Y-120300000D02*
X160062500Y-117762500D01*
X198450000Y-88284999D02*
X198450000Y-85050000D01*
X197700000Y-84300000D02*
X194300000Y-84300000D01*
X180800000Y-115100000D02*
X180800000Y-111400000D01*
X142100000Y-90610000D02*
X146590000Y-90610000D01*
X136087500Y-88087500D02*
X136900000Y-88900000D01*
X195950000Y-104150000D02*
X196450000Y-103650000D01*
X199000000Y-92800000D02*
X197555000Y-94245000D01*
X197318355Y-94245000D02*
X196625000Y-94245000D01*
X147500000Y-89700000D02*
X147500000Y-83060000D01*
X160350000Y-137250000D02*
X160350000Y-136200000D01*
X161365000Y-134050000D02*
X163100000Y-134050000D01*
X124477500Y-83837500D02*
X124615000Y-83700000D01*
X198062500Y-94989145D02*
X197318355Y-94245000D01*
X202950000Y-106900000D02*
X202950000Y-100650000D01*
X160100000Y-134050000D02*
X161365000Y-134050000D01*
X202330000Y-107520000D02*
X202950000Y-106900000D01*
X184680000Y-84210000D02*
X186737500Y-84210000D01*
X166148407Y-121551593D02*
X167296815Y-122700000D01*
X145187500Y-105850000D02*
X142000000Y-105850000D01*
D65*
X167390000Y-128510000D02*
X167390000Y-127100000D01*
D64*
X129875000Y-107550000D02*
X128087500Y-107550000D01*
D65*
X173200000Y-122700000D02*
X173620000Y-122280000D01*
D64*
X146590000Y-90610000D02*
X147500000Y-89700000D01*
X154100000Y-110600000D02*
X154100000Y-106900000D01*
X199765000Y-90435000D02*
X199000000Y-91200000D01*
X139950000Y-110200000D02*
X140700000Y-109450000D01*
X156831129Y-116800000D02*
X155500000Y-115468871D01*
X173620000Y-122280000D02*
X180800000Y-115100000D01*
X156950000Y-82860000D02*
X147300000Y-82860000D01*
X160062500Y-117762500D02*
X159100000Y-116800000D01*
D65*
X166687500Y-127087500D02*
X162150000Y-127087500D01*
D64*
X195950000Y-107150000D02*
X195950000Y-104150000D01*
X141600000Y-88900000D02*
X142100000Y-89400000D01*
X160062500Y-120300000D02*
X164896815Y-120300000D01*
X200600001Y-90435000D02*
X198450000Y-88284999D01*
X198050000Y-107520000D02*
X196320000Y-107520000D01*
D65*
X175300000Y-125800000D02*
X175300000Y-127400000D01*
D64*
X196320000Y-107520000D02*
X195950000Y-107150000D01*
X193300000Y-83300000D02*
X189747500Y-83300000D01*
X201575000Y-90435000D02*
X200600001Y-90435000D01*
X200850000Y-107520000D02*
X202330000Y-107520000D01*
X194300000Y-84300000D02*
X193300000Y-83300000D01*
X129890000Y-88087500D02*
X125477500Y-88087500D01*
X159900000Y-134250000D02*
X160100000Y-134050000D01*
%TO.N,GND*%
D65*
X167100000Y-140500000D02*
X171840000Y-140500000D01*
D64*
X135582843Y-95917157D02*
X134800000Y-95134314D01*
X114890000Y-93000000D02*
X114890000Y-90250000D01*
X208650000Y-106850000D02*
X206950000Y-106850000D01*
X117390000Y-94500000D02*
X116640000Y-93750000D01*
X118900000Y-98250000D02*
X118390000Y-98250000D01*
X116640000Y-93750000D02*
X115640000Y-93750000D01*
X143275000Y-87585000D02*
X139125000Y-87585000D01*
X204830000Y-108020000D02*
X206000000Y-106850000D01*
X184680000Y-82135000D02*
X186737500Y-82135000D01*
X173065256Y-116237500D02*
X176650000Y-116237500D01*
X158650000Y-135750000D02*
X158650000Y-134250000D01*
X162647500Y-114527500D02*
X162650000Y-114525000D01*
X209650000Y-95450000D02*
X206650000Y-98450000D01*
X141975000Y-114625000D02*
X141975000Y-116175000D01*
X141975000Y-114625000D02*
X141975000Y-111775000D01*
X136921321Y-95917157D02*
X135582843Y-95917157D01*
D65*
X180662500Y-134137500D02*
X186200000Y-128600000D01*
D64*
X119000000Y-98350000D02*
X118900000Y-98250000D01*
X170587500Y-112987500D02*
X170537500Y-113037500D01*
X209900000Y-87680000D02*
X209850000Y-87630000D01*
X171400000Y-117237500D02*
X170900000Y-116737500D01*
X206000000Y-106850000D02*
X206950000Y-106850000D01*
X208437500Y-130480000D02*
X208400000Y-130442500D01*
X143352500Y-87507500D02*
X143275000Y-87585000D01*
X125180000Y-96750000D02*
X131140000Y-96750000D01*
X189122500Y-81850000D02*
X188900000Y-82072500D01*
X119000000Y-102000000D02*
X119000000Y-98350000D01*
X188400000Y-124100000D02*
X188400000Y-118465686D01*
X158650000Y-134250000D02*
X158450000Y-134050000D01*
X213600000Y-101900000D02*
X208650000Y-106850000D01*
X157065000Y-133050000D02*
X155600000Y-133050000D01*
X134475000Y-103175000D02*
X134400000Y-103100000D01*
X204400000Y-129980000D02*
X204400000Y-127550000D01*
X209780000Y-126100000D02*
X210950000Y-124930000D01*
X134475000Y-105100000D02*
X134475000Y-103175000D01*
X158450000Y-134050000D02*
X157065000Y-134050000D01*
X115090000Y-90050000D02*
X113900000Y-88860000D01*
X216250000Y-93300000D02*
X216800000Y-93850000D01*
X158450000Y-135950000D02*
X158650000Y-135750000D01*
X200850000Y-108020000D02*
X199950000Y-108020000D01*
X125180000Y-97460000D02*
X124390000Y-98250000D01*
X134475000Y-114625000D02*
X134475000Y-105100000D01*
X204000000Y-100762500D02*
X204000000Y-103900000D01*
X205155001Y-94800000D02*
X204600001Y-94245000D01*
X186800000Y-82072500D02*
X188900000Y-82072500D01*
X199737500Y-101400000D02*
X199737500Y-103650000D01*
X183562500Y-109487500D02*
X183650000Y-109400000D01*
X170537500Y-113037500D02*
X169850000Y-113037500D01*
X138003478Y-94835000D02*
X136921321Y-95917157D01*
X167100000Y-140500000D02*
X152100000Y-140500000D01*
X176650000Y-116237500D02*
X177150000Y-115737500D01*
X116640000Y-90050000D02*
X117840000Y-90050000D01*
X170587500Y-113987500D02*
X172150000Y-113987500D01*
X216250000Y-87630000D02*
X216250000Y-93300000D01*
X210400000Y-108600000D02*
X210400000Y-123430000D01*
X115640000Y-93750000D02*
X114890000Y-93000000D01*
X204900000Y-126100000D02*
X204400000Y-126600000D01*
X124390000Y-98250000D02*
X118900000Y-98250000D01*
X171400000Y-120237500D02*
X171400000Y-117237500D01*
X120600000Y-90800000D02*
X122300000Y-90800000D01*
X155600000Y-133050000D02*
X155400000Y-133250000D01*
X143055000Y-94835000D02*
X145287500Y-94835000D01*
X167712500Y-113987500D02*
X165650000Y-113987500D01*
X184680000Y-82135000D02*
X183300000Y-83515000D01*
X169850000Y-115125000D02*
X169850000Y-114437500D01*
X131140000Y-96750000D02*
X131967312Y-95922688D01*
X114890000Y-90250000D02*
X115090000Y-90050000D01*
X118390000Y-98250000D02*
X117390000Y-97250000D01*
X183800000Y-86800000D02*
X183800000Y-91900000D01*
X183300000Y-86300000D02*
X183800000Y-86800000D01*
X148202500Y-93697500D02*
X147052500Y-94847500D01*
X183650000Y-113715686D02*
X183650000Y-108350000D01*
X206650000Y-98450000D02*
X205155001Y-96955001D01*
X183935000Y-82135000D02*
X184680000Y-82135000D01*
X199450000Y-111900000D02*
X199450000Y-109470000D01*
X210362500Y-130480000D02*
X208437500Y-130480000D01*
X116210000Y-81590000D02*
X135610000Y-81590000D01*
D65*
X211900000Y-124930000D02*
X213930000Y-124930000D01*
D64*
X134800000Y-93994164D02*
X137490000Y-91304163D01*
X188400000Y-118465686D02*
X183650000Y-113715686D01*
X134475000Y-116025000D02*
X134475000Y-114625000D01*
X122300000Y-90800000D02*
X122500000Y-91000000D01*
X209850000Y-94400000D02*
X209650000Y-94600000D01*
X117840000Y-90050000D02*
X118590000Y-90800000D01*
X199450000Y-103937500D02*
X199450000Y-107570000D01*
X183657500Y-108342500D02*
X183657500Y-105670000D01*
X205412500Y-112400000D02*
X203487500Y-112400000D01*
X155450000Y-134050000D02*
X155400000Y-134000000D01*
X170150000Y-120487500D02*
X171150000Y-120487500D01*
X205155001Y-96955001D02*
X205155001Y-94800000D01*
X135610000Y-81590000D02*
X156950000Y-81590000D01*
X172550000Y-114387500D02*
X172550000Y-115722244D01*
D65*
X192700000Y-135100000D02*
X186200000Y-128600000D01*
D64*
X203450000Y-112362500D02*
X199912500Y-112362500D01*
X157650000Y-114525000D02*
X160147500Y-114525000D01*
X134800000Y-85700000D02*
X134800000Y-81590000D01*
D65*
X214700000Y-125700000D02*
X214700000Y-133311371D01*
D64*
X183390000Y-81590000D02*
X183935000Y-82135000D01*
D65*
X186200000Y-128600000D02*
X186200000Y-124500000D01*
D64*
X208400000Y-130442500D02*
X204862500Y-130442500D01*
X134800000Y-95134314D02*
X134800000Y-93994164D01*
X183650000Y-109400000D02*
X183650000Y-108350000D01*
X138905000Y-94835000D02*
X143055000Y-94835000D01*
X165112500Y-114525000D02*
X162650000Y-114525000D01*
X170150000Y-105237500D02*
X170150000Y-102987500D01*
X118590000Y-90800000D02*
X120600000Y-90800000D01*
X131967312Y-95922688D02*
X131967312Y-93724998D01*
X204862500Y-130442500D02*
X204400000Y-129980000D01*
X208650000Y-106850000D02*
X210400000Y-108600000D01*
X200850000Y-108020000D02*
X204830000Y-108020000D01*
X160147500Y-114525000D02*
X160150000Y-114527500D01*
X170900000Y-116737500D02*
X170080133Y-116737500D01*
X125180000Y-96750000D02*
X125180000Y-97460000D01*
X182000000Y-93700000D02*
X179200000Y-93700000D01*
X167712500Y-113987500D02*
X168900000Y-113987500D01*
X169400000Y-113987500D02*
X169150000Y-113737500D01*
X115090000Y-90050000D02*
X116640000Y-90050000D01*
X209850000Y-87630000D02*
X209850000Y-94400000D01*
X156950000Y-81590000D02*
X174450000Y-81590000D01*
X151600000Y-134900000D02*
X153450000Y-133050000D01*
X199950000Y-108020000D02*
X199450000Y-108520000D01*
X204600001Y-94245000D02*
X201575000Y-94245000D01*
X177150000Y-115737500D02*
X177150000Y-109487500D01*
X165650000Y-113987500D02*
X165112500Y-114525000D01*
X186737500Y-82135000D02*
X186800000Y-82072500D01*
X172150000Y-113987500D02*
X172550000Y-114387500D01*
X175150000Y-107487500D02*
X170187500Y-107487500D01*
X204687500Y-121730000D02*
X204400000Y-122017500D01*
X169850000Y-113037500D02*
X169150000Y-113737500D01*
X113900000Y-88860000D02*
X113900000Y-83900000D01*
X186200000Y-124500000D02*
X188000000Y-124500000D01*
X216800000Y-93850000D02*
X216800000Y-94550000D01*
X152100000Y-140500000D02*
X151600000Y-140000000D01*
X169900000Y-116557367D02*
X169900000Y-115175000D01*
X183650000Y-108350000D02*
X183657500Y-108342500D01*
D65*
X175300000Y-134137500D02*
X180662500Y-134137500D01*
D64*
X170187500Y-105275000D02*
X170150000Y-105237500D01*
X150700000Y-93697500D02*
X148202500Y-93697500D01*
X138905000Y-94835000D02*
X138003478Y-94835000D01*
X157065000Y-134050000D02*
X155450000Y-134050000D01*
X169900000Y-115175000D02*
X169850000Y-115125000D01*
X198050000Y-108520000D02*
X199450000Y-108520000D01*
X158450000Y-137250000D02*
X158450000Y-135950000D01*
X177150000Y-109487500D02*
X183562500Y-109487500D01*
X205800000Y-126100000D02*
X204900000Y-126100000D01*
X134900000Y-116450000D02*
X134475000Y-116025000D01*
X168900000Y-113987500D02*
X169150000Y-113737500D01*
X200137500Y-96900000D02*
X204000000Y-100762500D01*
X188000000Y-124500000D02*
X188400000Y-124100000D01*
X141975000Y-111775000D02*
X142400000Y-111350000D01*
X210400000Y-123430000D02*
X211900000Y-124930000D01*
X170080133Y-116737500D02*
X169900000Y-116557367D01*
X183800000Y-91900000D02*
X182000000Y-93700000D01*
X151600000Y-140000000D02*
X151600000Y-134900000D01*
D65*
X213930000Y-124930000D02*
X214700000Y-125700000D01*
X212911371Y-135100000D02*
X192700000Y-135100000D01*
D64*
X204400000Y-122017500D02*
X204400000Y-125650000D01*
X204687500Y-119480000D02*
X204687500Y-121730000D01*
X199737500Y-103650000D02*
X199450000Y-103937500D01*
X177150000Y-109487500D02*
X175150000Y-107487500D01*
X170587500Y-113987500D02*
X169400000Y-113987500D01*
X200137500Y-96900000D02*
X200137500Y-95682500D01*
X147052500Y-94847500D02*
X145300000Y-94847500D01*
X205800000Y-126100000D02*
X209780000Y-126100000D01*
X216800000Y-98700000D02*
X213600000Y-101900000D01*
D65*
X171840000Y-140500000D02*
X172640000Y-141300000D01*
X175300000Y-134137500D02*
X175300000Y-138640000D01*
D64*
X113900000Y-83900000D02*
X116210000Y-81590000D01*
X155400000Y-133250000D02*
X155400000Y-134000000D01*
X183300000Y-83515000D02*
X183300000Y-86300000D01*
X153450000Y-133050000D02*
X155600000Y-133050000D01*
X136685000Y-87585000D02*
X134800000Y-85700000D01*
X169850000Y-114437500D02*
X169150000Y-113737500D01*
X203000000Y-126600000D02*
X204400000Y-126600000D01*
X192400000Y-81850000D02*
X189122500Y-81850000D01*
X139125000Y-87585000D02*
X136685000Y-87585000D01*
X170187500Y-107487500D02*
X170187500Y-105275000D01*
X137490000Y-91304163D02*
X137490000Y-90600000D01*
X160150000Y-114527500D02*
X162647500Y-114527500D01*
D65*
X214700000Y-133311371D02*
X212911371Y-135100000D01*
X175300000Y-138640000D02*
X172640000Y-141300000D01*
D64*
X204000000Y-103900000D02*
X206950000Y-106850000D01*
X117390000Y-97250000D02*
X117390000Y-94500000D01*
X172550000Y-115722244D02*
X173065256Y-116237500D01*
X210950000Y-124930000D02*
X211900000Y-124930000D01*
X141975000Y-116175000D02*
X141700000Y-116450000D01*
X199912500Y-112362500D02*
X199450000Y-111900000D01*
X174450000Y-81590000D02*
X183390000Y-81590000D01*
X209650000Y-94600000D02*
X209650000Y-95450000D01*
X200137500Y-95682500D02*
X201575000Y-94245000D01*
X145287500Y-94835000D02*
X145300000Y-94847500D01*
X203487500Y-112400000D02*
X203450000Y-112362500D01*
X145637500Y-87507500D02*
X143352500Y-87507500D01*
X141700000Y-116450000D02*
X134900000Y-116450000D01*
X171150000Y-120487500D02*
X171400000Y-120237500D01*
X216800000Y-94550000D02*
X216800000Y-98700000D01*
%TO.N,/DAT3*%
X138265686Y-107250000D02*
X138100000Y-107084314D01*
X147000000Y-109450000D02*
X147000000Y-108384315D01*
X167605000Y-101329314D02*
X167067157Y-101867157D01*
X138100000Y-107084314D02*
X138100000Y-105600000D01*
X145865685Y-107250000D02*
X138265686Y-107250000D01*
X140800000Y-102600000D02*
X138100000Y-105300000D01*
X147000000Y-108384315D02*
X145865685Y-107250000D01*
X138100000Y-105600000D02*
X138100000Y-105550000D01*
X138100000Y-105300000D02*
X138100000Y-105600000D01*
X167067157Y-101867157D02*
X165732843Y-101867157D01*
X155884326Y-103684326D02*
X154800000Y-102600000D01*
X167605000Y-99350000D02*
X167605000Y-101329314D01*
X165732843Y-101867157D02*
X162900000Y-104700000D01*
X147000000Y-114600000D02*
X146975000Y-114625000D01*
X147000000Y-109450000D02*
X147000000Y-114600000D01*
X154800000Y-102600000D02*
X140800000Y-102600000D01*
%TO.N,/CMD*%
X137700000Y-107249999D02*
X137700000Y-105134314D01*
X152100000Y-102200000D02*
X153000000Y-101300000D01*
X153500000Y-92200000D02*
X153950000Y-91750000D01*
X149632486Y-98900000D02*
X153500000Y-95032488D01*
X146000000Y-107950001D02*
X145700000Y-107650000D01*
X144475000Y-114625000D02*
X146000000Y-113100000D01*
X137700000Y-105134314D02*
X140634315Y-102200000D01*
X146000000Y-113100000D02*
X146000000Y-107950001D01*
X139700000Y-97800000D02*
X140800000Y-98900000D01*
X138100000Y-107650000D02*
X137700000Y-107249999D01*
X153500000Y-95032488D02*
X153500000Y-92200000D01*
X145700000Y-107650000D02*
X138100000Y-107650000D01*
X140800000Y-98900000D02*
X149632486Y-98900000D01*
X153950000Y-91750000D02*
X156950000Y-91750000D01*
X140634315Y-102200000D02*
X152100000Y-102200000D01*
X139000000Y-97800000D02*
X139700000Y-97800000D01*
%TO.N,/CLK*%
X142800000Y-98500000D02*
X141000000Y-96700000D01*
X156950000Y-90480000D02*
X153620000Y-90480000D01*
X136975000Y-105293630D02*
X140468630Y-101800000D01*
X153100000Y-91000000D02*
X153100000Y-94866802D01*
X150500000Y-101800000D02*
X153600000Y-98700000D01*
X149466801Y-98500000D02*
X142800000Y-98500000D01*
X140468630Y-101800000D02*
X150500000Y-101800000D01*
X153600000Y-98700000D02*
X153900000Y-98700000D01*
X153100000Y-94866802D02*
X149466801Y-98500000D01*
X136975000Y-114625000D02*
X136975000Y-105293630D01*
X153620000Y-90480000D02*
X153100000Y-91000000D01*
%TO.N,/DAT0*%
X156950000Y-86670000D02*
X152430000Y-86670000D01*
X131700000Y-107550000D02*
X132800000Y-107550000D01*
X131700000Y-101900000D02*
X131700000Y-107550000D01*
X133000000Y-110450000D02*
X132045000Y-111405000D01*
X132800000Y-107550000D02*
X133000000Y-107750000D01*
X133000000Y-107750000D02*
X133000000Y-110450000D01*
X151900000Y-94369744D02*
X150769744Y-95500000D01*
X151900000Y-87200000D02*
X151900000Y-94369744D01*
X130900000Y-101100000D02*
X131700000Y-101900000D01*
X152430000Y-86670000D02*
X151900000Y-87200000D01*
X132045000Y-111405000D02*
X132045000Y-114625000D01*
X130900000Y-98850000D02*
X130900000Y-101100000D01*
X150769744Y-95500000D02*
X148600000Y-95500000D01*
%TO.N,/DAT1*%
X152300000Y-88300000D02*
X152300000Y-94535430D01*
X152300000Y-94535430D02*
X150035430Y-96800000D01*
X150035430Y-96800000D02*
X146300000Y-96800000D01*
X130345000Y-114625000D02*
X130345000Y-111905000D01*
X156950000Y-87940000D02*
X152660000Y-87940000D01*
X130800000Y-104200000D02*
X130800000Y-108750000D01*
X130345000Y-111905000D02*
X131700000Y-110550000D01*
X131700000Y-110550000D02*
X131700000Y-109650000D01*
X152660000Y-87940000D02*
X152300000Y-88300000D01*
X128699997Y-102099997D02*
X130800000Y-104200000D01*
X128699997Y-98850000D02*
X128699997Y-102099997D01*
X130800000Y-108750000D02*
X131700000Y-109650000D01*
%TO.N,/DAT2*%
X147012500Y-105850000D02*
X149050000Y-105850000D01*
X147012500Y-105962500D02*
X149475000Y-108425000D01*
X152700000Y-89700000D02*
X152700000Y-94701116D01*
X149301116Y-98100000D02*
X144700000Y-98100000D01*
X144700000Y-98100000D02*
X143500000Y-96900000D01*
X156950000Y-89210000D02*
X153190000Y-89210000D01*
X147012500Y-105850000D02*
X147012500Y-105962500D01*
X149475000Y-108425000D02*
X149475000Y-114625000D01*
X152700000Y-94701116D02*
X149301116Y-98100000D01*
X153190000Y-89210000D02*
X152700000Y-89700000D01*
X149050000Y-105850000D02*
X149500000Y-105400000D01*
%TO.N,/CARD_DETECT*%
X149963856Y-99700000D02*
X153963860Y-95700000D01*
X136961522Y-99700000D02*
X149963856Y-99700000D01*
X123400000Y-109500000D02*
X122500000Y-108600000D01*
X155373860Y-94290000D02*
X156950000Y-94290000D01*
X153963860Y-95700000D02*
X155373860Y-94290000D01*
X123650000Y-99050000D02*
X125565686Y-99050000D01*
X122500000Y-108600000D02*
X122500000Y-100200000D01*
X127900000Y-110450000D02*
X127900000Y-109562500D01*
X129045000Y-111595000D02*
X127900000Y-110450000D01*
X122500000Y-100200000D02*
X123650000Y-99050000D01*
X127900000Y-109562500D02*
X127837500Y-109500000D01*
X132050000Y-97550000D02*
X132400000Y-97200000D01*
X127837500Y-109500000D02*
X123400000Y-109500000D01*
X129045000Y-114625000D02*
X129045000Y-111595000D01*
X127065686Y-97550000D02*
X132050000Y-97550000D01*
X134461522Y-97200000D02*
X136961522Y-99700000D01*
X132400000Y-97200000D02*
X134461522Y-97200000D01*
X125565686Y-99050000D02*
X127065686Y-97550000D01*
%TO.N,Net-(D5-A)*%
X150600000Y-90622500D02*
X150700000Y-90722500D01*
X150600000Y-87810000D02*
X150600000Y-90622500D01*
%TO.N,Net-(U3-IO4)*%
X156950000Y-85400000D02*
X151010000Y-85400000D01*
X151010000Y-85400000D02*
X150600000Y-85810000D01*
%TO.N,/ILIM*%
X167299541Y-106337959D02*
X167050000Y-106587500D01*
X168150000Y-102987500D02*
X169150000Y-103987500D01*
X167050000Y-108637500D02*
X168400000Y-109987500D01*
X169150000Y-105895998D02*
X168708039Y-106337959D01*
X169150000Y-103987500D02*
X169150000Y-105895998D01*
X168400000Y-109987500D02*
X168400000Y-112300000D01*
X168708039Y-106337959D02*
X167299541Y-106337959D01*
X167050000Y-106587500D02*
X167050000Y-108637500D01*
%TO.N,VDD*%
X173650000Y-117237500D02*
X173650000Y-118987500D01*
X195737500Y-114437500D02*
X195737500Y-116337500D01*
X128052500Y-93662500D02*
X127890000Y-93500000D01*
X203450000Y-114437500D02*
X205449814Y-114437500D01*
X195580000Y-109520000D02*
X194700000Y-110400000D01*
X200687500Y-132517500D02*
X199650000Y-131480000D01*
X210399814Y-132517500D02*
X210400000Y-132517314D01*
X172150000Y-116487500D02*
X172900000Y-117237500D01*
X203450000Y-114437500D02*
X195737500Y-114437500D01*
X203000000Y-127600000D02*
X200530000Y-127600000D01*
X127890000Y-93500000D02*
X127890000Y-92500000D01*
X173900000Y-108937500D02*
X173500000Y-108937500D01*
X200530000Y-127600000D02*
X199650000Y-128480000D01*
X208400000Y-132517500D02*
X210399814Y-132517500D01*
X195737500Y-116337500D02*
X195800000Y-116400000D01*
X198500000Y-132500000D02*
X200670000Y-132500000D01*
X200670000Y-132500000D02*
X200687500Y-132517500D01*
X133600000Y-95000000D02*
X133600000Y-93400000D01*
X168900000Y-110487500D02*
X168900000Y-112300000D01*
X127890000Y-92500000D02*
X127390000Y-92000000D01*
X194700000Y-110400000D02*
X194700000Y-113400000D01*
X168112500Y-108450000D02*
X168900000Y-109237500D01*
X120800000Y-100000000D02*
X120800000Y-99800000D01*
X126900000Y-97150000D02*
X131450000Y-97150000D01*
X131450000Y-97150000D02*
X133600000Y-95000000D01*
X132988084Y-92788084D02*
X130764416Y-92788084D01*
X127390000Y-92000000D02*
X124400000Y-92000000D01*
X133600000Y-93400000D02*
X132988084Y-92788084D01*
X172150000Y-114737500D02*
X172150000Y-116487500D01*
X173350000Y-108787500D02*
X169350000Y-108787500D01*
X121950000Y-98650000D02*
X125400000Y-98650000D01*
X173650000Y-117237500D02*
X175900000Y-117237500D01*
X199650000Y-128480000D02*
X199650000Y-131480000D01*
X168900000Y-109237500D02*
X168900000Y-110487500D01*
X169350000Y-108787500D02*
X168900000Y-109237500D01*
X172900000Y-117237500D02*
X173650000Y-117237500D01*
X170587500Y-114487500D02*
X171900000Y-114487500D01*
X169400000Y-112300000D02*
X169400000Y-110487500D01*
X173650000Y-118987500D02*
X172900000Y-119737500D01*
X169400000Y-110487500D02*
X168900000Y-110487500D01*
X168112500Y-107487500D02*
X168112500Y-108450000D01*
X130764416Y-92788084D02*
X129890000Y-93662500D01*
X205449814Y-114437500D02*
X205450000Y-114437314D01*
X195737500Y-114437500D02*
X194700000Y-113400000D01*
X125400000Y-98650000D02*
X126900000Y-97150000D01*
X120800000Y-99800000D02*
X121950000Y-98650000D01*
X198050000Y-109520000D02*
X195580000Y-109520000D01*
X208400000Y-132517500D02*
X200687500Y-132517500D01*
X173500000Y-108937500D02*
X173350000Y-108787500D01*
X129890000Y-93662500D02*
X128052500Y-93662500D01*
X171900000Y-114487500D02*
X172150000Y-114737500D01*
%TO.N,Net-(U8-L2)*%
X197425000Y-124505000D02*
X193400000Y-124505000D01*
X199020000Y-126100000D02*
X197425000Y-124505000D01*
X203000000Y-126100000D02*
X199020000Y-126100000D01*
%TO.N,Net-(U8-L1)*%
X199030000Y-127100000D02*
X196175000Y-129955000D01*
X203000000Y-127100000D02*
X199030000Y-127100000D01*
X196175000Y-129955000D02*
X193400000Y-129955000D01*
%TO.N,/TMR*%
X162200000Y-110437500D02*
X162200000Y-107500000D01*
X161900000Y-113487500D02*
X161400000Y-112987500D01*
X161400000Y-112987500D02*
X161400000Y-111237500D01*
X164462500Y-105237500D02*
X168150000Y-105237500D01*
X162200000Y-107500000D02*
X164462500Y-105237500D01*
X167712500Y-113487500D02*
X161900000Y-113487500D01*
X161400000Y-111237500D02*
X162200000Y-110437500D01*
%TO.N,Net-(Q2-B)*%
X184900000Y-93100000D02*
X184900000Y-90600000D01*
%TO.N,/RTS*%
X190905000Y-91705000D02*
X189000000Y-89800000D01*
X196625000Y-91705000D02*
X190905000Y-91705000D01*
X189000000Y-91000000D02*
X186900000Y-93100000D01*
X189000000Y-89800000D02*
X189000000Y-91000000D01*
%TO.N,+5V*%
X189980000Y-119480000D02*
X184700000Y-114200000D01*
X207150000Y-117980000D02*
X202900000Y-117980000D01*
X200900000Y-122230000D02*
X201400000Y-121730000D01*
X201270000Y-125600000D02*
X200900000Y-125230000D01*
X188700000Y-100300000D02*
X188700000Y-99300000D01*
X207900000Y-118730000D02*
X207150000Y-117980000D01*
X177797500Y-105670000D02*
X177797500Y-103600000D01*
X184700000Y-104300000D02*
X188700000Y-100300000D01*
X202612500Y-118267500D02*
X202612500Y-119480000D01*
X207900000Y-124980000D02*
X207900000Y-118730000D01*
X177797500Y-103600000D02*
X177797500Y-99930000D01*
X202612500Y-121730000D02*
X202612500Y-119480000D01*
X205800000Y-125600000D02*
X207280000Y-125600000D01*
X202612500Y-119480000D02*
X189980000Y-119480000D01*
X203000000Y-125600000D02*
X201270000Y-125600000D01*
X184000000Y-103600000D02*
X177797500Y-103600000D01*
X184700000Y-104300000D02*
X184000000Y-103600000D01*
X201400000Y-121730000D02*
X202612500Y-121730000D01*
X207280000Y-125600000D02*
X207900000Y-124980000D01*
X200900000Y-125230000D02*
X200900000Y-122230000D01*
X184700000Y-114200000D02*
X184700000Y-104300000D01*
X202900000Y-117980000D02*
X202612500Y-118267500D01*
%TO.N,Net-(D4-A)*%
X173650000Y-115237500D02*
X173650000Y-113262500D01*
%TO.N,+BATT*%
X118390000Y-95040000D02*
X120100000Y-96750000D01*
X124400000Y-91600000D02*
X129652500Y-91600000D01*
X158690000Y-109447500D02*
X160150000Y-109447500D01*
X134890000Y-91500000D02*
X134565002Y-91824998D01*
X156687500Y-112450000D02*
X157650000Y-112450000D01*
X157650000Y-110487500D02*
X158690000Y-109447500D01*
X157650000Y-112450000D02*
X157650000Y-110487500D01*
X168900000Y-115175000D02*
X168900000Y-116487500D01*
X163650000Y-118237500D02*
X163400000Y-118237500D01*
X118390000Y-92500000D02*
X118390000Y-95040000D01*
X134565002Y-91824998D02*
X131967312Y-91824998D01*
X120600000Y-92000000D02*
X118890000Y-92000000D01*
X155900000Y-115303186D02*
X155900000Y-113237500D01*
X128190000Y-95000000D02*
X128640000Y-95450000D01*
X120100000Y-96750000D02*
X121850000Y-95000000D01*
X169400000Y-115175000D02*
X169400000Y-116487500D01*
X129890000Y-91837500D02*
X131954810Y-91837500D01*
X161300000Y-116137500D02*
X156734314Y-116137500D01*
X129652500Y-91600000D02*
X129890000Y-91837500D01*
X118890000Y-92000000D02*
X118390000Y-92500000D01*
X168900000Y-116487500D02*
X169400000Y-116487500D01*
X155900000Y-113237500D02*
X156687500Y-112450000D01*
X156734314Y-116137500D02*
X155900000Y-115303186D01*
X169400000Y-116487500D02*
X169400000Y-117737500D01*
X131954810Y-91837500D02*
X131967312Y-91824998D01*
X169400000Y-117737500D02*
X169900000Y-118237500D01*
X121850000Y-95000000D02*
X128190000Y-95000000D01*
X163400000Y-118237500D02*
X161300000Y-116137500D01*
%TO.N,Net-(JP2-C)*%
X211650000Y-133730000D02*
X213150000Y-133730000D01*
X213900000Y-126730000D02*
X213400000Y-126230000D01*
X213400000Y-126230000D02*
X211900000Y-126230000D01*
X213900000Y-132980000D02*
X213900000Y-126730000D01*
X209520000Y-127600000D02*
X211400000Y-129480000D01*
X213150000Y-133730000D02*
X213900000Y-132980000D01*
X205800000Y-127600000D02*
X209520000Y-127600000D01*
X211400000Y-129480000D02*
X211400000Y-133480000D01*
X211400000Y-133480000D02*
X211650000Y-133730000D01*
%TO.N,Net-(JP2-B)*%
X210200000Y-127530000D02*
X210150000Y-127480000D01*
X211900000Y-128730000D02*
X212437500Y-129267500D01*
X211900000Y-127530000D02*
X210200000Y-127530000D01*
X207520000Y-126600000D02*
X207650000Y-126730000D01*
X210150000Y-127480000D02*
X210150000Y-127470000D01*
X205800000Y-126600000D02*
X207520000Y-126600000D01*
X212437500Y-129267500D02*
X212437500Y-130480000D01*
X210150000Y-127470000D02*
X209780000Y-127100000D01*
X209780000Y-127100000D02*
X207650000Y-127100000D01*
X207650000Y-127100000D02*
X205800000Y-127100000D01*
X207650000Y-126730000D02*
X207650000Y-127100000D01*
X212400000Y-130517500D02*
X212437500Y-130480000D01*
X211900000Y-128730000D02*
X211900000Y-127530000D01*
X212400000Y-132517314D02*
X212400000Y-130517500D01*
%TO.N,Net-(J1-CC2)*%
X211300000Y-87630000D02*
X211300000Y-94250000D01*
X211300000Y-94250000D02*
X211650000Y-94600000D01*
%TO.N,/BIN*%
X131890000Y-89912500D02*
X131002500Y-90800000D01*
X131002500Y-90800000D02*
X124400000Y-90800000D01*
%TO.N,VBUS*%
X210650000Y-97700000D02*
X210650000Y-87630000D01*
X215450000Y-87172590D02*
X215450000Y-87630000D01*
X162650000Y-112450000D02*
X162650000Y-110750000D01*
X211665001Y-86040000D02*
X214317410Y-86040000D01*
X165112500Y-112450000D02*
X162650000Y-112450000D01*
X206850000Y-101500000D02*
X210650000Y-97700000D01*
X210650000Y-87630000D02*
X210650000Y-87055001D01*
X165650000Y-112987500D02*
X165112500Y-112450000D01*
X162650000Y-110750000D02*
X164800000Y-108600000D01*
X210650000Y-87055001D02*
X211665001Y-86040000D01*
X214317410Y-86040000D02*
X215450000Y-87172590D01*
X167712500Y-112987500D02*
X165650000Y-112987500D01*
%TO.N,Net-(J1-CC1)*%
X214800000Y-93900000D02*
X214800000Y-94550000D01*
X214300000Y-93400000D02*
X214800000Y-93900000D01*
X214300000Y-87630000D02*
X214300000Y-93400000D01*
%TO.N,Net-(U2-UD+)*%
X195650000Y-82500000D02*
X196150000Y-83000000D01*
X213050000Y-89540000D02*
X213300000Y-89290000D01*
X198850000Y-84850000D02*
X198850000Y-86785552D01*
X201229448Y-89165000D02*
X201575000Y-89165000D01*
X212300000Y-87630000D02*
X212300000Y-89390000D01*
X212300000Y-89390000D02*
X212450000Y-89540000D01*
X198850000Y-86785552D02*
X201229448Y-89165000D01*
X213300000Y-89290000D02*
X213300000Y-97250000D01*
X213300000Y-97250000D02*
X210850000Y-99700000D01*
X196150000Y-83000000D02*
X197000000Y-83000000D01*
X197000000Y-83000000D02*
X198850000Y-84850000D01*
X212450000Y-89540000D02*
X213050000Y-89540000D01*
X213300000Y-89290000D02*
X213300000Y-87630000D01*
%TO.N,Net-(U2-UD-)*%
X213800000Y-87630000D02*
X213800000Y-99000000D01*
X199650000Y-82950000D02*
X199250000Y-83350000D01*
X213050000Y-86440000D02*
X213750000Y-86440000D01*
X213750000Y-86440000D02*
X213800000Y-86490000D01*
X199250000Y-86544999D02*
X200600001Y-87895000D01*
X199250000Y-83350000D02*
X199250000Y-86544999D01*
X200600001Y-87895000D02*
X201575000Y-87895000D01*
X213800000Y-99000000D02*
X213750000Y-99050000D01*
X212800000Y-86690000D02*
X213050000Y-86440000D01*
X213800000Y-86490000D02*
X213800000Y-87630000D01*
X212800000Y-87630000D02*
X212800000Y-86690000D01*
%TO.N,/DTR*%
X194000000Y-90000000D02*
X194435000Y-90435000D01*
X193400000Y-85900000D02*
X194000000Y-86500000D01*
X194000000Y-86500000D02*
X194000000Y-90000000D01*
X186800000Y-90600000D02*
X186800000Y-89600000D01*
X189100000Y-87300000D02*
X189100000Y-86500000D01*
X186800000Y-89600000D02*
X189100000Y-87300000D01*
X189100000Y-86500000D02*
X189700000Y-85900000D01*
X189700000Y-85900000D02*
X193400000Y-85900000D01*
X194435000Y-90435000D02*
X196625000Y-90435000D01*
%TO.N,/IO0*%
X140800000Y-85435000D02*
X143275000Y-85435000D01*
X143565000Y-85435000D02*
X143567500Y-85432500D01*
X185850000Y-94700000D02*
X185850000Y-87600000D01*
X191500000Y-85500000D02*
X186800000Y-85500000D01*
X186800000Y-85500000D02*
X185850000Y-86450000D01*
X140937500Y-83170000D02*
X137170000Y-83170000D01*
X185850000Y-86450000D02*
X185850000Y-87600000D01*
X178900000Y-95500000D02*
X185050000Y-95500000D01*
X191850000Y-84600000D02*
X191800000Y-84650000D01*
X143567500Y-85432500D02*
X145637500Y-85432500D01*
X185050000Y-95500000D02*
X185850000Y-94700000D01*
X191800000Y-84650000D02*
X191800000Y-85200000D01*
X174450000Y-98100000D02*
X176300000Y-98100000D01*
X137170000Y-83170000D02*
X137100000Y-83100000D01*
X176300000Y-98100000D02*
X178900000Y-95500000D01*
X140937500Y-83170000D02*
X140937500Y-85297500D01*
X143275000Y-85435000D02*
X143565000Y-85435000D01*
X139125000Y-85435000D02*
X140800000Y-85435000D01*
X140937500Y-85297500D02*
X140800000Y-85435000D01*
X191800000Y-85200000D02*
X191500000Y-85500000D01*
%TO.N,/BQ27441_GPOUT*%
X129802500Y-90000000D02*
X129890000Y-89912500D01*
X153900000Y-95198174D02*
X149798171Y-99300000D01*
X130802500Y-89000000D02*
X129890000Y-89912500D01*
X134000000Y-94900000D02*
X134000000Y-93500000D01*
X138400000Y-99300000D02*
X134000000Y-94900000D01*
X149798171Y-99300000D02*
X138400000Y-99300000D01*
X136190000Y-92038478D02*
X136190000Y-90550000D01*
X134700000Y-92800000D02*
X135428478Y-92800000D01*
X124400000Y-90000000D02*
X129802500Y-90000000D01*
X154380000Y-93020000D02*
X153900000Y-93500000D01*
X153900000Y-93500000D02*
X153900000Y-95198174D01*
X156950000Y-93020000D02*
X154380000Y-93020000D01*
X134000000Y-93500000D02*
X134700000Y-92800000D01*
X135428478Y-92800000D02*
X136190000Y-92038478D01*
X134640000Y-89000000D02*
X130802500Y-89000000D01*
X136190000Y-90550000D02*
X134640000Y-89000000D01*
%TO.N,Net-(JP1-B)*%
X202700000Y-108650000D02*
X202700000Y-109020000D01*
X207487500Y-111187500D02*
X207487500Y-112400000D01*
X205200000Y-109400000D02*
X205200000Y-109390000D01*
X202570000Y-108520000D02*
X202700000Y-108650000D01*
X206950000Y-110650000D02*
X207487500Y-111187500D01*
X206950000Y-110650000D02*
X206950000Y-109450000D01*
X204830000Y-109020000D02*
X202700000Y-109020000D01*
X206950000Y-109450000D02*
X205250000Y-109450000D01*
X207450000Y-114437314D02*
X207450000Y-112437500D01*
X200850000Y-108520000D02*
X202570000Y-108520000D01*
X207450000Y-112437500D02*
X207487500Y-112400000D01*
X205200000Y-109390000D02*
X204830000Y-109020000D01*
X202700000Y-109020000D02*
X200850000Y-109020000D01*
X205250000Y-109450000D02*
X205200000Y-109400000D01*
%TO.N,/EN*%
X140000000Y-92685000D02*
X143055000Y-92685000D01*
X189950000Y-92800000D02*
X189950000Y-96650000D01*
X156950000Y-84130000D02*
X149570000Y-84130000D01*
X147900000Y-90900000D02*
X146027500Y-92772500D01*
X143142500Y-92772500D02*
X143055000Y-92685000D01*
X145300000Y-92772500D02*
X143142500Y-92772500D01*
X146027500Y-92772500D02*
X145300000Y-92772500D01*
X149570000Y-84130000D02*
X147900000Y-85800000D01*
X136600000Y-94400000D02*
X136600000Y-93800000D01*
X189950000Y-96650000D02*
X189900000Y-96700000D01*
X140100000Y-92585000D02*
X140000000Y-92685000D01*
X140100000Y-90610000D02*
X140100000Y-92585000D01*
X136600000Y-93800000D02*
X137715000Y-92685000D01*
X138905000Y-92685000D02*
X140000000Y-92685000D01*
X137715000Y-92685000D02*
X138905000Y-92685000D01*
X147900000Y-85800000D02*
X147900000Y-90900000D01*
%TO.N,/ISET*%
X167712500Y-114487500D02*
X165900000Y-114487500D01*
X165900000Y-114487500D02*
X165650000Y-114737500D01*
X165650000Y-114737500D02*
X165650000Y-119921814D01*
X166215686Y-120487500D02*
X168150000Y-120487500D01*
X165650000Y-119921814D02*
X166215686Y-120487500D01*
%TO.N,Net-(U6-L2)*%
X194070000Y-108020000D02*
X192475000Y-106425000D01*
X198050000Y-108020000D02*
X194070000Y-108020000D01*
X192475000Y-106425000D02*
X188450000Y-106425000D01*
%TO.N,Net-(U6-L1)*%
X191225000Y-111875000D02*
X188450000Y-111875000D01*
X198050000Y-109020000D02*
X194080000Y-109020000D01*
X194080000Y-109020000D02*
X191225000Y-111875000D01*
%TO.N,/TS*%
X168400000Y-119020786D02*
X168400000Y-115175000D01*
X158650000Y-113487500D02*
X156900000Y-113487500D01*
X166900000Y-121737500D02*
X168900000Y-121737500D01*
X156900000Y-113487500D02*
X156400000Y-113987500D01*
X156400000Y-113987500D02*
X156400000Y-115237500D01*
X165150000Y-116487500D02*
X165150000Y-119987500D01*
X156900000Y-115737500D02*
X164400000Y-115737500D01*
X168900000Y-121737500D02*
X169150000Y-121487500D01*
X164400000Y-115737500D02*
X165150000Y-116487500D01*
X169150000Y-119770786D02*
X168400000Y-119020786D01*
X165150000Y-119987500D02*
X166900000Y-121737500D01*
X156400000Y-115237500D02*
X156900000Y-115737500D01*
X169150000Y-121487500D02*
X169150000Y-119770786D01*
X160150000Y-111987500D02*
X158650000Y-113487500D01*
%TO.N,/~{PGOOD}*%
X172400000Y-111487500D02*
X172400000Y-113237500D01*
X172675000Y-111212500D02*
X172400000Y-111487500D01*
X173650000Y-111212500D02*
X172675000Y-111212500D01*
X172150000Y-113487500D02*
X170587500Y-113487500D01*
X172400000Y-113237500D02*
X172150000Y-113487500D01*
%TO.N,/~{CHG}*%
X170150000Y-110237500D02*
X175150000Y-110237500D01*
X175900000Y-110987500D02*
X175900000Y-111212500D01*
X175150000Y-110237500D02*
X175900000Y-110987500D01*
X169900000Y-112300000D02*
X169900000Y-110487500D01*
X169900000Y-110487500D02*
X170150000Y-110237500D01*
%TO.N,Net-(R30-Pad2)*%
D65*
X167100000Y-138500000D02*
X167100000Y-133800000D01*
X167100000Y-133800000D02*
X167390000Y-133510000D01*
%TO.N,Net-(Q1-B)*%
D64*
X190900000Y-89700000D02*
X191100000Y-89500000D01*
X191100000Y-89500000D02*
X191100000Y-87300000D01*
X190900000Y-89800000D02*
X190900000Y-89700000D01*
%TO.N,/SCL*%
X152900000Y-127200000D02*
X149500000Y-130600000D01*
X158237500Y-127250000D02*
X158237500Y-127062500D01*
X118727500Y-85662500D02*
X120390000Y-85662500D01*
X149875000Y-111775000D02*
X152900000Y-114800000D01*
X155100000Y-115634556D02*
X155100000Y-112165686D01*
X153700000Y-108700000D02*
X152700000Y-107700000D01*
X153700000Y-110765685D02*
X153700000Y-108700000D01*
X159662500Y-125637500D02*
X159662500Y-117928186D01*
X152900000Y-114800000D02*
X152900000Y-127200000D01*
X155100000Y-112165686D02*
X153700000Y-110765685D01*
X159150000Y-127456250D02*
X158943750Y-127250000D01*
X118140000Y-87900000D02*
X118140000Y-86250000D01*
X118140000Y-89784314D02*
X118140000Y-87900000D01*
X116000000Y-87900000D02*
X115700000Y-87600000D01*
X159067157Y-117332843D02*
X156798287Y-117332843D01*
X118140000Y-87900000D02*
X116000000Y-87900000D01*
X181100000Y-84485667D02*
X180744333Y-84130000D01*
X181100000Y-85255771D02*
X181100000Y-84485667D01*
X120600000Y-90400000D02*
X118755686Y-90400000D01*
X159700000Y-133050000D02*
X159150000Y-132500000D01*
X159662500Y-117928186D02*
X159067157Y-117332843D01*
X118755686Y-90400000D02*
X118140000Y-89784314D01*
X125500000Y-130600000D02*
X121700000Y-126800000D01*
X118140000Y-86250000D02*
X118727500Y-85662500D01*
X161365000Y-133050000D02*
X159700000Y-133050000D01*
X121700000Y-118300000D02*
X116600000Y-113200000D01*
X149500000Y-130600000D02*
X125500000Y-130600000D01*
X149875000Y-108259315D02*
X149875000Y-111775000D01*
X150434315Y-107700000D02*
X149875000Y-108259315D01*
X158237500Y-127062500D02*
X159662500Y-125637500D01*
X156798287Y-117332843D02*
X155100000Y-115634556D01*
X180744333Y-84130000D02*
X174450000Y-84130000D01*
X158943750Y-127250000D02*
X158237500Y-127250000D01*
X121700000Y-126800000D02*
X121700000Y-118300000D01*
X152700000Y-107700000D02*
X150434315Y-107700000D01*
X159150000Y-132500000D02*
X159150000Y-127456250D01*
X116600000Y-113200000D02*
X116600000Y-101500000D01*
%TO.N,Net-(U4-V_{DD})*%
X116990000Y-91600000D02*
X120600000Y-91600000D01*
X116640000Y-91950000D02*
X116990000Y-91600000D01*
%TO.N,/LED_CS*%
X150129541Y-100100000D02*
X135100000Y-100100000D01*
X186100000Y-101500000D02*
X186100000Y-99100000D01*
X154669546Y-95560000D02*
X150129541Y-100100000D01*
X178447500Y-99930000D02*
X178447500Y-98147500D01*
X156950000Y-95560000D02*
X154669546Y-95560000D01*
X178447500Y-99930000D02*
X178447500Y-102047500D01*
X135100000Y-100100000D02*
X133500000Y-98500000D01*
X178200000Y-97900000D02*
X177100000Y-97900000D01*
X177100000Y-97900000D02*
X175432500Y-99567500D01*
X178447500Y-102047500D02*
X179000000Y-102600000D01*
X175432500Y-99567500D02*
X175432500Y-101909000D01*
X179000000Y-102600000D02*
X185000000Y-102600000D01*
X185000000Y-102600000D02*
X186100000Y-101500000D01*
X178447500Y-98147500D02*
X178200000Y-97900000D01*
%TO.N,/ADS_DRDY*%
X154700000Y-112400000D02*
X151900000Y-109600000D01*
X155900000Y-127162500D02*
X155900000Y-117000000D01*
X158237500Y-129500000D02*
X155900000Y-127162500D01*
X161255000Y-99350000D02*
X161255000Y-100152130D01*
X158120187Y-133550000D02*
X157065000Y-133550000D01*
X161255000Y-100152130D02*
X154900000Y-106507130D01*
X158237500Y-129500000D02*
X158237500Y-133432687D01*
X155900000Y-117000000D02*
X154700000Y-115800000D01*
X154700000Y-115800000D02*
X154700000Y-112400000D01*
X154900000Y-106507130D02*
X154900000Y-108900000D01*
X151900000Y-109600000D02*
X151900000Y-109300000D01*
X158237500Y-133432687D02*
X158120187Y-133550000D01*
X154900000Y-108900000D02*
X155800000Y-109800000D01*
%TO.N,/MOSI*%
X160517157Y-103917157D02*
X159244365Y-103917157D01*
X163795000Y-99350000D02*
X163795000Y-100639314D01*
X159244365Y-103917157D02*
X156200000Y-106961522D01*
X173000000Y-106533829D02*
X173307171Y-106841000D01*
X177997151Y-106841000D02*
X178447500Y-106390651D01*
X173307171Y-106841000D02*
X177997151Y-106841000D01*
X163795000Y-100639314D02*
X160517157Y-103917157D01*
X156200000Y-106961522D02*
X156200000Y-107300000D01*
X178447500Y-106390651D02*
X178447500Y-105670000D01*
X173000000Y-106187500D02*
X173000000Y-106533829D01*
%TO.N,/SCK*%
X165065000Y-99350000D02*
X165065000Y-99935000D01*
X165065000Y-99935000D02*
X158600000Y-106400000D01*
%TO.N,/MISO*%
X164294365Y-101467157D02*
X161100000Y-104661522D01*
X166000000Y-101467157D02*
X164294365Y-101467157D01*
X166335000Y-99350000D02*
X166335000Y-101132157D01*
X161100000Y-104661522D02*
X161100000Y-106500000D01*
X166335000Y-101132157D02*
X166000000Y-101467157D01*
%TO.N,/ANSW*%
X168000000Y-101500000D02*
X166000000Y-103500000D01*
X181200000Y-123500000D02*
X175300000Y-129400000D01*
X182514046Y-114347833D02*
X182514046Y-115114046D01*
D65*
X174537500Y-132062500D02*
X175300000Y-132062500D01*
X175300000Y-129400000D02*
X175300000Y-132062500D01*
D64*
X187800000Y-122900000D02*
X187200000Y-123500000D01*
X182514046Y-115114046D02*
X187800000Y-120400000D01*
X166000000Y-103500000D02*
X166000000Y-103700000D01*
X168875000Y-101325000D02*
X168700000Y-101500000D01*
D65*
X172640000Y-133960000D02*
X174537500Y-132062500D01*
D64*
X187800000Y-120400000D02*
X187800000Y-122900000D01*
X187200000Y-123500000D02*
X181200000Y-123500000D01*
X168700000Y-101500000D02*
X168000000Y-101500000D01*
X168875000Y-99350000D02*
X168875000Y-101325000D01*
D65*
X172640000Y-136800000D02*
X172640000Y-133960000D01*
%TO.N,/RXD0*%
D64*
X182000000Y-89000000D02*
X179670000Y-86670000D01*
X205875000Y-92975000D02*
X206100000Y-93200000D01*
X201575000Y-92975000D02*
X205875000Y-92975000D01*
X182000000Y-89600000D02*
X182000000Y-89000000D01*
X179670000Y-86670000D02*
X174450000Y-86670000D01*
%TO.N,/TXD0*%
X203710000Y-91700000D02*
X203705000Y-91705000D01*
X181130761Y-87230761D02*
X179300000Y-85400000D01*
X204300000Y-91700000D02*
X203710000Y-91700000D01*
X204900000Y-91100000D02*
X204300000Y-91700000D01*
X203705000Y-91705000D02*
X201575000Y-91705000D01*
X179300000Y-85400000D02*
X174450000Y-85400000D01*
X182069239Y-87230761D02*
X181130761Y-87230761D01*
%TO.N,/SDA*%
X162850000Y-133550000D02*
X161365000Y-133550000D01*
X118921372Y-90000000D02*
X118540000Y-89618628D01*
X118540000Y-87350000D02*
X118890000Y-87000000D01*
X122390000Y-85500000D02*
X121640000Y-84750000D01*
X162150000Y-128912500D02*
X161000000Y-127762500D01*
X122390000Y-85662500D02*
X122390000Y-85500000D01*
X181294422Y-82860000D02*
X174450000Y-82860000D01*
X181700000Y-82900000D02*
X181334422Y-82900000D01*
X118540000Y-89618628D02*
X118540000Y-87350000D01*
X162150000Y-129900000D02*
X163000000Y-130750000D01*
X163000000Y-133400000D02*
X162850000Y-133550000D01*
X181334422Y-82900000D02*
X181294422Y-82860000D01*
X122140000Y-87000000D02*
X122390000Y-86750000D01*
X162150000Y-128912500D02*
X162150000Y-129900000D01*
X120600000Y-90000000D02*
X118921372Y-90000000D01*
X116450000Y-84750000D02*
X116300000Y-84900000D01*
X161000000Y-127762500D02*
X161000000Y-122400000D01*
X118890000Y-87000000D02*
X122140000Y-87000000D01*
X122390000Y-86750000D02*
X122390000Y-85662500D01*
X163000000Y-130750000D02*
X163000000Y-133400000D01*
X121640000Y-84750000D02*
X116450000Y-84750000D01*
X161000000Y-122400000D02*
X161600000Y-121800000D01*
%TO.N,Net-(D6-A)*%
X175900000Y-113262500D02*
X175900000Y-115237500D01*
%TO.N,/AIN0*%
X155600000Y-134550000D02*
X155250000Y-134900000D01*
X162338096Y-135900000D02*
X163400000Y-135900000D01*
X162050000Y-136188096D02*
X162338096Y-135900000D01*
X162050000Y-137915685D02*
X162050000Y-136188096D01*
X155250000Y-136915686D02*
X157009315Y-138675000D01*
D65*
X176120000Y-122280000D02*
X176120000Y-121480000D01*
X176120000Y-121480000D02*
X178900000Y-118700000D01*
D64*
X163900000Y-136400000D02*
X163900000Y-137600000D01*
X157065000Y-134550000D02*
X155600000Y-134550000D01*
X163400000Y-135900000D02*
X163900000Y-136400000D01*
X155250000Y-134900000D02*
X155250000Y-136915686D01*
X161290686Y-138675000D02*
X162050000Y-137915685D01*
D65*
X178900000Y-118700000D02*
X182100000Y-118700000D01*
D64*
X157009315Y-138675000D02*
X161290686Y-138675000D01*
%TO.N,/AIN1*%
X165000000Y-131600000D02*
X165590000Y-131010000D01*
X157175000Y-138275000D02*
X161125000Y-138275000D01*
X165000000Y-134015685D02*
X165000000Y-131600000D01*
X157065000Y-135050000D02*
X155850000Y-135050000D01*
X161650000Y-136022410D02*
X162172410Y-135500000D01*
X161650000Y-137750000D02*
X161650000Y-136022410D01*
X165590000Y-131010000D02*
X167390000Y-131010000D01*
X155850000Y-135050000D02*
X155650000Y-135250000D01*
X155650000Y-136750000D02*
X157175000Y-138275000D01*
X162172410Y-135500000D02*
X163515685Y-135500000D01*
X155650000Y-135250000D02*
X155650000Y-136750000D01*
X161125000Y-138275000D02*
X161650000Y-137750000D01*
X163515685Y-135500000D02*
X165000000Y-134015685D01*
%TO.N,/AIN2*%
X161365000Y-135050000D02*
X163400000Y-135050000D01*
%TO.N,/AIN3*%
X161365000Y-134550000D02*
X163400000Y-134550000D01*
%TO.N,Net-(R31-Pad1)*%
D65*
X178840000Y-122500000D02*
X178620000Y-122280000D01*
X186200000Y-122500000D02*
X178840000Y-122500000D01*
%TO.N,/B0*%
D64*
X179097500Y-99930000D02*
X179097500Y-97302500D01*
X179097500Y-97302500D02*
X179600000Y-96800000D01*
%TO.N,Net-(JP1-C)*%
X206700000Y-115650000D02*
X208200000Y-115650000D01*
X208450000Y-108150000D02*
X206950000Y-108150000D01*
X200850000Y-109520000D02*
X204570000Y-109520000D01*
X206450000Y-115400000D02*
X206700000Y-115650000D01*
X208200000Y-115650000D02*
X208950000Y-114900000D01*
X208950000Y-114900000D02*
X208950000Y-108650000D01*
X206450000Y-111400000D02*
X206450000Y-115400000D01*
X208950000Y-108650000D02*
X208450000Y-108150000D01*
X204570000Y-109520000D02*
X206450000Y-111400000D01*
%TD*%
M02*
