%TF.GenerationSoftware,KiCad,Pcbnew,10.0.2*%
%TF.CreationDate,2026-10-03T18:43:32+07:00*%
%TF.ProjectId,rt_hw_v1,72745f68-775f-4763-912e-6b696361645f,rev?*%
%TF.SameCoordinates,Original*%
%TF.FileFunction,Copper,L2,Bot*%
%TF.FilePolarity,Positive*%
%FSLAX46Y46*%
G04 Gerber Fmt 4.6, Leading zero omitted, Abs format (unit mm)*
G04 Created by KiCad (PCBNEW 10.0.2) date 2026-10-03 18:43:32*
%MOMM*%
%LPD*%
G01*
G04 APERTURE LIST*
G04 Aperture macros list*
%AMRoundRect*
0 Rectangle with rounded corners*
0 $1 Rounding radius*
0 $2 $3 $4 $5 $6 $7 $8 $9 X,Y pos of 4 corners*
0 Add a 4 corners polygon primitive as box body*
4,1,4,$2,$3,$4,$5,$6,$7,$8,$9,$2,$3,0*
0 Add four circle primitives for the rounded corners*
1,1,$1+$1,$2,$3*
1,1,$1+$1,$4,$5*
1,1,$1+$1,$6,$7*
1,1,$1+$1,$8,$9*
0 Add four rect primitives between the rounded corners*
20,1,$1+$1,$2,$3,$4,$5,0*
20,1,$1+$1,$4,$5,$6,$7,0*
20,1,$1+$1,$6,$7,$8,$9,0*
20,1,$1+$1,$8,$9,$2,$3,0*%
G04 Aperture macros list end*
%TA.AperFunction,ComponentPad*%
%ADD10C,0.500000*%
%TD*%
%TA.AperFunction,HeatsinkPad*%
%ADD11C,0.600000*%
%TD*%
%TA.AperFunction,HeatsinkPad*%
%ADD12C,0.500000*%
%TD*%
%TA.AperFunction,ComponentPad*%
%ADD13R,1.700000X1.700000*%
%TD*%
%TA.AperFunction,ComponentPad*%
%ADD14C,1.700000*%
%TD*%
%TA.AperFunction,ComponentPad*%
%ADD15C,1.800000*%
%TD*%
%TA.AperFunction,ComponentPad*%
%ADD16C,2.500000*%
%TD*%
%TA.AperFunction,ComponentPad*%
%ADD17C,2.200000*%
%TD*%
%TA.AperFunction,SMDPad,CuDef*%
%ADD18R,0.700000X0.700000*%
%TD*%
%TA.AperFunction,SMDPad,CuDef*%
%ADD19RoundRect,0.250000X-0.250000X-0.475000X0.250000X-0.475000X0.250000X0.475000X-0.250000X0.475000X0*%
%TD*%
%TA.AperFunction,ViaPad*%
%ADD20C,0.600000*%
%TD*%
%TA.AperFunction,ViaPad*%
%ADD21C,2.000000*%
%TD*%
%TA.AperFunction,Conductor*%
%ADD22C,0.200000*%
%TD*%
G04 APERTURE END LIST*
D10*
%TO.P,U8,11,PGND_11*%
%TO.N,GND*%
X203825000Y-126600000D03*
X204400000Y-125650000D03*
X204400000Y-127550000D03*
X204975000Y-126600000D03*
%TD*%
D11*
%TO.P,U3,41,GND_41*%
%TO.N,GND*%
X162800000Y-88610000D03*
X162800000Y-90010000D03*
X163500000Y-87910000D03*
X163500000Y-89310000D03*
X163500000Y-90710000D03*
X164200000Y-88610000D03*
X164200000Y-90010000D03*
X164900000Y-87910000D03*
X164900000Y-89310000D03*
X164900000Y-90710000D03*
X165600000Y-88610000D03*
X165600000Y-90010000D03*
%TD*%
D12*
%TO.P,U4,13,PAD_13*%
%TO.N,GND*%
X121525000Y-91000000D03*
X122500000Y-90275000D03*
X122500000Y-91000000D03*
X122500000Y-91725000D03*
X123475000Y-91000000D03*
%TD*%
D10*
%TO.P,U6,11,PGND_11*%
%TO.N,GND*%
X198875000Y-108500000D03*
X199450000Y-107550000D03*
X199450000Y-109450000D03*
X200025000Y-108500000D03*
%TD*%
D13*
%TO.P,J3,1,Pin_1_1*%
%TO.N,+BATT*%
X160150000Y-109447500D03*
D14*
%TO.P,J3,2,Pin_2_2*%
%TO.N,/TS*%
X160150000Y-111987500D03*
%TO.P,J3,3,Pin_3_3*%
%TO.N,GND*%
X160150000Y-114527500D03*
%TD*%
D15*
%TO.P,SW9,*%
%TO.N,*%
X180420000Y-131010000D03*
X171820000Y-131010000D03*
%TO.P,SW9,1,B_1*%
%TO.N,Net-(R30-Pad2)*%
X167390000Y-133510000D03*
%TO.P,SW9,2,DTA_2*%
%TO.N,/AIN1*%
X167390000Y-131010000D03*
%TO.P,SW9,3,A_3*%
%TO.N,+3.3V*%
X167390000Y-128510000D03*
%TO.P,SW9,4,A_4*%
X173620000Y-122280000D03*
%TO.P,SW9,5,DTA_5*%
%TO.N,/AIN0*%
X176120000Y-122280000D03*
%TO.P,SW9,6,B_6*%
%TO.N,Net-(R31-Pad1)*%
X178620000Y-122280000D03*
D16*
%TO.P,SW9,7,GND_7*%
%TO.N,unconnected-(SW9-GND-Pad7)*%
X182450000Y-126010000D03*
%TO.P,SW9,8,GND_8*%
%TO.N,unconnected-(SW9-GND-Pad8)*%
X182450000Y-136010000D03*
%TO.P,SW9,9,GND_9*%
%TO.N,unconnected-(SW9-GND-Pad9)*%
X169800000Y-136010000D03*
%TO.P,SW9,10,GND_10*%
%TO.N,unconnected-(SW9-GND-Pad10)*%
X169800000Y-126010000D03*
D17*
%TO.P,SW9,a,a_a*%
%TO.N,unconnected-(SW9-Pada)*%
X179640000Y-136800000D03*
%TO.P,SW9,b,b_b*%
%TO.N,unconnected-(SW9-Padb)*%
X179640000Y-141300000D03*
%TO.P,SW9,c,c_c*%
%TO.N,/ANSW*%
X172640000Y-136800000D03*
%TO.P,SW9,d,d_d*%
%TO.N,GND*%
X172640000Y-141300000D03*
%TD*%
D18*
%TO.P,D1,1,DOUT_1*%
%TO.N,Net-(D1-DOUT)*%
X170615000Y-92850000D03*
%TO.P,D1,2,VSS_2*%
%TO.N,GND*%
X170615000Y-93950000D03*
%TO.P,D1,3,DIN_3*%
%TO.N,/B0*%
X168785000Y-93950000D03*
%TO.P,D1,4,VDD_4*%
%TO.N,+5V*%
X168785000Y-92850000D03*
%TD*%
D13*
%TO.P,J2,1,Pin_1_1*%
%TO.N,+BATT*%
X120100000Y-96750000D03*
D14*
%TO.P,J2,2,Pin_2_2*%
%TO.N,unconnected-(J2-Pin_2-Pad2)*%
X122640000Y-96750000D03*
%TO.P,J2,3,Pin_3_3*%
%TO.N,GND*%
X125180000Y-96750000D03*
%TD*%
D19*
%TO.P,C2,1*%
%TO.N,+5V*%
X168950000Y-91000000D03*
%TO.P,C2,2*%
%TO.N,GND*%
X170850000Y-91000000D03*
%TD*%
D18*
%TO.P,D2,1,DOUT_1*%
%TO.N,Net-(D2-DOUT)*%
X170615000Y-88050000D03*
%TO.P,D2,2,VSS_2*%
%TO.N,GND*%
X170615000Y-89150000D03*
%TO.P,D2,3,DIN_3*%
%TO.N,Net-(D1-DOUT)*%
X168785000Y-89150000D03*
%TO.P,D2,4,VDD_4*%
%TO.N,+5V*%
X168785000Y-88050000D03*
%TD*%
D19*
%TO.P,C3,1*%
%TO.N,+5V*%
X168950000Y-86100000D03*
%TO.P,C3,2*%
%TO.N,GND*%
X170850000Y-86100000D03*
%TD*%
D18*
%TO.P,D3,1,DOUT_1*%
%TO.N,unconnected-(D3-DOUT-Pad1)*%
X170615000Y-83150000D03*
%TO.P,D3,2,VSS_2*%
%TO.N,GND*%
X170615000Y-84250000D03*
%TO.P,D3,3,DIN_3*%
%TO.N,Net-(D2-DOUT)*%
X168785000Y-84250000D03*
%TO.P,D3,4,VDD_4*%
%TO.N,+5V*%
X168785000Y-83150000D03*
%TD*%
D19*
%TO.P,C1,1*%
%TO.N,+5V*%
X168900000Y-95800000D03*
%TO.P,C1,2*%
%TO.N,GND*%
X170800000Y-95800000D03*
%TD*%
D20*
%TO.N,*%
X110300000Y-143500000D03*
X110300000Y-81850000D03*
X220300000Y-81850000D03*
X220300000Y-143500000D03*
D21*
%TO.N,+3.3V*%
X172700000Y-103200000D03*
X141300000Y-105150000D03*
X180800000Y-111400000D03*
X125400000Y-83700000D03*
X126600000Y-104950000D03*
X194500000Y-102100000D03*
X139300000Y-109950000D03*
%TO.N,GND*%
X134400000Y-103100000D03*
X206650000Y-98450000D03*
X119000000Y-102000000D03*
X179200000Y-93700000D03*
X137490000Y-90600000D03*
X117090000Y-94205000D03*
X192400000Y-81850000D03*
%TO.N,/DAT3*%
X155884326Y-103684326D03*
X162900000Y-104700000D03*
%TO.N,/CMD*%
X153000000Y-101300000D03*
X139000000Y-97800000D03*
%TO.N,/CLK*%
X153900000Y-98700000D03*
X141000000Y-96700000D03*
%TO.N,/DAT0*%
X130900000Y-98850000D03*
X148600000Y-95500000D03*
%TO.N,/DAT1*%
X128699997Y-98850000D03*
X146300000Y-96800000D03*
%TO.N,/DAT2*%
X143500000Y-96900000D03*
X149500000Y-105400000D03*
%TO.N,VDD*%
X120800000Y-100000000D03*
X198500000Y-132500000D03*
X173900000Y-108937500D03*
X195800000Y-116400000D03*
X172900000Y-119737500D03*
%TO.N,+5V*%
X188700000Y-99300000D03*
%TO.N,+BATT*%
X128640000Y-95450000D03*
X134890000Y-91500000D03*
X169900000Y-118237500D03*
X163650000Y-118237500D03*
%TO.N,VBUS*%
X164800000Y-108600000D03*
X206850000Y-101500000D03*
%TO.N,Net-(U2-UD+)*%
X210850000Y-99700000D03*
X195650000Y-82500000D03*
%TO.N,Net-(U2-UD-)*%
X213750000Y-99050000D03*
X199650000Y-82950000D03*
%TO.N,/IO0*%
X137100000Y-83100000D03*
X191850000Y-84600000D03*
%TO.N,/EN*%
X136600000Y-94400000D03*
X189900000Y-96700000D03*
%TO.N,/SCL*%
X181100000Y-85255771D03*
X116600000Y-101500000D03*
X115700000Y-87600000D03*
%TO.N,/LED_CS*%
X186100000Y-99100000D03*
X133500000Y-98500000D03*
%TO.N,/ADS_DRDY*%
X155800000Y-109800000D03*
X151900000Y-109300000D03*
%TO.N,/MOSI*%
X173000000Y-106187500D03*
X156200000Y-107300000D03*
%TO.N,/SCK*%
X158600000Y-106400000D03*
%TO.N,/MISO*%
X161100000Y-106500000D03*
%TO.N,/ANSW*%
X166000000Y-103700000D03*
X182514046Y-114347833D03*
%TO.N,/RXD0*%
X182000000Y-89600000D03*
X206100000Y-93200000D03*
%TO.N,/TXD0*%
X182069239Y-87230761D03*
X204900000Y-91100000D03*
%TO.N,/SDA*%
X116300000Y-84900000D03*
X181700000Y-82900000D03*
X161600000Y-121800000D03*
%TO.N,/AIN0*%
X182100000Y-118700000D03*
X163900000Y-137600000D03*
%TO.N,/B0*%
X179600000Y-96800000D03*
%TD*%
%TO.N,+3.3V*%
D22*
X129450000Y-104950000D02*
X134450000Y-109950000D01*
X180800000Y-111400000D02*
X180800000Y-115700000D01*
X117400000Y-83000000D02*
X115100000Y-83000000D01*
X164300000Y-121300000D02*
X163500000Y-120500000D01*
X116634314Y-107000000D02*
X129234314Y-107000000D01*
X113700000Y-104065686D02*
X116634314Y-107000000D01*
X115100000Y-83000000D02*
X113700000Y-84400000D01*
X163500000Y-120500000D02*
X158834314Y-120500000D01*
X129234314Y-107000000D02*
X144434314Y-122200000D01*
X134450000Y-109950000D02*
X139300000Y-109950000D01*
X139300000Y-107150000D02*
X141300000Y-105150000D01*
X125400000Y-83700000D02*
X118100000Y-83700000D01*
X126600000Y-104950000D02*
X129450000Y-104950000D01*
X159700000Y-123800000D02*
X163300000Y-123800000D01*
X113700000Y-84400000D02*
X113700000Y-104065686D01*
X143484314Y-105150000D02*
X141300000Y-105150000D01*
X126900000Y-105250000D02*
X126600000Y-104950000D01*
X164300000Y-122800000D02*
X164300000Y-121300000D01*
X158100000Y-122200000D02*
X159700000Y-123800000D01*
X180800000Y-115700000D02*
X181300000Y-116200000D01*
X118100000Y-83700000D02*
X117400000Y-83000000D01*
X163300000Y-123800000D02*
X164300000Y-122800000D01*
X158834314Y-120500000D02*
X143484314Y-105150000D01*
X139300000Y-109950000D02*
X139300000Y-107150000D01*
X141300000Y-105150000D02*
X141200000Y-105250000D01*
X181300000Y-116200000D02*
X192334314Y-116200000D01*
X144434314Y-122200000D02*
X158100000Y-122200000D01*
X194500000Y-114034314D02*
X194500000Y-102100000D01*
X172700000Y-103200000D02*
X173800000Y-102100000D01*
X173800000Y-102100000D02*
X194500000Y-102100000D01*
X192334314Y-116200000D02*
X194500000Y-114034314D01*
%TO.N,GND*%
X129500000Y-90200000D02*
X125495000Y-94205000D01*
X120100000Y-103100000D02*
X119000000Y-102000000D01*
X170615000Y-84250000D02*
X170615000Y-85865000D01*
X170615000Y-85865000D02*
X170850000Y-86100000D01*
X137090000Y-90200000D02*
X129500000Y-90200000D01*
X171800000Y-93500000D02*
X171800000Y-91400000D01*
X170850000Y-91000000D02*
X170850000Y-89385000D01*
X181900000Y-95300000D02*
X181900000Y-97400000D01*
X125495000Y-94205000D02*
X117090000Y-94205000D01*
X170850000Y-89385000D02*
X170615000Y-89150000D01*
X165600000Y-96900000D02*
X168000000Y-99300000D01*
X170850000Y-86100000D02*
X171400000Y-86100000D01*
X170615000Y-93950000D02*
X171350000Y-93950000D01*
X170800000Y-94135000D02*
X170615000Y-93950000D01*
X168000000Y-99300000D02*
X180000000Y-99300000D01*
X171400000Y-91000000D02*
X170850000Y-91000000D01*
X165600000Y-88610000D02*
X165600000Y-96900000D01*
X177100000Y-95800000D02*
X179200000Y-93700000D01*
X179200000Y-93700000D02*
X180300000Y-93700000D01*
X208400000Y-91300000D02*
X208400000Y-96700000D01*
X170800000Y-95800000D02*
X170800000Y-94135000D01*
X192400000Y-81850000D02*
X197350000Y-86800000D01*
X180300000Y-93700000D02*
X181900000Y-95300000D01*
X197350000Y-86800000D02*
X203900000Y-86800000D01*
X137490000Y-90600000D02*
X137090000Y-90200000D01*
X171350000Y-93950000D02*
X171800000Y-93500000D01*
X171400000Y-86100000D02*
X171800000Y-86500000D01*
X171800000Y-86500000D02*
X171800000Y-88515000D01*
X208400000Y-96700000D02*
X206650000Y-98450000D01*
X171800000Y-91400000D02*
X171400000Y-91000000D01*
X181900000Y-97400000D02*
X180000000Y-99300000D01*
X171165000Y-89150000D02*
X170615000Y-89150000D01*
X203900000Y-86800000D02*
X208400000Y-91300000D01*
X171800000Y-88515000D02*
X171165000Y-89150000D01*
X134400000Y-103100000D02*
X120100000Y-103100000D01*
X170800000Y-95800000D02*
X177100000Y-95800000D01*
%TO.N,/DAT3*%
X156968652Y-102600000D02*
X160800000Y-102600000D01*
X160800000Y-102600000D02*
X162900000Y-104700000D01*
X155884326Y-103684326D02*
X156968652Y-102600000D01*
%TO.N,/CMD*%
X142500000Y-101300000D02*
X139000000Y-97800000D01*
X153000000Y-101300000D02*
X142500000Y-101300000D01*
%TO.N,/CLK*%
X153900000Y-98700000D02*
X143000000Y-98700000D01*
X143000000Y-98700000D02*
X141000000Y-96700000D01*
%TO.N,/DAT0*%
X134900000Y-99900000D02*
X136400000Y-98400000D01*
X130900000Y-98850000D02*
X131250000Y-99200000D01*
X138500000Y-94600000D02*
X147700000Y-94600000D01*
X131250000Y-99200000D02*
X131300000Y-99200000D01*
X147700000Y-94600000D02*
X148600000Y-95500000D01*
X132000000Y-99900000D02*
X134900000Y-99900000D01*
X136400000Y-98400000D02*
X136400000Y-96700000D01*
X136400000Y-96700000D02*
X138500000Y-94600000D01*
X131300000Y-99200000D02*
X132000000Y-99900000D01*
%TO.N,/DAT1*%
X130149997Y-100300000D02*
X135065686Y-100300000D01*
X135065686Y-100300000D02*
X136900000Y-98465686D01*
X136900000Y-98465686D02*
X136900000Y-96765686D01*
X144500000Y-95000000D02*
X146300000Y-96800000D01*
X128699997Y-98850000D02*
X130149997Y-100300000D01*
X138665686Y-95000000D02*
X144500000Y-95000000D01*
X136900000Y-96765686D02*
X138665686Y-95000000D01*
%TO.N,/DAT2*%
X149500000Y-105400000D02*
X151900000Y-105400000D01*
X155300000Y-97100000D02*
X153000000Y-97100000D01*
X156100000Y-97900000D02*
X155300000Y-97100000D01*
X151800000Y-98300000D02*
X144900000Y-98300000D01*
X153000000Y-97100000D02*
X151800000Y-98300000D01*
X156100000Y-101200000D02*
X156100000Y-97900000D01*
X151900000Y-105400000D02*
X156100000Y-101200000D01*
X144900000Y-98300000D02*
X143500000Y-96900000D01*
%TO.N,VDD*%
X198200000Y-132500000D02*
X195800000Y-130100000D01*
X120800000Y-100000000D02*
X120800000Y-100200000D01*
X195200000Y-117000000D02*
X195800000Y-116400000D01*
X172900000Y-109537500D02*
X172900000Y-119737500D01*
X132200000Y-102700000D02*
X133300000Y-101600000D01*
X158800000Y-119900000D02*
X172737500Y-119900000D01*
X133300000Y-101600000D02*
X140500000Y-101600000D01*
X140500000Y-101600000D02*
X158800000Y-119900000D01*
X175637500Y-117000000D02*
X195200000Y-117000000D01*
X120800000Y-100200000D02*
X123300000Y-102700000D01*
X195800000Y-130100000D02*
X195800000Y-116400000D01*
X172737500Y-119900000D02*
X172900000Y-119737500D01*
X173900000Y-108937500D02*
X173500000Y-108937500D01*
X198500000Y-132500000D02*
X198200000Y-132500000D01*
X172900000Y-119737500D02*
X175637500Y-117000000D01*
X123300000Y-102700000D02*
X132200000Y-102700000D01*
X173500000Y-108937500D02*
X172900000Y-109537500D01*
%TO.N,+5V*%
X187500000Y-98100000D02*
X187500000Y-93500000D01*
X185700000Y-91700000D02*
X181034314Y-91700000D01*
X168050000Y-88050000D02*
X168785000Y-88050000D01*
X176500000Y-86100000D02*
X172800000Y-82400000D01*
X179800000Y-86100000D02*
X176500000Y-86100000D01*
X168785000Y-91165000D02*
X168950000Y-91000000D01*
X168350000Y-83150000D02*
X168785000Y-83150000D01*
X167800000Y-89850000D02*
X167800000Y-88300000D01*
X168950000Y-86100000D02*
X167900000Y-85050000D01*
X172800000Y-82400000D02*
X169535000Y-82400000D01*
X167900000Y-85050000D02*
X167900000Y-83600000D01*
X167900000Y-83600000D02*
X168350000Y-83150000D01*
X169535000Y-82400000D02*
X168785000Y-83150000D01*
X169700000Y-93700000D02*
X168850000Y-92850000D01*
X168785000Y-92850000D02*
X168785000Y-91165000D01*
X187500000Y-93500000D02*
X185700000Y-91700000D01*
X188700000Y-99300000D02*
X187500000Y-98100000D01*
X181034314Y-91700000D02*
X180300000Y-90965685D01*
X168785000Y-86265000D02*
X168950000Y-86100000D01*
X180300000Y-90965685D02*
X180300000Y-86600000D01*
X168900000Y-95800000D02*
X169700000Y-95000000D01*
X168850000Y-92850000D02*
X168785000Y-92850000D01*
X169700000Y-95000000D02*
X169700000Y-93700000D01*
X167800000Y-88300000D02*
X168050000Y-88050000D01*
X180300000Y-86600000D02*
X179800000Y-86100000D01*
X168785000Y-88050000D02*
X168785000Y-86265000D01*
X168950000Y-91000000D02*
X167800000Y-89850000D01*
%TO.N,+BATT*%
X127100000Y-96990000D02*
X128640000Y-95450000D01*
X127100000Y-100500000D02*
X127100000Y-96990000D01*
X140665686Y-101200000D02*
X127800000Y-101200000D01*
X169900000Y-118237500D02*
X163650000Y-118237500D01*
X163650000Y-118237500D02*
X157703186Y-118237500D01*
X157703186Y-118237500D02*
X140665686Y-101200000D01*
X128640000Y-92500000D02*
X129640000Y-91500000D01*
X128640000Y-95450000D02*
X128640000Y-92500000D01*
X127800000Y-101200000D02*
X127100000Y-100500000D01*
X129640000Y-91500000D02*
X134890000Y-91500000D01*
%TO.N,VBUS*%
X179800000Y-116600000D02*
X178650000Y-115450000D01*
X204475000Y-102900000D02*
X204475000Y-109475000D01*
X205875000Y-101500000D02*
X204475000Y-102900000D01*
X165900000Y-107500000D02*
X164800000Y-108600000D01*
X178650000Y-109050000D02*
X177100000Y-107500000D01*
X178650000Y-115450000D02*
X178650000Y-109050000D01*
X195150000Y-113950000D02*
X192500000Y-116600000D01*
X192500000Y-116600000D02*
X179800000Y-116600000D01*
X206850000Y-101500000D02*
X205875000Y-101500000D01*
X204475000Y-109475000D02*
X200000000Y-113950000D01*
X177100000Y-107500000D02*
X165900000Y-107500000D01*
X200000000Y-113950000D02*
X195150000Y-113950000D01*
%TO.N,Net-(U2-UD+)*%
X204065686Y-86400000D02*
X210850000Y-93184314D01*
X199050000Y-86400000D02*
X204065686Y-86400000D01*
X195650000Y-82500000D02*
X195675000Y-82525000D01*
X195675000Y-82525000D02*
X195675000Y-83025000D01*
X195675000Y-83025000D02*
X199050000Y-86400000D01*
X210850000Y-93184314D02*
X210850000Y-99700000D01*
%TO.N,Net-(U2-UD-)*%
X199650000Y-82950000D02*
X201181372Y-82950000D01*
X213750000Y-95518628D02*
X213750000Y-99050000D01*
X201181372Y-82950000D02*
X213750000Y-95518628D01*
%TO.N,/IO0*%
X191850000Y-84600000D02*
X191850000Y-83850000D01*
X185300000Y-81600000D02*
X184900000Y-81200000D01*
X189600000Y-81600000D02*
X185300000Y-81600000D01*
X184900000Y-81200000D02*
X139000000Y-81200000D01*
X191850000Y-83850000D02*
X189600000Y-81600000D01*
X139000000Y-81200000D02*
X137100000Y-83100000D01*
%TO.N,/EN*%
X136800000Y-94200000D02*
X159200000Y-94200000D01*
X136600000Y-94400000D02*
X136800000Y-94200000D01*
X192400000Y-99800000D02*
X192400000Y-97300000D01*
X192400000Y-97300000D02*
X191800000Y-96700000D01*
X191100000Y-101100000D02*
X192400000Y-99800000D01*
X159200000Y-94200000D02*
X166100000Y-101100000D01*
X166100000Y-101100000D02*
X191100000Y-101100000D01*
X191800000Y-96700000D02*
X189900000Y-96700000D01*
%TO.N,/SCL*%
X139500000Y-87700000D02*
X115800000Y-87700000D01*
X116600000Y-101500000D02*
X115600000Y-100500000D01*
X177844229Y-82000000D02*
X145200000Y-82000000D01*
X115800000Y-87700000D02*
X115700000Y-87600000D01*
X145200000Y-82000000D02*
X139500000Y-87700000D01*
X181100000Y-85255771D02*
X177844229Y-82000000D01*
X115600000Y-87700000D02*
X115700000Y-87600000D01*
X115600000Y-100500000D02*
X115600000Y-87700000D01*
%TO.N,/LED_CS*%
X186100000Y-99100000D02*
X184500000Y-100700000D01*
X133500000Y-95061522D02*
X133500000Y-98500000D01*
X158565686Y-93000000D02*
X135561522Y-93000000D01*
X184500000Y-100700000D02*
X166265686Y-100700000D01*
X135561522Y-93000000D02*
X133500000Y-95061522D01*
X166265686Y-100700000D02*
X158565686Y-93000000D01*
%TO.N,/ADS_DRDY*%
X151900000Y-109300000D02*
X152400000Y-109800000D01*
X152400000Y-109800000D02*
X155800000Y-109800000D01*
%TO.N,/MOSI*%
X173000000Y-106187500D02*
X164612500Y-106187500D01*
X163000000Y-107800000D02*
X156700000Y-107800000D01*
X156700000Y-107800000D02*
X156200000Y-107300000D01*
X164612500Y-106187500D02*
X163000000Y-107800000D01*
%TO.N,/ANSW*%
X182514046Y-114347833D02*
X182600000Y-114261879D01*
X166800000Y-104500000D02*
X166000000Y-103700000D01*
X182600000Y-114261879D02*
X182600000Y-107600000D01*
X179500000Y-104500000D02*
X166800000Y-104500000D01*
X182600000Y-107600000D02*
X179500000Y-104500000D01*
%TO.N,/RXD0*%
X206750000Y-92550000D02*
X206750000Y-90550000D01*
X205900000Y-89700000D02*
X182100000Y-89700000D01*
X182100000Y-89700000D02*
X182000000Y-89600000D01*
X206750000Y-90550000D02*
X205900000Y-89700000D01*
X206100000Y-93200000D02*
X206750000Y-92550000D01*
%TO.N,/TXD0*%
X180700000Y-90800000D02*
X181200000Y-91300000D01*
X181200000Y-91300000D02*
X204900000Y-91300000D01*
X180700000Y-88600000D02*
X180700000Y-90800000D01*
X182069239Y-87230761D02*
X180700000Y-88600000D01*
X204900000Y-91300000D02*
X204900000Y-91100000D01*
%TO.N,/SDA*%
X114100000Y-87100000D02*
X116300000Y-84900000D01*
X114100000Y-103900000D02*
X114100000Y-87100000D01*
X116800000Y-106600000D02*
X114100000Y-103900000D01*
X145034315Y-81600000D02*
X180400000Y-81600000D01*
X161600000Y-121800000D02*
X144600000Y-121800000D01*
X129400000Y-106600000D02*
X116800000Y-106600000D01*
X139334314Y-87300000D02*
X145034315Y-81600000D01*
X119200000Y-84900000D02*
X121600000Y-87300000D01*
X116300000Y-84900000D02*
X119200000Y-84900000D01*
X144600000Y-121800000D02*
X129400000Y-106600000D01*
X121600000Y-87300000D02*
X139334314Y-87300000D01*
X180400000Y-81600000D02*
X181700000Y-82900000D01*
%TO.N,/AIN0*%
X163900000Y-137600000D02*
X165400000Y-139100000D01*
X165400000Y-139100000D02*
X175400000Y-139100000D01*
X175400000Y-139100000D02*
X176600000Y-137900000D01*
X176600000Y-128200000D02*
X182100000Y-122700000D01*
X182100000Y-122700000D02*
X182100000Y-118700000D01*
X176600000Y-137900000D02*
X176600000Y-128200000D01*
%TO.N,/B0*%
X167000000Y-96600000D02*
X167800000Y-97400000D01*
X167650000Y-93950000D02*
X167000000Y-94600000D01*
X167000000Y-94600000D02*
X167000000Y-96600000D01*
X179000000Y-97400000D02*
X179600000Y-96800000D01*
X168785000Y-93950000D02*
X167650000Y-93950000D01*
X167800000Y-97400000D02*
X179000000Y-97400000D01*
%TO.N,Net-(D1-DOUT)*%
X170615000Y-92850000D02*
X169900000Y-92135000D01*
X169900000Y-90265000D02*
X168785000Y-89150000D01*
X169900000Y-92135000D02*
X169900000Y-90265000D01*
%TO.N,Net-(D2-DOUT)*%
X169900000Y-87335000D02*
X169900000Y-85365000D01*
X169900000Y-85365000D02*
X168785000Y-84250000D01*
X170615000Y-88050000D02*
X169900000Y-87335000D01*
%TD*%
M02*
