%TF.GenerationSoftware,KiCad,Pcbnew,10.0.2*%
%TF.CreationDate,2026-10-03T18:43:32+07:00*%
%TF.ProjectId,rt_hw_v1,72745f68-775f-4763-912e-6b696361645f,rev?*%
%TF.SameCoordinates,Original*%
%TF.FileFunction,Legend,Bot*%
%TF.FilePolarity,Positive*%
%FSLAX46Y46*%
G04 Gerber Fmt 4.6, Leading zero omitted, Abs format (unit mm)*
G04 Created by KiCad (PCBNEW 10.0.2) date 2026-10-03 18:43:32*
%MOMM*%
%LPD*%
G01*
G04 APERTURE LIST*
%ADD10C,0.150000*%
%ADD11C,0.100000*%
%ADD12C,0.120000*%
%ADD13C,0.250000*%
%ADD14C,0.060000*%
G04 APERTURE END LIST*
D10*
X160483333Y-106522319D02*
X160483333Y-107236604D01*
X160483333Y-107236604D02*
X160530952Y-107379461D01*
X160530952Y-107379461D02*
X160626190Y-107474700D01*
X160626190Y-107474700D02*
X160769047Y-107522319D01*
X160769047Y-107522319D02*
X160864285Y-107522319D01*
X160102380Y-106522319D02*
X159483333Y-106522319D01*
X159483333Y-106522319D02*
X159816666Y-106903271D01*
X159816666Y-106903271D02*
X159673809Y-106903271D01*
X159673809Y-106903271D02*
X159578571Y-106950890D01*
X159578571Y-106950890D02*
X159530952Y-106998509D01*
X159530952Y-106998509D02*
X159483333Y-107093747D01*
X159483333Y-107093747D02*
X159483333Y-107331842D01*
X159483333Y-107331842D02*
X159530952Y-107427080D01*
X159530952Y-107427080D02*
X159578571Y-107474700D01*
X159578571Y-107474700D02*
X159673809Y-107522319D01*
X159673809Y-107522319D02*
X159959523Y-107522319D01*
X159959523Y-107522319D02*
X160054761Y-107474700D01*
X160054761Y-107474700D02*
X160102380Y-107427080D01*
X176253332Y-118686200D02*
X176110475Y-118733819D01*
X176110475Y-118733819D02*
X175872380Y-118733819D01*
X175872380Y-118733819D02*
X175777142Y-118686200D01*
X175777142Y-118686200D02*
X175729523Y-118638580D01*
X175729523Y-118638580D02*
X175681904Y-118543342D01*
X175681904Y-118543342D02*
X175681904Y-118448104D01*
X175681904Y-118448104D02*
X175729523Y-118352866D01*
X175729523Y-118352866D02*
X175777142Y-118305247D01*
X175777142Y-118305247D02*
X175872380Y-118257628D01*
X175872380Y-118257628D02*
X176062856Y-118210009D01*
X176062856Y-118210009D02*
X176158094Y-118162390D01*
X176158094Y-118162390D02*
X176205713Y-118114771D01*
X176205713Y-118114771D02*
X176253332Y-118019533D01*
X176253332Y-118019533D02*
X176253332Y-117924295D01*
X176253332Y-117924295D02*
X176205713Y-117829057D01*
X176205713Y-117829057D02*
X176158094Y-117781438D01*
X176158094Y-117781438D02*
X176062856Y-117733819D01*
X176062856Y-117733819D02*
X175824761Y-117733819D01*
X175824761Y-117733819D02*
X175681904Y-117781438D01*
X175348570Y-117733819D02*
X175110475Y-118733819D01*
X175110475Y-118733819D02*
X174919999Y-118019533D01*
X174919999Y-118019533D02*
X174729523Y-118733819D01*
X174729523Y-118733819D02*
X174491428Y-117733819D01*
X174062856Y-118733819D02*
X173872380Y-118733819D01*
X173872380Y-118733819D02*
X173777142Y-118686200D01*
X173777142Y-118686200D02*
X173729523Y-118638580D01*
X173729523Y-118638580D02*
X173634285Y-118495723D01*
X173634285Y-118495723D02*
X173586666Y-118305247D01*
X173586666Y-118305247D02*
X173586666Y-117924295D01*
X173586666Y-117924295D02*
X173634285Y-117829057D01*
X173634285Y-117829057D02*
X173681904Y-117781438D01*
X173681904Y-117781438D02*
X173777142Y-117733819D01*
X173777142Y-117733819D02*
X173967618Y-117733819D01*
X173967618Y-117733819D02*
X174062856Y-117781438D01*
X174062856Y-117781438D02*
X174110475Y-117829057D01*
X174110475Y-117829057D02*
X174158094Y-117924295D01*
X174158094Y-117924295D02*
X174158094Y-118162390D01*
X174158094Y-118162390D02*
X174110475Y-118257628D01*
X174110475Y-118257628D02*
X174062856Y-118305247D01*
X174062856Y-118305247D02*
X173967618Y-118352866D01*
X173967618Y-118352866D02*
X173777142Y-118352866D01*
X173777142Y-118352866D02*
X173681904Y-118305247D01*
X173681904Y-118305247D02*
X173634285Y-118257628D01*
X173634285Y-118257628D02*
X173586666Y-118162390D01*
D11*
X169037419Y-126919925D02*
X170037419Y-127253258D01*
X170037419Y-127253258D02*
X169037419Y-127586591D01*
X170037419Y-128491353D02*
X169561228Y-128158020D01*
X170037419Y-127919925D02*
X169037419Y-127919925D01*
X169037419Y-127919925D02*
X169037419Y-128300877D01*
X169037419Y-128300877D02*
X169085038Y-128396115D01*
X169085038Y-128396115D02*
X169132657Y-128443734D01*
X169132657Y-128443734D02*
X169227895Y-128491353D01*
X169227895Y-128491353D02*
X169370752Y-128491353D01*
X169370752Y-128491353D02*
X169465990Y-128443734D01*
X169465990Y-128443734D02*
X169513609Y-128396115D01*
X169513609Y-128396115D02*
X169561228Y-128300877D01*
X169561228Y-128300877D02*
X169561228Y-127919925D01*
X170037419Y-129443734D02*
X170037419Y-128872306D01*
X170037419Y-129158020D02*
X169037419Y-129158020D01*
X169037419Y-129158020D02*
X169180276Y-129062782D01*
X169180276Y-129062782D02*
X169275514Y-128967544D01*
X169275514Y-128967544D02*
X169323133Y-128872306D01*
X180558972Y-124117419D02*
X180225639Y-125117419D01*
X180225639Y-125117419D02*
X179892306Y-124117419D01*
X178987544Y-125117419D02*
X179320877Y-124641228D01*
X179558972Y-125117419D02*
X179558972Y-124117419D01*
X179558972Y-124117419D02*
X179178020Y-124117419D01*
X179178020Y-124117419D02*
X179082782Y-124165038D01*
X179082782Y-124165038D02*
X179035163Y-124212657D01*
X179035163Y-124212657D02*
X178987544Y-124307895D01*
X178987544Y-124307895D02*
X178987544Y-124450752D01*
X178987544Y-124450752D02*
X179035163Y-124545990D01*
X179035163Y-124545990D02*
X179082782Y-124593609D01*
X179082782Y-124593609D02*
X179178020Y-124641228D01*
X179178020Y-124641228D02*
X179558972Y-124641228D01*
X178606591Y-124212657D02*
X178558972Y-124165038D01*
X178558972Y-124165038D02*
X178463734Y-124117419D01*
X178463734Y-124117419D02*
X178225639Y-124117419D01*
X178225639Y-124117419D02*
X178130401Y-124165038D01*
X178130401Y-124165038D02*
X178082782Y-124212657D01*
X178082782Y-124212657D02*
X178035163Y-124307895D01*
X178035163Y-124307895D02*
X178035163Y-124403133D01*
X178035163Y-124403133D02*
X178082782Y-124545990D01*
X178082782Y-124545990D02*
X178654210Y-125117419D01*
X178654210Y-125117419D02*
X178035163Y-125117419D01*
D10*
X170438094Y-91854819D02*
X170438094Y-90854819D01*
X170438094Y-90854819D02*
X170199999Y-90854819D01*
X170199999Y-90854819D02*
X170057142Y-90902438D01*
X170057142Y-90902438D02*
X169961904Y-90997676D01*
X169961904Y-90997676D02*
X169914285Y-91092914D01*
X169914285Y-91092914D02*
X169866666Y-91283390D01*
X169866666Y-91283390D02*
X169866666Y-91426247D01*
X169866666Y-91426247D02*
X169914285Y-91616723D01*
X169914285Y-91616723D02*
X169961904Y-91711961D01*
X169961904Y-91711961D02*
X170057142Y-91807200D01*
X170057142Y-91807200D02*
X170199999Y-91854819D01*
X170199999Y-91854819D02*
X170438094Y-91854819D01*
X168914285Y-91854819D02*
X169485713Y-91854819D01*
X169199999Y-91854819D02*
X169199999Y-90854819D01*
X169199999Y-90854819D02*
X169295237Y-90997676D01*
X169295237Y-90997676D02*
X169390475Y-91092914D01*
X169390475Y-91092914D02*
X169485713Y-91140533D01*
X116784819Y-96416666D02*
X117499104Y-96416666D01*
X117499104Y-96416666D02*
X117641961Y-96369047D01*
X117641961Y-96369047D02*
X117737200Y-96273809D01*
X117737200Y-96273809D02*
X117784819Y-96130952D01*
X117784819Y-96130952D02*
X117784819Y-96035714D01*
X116880057Y-96845238D02*
X116832438Y-96892857D01*
X116832438Y-96892857D02*
X116784819Y-96988095D01*
X116784819Y-96988095D02*
X116784819Y-97226190D01*
X116784819Y-97226190D02*
X116832438Y-97321428D01*
X116832438Y-97321428D02*
X116880057Y-97369047D01*
X116880057Y-97369047D02*
X116975295Y-97416666D01*
X116975295Y-97416666D02*
X117070533Y-97416666D01*
X117070533Y-97416666D02*
X117213390Y-97369047D01*
X117213390Y-97369047D02*
X117784819Y-96797619D01*
X117784819Y-96797619D02*
X117784819Y-97416666D01*
X170066666Y-93039580D02*
X170114285Y-93087200D01*
X170114285Y-93087200D02*
X170257142Y-93134819D01*
X170257142Y-93134819D02*
X170352380Y-93134819D01*
X170352380Y-93134819D02*
X170495237Y-93087200D01*
X170495237Y-93087200D02*
X170590475Y-92991961D01*
X170590475Y-92991961D02*
X170638094Y-92896723D01*
X170638094Y-92896723D02*
X170685713Y-92706247D01*
X170685713Y-92706247D02*
X170685713Y-92563390D01*
X170685713Y-92563390D02*
X170638094Y-92372914D01*
X170638094Y-92372914D02*
X170590475Y-92277676D01*
X170590475Y-92277676D02*
X170495237Y-92182438D01*
X170495237Y-92182438D02*
X170352380Y-92134819D01*
X170352380Y-92134819D02*
X170257142Y-92134819D01*
X170257142Y-92134819D02*
X170114285Y-92182438D01*
X170114285Y-92182438D02*
X170066666Y-92230057D01*
X169685713Y-92230057D02*
X169638094Y-92182438D01*
X169638094Y-92182438D02*
X169542856Y-92134819D01*
X169542856Y-92134819D02*
X169304761Y-92134819D01*
X169304761Y-92134819D02*
X169209523Y-92182438D01*
X169209523Y-92182438D02*
X169161904Y-92230057D01*
X169161904Y-92230057D02*
X169114285Y-92325295D01*
X169114285Y-92325295D02*
X169114285Y-92420533D01*
X169114285Y-92420533D02*
X169161904Y-92563390D01*
X169161904Y-92563390D02*
X169733332Y-93134819D01*
X169733332Y-93134819D02*
X169114285Y-93134819D01*
X170438094Y-87054819D02*
X170438094Y-86054819D01*
X170438094Y-86054819D02*
X170199999Y-86054819D01*
X170199999Y-86054819D02*
X170057142Y-86102438D01*
X170057142Y-86102438D02*
X169961904Y-86197676D01*
X169961904Y-86197676D02*
X169914285Y-86292914D01*
X169914285Y-86292914D02*
X169866666Y-86483390D01*
X169866666Y-86483390D02*
X169866666Y-86626247D01*
X169866666Y-86626247D02*
X169914285Y-86816723D01*
X169914285Y-86816723D02*
X169961904Y-86911961D01*
X169961904Y-86911961D02*
X170057142Y-87007200D01*
X170057142Y-87007200D02*
X170199999Y-87054819D01*
X170199999Y-87054819D02*
X170438094Y-87054819D01*
X169485713Y-86150057D02*
X169438094Y-86102438D01*
X169438094Y-86102438D02*
X169342856Y-86054819D01*
X169342856Y-86054819D02*
X169104761Y-86054819D01*
X169104761Y-86054819D02*
X169009523Y-86102438D01*
X169009523Y-86102438D02*
X168961904Y-86150057D01*
X168961904Y-86150057D02*
X168914285Y-86245295D01*
X168914285Y-86245295D02*
X168914285Y-86340533D01*
X168914285Y-86340533D02*
X168961904Y-86483390D01*
X168961904Y-86483390D02*
X169533332Y-87054819D01*
X169533332Y-87054819D02*
X168914285Y-87054819D01*
X170066666Y-88139580D02*
X170114285Y-88187200D01*
X170114285Y-88187200D02*
X170257142Y-88234819D01*
X170257142Y-88234819D02*
X170352380Y-88234819D01*
X170352380Y-88234819D02*
X170495237Y-88187200D01*
X170495237Y-88187200D02*
X170590475Y-88091961D01*
X170590475Y-88091961D02*
X170638094Y-87996723D01*
X170638094Y-87996723D02*
X170685713Y-87806247D01*
X170685713Y-87806247D02*
X170685713Y-87663390D01*
X170685713Y-87663390D02*
X170638094Y-87472914D01*
X170638094Y-87472914D02*
X170590475Y-87377676D01*
X170590475Y-87377676D02*
X170495237Y-87282438D01*
X170495237Y-87282438D02*
X170352380Y-87234819D01*
X170352380Y-87234819D02*
X170257142Y-87234819D01*
X170257142Y-87234819D02*
X170114285Y-87282438D01*
X170114285Y-87282438D02*
X170066666Y-87330057D01*
X169733332Y-87234819D02*
X169114285Y-87234819D01*
X169114285Y-87234819D02*
X169447618Y-87615771D01*
X169447618Y-87615771D02*
X169304761Y-87615771D01*
X169304761Y-87615771D02*
X169209523Y-87663390D01*
X169209523Y-87663390D02*
X169161904Y-87711009D01*
X169161904Y-87711009D02*
X169114285Y-87806247D01*
X169114285Y-87806247D02*
X169114285Y-88044342D01*
X169114285Y-88044342D02*
X169161904Y-88139580D01*
X169161904Y-88139580D02*
X169209523Y-88187200D01*
X169209523Y-88187200D02*
X169304761Y-88234819D01*
X169304761Y-88234819D02*
X169590475Y-88234819D01*
X169590475Y-88234819D02*
X169685713Y-88187200D01*
X169685713Y-88187200D02*
X169733332Y-88139580D01*
X170438094Y-82154819D02*
X170438094Y-81154819D01*
X170438094Y-81154819D02*
X170199999Y-81154819D01*
X170199999Y-81154819D02*
X170057142Y-81202438D01*
X170057142Y-81202438D02*
X169961904Y-81297676D01*
X169961904Y-81297676D02*
X169914285Y-81392914D01*
X169914285Y-81392914D02*
X169866666Y-81583390D01*
X169866666Y-81583390D02*
X169866666Y-81726247D01*
X169866666Y-81726247D02*
X169914285Y-81916723D01*
X169914285Y-81916723D02*
X169961904Y-82011961D01*
X169961904Y-82011961D02*
X170057142Y-82107200D01*
X170057142Y-82107200D02*
X170199999Y-82154819D01*
X170199999Y-82154819D02*
X170438094Y-82154819D01*
X169533332Y-81154819D02*
X168914285Y-81154819D01*
X168914285Y-81154819D02*
X169247618Y-81535771D01*
X169247618Y-81535771D02*
X169104761Y-81535771D01*
X169104761Y-81535771D02*
X169009523Y-81583390D01*
X169009523Y-81583390D02*
X168961904Y-81631009D01*
X168961904Y-81631009D02*
X168914285Y-81726247D01*
X168914285Y-81726247D02*
X168914285Y-81964342D01*
X168914285Y-81964342D02*
X168961904Y-82059580D01*
X168961904Y-82059580D02*
X169009523Y-82107200D01*
X169009523Y-82107200D02*
X169104761Y-82154819D01*
X169104761Y-82154819D02*
X169390475Y-82154819D01*
X169390475Y-82154819D02*
X169485713Y-82107200D01*
X169485713Y-82107200D02*
X169533332Y-82059580D01*
X170016666Y-97839580D02*
X170064285Y-97887200D01*
X170064285Y-97887200D02*
X170207142Y-97934819D01*
X170207142Y-97934819D02*
X170302380Y-97934819D01*
X170302380Y-97934819D02*
X170445237Y-97887200D01*
X170445237Y-97887200D02*
X170540475Y-97791961D01*
X170540475Y-97791961D02*
X170588094Y-97696723D01*
X170588094Y-97696723D02*
X170635713Y-97506247D01*
X170635713Y-97506247D02*
X170635713Y-97363390D01*
X170635713Y-97363390D02*
X170588094Y-97172914D01*
X170588094Y-97172914D02*
X170540475Y-97077676D01*
X170540475Y-97077676D02*
X170445237Y-96982438D01*
X170445237Y-96982438D02*
X170302380Y-96934819D01*
X170302380Y-96934819D02*
X170207142Y-96934819D01*
X170207142Y-96934819D02*
X170064285Y-96982438D01*
X170064285Y-96982438D02*
X170016666Y-97030057D01*
X169064285Y-97934819D02*
X169635713Y-97934819D01*
X169349999Y-97934819D02*
X169349999Y-96934819D01*
X169349999Y-96934819D02*
X169445237Y-97077676D01*
X169445237Y-97077676D02*
X169540475Y-97172914D01*
X169540475Y-97172914D02*
X169635713Y-97220533D01*
%TO.C,J3*%
D12*
X158770000Y-110717500D02*
X158770000Y-115907500D01*
X161530000Y-108067500D02*
X160150000Y-108067500D01*
X161530000Y-109447500D02*
X161530000Y-108067500D01*
X161530000Y-110717500D02*
X158770000Y-110717500D01*
X161530000Y-110717500D02*
X161530000Y-115907500D01*
X161530000Y-115907500D02*
X158770000Y-115907500D01*
%TO.C,SW9*%
D13*
X166770000Y-126790000D02*
X166770000Y-127570000D01*
X166770000Y-129450000D02*
X166770000Y-130070000D01*
X166770000Y-131950000D02*
X166770000Y-132570000D01*
X166770000Y-134450000D02*
X166770000Y-135240000D01*
X166770000Y-135240000D02*
X167270000Y-135740000D01*
X167270000Y-135740000D02*
X168340000Y-135740000D01*
X167320000Y-126240000D02*
X166770000Y-126790000D01*
X168330000Y-126240000D02*
X167320000Y-126240000D01*
X168910000Y-127200000D02*
X168920000Y-127200000D01*
X168910000Y-134820000D02*
X168920000Y-134810000D01*
X168920000Y-127200000D02*
X168920000Y-134810000D01*
X169570000Y-124440000D02*
X169570000Y-124550000D01*
X169570000Y-137590000D02*
X171570000Y-137590000D01*
X171370000Y-122090000D02*
X171370000Y-124440000D01*
X171370000Y-124440000D02*
X169570000Y-124440000D01*
X171820000Y-137990000D02*
X171820000Y-140250000D01*
X171870000Y-121590000D02*
X171370000Y-122090000D01*
X172730000Y-121590000D02*
X171870000Y-121590000D01*
X174520000Y-139210000D02*
X174520000Y-140410000D01*
X174520000Y-140410000D02*
X177820000Y-140410000D01*
X174870000Y-128760000D02*
X174870000Y-130010000D01*
X174870000Y-132010000D02*
X174870000Y-133260000D01*
X174870000Y-133260000D02*
X177370000Y-133260000D01*
X175120000Y-138210000D02*
X175220000Y-138210000D01*
X175120000Y-141110000D02*
X175120000Y-138210000D01*
X175230000Y-121590000D02*
X174520000Y-121590000D01*
X177120000Y-138210000D02*
X177120000Y-141110000D01*
X177120000Y-141110000D02*
X175120000Y-141110000D01*
X177370000Y-128760000D02*
X174870000Y-128760000D01*
X177370000Y-130010000D02*
X177370000Y-128760000D01*
X177370000Y-133260000D02*
X177370000Y-132010000D01*
X177730000Y-121590000D02*
X177020000Y-121590000D01*
X177820000Y-139210000D02*
X174520000Y-139210000D01*
X177820000Y-140410000D02*
X177820000Y-139210000D01*
X179090000Y-142510000D02*
X173200000Y-142510000D01*
X179620000Y-130010000D02*
X172620000Y-130010000D01*
X179620000Y-132010000D02*
X172620000Y-132010000D01*
X180320000Y-121590000D02*
X179520000Y-121590000D01*
X180420000Y-137880000D02*
X180420000Y-140220000D01*
X180870000Y-122140000D02*
X180320000Y-121590000D01*
X180870000Y-124440000D02*
X180870000Y-122140000D01*
X182670000Y-124440000D02*
X180870000Y-124440000D01*
X182670000Y-137540000D02*
X180750000Y-137540000D01*
X183770000Y-126670000D02*
X183770000Y-135350000D01*
D14*
X166350000Y-142510000D02*
G75*
G02*
X166290000Y-142510000I-30000J0D01*
G01*
X166290000Y-142510000D02*
G75*
G02*
X166350000Y-142510000I30000J0D01*
G01*
D13*
X182220000Y-131010000D02*
G75*
G02*
X170020000Y-131010000I-6100000J0D01*
G01*
X170020000Y-131010000D02*
G75*
G02*
X182220000Y-131010000I6100000J0D01*
G01*
X179750000Y-131010000D02*
G75*
G02*
X172490000Y-131010000I-3630000J0D01*
G01*
X172490000Y-131010000D02*
G75*
G02*
X179750000Y-131010000I3630000J0D01*
G01*
X177090000Y-131010000D02*
G75*
G02*
X175150000Y-131010000I-970000J0D01*
G01*
X175150000Y-131010000D02*
G75*
G02*
X177090000Y-131010000I970000J0D01*
G01*
%TO.C,D1*%
D12*
X168100000Y-92250000D02*
X168100000Y-94550000D01*
X171000000Y-92250000D02*
X168100000Y-92250000D01*
X171000000Y-92250000D02*
X171300000Y-92550000D01*
X171300000Y-94550000D02*
X168100000Y-94550000D01*
X171300000Y-94550000D02*
X171300000Y-92550000D01*
%TO.C,J2*%
X118770000Y-96750000D02*
X118770000Y-98080000D01*
X118770000Y-98080000D02*
X120100000Y-98080000D01*
X121370000Y-95420000D02*
X121370000Y-98080000D01*
X121370000Y-95420000D02*
X126510000Y-95420000D01*
X121370000Y-98080000D02*
X126510000Y-98080000D01*
X126510000Y-95420000D02*
X126510000Y-98080000D01*
%TO.C,C2*%
X169638748Y-90265000D02*
X170161252Y-90265000D01*
X169638748Y-91735000D02*
X170161252Y-91735000D01*
%TO.C,D2*%
X168100000Y-87450000D02*
X168100000Y-89750000D01*
X171000000Y-87450000D02*
X168100000Y-87450000D01*
X171000000Y-87450000D02*
X171300000Y-87750000D01*
X171300000Y-89750000D02*
X168100000Y-89750000D01*
X171300000Y-89750000D02*
X171300000Y-87750000D01*
%TO.C,C3*%
X169638748Y-85365000D02*
X170161252Y-85365000D01*
X169638748Y-86835000D02*
X170161252Y-86835000D01*
%TO.C,D3*%
X168100000Y-82550000D02*
X168100000Y-84850000D01*
X171000000Y-82550000D02*
X168100000Y-82550000D01*
X171000000Y-82550000D02*
X171300000Y-82850000D01*
X171300000Y-84850000D02*
X168100000Y-84850000D01*
X171300000Y-84850000D02*
X171300000Y-82850000D01*
%TO.C,C1*%
X169588748Y-95065000D02*
X170111252Y-95065000D01*
X169588748Y-96535000D02*
X170111252Y-96535000D01*
%TD*%
M02*
