%TF.GenerationSoftware,KiCad,Pcbnew,8.0.2*%
%TF.CreationDate,2025-05-18T09:32:28+07:00*%
%TF.ProjectId,hokushime-db9-to-rs232,686f6b75-7368-4696-9d65-2d6462392d74,rev?*%
%TF.SameCoordinates,Original*%
%TF.FileFunction,Copper,L2,Bot*%
%TF.FilePolarity,Positive*%
%FSLAX46Y46*%
G04 Gerber Fmt 4.6, Leading zero omitted, Abs format (unit mm)*
G04 Created by KiCad (PCBNEW 8.0.2) date 2025-05-18 09:32:28*
%MOMM*%
%LPD*%
G01*
G04 APERTURE LIST*
%TA.AperFunction,ComponentPad*%
%ADD10C,1.500000*%
%TD*%
%TA.AperFunction,ComponentPad*%
%ADD11R,1.700000X1.700000*%
%TD*%
%TA.AperFunction,ComponentPad*%
%ADD12O,1.700000X1.700000*%
%TD*%
%TA.AperFunction,ComponentPad*%
%ADD13R,1.600000X1.600000*%
%TD*%
%TA.AperFunction,ComponentPad*%
%ADD14C,1.600000*%
%TD*%
%TA.AperFunction,ComponentPad*%
%ADD15C,4.000000*%
%TD*%
%TA.AperFunction,ViaPad*%
%ADD16C,1.300000*%
%TD*%
%TA.AperFunction,Conductor*%
%ADD17C,0.200000*%
%TD*%
G04 APERTURE END LIST*
D10*
%TO.P,Y1,2,2*%
%TO.N,Net-(U1-XTIN)*%
X140170001Y-79200000D03*
%TO.P,Y1,1,1*%
%TO.N,Net-(U1-XTOUT)*%
X145050001Y-79200000D03*
%TD*%
D11*
%TO.P,J3,1,Pin_1*%
%TO.N,/CONN2_SHIELD*%
X177125000Y-87775000D03*
D12*
%TO.P,J3,2,Pin_2*%
%TO.N,/CONN2_GND*%
X174584999Y-87775001D03*
%TO.P,J3,3,Pin_3*%
%TO.N,/CONN2_RXD*%
X172045000Y-87775000D03*
%TO.P,J3,4,Pin_4*%
%TO.N,/CONN2_CTS*%
X169505000Y-87775000D03*
%TO.P,J3,5,Pin_5*%
%TO.N,/CONN2_DSR*%
X166965001Y-87775001D03*
%TO.P,J3,6,Pin_6*%
%TO.N,/CONN2_DCD*%
X164425001Y-87775000D03*
%TO.P,J3,7,Pin_7*%
%TO.N,/CONN2_RI*%
X161885000Y-87775000D03*
%TO.P,J3,8,Pin_8*%
%TO.N,/CONN2_TXD*%
X159345000Y-87775000D03*
%TO.P,J3,9,Pin_9*%
%TO.N,/CONN2_RTS*%
X156805000Y-87775000D03*
%TO.P,J3,10,Pin_10*%
%TO.N,/CONN2_DTR*%
X154265001Y-87775000D03*
%TD*%
D11*
%TO.P,J1,1,Pin_1*%
%TO.N,Net-(J1-Pin_1)*%
X150825000Y-111275001D03*
D12*
%TO.P,J1,2,Pin_2*%
%TO.N,GND*%
X153365004Y-111275000D03*
%TO.P,J1,3,Pin_3*%
X155905000Y-111275001D03*
%TO.P,J1,4,Pin_4*%
%TO.N,unconnected-(J1-Pin_4-Pad4)*%
X158445000Y-111275001D03*
%TO.P,J1,5,Pin_5*%
%TO.N,VBUS*%
X160984999Y-111274998D03*
%TO.P,J1,6,Pin_6*%
%TO.N,/USBD-*%
X163524999Y-111275001D03*
%TO.P,J1,7,Pin_7*%
%TO.N,/USBD+*%
X166065000Y-111275001D03*
%TD*%
D13*
%TO.P,J2,1,VBUS*%
%TO.N,VBUS*%
X135450000Y-105112500D03*
D14*
%TO.P,J2,2,D-*%
%TO.N,/USBD-*%
X137950000Y-105112501D03*
%TO.P,J2,3,D+*%
%TO.N,/USBD+*%
X137949999Y-107112500D03*
%TO.P,J2,4,GND*%
%TO.N,GND*%
X135450000Y-107112500D03*
D15*
%TO.P,J2,5,Shield*%
X130700001Y-109972498D03*
X142700000Y-109972501D03*
%TD*%
D16*
%TO.N,/~{DTR}*%
X155071755Y-90150000D03*
X154950000Y-95000000D03*
%TO.N,GND*%
X149742717Y-94442913D03*
X140127208Y-92277208D03*
X169950000Y-97150000D03*
X134425000Y-98775000D03*
X153268047Y-89924543D03*
X154700000Y-84800000D03*
X144495772Y-102319219D03*
X146450000Y-107200000D03*
X151550000Y-84800000D03*
X151825000Y-100600000D03*
X152282539Y-97435969D03*
X145450000Y-98450000D03*
X149100000Y-107200000D03*
X169513868Y-100400972D03*
X134500000Y-94425000D03*
X142887787Y-95124792D03*
%TO.N,+5V*%
X152800000Y-106850000D03*
X155950000Y-104600000D03*
X137000000Y-82900000D03*
X137000000Y-84875000D03*
%TO.N,VBUS*%
X142275000Y-102050000D03*
X143334073Y-96825208D03*
%TO.N,/RXD*%
X153650000Y-98750000D03*
X153812742Y-92287257D03*
%TO.N,/~{SLEEP}*%
X145750000Y-96600000D03*
X148350000Y-95000000D03*
%TO.N,/USBD+*%
X133250000Y-101100000D03*
X129100000Y-101000000D03*
%TO.N,Net-(JP1-C)*%
X142400000Y-82950000D03*
X139577737Y-82505088D03*
%TD*%
D17*
%TO.N,GND*%
X149742717Y-94007283D02*
X153268047Y-90481953D01*
X149742717Y-94442913D02*
X149742717Y-94007283D01*
X153268047Y-90481953D02*
X153268047Y-89924543D01*
%TO.N,/~{DTR}*%
X154950000Y-90271755D02*
X154950000Y-95000000D01*
X155071755Y-90150000D02*
X154950000Y-90271755D01*
%TO.N,/RXD*%
X153650000Y-92449999D02*
X153650000Y-98750000D01*
X153812742Y-92287257D02*
X153650000Y-92449999D01*
%TO.N,VBUS*%
X142750000Y-97409281D02*
X143334073Y-96825208D01*
X142750000Y-101575000D02*
X142750000Y-97409281D01*
X142275000Y-102050000D02*
X142750000Y-101575000D01*
%TO.N,GND*%
X146450000Y-107200000D02*
X149100000Y-107200000D01*
%TO.N,/~{SLEEP}*%
X148000000Y-95000000D02*
X146400000Y-96600000D01*
X146400000Y-96600000D02*
X145750000Y-96600000D01*
X148350000Y-95000000D02*
X148000000Y-95000000D01*
%TO.N,+5V*%
X137000000Y-84875000D02*
X137000000Y-82900000D01*
%TO.N,GND*%
X134400000Y-94525000D02*
X134400000Y-98750000D01*
X134400000Y-98750000D02*
X134425000Y-98775000D01*
X134500000Y-94425000D02*
X134400000Y-94525000D01*
X140127208Y-92377208D02*
X142874792Y-95124792D01*
X142874792Y-95124792D02*
X142887787Y-95124792D01*
X140127208Y-92277208D02*
X140127208Y-92377208D01*
%TO.N,/USBD+*%
X133175000Y-101025000D02*
X133250000Y-101100000D01*
X129100000Y-101000000D02*
X129125000Y-101025000D01*
X129125000Y-101025000D02*
X133175000Y-101025000D01*
%TO.N,GND*%
X169950000Y-99964840D02*
X169513868Y-100400972D01*
X145450000Y-98450000D02*
X144495772Y-99404228D01*
X154675000Y-84775000D02*
X154700000Y-84800000D01*
X152282539Y-97435969D02*
X151975000Y-97743508D01*
X169950000Y-97150000D02*
X169950000Y-99964840D01*
X151575000Y-84775000D02*
X154675000Y-84775000D01*
X144495772Y-99404228D02*
X144495772Y-102319219D01*
X151975000Y-100450000D02*
X151825000Y-100600000D01*
X151550000Y-84800000D02*
X151575000Y-84775000D01*
X151975000Y-97743508D02*
X151975000Y-100450000D01*
%TO.N,+5V*%
X152800000Y-106850000D02*
X153700000Y-106850000D01*
X153700000Y-106850000D02*
X155950000Y-104600000D01*
%TO.N,Net-(JP1-C)*%
X140113585Y-83040936D02*
X139577737Y-82505088D01*
X142309064Y-83040936D02*
X140113585Y-83040936D01*
X142400000Y-82950000D02*
X142309064Y-83040936D01*
%TD*%
%TA.AperFunction,Conductor*%
%TO.N,GND*%
G36*
X154706644Y-111025001D02*
G01*
X155471988Y-111025001D01*
X155439075Y-111082008D01*
X155405000Y-111209175D01*
X155405000Y-111340827D01*
X155439075Y-111467994D01*
X155471988Y-111525001D01*
X154563363Y-111525001D01*
X154563360Y-111525000D01*
X153798016Y-111525000D01*
X153830929Y-111467993D01*
X153865004Y-111340826D01*
X153865004Y-111209174D01*
X153830929Y-111082007D01*
X153798016Y-111025000D01*
X154706641Y-111025000D01*
X154706644Y-111025001D01*
G37*
%TD.AperFunction*%
%TA.AperFunction,Conductor*%
G36*
X178330944Y-73344470D02*
G01*
X178350311Y-73346002D01*
X178456066Y-73362790D01*
X178472174Y-73366462D01*
X178694830Y-73433128D01*
X178712422Y-73439893D01*
X178921329Y-73539052D01*
X178937698Y-73548410D01*
X179129137Y-73678098D01*
X179143903Y-73689833D01*
X179313464Y-73847061D01*
X179326279Y-73860900D01*
X179470033Y-74042024D01*
X179480600Y-74057646D01*
X179593257Y-74255037D01*
X179595217Y-74258470D01*
X179603293Y-74275513D01*
X179685145Y-74488842D01*
X179686131Y-74491410D01*
X179691528Y-74509482D01*
X179740661Y-74735431D01*
X179743256Y-74754113D01*
X179757625Y-74986080D01*
X179757545Y-75002609D01*
X179749195Y-75119133D01*
X179749195Y-119220468D01*
X179757555Y-119336964D01*
X179757636Y-119353504D01*
X179743269Y-119585467D01*
X179740675Y-119604149D01*
X179691541Y-119830112D01*
X179686143Y-119848184D01*
X179603311Y-120064072D01*
X179595235Y-120081117D01*
X179480613Y-120281955D01*
X179470045Y-120297577D01*
X179326294Y-120478701D01*
X179313479Y-120492540D01*
X179143923Y-120649764D01*
X179129158Y-120661500D01*
X178937708Y-120791196D01*
X178921334Y-120800556D01*
X178712436Y-120899713D01*
X178694830Y-120906482D01*
X178472195Y-120973142D01*
X178456039Y-120976823D01*
X178350362Y-120993572D01*
X178330900Y-120995101D01*
X128768263Y-120974656D01*
X128748873Y-120973123D01*
X128643138Y-120956338D01*
X128627012Y-120952661D01*
X128404369Y-120885999D01*
X128386764Y-120879230D01*
X128177867Y-120780075D01*
X128161498Y-120770719D01*
X127970040Y-120641019D01*
X127955291Y-120629297D01*
X127785717Y-120472061D01*
X127772913Y-120458233D01*
X127629150Y-120277099D01*
X127618589Y-120261487D01*
X127503962Y-120060650D01*
X127495886Y-120043606D01*
X127413046Y-119827711D01*
X127407652Y-119809649D01*
X127358515Y-119583692D01*
X127355920Y-119565012D01*
X127341546Y-119333039D01*
X127341627Y-119316510D01*
X127350000Y-119200000D01*
X127350000Y-116835258D01*
X174149500Y-116835258D01*
X174149500Y-117064741D01*
X174174446Y-117254215D01*
X174179452Y-117292238D01*
X174179453Y-117292240D01*
X174238842Y-117513887D01*
X174326650Y-117725876D01*
X174326657Y-117725890D01*
X174441392Y-117924617D01*
X174581081Y-118106661D01*
X174581089Y-118106670D01*
X174743330Y-118268911D01*
X174743338Y-118268918D01*
X174925382Y-118408607D01*
X174925385Y-118408608D01*
X174925388Y-118408611D01*
X175124112Y-118523344D01*
X175124117Y-118523346D01*
X175124123Y-118523349D01*
X175215480Y-118561190D01*
X175336113Y-118611158D01*
X175557762Y-118670548D01*
X175785266Y-118700500D01*
X175785273Y-118700500D01*
X176014727Y-118700500D01*
X176014734Y-118700500D01*
X176242238Y-118670548D01*
X176463887Y-118611158D01*
X176675888Y-118523344D01*
X176874612Y-118408611D01*
X177056661Y-118268919D01*
X177056665Y-118268914D01*
X177056670Y-118268911D01*
X177218911Y-118106670D01*
X177218914Y-118106665D01*
X177218919Y-118106661D01*
X177358611Y-117924612D01*
X177473344Y-117725888D01*
X177561158Y-117513887D01*
X177620548Y-117292238D01*
X177650500Y-117064734D01*
X177650500Y-116835266D01*
X177620548Y-116607762D01*
X177561158Y-116386113D01*
X177473344Y-116174112D01*
X177358611Y-115975388D01*
X177358608Y-115975385D01*
X177358607Y-115975382D01*
X177218918Y-115793338D01*
X177218911Y-115793330D01*
X177056670Y-115631089D01*
X177056661Y-115631081D01*
X176874617Y-115491392D01*
X176675890Y-115376657D01*
X176675876Y-115376650D01*
X176463887Y-115288842D01*
X176242238Y-115229452D01*
X176204215Y-115224446D01*
X176014741Y-115199500D01*
X176014734Y-115199500D01*
X175785266Y-115199500D01*
X175785258Y-115199500D01*
X175568715Y-115228009D01*
X175557762Y-115229452D01*
X175464076Y-115254554D01*
X175336112Y-115288842D01*
X175124123Y-115376650D01*
X175124109Y-115376657D01*
X174925382Y-115491392D01*
X174743338Y-115631081D01*
X174581081Y-115793338D01*
X174441392Y-115975382D01*
X174326657Y-116174109D01*
X174326650Y-116174123D01*
X174238842Y-116386112D01*
X174179453Y-116607759D01*
X174179451Y-116607770D01*
X174149500Y-116835258D01*
X127350000Y-116835258D01*
X127350000Y-109972492D01*
X128195058Y-109972492D01*
X128195058Y-109972503D01*
X128214808Y-110286440D01*
X128214809Y-110286447D01*
X128273756Y-110595456D01*
X128370964Y-110894630D01*
X128370966Y-110894635D01*
X128504901Y-111179259D01*
X128504904Y-111179265D01*
X128673458Y-111444865D01*
X128673461Y-111444869D01*
X128764287Y-111554658D01*
X129727914Y-110591031D01*
X129822830Y-110721673D01*
X129950826Y-110849669D01*
X130081466Y-110944584D01*
X129114972Y-111911077D01*
X129114973Y-111911079D01*
X129357773Y-112087483D01*
X129357791Y-112087494D01*
X129633448Y-112239038D01*
X129633456Y-112239042D01*
X129925927Y-112354838D01*
X130230621Y-112433071D01*
X130230630Y-112433073D01*
X130542702Y-112472497D01*
X130542716Y-112472498D01*
X130857286Y-112472498D01*
X130857299Y-112472497D01*
X131169371Y-112433073D01*
X131169380Y-112433071D01*
X131474074Y-112354838D01*
X131766545Y-112239042D01*
X131766553Y-112239038D01*
X132042210Y-112087494D01*
X132042220Y-112087488D01*
X132285027Y-111911077D01*
X132285028Y-111911077D01*
X131318534Y-110944584D01*
X131449176Y-110849669D01*
X131577172Y-110721673D01*
X131672087Y-110591032D01*
X132635713Y-111554658D01*
X132726545Y-111444862D01*
X132895097Y-111179265D01*
X132895100Y-111179259D01*
X133029035Y-110894635D01*
X133029037Y-110894630D01*
X133126245Y-110595456D01*
X133185192Y-110286447D01*
X133185193Y-110286440D01*
X133204944Y-109972503D01*
X133204944Y-109972495D01*
X140195057Y-109972495D01*
X140195057Y-109972506D01*
X140214807Y-110286443D01*
X140214808Y-110286450D01*
X140273755Y-110595459D01*
X140370963Y-110894633D01*
X140370965Y-110894638D01*
X140504900Y-111179262D01*
X140504903Y-111179268D01*
X140673457Y-111444868D01*
X140673460Y-111444872D01*
X140764286Y-111554661D01*
X141727913Y-110591034D01*
X141822829Y-110721676D01*
X141950825Y-110849672D01*
X142081465Y-110944587D01*
X141114971Y-111911080D01*
X141114972Y-111911082D01*
X141357772Y-112087486D01*
X141357790Y-112087497D01*
X141633447Y-112239041D01*
X141633455Y-112239045D01*
X141925926Y-112354841D01*
X142230620Y-112433074D01*
X142230629Y-112433076D01*
X142542701Y-112472500D01*
X142542715Y-112472501D01*
X142857285Y-112472501D01*
X142857298Y-112472500D01*
X143169370Y-112433076D01*
X143169379Y-112433074D01*
X143474073Y-112354841D01*
X143766544Y-112239045D01*
X143766552Y-112239041D01*
X144042209Y-112087497D01*
X144042219Y-112087491D01*
X144285026Y-111911080D01*
X144285027Y-111911080D01*
X143318533Y-110944587D01*
X143449175Y-110849672D01*
X143577171Y-110721676D01*
X143672086Y-110591035D01*
X144635712Y-111554661D01*
X144726544Y-111444865D01*
X144895096Y-111179268D01*
X144895099Y-111179262D01*
X145029034Y-110894638D01*
X145029036Y-110894633D01*
X145126244Y-110595459D01*
X145167892Y-110377136D01*
X149474500Y-110377136D01*
X149474500Y-112172871D01*
X149474501Y-112172877D01*
X149480908Y-112232484D01*
X149531202Y-112367329D01*
X149531206Y-112367336D01*
X149617452Y-112482545D01*
X149617455Y-112482548D01*
X149732664Y-112568794D01*
X149732671Y-112568798D01*
X149867517Y-112619092D01*
X149867516Y-112619092D01*
X149874444Y-112619836D01*
X149927127Y-112625501D01*
X151722872Y-112625500D01*
X151782483Y-112619092D01*
X151917331Y-112568797D01*
X152032546Y-112482547D01*
X152118796Y-112367332D01*
X152166645Y-112239042D01*
X152168004Y-112235399D01*
X152209875Y-112179465D01*
X152275339Y-112155048D01*
X152343612Y-112169899D01*
X152371867Y-112191051D01*
X152493921Y-112313105D01*
X152687425Y-112448600D01*
X152901511Y-112548429D01*
X152901520Y-112548433D01*
X153115004Y-112605634D01*
X153115004Y-111708012D01*
X153172011Y-111740925D01*
X153299178Y-111775000D01*
X153430830Y-111775000D01*
X153557997Y-111740925D01*
X153615004Y-111708012D01*
X153615004Y-112605633D01*
X153828487Y-112548433D01*
X153828496Y-112548429D01*
X154042582Y-112448600D01*
X154236086Y-112313105D01*
X154403109Y-112146082D01*
X154533426Y-111959972D01*
X154588003Y-111916348D01*
X154657502Y-111909155D01*
X154719856Y-111940677D01*
X154736575Y-111959972D01*
X154866890Y-112146079D01*
X155033917Y-112313106D01*
X155227421Y-112448601D01*
X155441507Y-112548430D01*
X155441516Y-112548434D01*
X155655000Y-112605635D01*
X155655000Y-111708013D01*
X155712007Y-111740926D01*
X155839174Y-111775001D01*
X155970826Y-111775001D01*
X156097993Y-111740926D01*
X156155000Y-111708013D01*
X156155000Y-112605634D01*
X156368483Y-112548434D01*
X156368492Y-112548430D01*
X156582578Y-112448601D01*
X156776082Y-112313106D01*
X156943105Y-112146083D01*
X157073119Y-111960406D01*
X157127696Y-111916782D01*
X157197195Y-111909589D01*
X157259549Y-111941111D01*
X157276269Y-111960406D01*
X157406505Y-112146402D01*
X157573599Y-112313496D01*
X157670384Y-112381266D01*
X157767165Y-112449033D01*
X157767167Y-112449034D01*
X157767170Y-112449036D01*
X157981337Y-112548904D01*
X158209592Y-112610064D01*
X158386034Y-112625501D01*
X158444999Y-112630660D01*
X158445000Y-112630660D01*
X158445001Y-112630660D01*
X158503966Y-112625501D01*
X158680408Y-112610064D01*
X158908663Y-112548904D01*
X159122830Y-112449036D01*
X159316401Y-112313496D01*
X159483495Y-112146402D01*
X159613426Y-111960840D01*
X159668002Y-111917217D01*
X159737500Y-111910023D01*
X159799855Y-111941546D01*
X159816573Y-111960839D01*
X159946504Y-112146399D01*
X160113598Y-112313493D01*
X160113607Y-112313499D01*
X160307164Y-112449030D01*
X160307166Y-112449031D01*
X160307169Y-112449033D01*
X160521336Y-112548901D01*
X160521342Y-112548902D01*
X160521343Y-112548903D01*
X160576284Y-112563624D01*
X160749591Y-112610061D01*
X160926044Y-112625499D01*
X160984998Y-112630657D01*
X160984999Y-112630657D01*
X160985000Y-112630657D01*
X161043942Y-112625500D01*
X161220407Y-112610061D01*
X161448662Y-112548901D01*
X161662829Y-112449033D01*
X161856400Y-112313493D01*
X162023494Y-112146399D01*
X162153424Y-111960838D01*
X162207998Y-111917216D01*
X162277497Y-111910022D01*
X162339852Y-111941544D01*
X162356571Y-111960839D01*
X162486504Y-112146402D01*
X162653598Y-112313496D01*
X162750383Y-112381266D01*
X162847164Y-112449033D01*
X162847166Y-112449034D01*
X162847169Y-112449036D01*
X163061336Y-112548904D01*
X163289591Y-112610064D01*
X163466033Y-112625501D01*
X163524998Y-112630660D01*
X163524999Y-112630660D01*
X163525000Y-112630660D01*
X163583965Y-112625501D01*
X163760407Y-112610064D01*
X163988662Y-112548904D01*
X164202829Y-112449036D01*
X164396400Y-112313496D01*
X164563494Y-112146402D01*
X164693425Y-111960840D01*
X164748001Y-111917217D01*
X164817499Y-111910023D01*
X164879854Y-111941546D01*
X164896572Y-111960839D01*
X165026505Y-112146402D01*
X165193599Y-112313496D01*
X165290384Y-112381266D01*
X165387165Y-112449033D01*
X165387167Y-112449034D01*
X165387170Y-112449036D01*
X165601337Y-112548904D01*
X165829592Y-112610064D01*
X166006034Y-112625501D01*
X166064999Y-112630660D01*
X166065000Y-112630660D01*
X166065001Y-112630660D01*
X166123966Y-112625501D01*
X166300408Y-112610064D01*
X166528663Y-112548904D01*
X166742830Y-112449036D01*
X166936401Y-112313496D01*
X167103495Y-112146402D01*
X167239035Y-111952831D01*
X167338903Y-111738664D01*
X167400063Y-111510409D01*
X167420659Y-111275001D01*
X167400063Y-111039593D01*
X167338903Y-110811338D01*
X167239035Y-110597172D01*
X167237834Y-110595456D01*
X167103494Y-110403598D01*
X166936402Y-110236507D01*
X166936396Y-110236503D01*
X166859518Y-110182672D01*
X166742834Y-110100968D01*
X166742830Y-110100966D01*
X166742821Y-110100962D01*
X166528663Y-110001098D01*
X166528659Y-110001097D01*
X166528655Y-110001095D01*
X166300413Y-109939939D01*
X166300403Y-109939937D01*
X166065001Y-109919342D01*
X166064999Y-109919342D01*
X165829596Y-109939937D01*
X165829586Y-109939939D01*
X165601344Y-110001095D01*
X165601335Y-110001099D01*
X165387171Y-110100965D01*
X165387169Y-110100966D01*
X165193597Y-110236506D01*
X165026508Y-110403595D01*
X164896574Y-110589161D01*
X164841997Y-110632785D01*
X164772498Y-110639978D01*
X164710144Y-110608456D01*
X164693424Y-110589160D01*
X164563493Y-110403598D01*
X164396401Y-110236507D01*
X164396395Y-110236503D01*
X164319517Y-110182672D01*
X164202833Y-110100968D01*
X164202829Y-110100966D01*
X164202820Y-110100962D01*
X163988662Y-110001098D01*
X163988658Y-110001097D01*
X163988654Y-110001095D01*
X163760412Y-109939939D01*
X163760402Y-109939937D01*
X163525000Y-109919342D01*
X163524998Y-109919342D01*
X163289595Y-109939937D01*
X163289585Y-109939939D01*
X163061343Y-110001095D01*
X163061334Y-110001099D01*
X162847170Y-110100965D01*
X162847168Y-110100966D01*
X162653596Y-110236506D01*
X162486507Y-110403595D01*
X162356574Y-110589159D01*
X162301997Y-110632783D01*
X162232498Y-110639976D01*
X162170144Y-110608454D01*
X162153425Y-110589159D01*
X162023494Y-110403597D01*
X161856400Y-110236503D01*
X161817520Y-110209279D01*
X161662833Y-110100965D01*
X161662829Y-110100963D01*
X161590971Y-110067455D01*
X161448662Y-110001095D01*
X161448658Y-110001094D01*
X161448654Y-110001092D01*
X161220412Y-109939936D01*
X161220402Y-109939934D01*
X160985000Y-109919339D01*
X160984998Y-109919339D01*
X160749595Y-109939934D01*
X160749585Y-109939936D01*
X160521343Y-110001092D01*
X160521336Y-110001094D01*
X160521336Y-110001095D01*
X160520315Y-110001571D01*
X160307170Y-110100962D01*
X160307168Y-110100963D01*
X160113596Y-110236503D01*
X159946507Y-110403592D01*
X159816573Y-110589158D01*
X159761996Y-110632782D01*
X159692497Y-110639975D01*
X159630143Y-110608453D01*
X159613423Y-110589157D01*
X159483494Y-110403598D01*
X159316402Y-110236507D01*
X159316396Y-110236503D01*
X159239518Y-110182672D01*
X159122834Y-110100968D01*
X159122830Y-110100966D01*
X159122821Y-110100962D01*
X158908663Y-110001098D01*
X158908659Y-110001097D01*
X158908655Y-110001095D01*
X158680413Y-109939939D01*
X158680403Y-109939937D01*
X158445001Y-109919342D01*
X158444999Y-109919342D01*
X158209596Y-109939937D01*
X158209586Y-109939939D01*
X157981344Y-110001095D01*
X157981335Y-110001099D01*
X157767171Y-110100965D01*
X157767169Y-110100966D01*
X157573597Y-110236506D01*
X157406508Y-110403595D01*
X157276269Y-110589596D01*
X157221692Y-110633220D01*
X157152193Y-110640413D01*
X157089839Y-110608891D01*
X157073119Y-110589595D01*
X156943113Y-110403927D01*
X156943108Y-110403921D01*
X156776082Y-110236895D01*
X156582578Y-110101400D01*
X156368492Y-110001571D01*
X156368486Y-110001568D01*
X156155000Y-109944365D01*
X156155000Y-110841989D01*
X156097993Y-110809076D01*
X155970826Y-110775001D01*
X155839174Y-110775001D01*
X155712007Y-110809076D01*
X155655000Y-110841989D01*
X155655000Y-109944365D01*
X155654999Y-109944365D01*
X155441513Y-110001568D01*
X155441507Y-110001571D01*
X155227422Y-110101400D01*
X155227420Y-110101401D01*
X155033926Y-110236887D01*
X155033920Y-110236892D01*
X154866891Y-110403921D01*
X154866890Y-110403923D01*
X154736577Y-110590029D01*
X154682000Y-110633653D01*
X154612501Y-110640846D01*
X154550147Y-110609324D01*
X154533427Y-110590028D01*
X154403117Y-110403926D01*
X154403112Y-110403920D01*
X154236086Y-110236894D01*
X154042582Y-110101399D01*
X153828496Y-110001570D01*
X153828490Y-110001567D01*
X153615004Y-109944364D01*
X153615004Y-110841988D01*
X153557997Y-110809075D01*
X153430830Y-110775000D01*
X153299178Y-110775000D01*
X153172011Y-110809075D01*
X153115004Y-110841988D01*
X153115004Y-109944364D01*
X153115003Y-109944364D01*
X152901517Y-110001567D01*
X152901511Y-110001570D01*
X152687426Y-110101399D01*
X152687424Y-110101400D01*
X152493930Y-110236886D01*
X152371866Y-110358950D01*
X152310543Y-110392434D01*
X152240851Y-110387450D01*
X152184918Y-110345578D01*
X152168003Y-110314601D01*
X152118797Y-110182672D01*
X152118793Y-110182665D01*
X152032547Y-110067456D01*
X152032544Y-110067453D01*
X151917335Y-109981207D01*
X151917328Y-109981203D01*
X151782482Y-109930909D01*
X151782483Y-109930909D01*
X151722883Y-109924502D01*
X151722881Y-109924501D01*
X151722873Y-109924501D01*
X151722864Y-109924501D01*
X149927129Y-109924501D01*
X149927123Y-109924502D01*
X149867516Y-109930909D01*
X149732671Y-109981203D01*
X149732664Y-109981207D01*
X149617455Y-110067453D01*
X149617452Y-110067456D01*
X149531206Y-110182665D01*
X149531202Y-110182672D01*
X149480908Y-110317518D01*
X149474501Y-110377117D01*
X149474500Y-110377136D01*
X145167892Y-110377136D01*
X145185191Y-110286450D01*
X145185192Y-110286443D01*
X145204943Y-109972506D01*
X145204943Y-109972495D01*
X145185192Y-109658558D01*
X145185191Y-109658551D01*
X145126244Y-109349542D01*
X145029036Y-109050368D01*
X145029034Y-109050363D01*
X144895099Y-108765739D01*
X144895096Y-108765733D01*
X144726542Y-108500133D01*
X144726539Y-108500129D01*
X144635712Y-108390339D01*
X143672085Y-109353966D01*
X143577171Y-109223326D01*
X143449175Y-109095330D01*
X143318533Y-109000414D01*
X144285027Y-108033920D01*
X144285026Y-108033918D01*
X144042227Y-107857515D01*
X144042209Y-107857504D01*
X143766552Y-107705960D01*
X143766544Y-107705956D01*
X143474073Y-107590160D01*
X143169379Y-107511927D01*
X143169370Y-107511925D01*
X142857298Y-107472501D01*
X142542701Y-107472501D01*
X142230629Y-107511925D01*
X142230620Y-107511927D01*
X141925926Y-107590160D01*
X141633455Y-107705956D01*
X141633447Y-107705960D01*
X141357787Y-107857505D01*
X141357782Y-107857508D01*
X141114972Y-108033919D01*
X141114971Y-108033920D01*
X142081466Y-109000414D01*
X141950825Y-109095330D01*
X141822829Y-109223326D01*
X141727913Y-109353966D01*
X140764286Y-108390339D01*
X140764285Y-108390339D01*
X140673459Y-108500130D01*
X140673457Y-108500133D01*
X140504903Y-108765733D01*
X140504900Y-108765739D01*
X140370965Y-109050363D01*
X140370963Y-109050368D01*
X140273755Y-109349542D01*
X140214808Y-109658551D01*
X140214807Y-109658558D01*
X140195057Y-109972495D01*
X133204944Y-109972495D01*
X133204944Y-109972492D01*
X133185193Y-109658555D01*
X133185192Y-109658548D01*
X133126245Y-109349539D01*
X133029037Y-109050365D01*
X133029035Y-109050360D01*
X132895100Y-108765736D01*
X132895097Y-108765730D01*
X132726543Y-108500130D01*
X132726540Y-108500126D01*
X132635713Y-108390336D01*
X131672086Y-109353963D01*
X131577172Y-109223323D01*
X131449176Y-109095327D01*
X131318534Y-109000411D01*
X132285028Y-108033917D01*
X132285027Y-108033915D01*
X132042228Y-107857512D01*
X132042210Y-107857501D01*
X131766553Y-107705957D01*
X131766545Y-107705953D01*
X131474074Y-107590157D01*
X131169380Y-107511924D01*
X131169371Y-107511922D01*
X130857299Y-107472498D01*
X130542702Y-107472498D01*
X130230630Y-107511922D01*
X130230621Y-107511924D01*
X129925927Y-107590157D01*
X129633456Y-107705953D01*
X129633448Y-107705957D01*
X129357788Y-107857502D01*
X129357783Y-107857505D01*
X129114973Y-108033916D01*
X129114972Y-108033917D01*
X130081467Y-109000411D01*
X129950826Y-109095327D01*
X129822830Y-109223323D01*
X129727914Y-109353963D01*
X128764287Y-108390336D01*
X128764286Y-108390336D01*
X128673460Y-108500127D01*
X128673458Y-108500130D01*
X128504904Y-108765730D01*
X128504901Y-108765736D01*
X128370966Y-109050360D01*
X128370964Y-109050365D01*
X128273756Y-109349539D01*
X128214809Y-109658548D01*
X128214808Y-109658555D01*
X128195058Y-109972492D01*
X127350000Y-109972492D01*
X127350000Y-107112497D01*
X134145034Y-107112497D01*
X134145034Y-107112502D01*
X134164858Y-107339099D01*
X134164860Y-107339110D01*
X134223730Y-107558817D01*
X134223735Y-107558831D01*
X134319863Y-107764978D01*
X134370974Y-107837972D01*
X134987449Y-107221497D01*
X135007370Y-107295843D01*
X135069905Y-107404157D01*
X135158343Y-107492595D01*
X135266657Y-107555130D01*
X135341002Y-107575050D01*
X134724526Y-108191525D01*
X134797513Y-108242632D01*
X134797521Y-108242636D01*
X135003668Y-108338764D01*
X135003682Y-108338769D01*
X135223389Y-108397639D01*
X135223400Y-108397641D01*
X135449998Y-108417466D01*
X135450002Y-108417466D01*
X135676599Y-108397641D01*
X135676610Y-108397639D01*
X135896317Y-108338769D01*
X135896331Y-108338764D01*
X136102478Y-108242636D01*
X136175471Y-108191524D01*
X135558997Y-107575050D01*
X135633343Y-107555130D01*
X135741657Y-107492595D01*
X135830095Y-107404157D01*
X135892630Y-107295843D01*
X135912550Y-107221497D01*
X136529024Y-107837971D01*
X136580135Y-107764980D01*
X136587341Y-107749527D01*
X136633513Y-107697087D01*
X136700706Y-107677934D01*
X136767587Y-107698149D01*
X136812106Y-107749525D01*
X136819430Y-107765232D01*
X136819431Y-107765234D01*
X136949953Y-107951641D01*
X137110857Y-108112545D01*
X137110860Y-108112547D01*
X137297265Y-108243068D01*
X137503503Y-108339239D01*
X137723307Y-108398135D01*
X137885229Y-108412301D01*
X137949997Y-108417968D01*
X137949999Y-108417968D01*
X137950001Y-108417968D01*
X138006672Y-108413009D01*
X138176691Y-108398135D01*
X138396495Y-108339239D01*
X138602733Y-108243068D01*
X138789138Y-108112547D01*
X138950046Y-107951639D01*
X139080567Y-107765234D01*
X139176738Y-107558996D01*
X139235634Y-107339192D01*
X139255467Y-107112500D01*
X139235634Y-106885808D01*
X139226039Y-106849999D01*
X151644571Y-106849999D01*
X151644571Y-106850000D01*
X151664244Y-107062310D01*
X151722596Y-107267392D01*
X151722596Y-107267394D01*
X151817632Y-107458253D01*
X151917245Y-107590160D01*
X151946128Y-107628407D01*
X152103698Y-107772052D01*
X152284981Y-107884298D01*
X152483802Y-107961321D01*
X152693390Y-108000500D01*
X152693392Y-108000500D01*
X152906608Y-108000500D01*
X152906610Y-108000500D01*
X153116198Y-107961321D01*
X153315019Y-107884298D01*
X153496302Y-107772052D01*
X153565425Y-107709036D01*
X153583155Y-107695578D01*
X153594337Y-107688577D01*
X153901933Y-107428317D01*
X153925075Y-107414214D01*
X153924745Y-107413642D01*
X153942179Y-107403575D01*
X153981904Y-107380639D01*
X154068716Y-107330520D01*
X154180520Y-107218716D01*
X154180520Y-107218714D01*
X154190728Y-107208507D01*
X154190730Y-107208504D01*
X154346540Y-107052693D01*
X154354120Y-107045720D01*
X154370340Y-107031997D01*
X154370358Y-107031982D01*
X154386176Y-107018022D01*
X154386892Y-107017363D01*
X154438157Y-106962616D01*
X154438159Y-106962612D01*
X154439506Y-106961174D01*
X154448993Y-106950241D01*
X155347396Y-106051837D01*
X155393598Y-106022662D01*
X156356221Y-105681024D01*
X156367748Y-105676775D01*
X156368297Y-105676565D01*
X156429328Y-105648438D01*
X156429330Y-105648436D01*
X156430084Y-105648089D01*
X156437197Y-105645076D01*
X156465012Y-105634301D01*
X156465013Y-105634300D01*
X156465019Y-105634298D01*
X156646302Y-105522052D01*
X156803872Y-105378407D01*
X156932366Y-105208255D01*
X156935179Y-105202606D01*
X157027403Y-105017394D01*
X157027403Y-105017393D01*
X157027405Y-105017389D01*
X157085756Y-104812310D01*
X157105429Y-104600000D01*
X157085756Y-104387690D01*
X157027405Y-104182611D01*
X157027403Y-104182606D01*
X157027403Y-104182605D01*
X156932367Y-103991746D01*
X156803872Y-103821593D01*
X156793349Y-103812000D01*
X156646302Y-103677948D01*
X156465019Y-103565702D01*
X156465017Y-103565701D01*
X156365608Y-103527190D01*
X156266198Y-103488679D01*
X156056610Y-103449500D01*
X155843390Y-103449500D01*
X155633802Y-103488679D01*
X155633799Y-103488679D01*
X155633799Y-103488680D01*
X155434982Y-103565701D01*
X155434980Y-103565702D01*
X155253699Y-103677947D01*
X155096127Y-103821593D01*
X154967632Y-103991746D01*
X154872596Y-104182606D01*
X154872593Y-104182614D01*
X154872283Y-104183705D01*
X154869883Y-104191219D01*
X154527334Y-105156399D01*
X154498156Y-105202606D01*
X153822192Y-105878571D01*
X153760869Y-105912056D01*
X153700409Y-105910109D01*
X153197794Y-105766339D01*
X153197791Y-105766338D01*
X153173921Y-105760149D01*
X153160259Y-105755747D01*
X153116207Y-105738682D01*
X153116199Y-105738679D01*
X153046335Y-105725619D01*
X152906610Y-105699500D01*
X152693390Y-105699500D01*
X152483802Y-105738679D01*
X152483799Y-105738679D01*
X152483799Y-105738680D01*
X152284982Y-105815701D01*
X152284980Y-105815702D01*
X152103699Y-105927947D01*
X151946127Y-106071593D01*
X151817632Y-106241746D01*
X151722596Y-106432605D01*
X151722596Y-106432607D01*
X151664244Y-106637689D01*
X151644571Y-106849999D01*
X139226039Y-106849999D01*
X139176738Y-106666004D01*
X139080567Y-106459766D01*
X138950046Y-106273361D01*
X138950044Y-106273358D01*
X138876867Y-106200181D01*
X138843382Y-106138858D01*
X138848366Y-106069166D01*
X138876866Y-106024820D01*
X138950047Y-105951640D01*
X139080568Y-105765235D01*
X139176739Y-105558997D01*
X139235635Y-105339193D01*
X139255468Y-105112501D01*
X139235635Y-104885809D01*
X139176739Y-104666005D01*
X139080568Y-104459767D01*
X138950047Y-104273362D01*
X138950045Y-104273359D01*
X138789141Y-104112455D01*
X138602734Y-103981933D01*
X138602732Y-103981932D01*
X138396497Y-103885762D01*
X138396488Y-103885759D01*
X138176697Y-103826867D01*
X138176693Y-103826866D01*
X138176692Y-103826866D01*
X138176691Y-103826865D01*
X138176686Y-103826865D01*
X137950002Y-103807033D01*
X137949998Y-103807033D01*
X137723313Y-103826865D01*
X137723302Y-103826867D01*
X137503511Y-103885759D01*
X137503502Y-103885762D01*
X137297267Y-103981932D01*
X137297265Y-103981933D01*
X137110862Y-104112452D01*
X136953726Y-104269588D01*
X136892403Y-104303072D01*
X136822711Y-104298088D01*
X136766778Y-104256216D01*
X136745368Y-104210422D01*
X136744090Y-104205013D01*
X136693797Y-104070171D01*
X136693793Y-104070164D01*
X136607547Y-103954955D01*
X136607544Y-103954952D01*
X136492335Y-103868706D01*
X136492328Y-103868702D01*
X136357482Y-103818408D01*
X136357483Y-103818408D01*
X136297883Y-103812001D01*
X136297881Y-103812000D01*
X136297873Y-103812000D01*
X136297864Y-103812000D01*
X134602129Y-103812000D01*
X134602123Y-103812001D01*
X134542516Y-103818408D01*
X134407671Y-103868702D01*
X134407664Y-103868706D01*
X134292455Y-103954952D01*
X134292452Y-103954955D01*
X134206206Y-104070164D01*
X134206202Y-104070171D01*
X134155908Y-104205017D01*
X134149501Y-104264616D01*
X134149500Y-104264635D01*
X134149500Y-105960370D01*
X134149501Y-105960376D01*
X134155908Y-106019983D01*
X134206202Y-106154828D01*
X134206206Y-106154835D01*
X134292452Y-106270044D01*
X134292453Y-106270044D01*
X134292454Y-106270046D01*
X134301545Y-106276851D01*
X134343416Y-106332782D01*
X134348402Y-106402474D01*
X134328813Y-106447236D01*
X134319871Y-106460007D01*
X134319868Y-106460012D01*
X134223734Y-106666173D01*
X134223730Y-106666182D01*
X134164860Y-106885889D01*
X134164858Y-106885900D01*
X134145034Y-107112497D01*
X127350000Y-107112497D01*
X127350000Y-100999999D01*
X127944571Y-100999999D01*
X127944571Y-101000000D01*
X127964244Y-101212310D01*
X128022596Y-101417392D01*
X128022596Y-101417394D01*
X128117632Y-101608253D01*
X128193151Y-101708255D01*
X128246128Y-101778407D01*
X128403698Y-101922052D01*
X128584981Y-102034298D01*
X128783802Y-102111321D01*
X128993390Y-102150500D01*
X128993392Y-102150500D01*
X129206608Y-102150500D01*
X129206610Y-102150500D01*
X129416198Y-102111321D01*
X129454119Y-102096630D01*
X129526785Y-102068480D01*
X129536863Y-102065065D01*
X129548656Y-102061625D01*
X129568901Y-102055721D01*
X130491060Y-101636611D01*
X130542366Y-101625500D01*
X131792850Y-101625500D01*
X131853051Y-101641094D01*
X132678672Y-102099595D01*
X132683696Y-102102543D01*
X132734981Y-102134298D01*
X132734983Y-102134299D01*
X132743902Y-102137753D01*
X132752149Y-102140948D01*
X132764476Y-102146514D01*
X132769737Y-102149245D01*
X132770924Y-102149819D01*
X132770931Y-102149821D01*
X132770936Y-102149824D01*
X132847873Y-102179552D01*
X132853213Y-102180952D01*
X132866562Y-102185271D01*
X132933802Y-102211321D01*
X133143390Y-102250500D01*
X133143392Y-102250500D01*
X133356608Y-102250500D01*
X133356610Y-102250500D01*
X133566198Y-102211321D01*
X133765019Y-102134298D01*
X133901166Y-102049999D01*
X141119571Y-102049999D01*
X141119571Y-102050000D01*
X141139244Y-102262310D01*
X141197596Y-102467392D01*
X141197596Y-102467394D01*
X141292632Y-102658253D01*
X141292634Y-102658255D01*
X141421128Y-102828407D01*
X141578698Y-102972052D01*
X141759981Y-103084298D01*
X141958802Y-103161321D01*
X142168390Y-103200500D01*
X142168392Y-103200500D01*
X142381608Y-103200500D01*
X142381610Y-103200500D01*
X142591198Y-103161321D01*
X142790019Y-103084298D01*
X142971302Y-102972052D01*
X143128872Y-102828407D01*
X143257366Y-102658255D01*
X143352405Y-102467389D01*
X143410756Y-102262310D01*
X143430429Y-102050000D01*
X143428973Y-102034297D01*
X143428376Y-102027852D01*
X143428196Y-102007111D01*
X143428487Y-102003240D01*
X143403563Y-101636612D01*
X143355078Y-100923388D01*
X143355077Y-100923373D01*
X143352185Y-100895794D01*
X143351176Y-100886167D01*
X143350500Y-100873236D01*
X143350500Y-98750000D01*
X152494571Y-98750000D01*
X152514244Y-98962310D01*
X152545836Y-99073344D01*
X152572596Y-99167392D01*
X152572596Y-99167394D01*
X152667632Y-99358253D01*
X152667634Y-99358255D01*
X152796128Y-99528407D01*
X152953698Y-99672052D01*
X153134981Y-99784298D01*
X153333802Y-99861321D01*
X153543390Y-99900500D01*
X153543392Y-99900500D01*
X153756608Y-99900500D01*
X153756610Y-99900500D01*
X153966198Y-99861321D01*
X154165019Y-99784298D01*
X154346302Y-99672052D01*
X154503872Y-99528407D01*
X154632366Y-99358255D01*
X154686022Y-99250499D01*
X154727403Y-99167394D01*
X154727403Y-99167393D01*
X154727405Y-99167389D01*
X154785756Y-98962310D01*
X154805429Y-98750000D01*
X154785756Y-98537690D01*
X154727405Y-98332611D01*
X154727403Y-98332606D01*
X154727403Y-98332605D01*
X154712737Y-98303153D01*
X154705330Y-98284703D01*
X154701643Y-98272847D01*
X154262542Y-97350592D01*
X154250500Y-97297287D01*
X154250500Y-96142694D01*
X154270185Y-96075655D01*
X154322989Y-96029900D01*
X154392147Y-96019956D01*
X154428985Y-96033480D01*
X154429851Y-96031743D01*
X154434976Y-96034295D01*
X154434981Y-96034298D01*
X154633802Y-96111321D01*
X154843390Y-96150500D01*
X154843392Y-96150500D01*
X155056608Y-96150500D01*
X155056610Y-96150500D01*
X155266198Y-96111321D01*
X155465019Y-96034298D01*
X155646302Y-95922052D01*
X155803872Y-95778407D01*
X155932366Y-95608255D01*
X155969629Y-95533420D01*
X156027403Y-95417394D01*
X156027403Y-95417393D01*
X156027405Y-95417389D01*
X156085756Y-95212310D01*
X156105429Y-95000000D01*
X156085756Y-94787690D01*
X156027405Y-94582611D01*
X156027403Y-94582606D01*
X156027403Y-94582605D01*
X156012737Y-94553153D01*
X156005330Y-94534703D01*
X156001643Y-94522847D01*
X155562542Y-93600592D01*
X155550500Y-93547287D01*
X155550500Y-91609858D01*
X155568448Y-91545602D01*
X155590716Y-91508850D01*
X156007216Y-90821435D01*
X156014300Y-90810984D01*
X156054121Y-90758255D01*
X156091602Y-90682978D01*
X156096558Y-90673981D01*
X156097558Y-90672332D01*
X156116086Y-90638973D01*
X156116882Y-90637403D01*
X156125161Y-90616561D01*
X156129397Y-90607077D01*
X156140792Y-90584193D01*
X156149160Y-90567389D01*
X156207511Y-90362310D01*
X156227184Y-90150000D01*
X156207511Y-89937690D01*
X156149160Y-89732611D01*
X156149158Y-89732606D01*
X156149158Y-89732605D01*
X156054122Y-89541746D01*
X155925627Y-89371593D01*
X155889340Y-89338513D01*
X155768057Y-89227948D01*
X155586774Y-89115702D01*
X155586772Y-89115701D01*
X155465697Y-89068797D01*
X155387953Y-89038679D01*
X155217538Y-89006822D01*
X155155258Y-88975154D01*
X155119985Y-88914842D01*
X155122919Y-88845034D01*
X155152639Y-88797257D01*
X155303496Y-88646401D01*
X155433425Y-88460842D01*
X155488002Y-88417218D01*
X155557500Y-88410024D01*
X155619855Y-88441547D01*
X155636574Y-88460841D01*
X155766505Y-88646401D01*
X155933599Y-88813495D01*
X156030384Y-88881265D01*
X156127165Y-88949032D01*
X156127167Y-88949033D01*
X156127170Y-88949035D01*
X156341337Y-89048903D01*
X156569592Y-89110063D01*
X156746034Y-89125500D01*
X156804999Y-89130659D01*
X156805000Y-89130659D01*
X156805001Y-89130659D01*
X156863966Y-89125500D01*
X157040408Y-89110063D01*
X157268663Y-89048903D01*
X157482830Y-88949035D01*
X157676401Y-88813495D01*
X157843495Y-88646401D01*
X157973426Y-88460841D01*
X158028002Y-88417217D01*
X158097500Y-88410023D01*
X158159855Y-88441546D01*
X158176575Y-88460842D01*
X158306500Y-88646395D01*
X158306505Y-88646401D01*
X158473599Y-88813495D01*
X158570384Y-88881265D01*
X158667165Y-88949032D01*
X158667167Y-88949033D01*
X158667170Y-88949035D01*
X158881337Y-89048903D01*
X159109592Y-89110063D01*
X159286034Y-89125500D01*
X159344999Y-89130659D01*
X159345000Y-89130659D01*
X159345001Y-89130659D01*
X159403966Y-89125500D01*
X159580408Y-89110063D01*
X159808663Y-89048903D01*
X160022830Y-88949035D01*
X160216401Y-88813495D01*
X160383495Y-88646401D01*
X160513426Y-88460841D01*
X160568002Y-88417217D01*
X160637500Y-88410023D01*
X160699855Y-88441546D01*
X160716575Y-88460842D01*
X160846500Y-88646395D01*
X160846505Y-88646401D01*
X161013599Y-88813495D01*
X161110384Y-88881265D01*
X161207165Y-88949032D01*
X161207167Y-88949033D01*
X161207170Y-88949035D01*
X161421337Y-89048903D01*
X161649592Y-89110063D01*
X161826034Y-89125500D01*
X161884999Y-89130659D01*
X161885000Y-89130659D01*
X161885001Y-89130659D01*
X161943966Y-89125500D01*
X162120408Y-89110063D01*
X162348663Y-89048903D01*
X162562830Y-88949035D01*
X162756401Y-88813495D01*
X162923495Y-88646401D01*
X163053426Y-88460839D01*
X163108002Y-88417216D01*
X163177500Y-88410022D01*
X163239855Y-88441545D01*
X163256573Y-88460838D01*
X163386506Y-88646401D01*
X163553600Y-88813495D01*
X163650385Y-88881265D01*
X163747166Y-88949032D01*
X163747168Y-88949033D01*
X163747171Y-88949035D01*
X163961338Y-89048903D01*
X164189593Y-89110063D01*
X164366035Y-89125500D01*
X164425000Y-89130659D01*
X164425001Y-89130659D01*
X164425002Y-89130659D01*
X164483967Y-89125500D01*
X164660409Y-89110063D01*
X164888664Y-89048903D01*
X165102831Y-88949035D01*
X165296402Y-88813495D01*
X165463496Y-88646401D01*
X165593427Y-88460840D01*
X165648002Y-88417217D01*
X165717500Y-88410023D01*
X165779855Y-88441546D01*
X165796573Y-88460839D01*
X165926506Y-88646402D01*
X166093600Y-88813496D01*
X166138641Y-88845034D01*
X166287166Y-88949033D01*
X166287168Y-88949034D01*
X166287171Y-88949036D01*
X166501338Y-89048904D01*
X166729593Y-89110064D01*
X166917919Y-89126540D01*
X166965000Y-89130660D01*
X166965001Y-89130660D01*
X166965002Y-89130660D01*
X167004235Y-89127227D01*
X167200409Y-89110064D01*
X167428664Y-89048904D01*
X167642831Y-88949036D01*
X167836402Y-88813496D01*
X168003496Y-88646402D01*
X168133427Y-88460841D01*
X168188002Y-88417218D01*
X168257500Y-88410024D01*
X168319855Y-88441547D01*
X168336574Y-88460841D01*
X168466505Y-88646401D01*
X168633599Y-88813495D01*
X168730384Y-88881265D01*
X168827165Y-88949032D01*
X168827167Y-88949033D01*
X168827170Y-88949035D01*
X169041337Y-89048903D01*
X169269592Y-89110063D01*
X169446034Y-89125500D01*
X169504999Y-89130659D01*
X169505000Y-89130659D01*
X169505001Y-89130659D01*
X169563966Y-89125500D01*
X169740408Y-89110063D01*
X169968663Y-89048903D01*
X170182830Y-88949035D01*
X170376401Y-88813495D01*
X170543495Y-88646401D01*
X170673426Y-88460841D01*
X170728002Y-88417217D01*
X170797500Y-88410023D01*
X170859855Y-88441546D01*
X170876575Y-88460842D01*
X171006500Y-88646395D01*
X171006505Y-88646401D01*
X171173599Y-88813495D01*
X171270384Y-88881265D01*
X171367165Y-88949032D01*
X171367167Y-88949033D01*
X171367170Y-88949035D01*
X171581337Y-89048903D01*
X171809592Y-89110063D01*
X171986034Y-89125500D01*
X172044999Y-89130659D01*
X172045000Y-89130659D01*
X172045001Y-89130659D01*
X172103966Y-89125500D01*
X172280408Y-89110063D01*
X172508663Y-89048903D01*
X172722830Y-88949035D01*
X172916401Y-88813495D01*
X173083495Y-88646401D01*
X173213424Y-88460842D01*
X173268001Y-88417218D01*
X173337499Y-88410024D01*
X173399854Y-88441547D01*
X173416574Y-88460843D01*
X173546499Y-88646396D01*
X173546504Y-88646402D01*
X173713598Y-88813496D01*
X173758639Y-88845034D01*
X173907164Y-88949033D01*
X173907166Y-88949034D01*
X173907169Y-88949036D01*
X174121336Y-89048904D01*
X174349591Y-89110064D01*
X174537917Y-89126540D01*
X174584998Y-89130660D01*
X174584999Y-89130660D01*
X174585000Y-89130660D01*
X174624233Y-89127227D01*
X174820407Y-89110064D01*
X175048662Y-89048904D01*
X175262829Y-88949036D01*
X175456400Y-88813496D01*
X175578329Y-88691566D01*
X175639648Y-88658084D01*
X175709340Y-88663068D01*
X175765274Y-88704939D01*
X175782189Y-88735917D01*
X175831202Y-88867328D01*
X175831206Y-88867335D01*
X175917452Y-88982544D01*
X175917455Y-88982547D01*
X176032664Y-89068793D01*
X176032671Y-89068797D01*
X176167517Y-89119091D01*
X176167516Y-89119091D01*
X176174444Y-89119835D01*
X176227127Y-89125500D01*
X178022872Y-89125499D01*
X178082483Y-89119091D01*
X178217331Y-89068796D01*
X178332546Y-88982546D01*
X178418796Y-88867331D01*
X178469091Y-88732483D01*
X178475500Y-88672873D01*
X178475499Y-86877128D01*
X178469091Y-86817517D01*
X178467810Y-86814083D01*
X178418797Y-86682671D01*
X178418793Y-86682664D01*
X178332547Y-86567455D01*
X178332544Y-86567452D01*
X178217335Y-86481206D01*
X178217328Y-86481202D01*
X178082482Y-86430908D01*
X178082483Y-86430908D01*
X178022883Y-86424501D01*
X178022881Y-86424500D01*
X178022873Y-86424500D01*
X178022864Y-86424500D01*
X176227129Y-86424500D01*
X176227123Y-86424501D01*
X176167516Y-86430908D01*
X176032671Y-86481202D01*
X176032664Y-86481206D01*
X175917455Y-86567452D01*
X175917452Y-86567455D01*
X175831206Y-86682664D01*
X175831202Y-86682671D01*
X175782189Y-86814083D01*
X175740318Y-86870017D01*
X175674853Y-86894434D01*
X175606580Y-86879582D01*
X175578326Y-86858432D01*
X175533977Y-86814083D01*
X175456400Y-86736506D01*
X175456396Y-86736503D01*
X175456395Y-86736502D01*
X175262833Y-86600968D01*
X175262829Y-86600966D01*
X175262825Y-86600964D01*
X175048662Y-86501098D01*
X175048658Y-86501097D01*
X175048654Y-86501095D01*
X174820412Y-86439939D01*
X174820402Y-86439937D01*
X174585000Y-86419342D01*
X174584998Y-86419342D01*
X174349595Y-86439937D01*
X174349585Y-86439939D01*
X174121343Y-86501095D01*
X174121334Y-86501099D01*
X173907170Y-86600965D01*
X173907168Y-86600966D01*
X173713596Y-86736506D01*
X173546507Y-86903595D01*
X173416574Y-87089159D01*
X173361997Y-87132783D01*
X173292498Y-87139976D01*
X173230144Y-87108454D01*
X173213424Y-87089158D01*
X173213423Y-87089157D01*
X173083495Y-86903599D01*
X173083494Y-86903597D01*
X172916402Y-86736506D01*
X172916396Y-86736502D01*
X172839518Y-86682671D01*
X172722834Y-86600967D01*
X172722830Y-86600965D01*
X172722828Y-86600964D01*
X172508663Y-86501097D01*
X172508659Y-86501096D01*
X172508655Y-86501094D01*
X172280413Y-86439938D01*
X172280403Y-86439936D01*
X172045001Y-86419341D01*
X172044999Y-86419341D01*
X171809596Y-86439936D01*
X171809586Y-86439938D01*
X171581344Y-86501094D01*
X171581335Y-86501098D01*
X171367171Y-86600964D01*
X171367169Y-86600965D01*
X171173597Y-86736505D01*
X171006505Y-86903597D01*
X170876575Y-87089158D01*
X170821998Y-87132783D01*
X170752500Y-87139977D01*
X170690145Y-87108454D01*
X170673425Y-87089158D01*
X170543494Y-86903597D01*
X170376402Y-86736506D01*
X170376396Y-86736502D01*
X170299518Y-86682671D01*
X170182834Y-86600967D01*
X170182830Y-86600965D01*
X170182828Y-86600964D01*
X169968663Y-86501097D01*
X169968659Y-86501096D01*
X169968655Y-86501094D01*
X169740413Y-86439938D01*
X169740403Y-86439936D01*
X169505001Y-86419341D01*
X169504999Y-86419341D01*
X169269596Y-86439936D01*
X169269586Y-86439938D01*
X169041344Y-86501094D01*
X169041335Y-86501098D01*
X168827171Y-86600964D01*
X168827169Y-86600965D01*
X168633597Y-86736505D01*
X168466505Y-86903597D01*
X168336575Y-87089158D01*
X168281998Y-87132783D01*
X168212500Y-87139977D01*
X168150145Y-87108454D01*
X168133425Y-87089158D01*
X168003495Y-86903598D01*
X167836403Y-86736507D01*
X167836400Y-86736505D01*
X167759508Y-86682664D01*
X167642835Y-86600968D01*
X167642831Y-86600966D01*
X167642827Y-86600964D01*
X167428664Y-86501098D01*
X167428660Y-86501097D01*
X167428656Y-86501095D01*
X167200414Y-86439939D01*
X167200404Y-86439937D01*
X166965002Y-86419342D01*
X166965000Y-86419342D01*
X166729597Y-86439937D01*
X166729587Y-86439939D01*
X166501345Y-86501095D01*
X166501336Y-86501099D01*
X166287172Y-86600965D01*
X166287170Y-86600966D01*
X166093598Y-86736506D01*
X165926506Y-86903598D01*
X165796576Y-87089159D01*
X165741999Y-87132784D01*
X165672501Y-87139978D01*
X165610146Y-87108455D01*
X165593426Y-87089159D01*
X165463495Y-86903597D01*
X165296403Y-86736506D01*
X165296397Y-86736502D01*
X165219519Y-86682671D01*
X165102835Y-86600967D01*
X165102831Y-86600965D01*
X165102829Y-86600964D01*
X164888664Y-86501097D01*
X164888660Y-86501096D01*
X164888656Y-86501094D01*
X164660414Y-86439938D01*
X164660404Y-86439936D01*
X164425002Y-86419341D01*
X164425000Y-86419341D01*
X164189597Y-86439936D01*
X164189587Y-86439938D01*
X163961345Y-86501094D01*
X163961336Y-86501098D01*
X163747172Y-86600964D01*
X163747170Y-86600965D01*
X163553598Y-86736505D01*
X163386509Y-86903594D01*
X163256575Y-87089160D01*
X163201998Y-87132784D01*
X163132499Y-87139977D01*
X163070145Y-87108455D01*
X163053425Y-87089159D01*
X162923494Y-86903597D01*
X162756402Y-86736506D01*
X162756396Y-86736502D01*
X162679518Y-86682671D01*
X162562834Y-86600967D01*
X162562830Y-86600965D01*
X162562828Y-86600964D01*
X162348663Y-86501097D01*
X162348659Y-86501096D01*
X162348655Y-86501094D01*
X162120413Y-86439938D01*
X162120403Y-86439936D01*
X161885001Y-86419341D01*
X161884999Y-86419341D01*
X161649596Y-86439936D01*
X161649586Y-86439938D01*
X161421344Y-86501094D01*
X161421335Y-86501098D01*
X161207171Y-86600964D01*
X161207169Y-86600965D01*
X161013597Y-86736505D01*
X160846505Y-86903597D01*
X160716575Y-87089158D01*
X160661998Y-87132783D01*
X160592500Y-87139977D01*
X160530145Y-87108454D01*
X160513425Y-87089158D01*
X160383494Y-86903597D01*
X160216402Y-86736506D01*
X160216396Y-86736502D01*
X160139518Y-86682671D01*
X160022834Y-86600967D01*
X160022830Y-86600965D01*
X160022828Y-86600964D01*
X159808663Y-86501097D01*
X159808659Y-86501096D01*
X159808655Y-86501094D01*
X159580413Y-86439938D01*
X159580403Y-86439936D01*
X159345001Y-86419341D01*
X159344999Y-86419341D01*
X159109596Y-86439936D01*
X159109586Y-86439938D01*
X158881344Y-86501094D01*
X158881335Y-86501098D01*
X158667171Y-86600964D01*
X158667169Y-86600965D01*
X158473597Y-86736505D01*
X158306505Y-86903597D01*
X158176575Y-87089158D01*
X158121998Y-87132783D01*
X158052500Y-87139977D01*
X157990145Y-87108454D01*
X157973425Y-87089158D01*
X157843494Y-86903597D01*
X157676402Y-86736506D01*
X157676396Y-86736502D01*
X157599518Y-86682671D01*
X157482834Y-86600967D01*
X157482830Y-86600965D01*
X157482828Y-86600964D01*
X157268663Y-86501097D01*
X157268659Y-86501096D01*
X157268655Y-86501094D01*
X157040413Y-86439938D01*
X157040403Y-86439936D01*
X156805001Y-86419341D01*
X156804999Y-86419341D01*
X156569596Y-86439936D01*
X156569586Y-86439938D01*
X156341344Y-86501094D01*
X156341335Y-86501098D01*
X156127171Y-86600964D01*
X156127169Y-86600965D01*
X155933597Y-86736505D01*
X155766508Y-86903594D01*
X155636575Y-87089158D01*
X155581998Y-87132782D01*
X155512499Y-87139975D01*
X155450145Y-87108453D01*
X155433425Y-87089157D01*
X155303495Y-86903597D01*
X155136403Y-86736506D01*
X155136397Y-86736502D01*
X155059519Y-86682671D01*
X154942835Y-86600967D01*
X154942831Y-86600965D01*
X154942829Y-86600964D01*
X154728664Y-86501097D01*
X154728660Y-86501096D01*
X154728656Y-86501094D01*
X154500414Y-86439938D01*
X154500404Y-86439936D01*
X154265002Y-86419341D01*
X154265000Y-86419341D01*
X154029597Y-86439936D01*
X154029587Y-86439938D01*
X153801345Y-86501094D01*
X153801336Y-86501098D01*
X153587172Y-86600964D01*
X153587170Y-86600965D01*
X153393598Y-86736505D01*
X153226506Y-86903597D01*
X153090966Y-87097169D01*
X153090965Y-87097171D01*
X152997402Y-87297816D01*
X152995002Y-87302966D01*
X152991099Y-87311335D01*
X152991095Y-87311344D01*
X152929939Y-87539586D01*
X152929937Y-87539596D01*
X152909342Y-87774999D01*
X152909342Y-87775000D01*
X152929937Y-88010403D01*
X152929939Y-88010413D01*
X152991095Y-88238655D01*
X152991097Y-88238659D01*
X152991098Y-88238663D01*
X153085704Y-88441545D01*
X153090966Y-88452830D01*
X153090968Y-88452834D01*
X153199282Y-88607521D01*
X153226506Y-88646401D01*
X153393600Y-88813495D01*
X153490385Y-88881265D01*
X153587166Y-88949032D01*
X153587168Y-88949033D01*
X153587171Y-88949035D01*
X153801338Y-89048903D01*
X154029593Y-89110063D01*
X154181439Y-89123348D01*
X154246507Y-89148801D01*
X154287486Y-89205392D01*
X154291364Y-89275153D01*
X154256910Y-89335938D01*
X154254170Y-89338513D01*
X154217882Y-89371593D01*
X154089387Y-89541746D01*
X153994351Y-89732605D01*
X153994351Y-89732607D01*
X153935999Y-89937689D01*
X153916326Y-90149999D01*
X153916326Y-90150000D01*
X153935999Y-90362312D01*
X153994348Y-90567385D01*
X153996419Y-90572731D01*
X153996226Y-90572805D01*
X153999082Y-90580124D01*
X153999312Y-90580040D01*
X154150172Y-90989103D01*
X154154900Y-91058813D01*
X154121190Y-91120012D01*
X154059744Y-91153271D01*
X154011047Y-91153897D01*
X153919352Y-91136757D01*
X153706132Y-91136757D01*
X153496544Y-91175936D01*
X153496541Y-91175936D01*
X153496541Y-91175937D01*
X153297724Y-91252958D01*
X153297722Y-91252959D01*
X153116441Y-91365204D01*
X152958869Y-91508850D01*
X152830374Y-91679003D01*
X152735338Y-91869862D01*
X152735338Y-91869864D01*
X152676986Y-92074946D01*
X152657313Y-92287256D01*
X152657313Y-92287257D01*
X152676986Y-92499569D01*
X152735335Y-92704643D01*
X152735873Y-92706031D01*
X152737940Y-92711784D01*
X153014926Y-93547287D01*
X153043201Y-93632575D01*
X153049500Y-93671595D01*
X153049500Y-97297287D01*
X153037458Y-97350592D01*
X152598340Y-98272880D01*
X152592950Y-98284586D01*
X152592705Y-98285136D01*
X152585012Y-98306020D01*
X152579662Y-98318414D01*
X152572596Y-98332606D01*
X152572593Y-98332616D01*
X152532190Y-98474617D01*
X152514244Y-98537690D01*
X152494571Y-98750000D01*
X143350500Y-98750000D01*
X143350500Y-98235484D01*
X143370185Y-98168445D01*
X143408825Y-98130304D01*
X143821899Y-97872393D01*
X143842766Y-97861956D01*
X143849092Y-97859506D01*
X144030375Y-97747260D01*
X144187945Y-97603615D01*
X144316439Y-97433463D01*
X144354662Y-97356700D01*
X144411476Y-97242602D01*
X144411476Y-97242601D01*
X144411478Y-97242597D01*
X144459610Y-97073430D01*
X144496889Y-97014339D01*
X144560199Y-96984782D01*
X144629439Y-96994144D01*
X144682625Y-97039454D01*
X144689876Y-97052096D01*
X144767632Y-97208253D01*
X144896127Y-97378406D01*
X144896128Y-97378407D01*
X145053698Y-97522052D01*
X145234981Y-97634298D01*
X145433802Y-97711321D01*
X145643390Y-97750500D01*
X145643392Y-97750500D01*
X145856608Y-97750500D01*
X145856610Y-97750500D01*
X146066198Y-97711321D01*
X146265019Y-97634298D01*
X146446302Y-97522052D01*
X146603872Y-97378407D01*
X146616093Y-97362222D01*
X146620506Y-97356714D01*
X147308628Y-96546557D01*
X147327120Y-96523259D01*
X147336549Y-96512684D01*
X147559476Y-96289757D01*
X147620797Y-96256274D01*
X147630951Y-96254503D01*
X148405806Y-96152514D01*
X148405841Y-96152508D01*
X148405846Y-96152508D01*
X148409708Y-96151919D01*
X148428411Y-96150500D01*
X148456608Y-96150500D01*
X148456610Y-96150500D01*
X148666198Y-96111321D01*
X148865019Y-96034298D01*
X149046302Y-95922052D01*
X149203872Y-95778407D01*
X149332366Y-95608255D01*
X149369629Y-95533420D01*
X149427403Y-95417394D01*
X149427403Y-95417393D01*
X149427405Y-95417389D01*
X149485756Y-95212310D01*
X149505429Y-95000000D01*
X149485756Y-94787690D01*
X149427405Y-94582611D01*
X149427403Y-94582606D01*
X149427403Y-94582605D01*
X149332367Y-94391746D01*
X149203872Y-94221593D01*
X149046302Y-94077948D01*
X148865019Y-93965702D01*
X148865017Y-93965701D01*
X148765608Y-93927190D01*
X148666198Y-93888679D01*
X148456610Y-93849500D01*
X148243390Y-93849500D01*
X148033802Y-93888679D01*
X148033799Y-93888679D01*
X148033799Y-93888680D01*
X147834982Y-93965701D01*
X147834980Y-93965702D01*
X147653699Y-94077947D01*
X147496127Y-94221593D01*
X147367635Y-94391742D01*
X147367628Y-94391754D01*
X147324259Y-94478852D01*
X147312535Y-94497089D01*
X147312760Y-94497246D01*
X147310222Y-94500881D01*
X146815413Y-95330012D01*
X146796614Y-95354148D01*
X146652846Y-95497916D01*
X146591523Y-95531401D01*
X146550976Y-95533420D01*
X145915821Y-95460257D01*
X145907226Y-95458962D01*
X145856610Y-95449500D01*
X145856608Y-95449500D01*
X145828296Y-95449500D01*
X145817635Y-95449041D01*
X145792027Y-95446831D01*
X145790719Y-95446756D01*
X145790699Y-95446755D01*
X145703473Y-95448875D01*
X145694347Y-95449500D01*
X145643390Y-95449500D01*
X145433802Y-95488679D01*
X145433799Y-95488679D01*
X145433799Y-95488680D01*
X145234982Y-95565701D01*
X145234980Y-95565702D01*
X145053699Y-95677947D01*
X144896127Y-95821593D01*
X144767632Y-95991746D01*
X144672597Y-96182605D01*
X144672595Y-96182609D01*
X144672595Y-96182611D01*
X144656595Y-96238842D01*
X144624462Y-96351776D01*
X144587182Y-96410868D01*
X144523872Y-96440426D01*
X144454633Y-96431063D01*
X144401447Y-96385752D01*
X144394196Y-96373111D01*
X144316440Y-96216954D01*
X144187945Y-96046801D01*
X144169406Y-96029900D01*
X144030375Y-95903156D01*
X143849092Y-95790910D01*
X143849090Y-95790909D01*
X143742200Y-95749500D01*
X143650271Y-95713887D01*
X143440683Y-95674708D01*
X143227463Y-95674708D01*
X143017875Y-95713887D01*
X143017872Y-95713887D01*
X143017872Y-95713888D01*
X142819055Y-95790909D01*
X142819053Y-95790910D01*
X142637772Y-95903155D01*
X142480200Y-96046801D01*
X142351705Y-96216954D01*
X142256669Y-96407813D01*
X142256669Y-96407815D01*
X142198317Y-96612897D01*
X142180273Y-96807617D01*
X142178911Y-96817748D01*
X142178471Y-96820234D01*
X142164221Y-97262705D01*
X142160060Y-97290805D01*
X142149499Y-97330218D01*
X142149499Y-97498327D01*
X142149500Y-97498340D01*
X142149500Y-97717860D01*
X142149435Y-97721851D01*
X142148514Y-97750500D01*
X142147880Y-97770174D01*
X142145149Y-97854976D01*
X142144953Y-97863130D01*
X142144947Y-97863536D01*
X142147781Y-97925625D01*
X142148148Y-97928090D01*
X142149500Y-97946349D01*
X142149500Y-100633402D01*
X142129815Y-100700441D01*
X142101223Y-100731596D01*
X141627168Y-101097170D01*
X141616726Y-101104401D01*
X141578693Y-101127951D01*
X141535472Y-101167353D01*
X141527667Y-101173902D01*
X141517214Y-101181964D01*
X141492091Y-101202660D01*
X141490997Y-101203622D01*
X141461257Y-101234631D01*
X141455306Y-101240434D01*
X141421130Y-101271590D01*
X141292632Y-101441746D01*
X141197596Y-101632605D01*
X141197596Y-101632607D01*
X141139244Y-101837689D01*
X141119571Y-102049999D01*
X133901166Y-102049999D01*
X133946302Y-102022052D01*
X134103872Y-101878407D01*
X134232366Y-101708255D01*
X134232367Y-101708253D01*
X134327403Y-101517394D01*
X134327403Y-101517393D01*
X134327405Y-101517389D01*
X134385756Y-101312310D01*
X134405429Y-101100000D01*
X134385756Y-100887690D01*
X134327405Y-100682611D01*
X134327403Y-100682606D01*
X134327403Y-100682605D01*
X134232367Y-100491746D01*
X134103872Y-100321593D01*
X133946302Y-100177948D01*
X133765019Y-100065702D01*
X133765017Y-100065701D01*
X133658844Y-100024570D01*
X133566198Y-99988679D01*
X133356610Y-99949500D01*
X133143390Y-99949500D01*
X133056712Y-99965703D01*
X132933800Y-99988679D01*
X132933792Y-99988682D01*
X132841151Y-100024570D01*
X132826659Y-100029184D01*
X132798483Y-100036284D01*
X132798472Y-100036287D01*
X131875632Y-100415207D01*
X131828533Y-100424500D01*
X130554192Y-100424500D01*
X130498536Y-100411308D01*
X129960265Y-100140948D01*
X129960262Y-100140946D01*
X129635668Y-99977910D01*
X129626053Y-99972533D01*
X129615021Y-99965703D01*
X129615007Y-99965696D01*
X129604563Y-99961650D01*
X129593719Y-99956840D01*
X129586889Y-99953410D01*
X129570883Y-99945720D01*
X129570112Y-99945366D01*
X129502337Y-99919955D01*
X129502335Y-99919954D01*
X129502334Y-99919954D01*
X129502331Y-99919953D01*
X129495885Y-99918297D01*
X129496041Y-99917687D01*
X129480606Y-99913630D01*
X129416203Y-99888680D01*
X129416199Y-99888679D01*
X129346335Y-99875619D01*
X129206610Y-99849500D01*
X128993390Y-99849500D01*
X128783802Y-99888679D01*
X128783799Y-99888679D01*
X128783799Y-99888680D01*
X128584982Y-99965701D01*
X128584980Y-99965702D01*
X128403699Y-100077947D01*
X128246127Y-100221593D01*
X128117632Y-100391746D01*
X128022596Y-100582605D01*
X128022596Y-100582607D01*
X127964244Y-100787689D01*
X127944571Y-100999999D01*
X127350000Y-100999999D01*
X127350000Y-97385258D01*
X128399500Y-97385258D01*
X128399500Y-97614741D01*
X128416948Y-97747262D01*
X128429452Y-97842238D01*
X128452456Y-97928090D01*
X128488842Y-98063887D01*
X128576650Y-98275876D01*
X128576657Y-98275890D01*
X128691392Y-98474617D01*
X128831081Y-98656661D01*
X128831089Y-98656670D01*
X128993330Y-98818911D01*
X128993338Y-98818918D01*
X129175382Y-98958607D01*
X129175385Y-98958608D01*
X129175388Y-98958611D01*
X129374112Y-99073344D01*
X129374117Y-99073346D01*
X129374123Y-99073349D01*
X129465480Y-99111190D01*
X129586113Y-99161158D01*
X129807762Y-99220548D01*
X130035266Y-99250500D01*
X130035273Y-99250500D01*
X130264727Y-99250500D01*
X130264734Y-99250500D01*
X130492238Y-99220548D01*
X130713887Y-99161158D01*
X130925888Y-99073344D01*
X131124612Y-98958611D01*
X131306661Y-98818919D01*
X131306665Y-98818914D01*
X131306670Y-98818911D01*
X131468911Y-98656670D01*
X131468914Y-98656665D01*
X131468919Y-98656661D01*
X131608611Y-98474612D01*
X131723344Y-98275888D01*
X131811158Y-98063887D01*
X131870548Y-97842238D01*
X131900500Y-97614734D01*
X131900500Y-97385266D01*
X131870548Y-97157762D01*
X131811158Y-96936113D01*
X131723344Y-96724112D01*
X131608611Y-96525388D01*
X131608608Y-96525385D01*
X131608607Y-96525382D01*
X131468918Y-96343338D01*
X131468911Y-96343330D01*
X131306670Y-96181089D01*
X131306661Y-96181081D01*
X131124617Y-96041392D01*
X131107904Y-96031743D01*
X130925888Y-95926656D01*
X130925876Y-95926650D01*
X130713887Y-95838842D01*
X130649512Y-95821593D01*
X130492238Y-95779452D01*
X130454215Y-95774446D01*
X130264741Y-95749500D01*
X130264734Y-95749500D01*
X130035266Y-95749500D01*
X130035258Y-95749500D01*
X129818715Y-95778009D01*
X129807762Y-95779452D01*
X129765000Y-95790910D01*
X129586112Y-95838842D01*
X129374123Y-95926650D01*
X129374109Y-95926657D01*
X129175382Y-96041392D01*
X128993338Y-96181081D01*
X128831081Y-96343338D01*
X128691392Y-96525382D01*
X128576657Y-96724109D01*
X128576650Y-96724123D01*
X128488842Y-96936112D01*
X128429453Y-97157759D01*
X128429451Y-97157770D01*
X128399500Y-97385258D01*
X127350000Y-97385258D01*
X127350000Y-82900000D01*
X135844571Y-82900000D01*
X135864244Y-83112310D01*
X135922595Y-83317389D01*
X135937264Y-83346849D01*
X135944665Y-83365285D01*
X135948353Y-83377143D01*
X135948358Y-83377156D01*
X136165961Y-83834194D01*
X136177007Y-83903185D01*
X136165961Y-83940804D01*
X135948364Y-84397829D01*
X135942925Y-84409642D01*
X135942705Y-84410136D01*
X135935012Y-84431020D01*
X135929662Y-84443414D01*
X135922596Y-84457606D01*
X135922593Y-84457616D01*
X135864244Y-84662689D01*
X135844571Y-84874999D01*
X135844571Y-84875000D01*
X135864244Y-85087310D01*
X135922596Y-85292392D01*
X135922596Y-85292394D01*
X136017632Y-85483253D01*
X136017634Y-85483255D01*
X136146128Y-85653407D01*
X136303698Y-85797052D01*
X136484981Y-85909298D01*
X136683802Y-85986321D01*
X136893390Y-86025500D01*
X136893392Y-86025500D01*
X137106608Y-86025500D01*
X137106610Y-86025500D01*
X137316198Y-85986321D01*
X137515019Y-85909298D01*
X137696302Y-85797052D01*
X137853872Y-85653407D01*
X137982366Y-85483255D01*
X138077405Y-85292389D01*
X138135756Y-85087310D01*
X138155429Y-84875000D01*
X138135756Y-84662690D01*
X138077405Y-84457611D01*
X138077403Y-84457606D01*
X138077403Y-84457605D01*
X138062737Y-84428153D01*
X138055330Y-84409703D01*
X138051643Y-84397847D01*
X138015123Y-84321144D01*
X137834035Y-83940802D01*
X137822990Y-83871813D01*
X137834035Y-83834196D01*
X138051641Y-83377156D01*
X138057057Y-83365394D01*
X138057296Y-83364857D01*
X138064981Y-83343989D01*
X138070333Y-83331590D01*
X138077405Y-83317389D01*
X138135756Y-83112310D01*
X138155429Y-82900000D01*
X138135756Y-82687690D01*
X138083800Y-82505087D01*
X138422308Y-82505087D01*
X138422308Y-82505088D01*
X138441981Y-82717398D01*
X138500333Y-82922480D01*
X138500333Y-82922482D01*
X138595369Y-83113341D01*
X138595371Y-83113343D01*
X138723865Y-83283495D01*
X138881435Y-83427140D01*
X139062718Y-83539386D01*
X139261539Y-83616409D01*
X139471127Y-83655588D01*
X139551346Y-83655588D01*
X139567380Y-83656628D01*
X139596207Y-83660388D01*
X140650870Y-83646543D01*
X140701589Y-83643323D01*
X140701592Y-83643322D01*
X140701594Y-83643322D01*
X140703481Y-83643018D01*
X140723225Y-83641436D01*
X140985251Y-83641436D01*
X141030949Y-83650164D01*
X141954265Y-84016201D01*
X142001463Y-84032267D01*
X142001466Y-84032267D01*
X142001468Y-84032268D01*
X142007268Y-84033639D01*
X142007156Y-84034111D01*
X142026384Y-84039077D01*
X142083802Y-84061321D01*
X142293390Y-84100500D01*
X142293392Y-84100500D01*
X142506608Y-84100500D01*
X142506610Y-84100500D01*
X142716198Y-84061321D01*
X142915019Y-83984298D01*
X143096302Y-83872052D01*
X143253872Y-83728407D01*
X143382366Y-83558255D01*
X143472542Y-83377156D01*
X143477403Y-83367394D01*
X143477403Y-83367393D01*
X143477405Y-83367389D01*
X143535756Y-83162310D01*
X143555429Y-82950000D01*
X143535756Y-82737690D01*
X143477405Y-82532611D01*
X143477403Y-82532606D01*
X143477403Y-82532605D01*
X143382367Y-82341746D01*
X143253872Y-82171593D01*
X143161845Y-82087699D01*
X143096302Y-82027948D01*
X142915019Y-81915702D01*
X142915017Y-81915701D01*
X142785950Y-81865701D01*
X142716198Y-81838679D01*
X142506610Y-81799500D01*
X142293390Y-81799500D01*
X142083802Y-81838679D01*
X142083799Y-81838679D01*
X142083799Y-81838680D01*
X141884982Y-81915701D01*
X141884978Y-81915703D01*
X141806789Y-81964115D01*
X141803119Y-81966301D01*
X141037637Y-82404518D01*
X140969677Y-82420741D01*
X140903734Y-82397647D01*
X140874001Y-82367371D01*
X140593719Y-81961528D01*
X140584757Y-81946346D01*
X140560103Y-81896833D01*
X140431609Y-81726681D01*
X140373139Y-81673378D01*
X140369694Y-81670112D01*
X140361606Y-81662144D01*
X140361604Y-81662142D01*
X140361601Y-81662140D01*
X140360473Y-81661269D01*
X140352698Y-81654743D01*
X140274040Y-81583037D01*
X140274039Y-81583036D01*
X140092756Y-81470790D01*
X140092754Y-81470789D01*
X139993345Y-81432278D01*
X139893935Y-81393767D01*
X139684347Y-81354588D01*
X139471127Y-81354588D01*
X139261539Y-81393767D01*
X139261536Y-81393767D01*
X139261536Y-81393768D01*
X139062719Y-81470789D01*
X139062717Y-81470790D01*
X138881436Y-81583035D01*
X138723864Y-81726681D01*
X138595369Y-81896834D01*
X138500333Y-82087693D01*
X138500333Y-82087695D01*
X138441981Y-82292777D01*
X138422308Y-82505087D01*
X138083800Y-82505087D01*
X138077405Y-82482611D01*
X138077403Y-82482606D01*
X138077403Y-82482605D01*
X137982367Y-82291746D01*
X137853872Y-82121593D01*
X137816686Y-82087693D01*
X137696302Y-81977948D01*
X137515019Y-81865702D01*
X137515017Y-81865701D01*
X137344130Y-81799500D01*
X137316198Y-81788679D01*
X137106610Y-81749500D01*
X136893390Y-81749500D01*
X136683802Y-81788679D01*
X136683799Y-81788679D01*
X136683799Y-81788680D01*
X136484982Y-81865701D01*
X136484980Y-81865702D01*
X136303699Y-81977947D01*
X136146127Y-82121593D01*
X136017632Y-82291746D01*
X135922596Y-82482605D01*
X135922596Y-82482607D01*
X135908369Y-82532611D01*
X135864244Y-82687690D01*
X135844571Y-82900000D01*
X127350000Y-82900000D01*
X127350000Y-79199997D01*
X138914724Y-79199997D01*
X138914724Y-79200002D01*
X138933794Y-79417975D01*
X138933794Y-79417979D01*
X138990423Y-79629322D01*
X138990425Y-79629326D01*
X138990426Y-79629330D01*
X139036662Y-79728484D01*
X139082898Y-79827638D01*
X139082899Y-79827639D01*
X139208403Y-80006877D01*
X139363124Y-80161598D01*
X139542362Y-80287102D01*
X139740671Y-80379575D01*
X139952024Y-80436207D01*
X140134927Y-80452208D01*
X140169999Y-80455277D01*
X140170001Y-80455277D01*
X140170003Y-80455277D01*
X140198255Y-80452805D01*
X140387978Y-80436207D01*
X140599331Y-80379575D01*
X140797640Y-80287102D01*
X140976878Y-80161598D01*
X141131599Y-80006877D01*
X141257103Y-79827639D01*
X141349576Y-79629330D01*
X141406208Y-79417977D01*
X141425278Y-79200000D01*
X141425278Y-79199997D01*
X143794724Y-79199997D01*
X143794724Y-79200002D01*
X143813794Y-79417975D01*
X143813794Y-79417979D01*
X143870423Y-79629322D01*
X143870425Y-79629326D01*
X143870426Y-79629330D01*
X143916662Y-79728484D01*
X143962898Y-79827638D01*
X143962899Y-79827639D01*
X144088403Y-80006877D01*
X144243124Y-80161598D01*
X144422362Y-80287102D01*
X144620671Y-80379575D01*
X144832024Y-80436207D01*
X145014927Y-80452208D01*
X145049999Y-80455277D01*
X145050001Y-80455277D01*
X145050003Y-80455277D01*
X145078255Y-80452805D01*
X145267978Y-80436207D01*
X145479331Y-80379575D01*
X145677640Y-80287102D01*
X145856878Y-80161598D01*
X146011599Y-80006877D01*
X146137103Y-79827639D01*
X146229576Y-79629330D01*
X146286208Y-79417977D01*
X146305278Y-79200000D01*
X146286208Y-78982023D01*
X146229576Y-78770670D01*
X146137103Y-78572362D01*
X146137101Y-78572359D01*
X146137100Y-78572357D01*
X146011600Y-78393124D01*
X146011597Y-78393121D01*
X145856878Y-78238402D01*
X145677640Y-78112898D01*
X145677641Y-78112898D01*
X145677639Y-78112897D01*
X145578485Y-78066661D01*
X145479331Y-78020425D01*
X145479327Y-78020424D01*
X145479323Y-78020422D01*
X145267978Y-77963793D01*
X145050003Y-77944723D01*
X145049999Y-77944723D01*
X144904683Y-77957436D01*
X144832024Y-77963793D01*
X144832021Y-77963793D01*
X144620678Y-78020422D01*
X144620669Y-78020426D01*
X144422362Y-78112898D01*
X144422358Y-78112900D01*
X144243122Y-78238402D01*
X144088403Y-78393121D01*
X143962901Y-78572357D01*
X143962899Y-78572361D01*
X143870427Y-78770668D01*
X143870423Y-78770677D01*
X143813794Y-78982020D01*
X143813794Y-78982024D01*
X143794724Y-79199997D01*
X141425278Y-79199997D01*
X141406208Y-78982023D01*
X141349576Y-78770670D01*
X141257103Y-78572362D01*
X141257101Y-78572359D01*
X141257100Y-78572357D01*
X141131600Y-78393124D01*
X141131597Y-78393121D01*
X140976878Y-78238402D01*
X140797640Y-78112898D01*
X140797641Y-78112898D01*
X140797639Y-78112897D01*
X140698485Y-78066661D01*
X140599331Y-78020425D01*
X140599327Y-78020424D01*
X140599323Y-78020422D01*
X140387978Y-77963793D01*
X140170003Y-77944723D01*
X140169999Y-77944723D01*
X140024683Y-77957436D01*
X139952024Y-77963793D01*
X139952021Y-77963793D01*
X139740678Y-78020422D01*
X139740669Y-78020426D01*
X139542362Y-78112898D01*
X139542358Y-78112900D01*
X139363122Y-78238402D01*
X139208403Y-78393121D01*
X139082901Y-78572357D01*
X139082899Y-78572361D01*
X138990427Y-78770668D01*
X138990423Y-78770677D01*
X138933794Y-78982020D01*
X138933794Y-78982024D01*
X138914724Y-79199997D01*
X127350000Y-79199997D01*
X127350000Y-76035258D01*
X148549500Y-76035258D01*
X148549500Y-76264741D01*
X148574446Y-76454215D01*
X148579452Y-76492238D01*
X148579453Y-76492240D01*
X148638842Y-76713887D01*
X148726650Y-76925876D01*
X148726657Y-76925890D01*
X148841392Y-77124617D01*
X148981081Y-77306661D01*
X148981089Y-77306670D01*
X149143330Y-77468911D01*
X149143338Y-77468918D01*
X149325382Y-77608607D01*
X149325385Y-77608608D01*
X149325388Y-77608611D01*
X149524112Y-77723344D01*
X149524117Y-77723346D01*
X149524123Y-77723349D01*
X149615480Y-77761190D01*
X149736113Y-77811158D01*
X149957762Y-77870548D01*
X150185266Y-77900500D01*
X150185273Y-77900500D01*
X150414727Y-77900500D01*
X150414734Y-77900500D01*
X150642238Y-77870548D01*
X150863887Y-77811158D01*
X151075888Y-77723344D01*
X151274612Y-77608611D01*
X151456661Y-77468919D01*
X151456665Y-77468914D01*
X151456670Y-77468911D01*
X151618911Y-77306670D01*
X151618914Y-77306665D01*
X151618919Y-77306661D01*
X151758611Y-77124612D01*
X151873344Y-76925888D01*
X151961158Y-76713887D01*
X152020548Y-76492238D01*
X152050500Y-76264734D01*
X152050500Y-76035266D01*
X152020548Y-75807762D01*
X151961158Y-75586113D01*
X151873344Y-75374112D01*
X151758611Y-75175388D01*
X151758608Y-75175385D01*
X151758607Y-75175382D01*
X151618918Y-74993338D01*
X151618911Y-74993330D01*
X151456670Y-74831089D01*
X151456661Y-74831081D01*
X151274617Y-74691392D01*
X151075890Y-74576657D01*
X151075876Y-74576650D01*
X150863887Y-74488842D01*
X150797075Y-74470940D01*
X150642238Y-74429452D01*
X150604215Y-74424446D01*
X150414741Y-74399500D01*
X150414734Y-74399500D01*
X150185266Y-74399500D01*
X150185258Y-74399500D01*
X149968715Y-74428009D01*
X149957762Y-74429452D01*
X149864076Y-74454554D01*
X149736112Y-74488842D01*
X149524123Y-74576650D01*
X149524109Y-74576657D01*
X149325382Y-74691392D01*
X149143338Y-74831081D01*
X148981081Y-74993338D01*
X148841392Y-75175382D01*
X148726657Y-75374109D01*
X148726650Y-75374123D01*
X148638842Y-75586112D01*
X148579453Y-75807759D01*
X148579451Y-75807770D01*
X148549500Y-76035258D01*
X127350000Y-76035258D01*
X127350000Y-75098673D01*
X127341636Y-74982154D01*
X127341556Y-74965619D01*
X127349886Y-74831089D01*
X127355919Y-74733645D01*
X127358511Y-74714979D01*
X127407645Y-74489002D01*
X127413040Y-74470940D01*
X127495876Y-74255037D01*
X127503951Y-74237993D01*
X127618573Y-74037150D01*
X127629130Y-74021542D01*
X127772897Y-73840395D01*
X127785688Y-73826581D01*
X127955272Y-73669327D01*
X127970021Y-73657605D01*
X128161487Y-73527895D01*
X128177834Y-73518550D01*
X128386767Y-73419376D01*
X128404348Y-73412617D01*
X128626980Y-73345955D01*
X128643150Y-73342273D01*
X128748848Y-73325548D01*
X128768275Y-73324025D01*
X178330944Y-73344470D01*
G37*
%TD.AperFunction*%
%TD*%
%TA.AperFunction,Conductor*%
%TO.N,GND*%
G36*
X150451851Y-93439571D02*
G01*
X150392717Y-94442913D01*
X149742010Y-94443620D01*
X149493973Y-93842391D01*
X150310429Y-93298149D01*
X150451851Y-93439571D01*
G37*
%TD.AperFunction*%
%TD*%
%TA.AperFunction,Conductor*%
%TO.N,GND*%
G36*
X153727666Y-90384162D02*
G01*
X152801911Y-91089511D01*
X152660489Y-90948089D01*
X152618047Y-89924543D01*
X153268754Y-89923836D01*
X153727666Y-90384162D01*
G37*
%TD.AperFunction*%
%TD*%
%TA.AperFunction,Conductor*%
%TO.N,/~{DTR}*%
G36*
X155659711Y-90393518D02*
G01*
X155666033Y-90399858D01*
X155666020Y-90408813D01*
X155665224Y-90410383D01*
X155053415Y-91420145D01*
X155046197Y-91425445D01*
X155043408Y-91425782D01*
X154858155Y-91425782D01*
X154849882Y-91422355D01*
X154847178Y-91418130D01*
X154475119Y-90409282D01*
X154475471Y-90400335D01*
X154481602Y-90394431D01*
X155067263Y-90150867D01*
X155076215Y-90150855D01*
X155659711Y-90393518D01*
G37*
%TD.AperFunction*%
%TD*%
%TA.AperFunction,Conductor*%
%TO.N,/~{DTR}*%
G36*
X155050885Y-93703427D02*
G01*
X155053176Y-93706670D01*
X155545232Y-94740147D01*
X155545694Y-94749090D01*
X155539698Y-94755741D01*
X155539161Y-94755980D01*
X154954493Y-94999131D01*
X154945538Y-94999144D01*
X154945507Y-94999131D01*
X154360838Y-94755980D01*
X154354515Y-94749639D01*
X154354528Y-94740684D01*
X154354767Y-94740147D01*
X154846824Y-93706670D01*
X154853475Y-93700674D01*
X154857388Y-93700000D01*
X155042612Y-93700000D01*
X155050885Y-93703427D01*
G37*
%TD.AperFunction*%
%TD*%
%TA.AperFunction,Conductor*%
%TO.N,/RXD*%
G36*
X153750885Y-97453427D02*
G01*
X153753176Y-97456670D01*
X154245232Y-98490147D01*
X154245694Y-98499090D01*
X154239698Y-98505741D01*
X154239161Y-98505980D01*
X153654493Y-98749131D01*
X153645538Y-98749144D01*
X153645507Y-98749131D01*
X153060838Y-98505980D01*
X153054515Y-98499639D01*
X153054528Y-98490684D01*
X153054767Y-98490147D01*
X153546824Y-97456670D01*
X153553475Y-97450674D01*
X153557388Y-97450000D01*
X153742612Y-97450000D01*
X153750885Y-97453427D01*
G37*
%TD.AperFunction*%
%TD*%
%TA.AperFunction,Conductor*%
%TO.N,/RXD*%
G36*
X154255725Y-92470484D02*
G01*
X154400279Y-92530601D01*
X154406602Y-92536942D01*
X154406589Y-92545897D01*
X154405591Y-92547787D01*
X153753461Y-93549569D01*
X153746076Y-93554633D01*
X153743656Y-93554886D01*
X153558448Y-93554886D01*
X153550175Y-93551459D01*
X153547342Y-93546868D01*
X153216127Y-92547787D01*
X153215638Y-92546311D01*
X153216288Y-92537382D01*
X153222248Y-92531830D01*
X153808250Y-92288124D01*
X153817202Y-92288112D01*
X154255725Y-92470484D01*
G37*
%TD.AperFunction*%
%TD*%
%TA.AperFunction,Conductor*%
%TO.N,VBUS*%
G36*
X143334515Y-96827634D02*
G01*
X143337067Y-96831449D01*
X143579033Y-97416579D01*
X143579028Y-97425534D01*
X143574417Y-97430974D01*
X142852844Y-97881501D01*
X142846648Y-97883277D01*
X142662083Y-97883277D01*
X142653810Y-97879850D01*
X142650383Y-97871577D01*
X142650389Y-97871200D01*
X142653118Y-97786440D01*
X142683709Y-96836510D01*
X142687399Y-96828355D01*
X142695382Y-96825190D01*
X143326237Y-96824220D01*
X143334515Y-96827634D01*
G37*
%TD.AperFunction*%
%TD*%
%TA.AperFunction,Conductor*%
%TO.N,VBUS*%
G36*
X142847341Y-100950179D02*
G01*
X142850741Y-100957658D01*
X142924151Y-102037525D01*
X142921293Y-102046012D01*
X142913272Y-102049992D01*
X142912496Y-102050019D01*
X142279863Y-102050992D01*
X142271585Y-102047578D01*
X142271563Y-102047556D01*
X142270022Y-102046012D01*
X141824771Y-101599791D01*
X141821353Y-101591514D01*
X141824789Y-101583245D01*
X141825899Y-101582269D01*
X142646842Y-100949186D01*
X142653987Y-100946752D01*
X142839068Y-100946752D01*
X142847341Y-100950179D01*
G37*
%TD.AperFunction*%
%TD*%
%TA.AperFunction,Conductor*%
%TO.N,GND*%
G36*
X147750000Y-107100000D02*
G01*
X147750000Y-107300000D01*
X146698744Y-107800522D01*
X146449000Y-107200000D01*
X146698744Y-106599478D01*
X147750000Y-107100000D01*
G37*
%TD.AperFunction*%
%TD*%
%TA.AperFunction,Conductor*%
%TO.N,GND*%
G36*
X149101000Y-107200000D02*
G01*
X148851256Y-107800522D01*
X147800000Y-107300000D01*
X147800000Y-107100000D01*
X148851256Y-106599478D01*
X149101000Y-107200000D01*
G37*
%TD.AperFunction*%
%TD*%
%TA.AperFunction,Conductor*%
%TO.N,/~{SLEEP}*%
G36*
X145763020Y-95951499D02*
G01*
X146784858Y-96069203D01*
X146791791Y-96072553D01*
X146922703Y-96203465D01*
X146926130Y-96211738D01*
X146923347Y-96219312D01*
X146217822Y-97049960D01*
X146209855Y-97054047D01*
X146201331Y-97051303D01*
X146200645Y-97050672D01*
X145752738Y-96604141D01*
X145749298Y-96595873D01*
X145749298Y-96595842D01*
X145749707Y-96219312D01*
X145749985Y-95963108D01*
X145753421Y-95954841D01*
X145761698Y-95951423D01*
X145763020Y-95951499D01*
G37*
%TD.AperFunction*%
%TD*%
%TA.AperFunction,Conductor*%
%TO.N,/~{SLEEP}*%
G36*
X147758809Y-94755105D02*
G01*
X148343460Y-94996303D01*
X148349801Y-95002626D01*
X148350698Y-95007132D01*
X148350011Y-95639750D01*
X148346575Y-95648019D01*
X148339838Y-95651337D01*
X147367002Y-95779387D01*
X147358352Y-95777069D01*
X147357202Y-95776060D01*
X147226303Y-95645161D01*
X147222876Y-95636888D01*
X147224527Y-95630896D01*
X147744304Y-94759924D01*
X147751485Y-94754578D01*
X147758809Y-94755105D01*
G37*
%TD.AperFunction*%
%TD*%
%TA.AperFunction,Conductor*%
%TO.N,+5V*%
G36*
X137100885Y-83578427D02*
G01*
X137103176Y-83581670D01*
X137595232Y-84615147D01*
X137595694Y-84624090D01*
X137589698Y-84630741D01*
X137589161Y-84630980D01*
X137004493Y-84874131D01*
X136995538Y-84874144D01*
X136995507Y-84874131D01*
X136410838Y-84630980D01*
X136404515Y-84624639D01*
X136404528Y-84615684D01*
X136404767Y-84615147D01*
X136896824Y-83581670D01*
X136903475Y-83575674D01*
X136907388Y-83575000D01*
X137092612Y-83575000D01*
X137100885Y-83578427D01*
G37*
%TD.AperFunction*%
%TD*%
%TA.AperFunction,Conductor*%
%TO.N,+5V*%
G36*
X137589161Y-83144019D02*
G01*
X137595484Y-83150360D01*
X137595471Y-83159315D01*
X137595232Y-83159852D01*
X137103176Y-84193330D01*
X137096525Y-84199326D01*
X137092612Y-84200000D01*
X136907388Y-84200000D01*
X136899115Y-84196573D01*
X136896824Y-84193330D01*
X136404767Y-83159852D01*
X136404305Y-83150909D01*
X136410301Y-83144258D01*
X136410816Y-83144028D01*
X136995508Y-82900867D01*
X137004460Y-82900855D01*
X137589161Y-83144019D01*
G37*
%TD.AperFunction*%
%TD*%
%TA.AperFunction,Conductor*%
%TO.N,GND*%
G36*
X135100522Y-94673744D02*
G01*
X134500000Y-95705109D01*
X134300000Y-95705109D01*
X133899478Y-94673744D01*
X134500000Y-94424000D01*
X135100522Y-94673744D01*
G37*
%TD.AperFunction*%
%TD*%
%TA.AperFunction,Conductor*%
%TO.N,GND*%
G36*
X135025522Y-98526256D02*
G01*
X134425000Y-98776000D01*
X133824478Y-98526256D01*
X134300000Y-97479973D01*
X134500000Y-97479973D01*
X135025522Y-98526256D01*
G37*
%TD.AperFunction*%
%TD*%
%TA.AperFunction,Conductor*%
%TO.N,GND*%
G36*
X141057212Y-93165790D02*
G01*
X140915790Y-93307212D01*
X139878464Y-92877730D01*
X140126501Y-92276501D01*
X140727730Y-92028464D01*
X141057212Y-93165790D01*
G37*
%TD.AperFunction*%
%TD*%
%TA.AperFunction,Conductor*%
%TO.N,GND*%
G36*
X143136531Y-94524270D02*
G01*
X142888494Y-95125499D01*
X142287265Y-95373536D01*
X141892633Y-94284055D01*
X142034055Y-94142633D01*
X143136531Y-94524270D01*
G37*
%TD.AperFunction*%
%TD*%
%TA.AperFunction,Conductor*%
%TO.N,/USBD+*%
G36*
X132999436Y-100503929D02*
G01*
X133005728Y-100510232D01*
X133249131Y-101095507D01*
X133249144Y-101104462D01*
X133249131Y-101104493D01*
X133006286Y-101688425D01*
X132999945Y-101694748D01*
X132990990Y-101694735D01*
X132989803Y-101694161D01*
X131970938Y-101128343D01*
X131965369Y-101121330D01*
X131964918Y-101118114D01*
X131964918Y-100932843D01*
X131968345Y-100924570D01*
X131972171Y-100922021D01*
X132990481Y-100503902D01*
X132999436Y-100503929D01*
G37*
%TD.AperFunction*%
%TD*%
%TA.AperFunction,Conductor*%
%TO.N,/USBD+*%
G36*
X129359214Y-100404770D02*
G01*
X129359972Y-100405118D01*
X129724493Y-100588207D01*
X130388579Y-100921761D01*
X130394433Y-100928535D01*
X130395027Y-100932215D01*
X130395027Y-101117465D01*
X130391600Y-101125738D01*
X130388168Y-101128117D01*
X129359746Y-101595521D01*
X129350796Y-101595824D01*
X129344253Y-101589710D01*
X129344121Y-101589406D01*
X129100867Y-101004491D01*
X129100855Y-100995539D01*
X129343919Y-100411078D01*
X129350259Y-100404757D01*
X129359214Y-100404770D01*
G37*
%TD.AperFunction*%
%TD*%
%TA.AperFunction,Conductor*%
%TO.N,GND*%
G36*
X145450707Y-98449293D02*
G01*
X145698744Y-99050522D01*
X144601473Y-99439949D01*
X144460051Y-99298527D01*
X144849478Y-98201256D01*
X145450707Y-98449293D01*
G37*
%TD.AperFunction*%
%TD*%
%TA.AperFunction,Conductor*%
%TO.N,GND*%
G36*
X170550522Y-97398744D02*
G01*
X170050000Y-98450000D01*
X169850000Y-98450000D01*
X169349478Y-97398744D01*
X169950000Y-97149000D01*
X170550522Y-97398744D01*
G37*
%TD.AperFunction*%
%TD*%
%TA.AperFunction,Conductor*%
%TO.N,GND*%
G36*
X170163868Y-100400972D02*
G01*
X169513868Y-100401972D01*
X169054249Y-99941353D01*
X169850000Y-99275659D01*
X170050000Y-99275659D01*
X170163868Y-100400972D01*
G37*
%TD.AperFunction*%
%TD*%
%TA.AperFunction,Conductor*%
%TO.N,GND*%
G36*
X152845027Y-84675000D02*
G01*
X152845027Y-84875000D01*
X151798744Y-85400522D01*
X151549000Y-84800000D01*
X151798744Y-84199478D01*
X152845027Y-84675000D01*
G37*
%TD.AperFunction*%
%TD*%
%TA.AperFunction,Conductor*%
%TO.N,GND*%
G36*
X154701000Y-84800000D02*
G01*
X154451256Y-85400522D01*
X153404973Y-84875000D01*
X153404973Y-84675000D01*
X154451256Y-84199478D01*
X154701000Y-84800000D01*
G37*
%TD.AperFunction*%
%TD*%
%TA.AperFunction,Conductor*%
%TO.N,GND*%
G36*
X145096294Y-102070475D02*
G01*
X144495772Y-102320219D01*
X143895250Y-102070475D01*
X144395772Y-101019219D01*
X144595772Y-101019219D01*
X145096294Y-102070475D01*
G37*
%TD.AperFunction*%
%TD*%
%TA.AperFunction,Conductor*%
%TO.N,GND*%
G36*
X152742158Y-97895588D02*
G01*
X152075000Y-98647205D01*
X151875000Y-98647205D01*
X151682017Y-97684713D01*
X152282539Y-97434969D01*
X152742158Y-97895588D01*
G37*
%TD.AperFunction*%
%TD*%
%TA.AperFunction,Conductor*%
%TO.N,GND*%
G36*
X152425522Y-100351256D02*
G01*
X151825000Y-100601000D01*
X151224478Y-100351256D01*
X151875000Y-99329837D01*
X152075000Y-99329837D01*
X152425522Y-100351256D01*
G37*
%TD.AperFunction*%
%TD*%
%TA.AperFunction,Conductor*%
%TO.N,+5V*%
G36*
X153909220Y-106495614D02*
G01*
X153914275Y-106498590D01*
X154044561Y-106628876D01*
X154047988Y-106637149D01*
X154044561Y-106645422D01*
X154043845Y-106646081D01*
X153267824Y-107302676D01*
X153259295Y-107305404D01*
X153252007Y-107302030D01*
X152804842Y-106856239D01*
X152801402Y-106847971D01*
X152802294Y-106843473D01*
X153044747Y-106259110D01*
X153051083Y-106252783D01*
X153058770Y-106252346D01*
X153909220Y-106495614D01*
G37*
%TD.AperFunction*%
%TD*%
%TA.AperFunction,Conductor*%
%TO.N,+5V*%
G36*
X155360832Y-104355940D02*
G01*
X155883407Y-104571528D01*
X155946208Y-104597437D01*
X155952549Y-104603760D01*
X155952562Y-104603791D01*
X156194052Y-105189149D01*
X156194039Y-105198104D01*
X156187698Y-105204427D01*
X156187149Y-105204637D01*
X155108435Y-105587478D01*
X155099492Y-105587016D01*
X155096249Y-105584725D01*
X154965274Y-105453750D01*
X154961847Y-105445477D01*
X154962519Y-105441570D01*
X155345364Y-104362847D01*
X155351358Y-104356199D01*
X155360301Y-104355737D01*
X155360832Y-104355940D01*
G37*
%TD.AperFunction*%
%TD*%
%TA.AperFunction,Conductor*%
%TO.N,Net-(JP1-C)*%
G36*
X140043977Y-82055389D02*
G01*
X140045322Y-82057004D01*
X140653708Y-82937934D01*
X140655781Y-82944583D01*
X140655781Y-83129388D01*
X140652354Y-83137661D01*
X140644235Y-83141087D01*
X139589572Y-83154932D01*
X139581254Y-83151614D01*
X139577719Y-83143387D01*
X139577718Y-83143386D01*
X139576744Y-82509949D01*
X139580156Y-82501675D01*
X140027433Y-82055369D01*
X140035708Y-82051953D01*
X140043977Y-82055389D01*
G37*
%TD.AperFunction*%
%TD*%
%TA.AperFunction,Conductor*%
%TO.N,Net-(JP1-C)*%
G36*
X142155703Y-82360413D02*
G01*
X142156352Y-82361733D01*
X142399131Y-82945507D01*
X142399144Y-82954462D01*
X142399131Y-82954493D01*
X142155674Y-83539898D01*
X142149333Y-83546221D01*
X142140559Y-83546281D01*
X141125476Y-83143864D01*
X141119048Y-83137630D01*
X141118088Y-83132988D01*
X141118088Y-82947719D01*
X141121515Y-82939446D01*
X141123970Y-82937568D01*
X142139737Y-82356071D01*
X142148619Y-82354936D01*
X142155703Y-82360413D01*
G37*
%TD.AperFunction*%
%TD*%
M02*
