%TF.GenerationSoftware,KiCad,Pcbnew,8.0.2*%
%TF.CreationDate,2025-05-16T12:47:24+07:00*%
%TF.ProjectId,hokushime-db9-to-rs232,686f6b75-7368-4696-9d65-2d6462392d74,rev?*%
%TF.SameCoordinates,Original*%
%TF.FileFunction,Plated,1,2,PTH,Drill*%
%TF.FilePolarity,Positive*%
%FSLAX46Y46*%
G04 Gerber Fmt 4.6, Leading zero omitted, Abs format (unit mm)*
G04 Created by KiCad (PCBNEW 8.0.2) date 2025-05-16 12:47:24*
%MOMM*%
%LPD*%
G01*
G04 APERTURE LIST*
%TA.AperFunction,ViaDrill*%
%ADD10C,0.800000*%
%TD*%
%TA.AperFunction,ComponentDrill*%
%ADD11C,0.800000*%
%TD*%
%TA.AperFunction,ComponentDrill*%
%ADD12C,0.950000*%
%TD*%
%TA.AperFunction,ComponentDrill*%
%ADD13C,1.000000*%
%TD*%
%TA.AperFunction,ComponentDrill*%
%ADD14C,2.300000*%
%TD*%
G04 APERTURE END LIST*
D10*
X129200000Y-101500000D03*
X133250000Y-101100000D03*
X134425000Y-98775000D03*
X134950000Y-94150000D03*
X137000000Y-82900000D03*
X137050000Y-85800000D03*
X139577737Y-82505088D03*
X140250000Y-92250000D03*
X142400000Y-82950000D03*
X142700000Y-95450000D03*
X142750000Y-102500000D03*
X143334073Y-96825208D03*
X144495772Y-102319219D03*
X145450000Y-98450000D03*
X145750000Y-96600000D03*
X145900000Y-106500000D03*
X148350000Y-95000000D03*
X149100000Y-107200000D03*
X149932871Y-94626374D03*
X151550000Y-84800000D03*
X151825000Y-100600000D03*
X152282539Y-97435969D03*
X152800000Y-106850000D03*
X153700000Y-90150000D03*
X154150000Y-98850000D03*
X154675000Y-94375000D03*
X154700000Y-84800000D03*
X154800000Y-92050000D03*
X155950000Y-104600000D03*
X159200000Y-94650000D03*
X169513868Y-100400972D03*
X169950000Y-97150000D03*
D11*
%TO.C,Y1*%
X139975000Y-79625001D03*
X144855000Y-79625001D03*
D12*
%TO.C,J2*%
X136025000Y-103525001D03*
X136025001Y-105525000D03*
X138525000Y-103525000D03*
X138525000Y-105525000D03*
D13*
%TO.C,J1*%
X150910001Y-110850001D03*
X153450002Y-110850001D03*
%TO.C,J3*%
X154700000Y-87500000D03*
%TO.C,J1*%
X155990002Y-110849998D03*
%TO.C,J3*%
X157240001Y-87500001D03*
%TO.C,J1*%
X158530001Y-110850001D03*
%TO.C,J3*%
X159780000Y-87500000D03*
%TO.C,J1*%
X161070001Y-110850001D03*
%TO.C,J3*%
X162320000Y-87500000D03*
%TO.C,J1*%
X163609997Y-110850000D03*
%TO.C,J3*%
X164859999Y-87500001D03*
%TO.C,J1*%
X166150001Y-110850001D03*
%TO.C,J3*%
X167399999Y-87500000D03*
X169940000Y-87500000D03*
X172480000Y-87500000D03*
X175020000Y-87500000D03*
X177559999Y-87500000D03*
D14*
%TO.C,J2*%
X131275000Y-108385001D03*
X143274999Y-108384998D03*
M02*
