%TF.GenerationSoftware,KiCad,Pcbnew,8.0.2*%
%TF.CreationDate,2025-05-16T12:47:09+07:00*%
%TF.ProjectId,hokushime-db9-to-rs232,686f6b75-7368-4696-9d65-2d6462392d74,rev?*%
%TF.SameCoordinates,Original*%
%TF.FileFunction,Copper,L2,Bot*%
%TF.FilePolarity,Positive*%
%FSLAX46Y46*%
G04 Gerber Fmt 4.6, Leading zero omitted, Abs format (unit mm)*
G04 Created by KiCad (PCBNEW 8.0.2) date 2025-05-16 12:47:09*
%MOMM*%
%LPD*%
G01*
G04 APERTURE LIST*
%TA.AperFunction,ComponentPad*%
%ADD10R,1.600000X1.600000*%
%TD*%
%TA.AperFunction,ComponentPad*%
%ADD11C,1.600000*%
%TD*%
%TA.AperFunction,ComponentPad*%
%ADD12C,4.000000*%
%TD*%
%TA.AperFunction,ComponentPad*%
%ADD13C,1.500000*%
%TD*%
%TA.AperFunction,ComponentPad*%
%ADD14R,1.700000X1.700000*%
%TD*%
%TA.AperFunction,ComponentPad*%
%ADD15O,1.700000X1.700000*%
%TD*%
%TA.AperFunction,ViaPad*%
%ADD16C,1.300000*%
%TD*%
%TA.AperFunction,Conductor*%
%ADD17C,0.200000*%
%TD*%
G04 APERTURE END LIST*
D10*
%TO.P,J2,1,VBUS*%
%TO.N,VBUS*%
X138525000Y-103525000D03*
D11*
%TO.P,J2,2,D-*%
%TO.N,/USBD-*%
X136025000Y-103525001D03*
%TO.P,J2,3,D+*%
%TO.N,/USBD+*%
X136025001Y-105525000D03*
%TO.P,J2,4,GND*%
%TO.N,GND*%
X138525000Y-105525000D03*
D12*
%TO.P,J2,5,Shield*%
X143274999Y-108384998D03*
X131275000Y-108385001D03*
%TD*%
D13*
%TO.P,Y1,1,1*%
%TO.N,Net-(U1-XTOUT)*%
X139975000Y-79625001D03*
%TO.P,Y1,2,2*%
%TO.N,Net-(U1-XTIN)*%
X144855000Y-79625001D03*
%TD*%
D14*
%TO.P,J3,1,Pin_1*%
%TO.N,/CONN2_DTR*%
X154700000Y-87500000D03*
D15*
%TO.P,J3,2,Pin_2*%
%TO.N,/CONN2_RTS*%
X157240001Y-87500001D03*
%TO.P,J3,3,Pin_3*%
%TO.N,/CONN2_TXD*%
X159780000Y-87500000D03*
%TO.P,J3,4,Pin_4*%
%TO.N,/CONN2_RI*%
X162320000Y-87500000D03*
%TO.P,J3,5,Pin_5*%
%TO.N,/CONN2_DCD*%
X164859999Y-87500001D03*
%TO.P,J3,6,Pin_6*%
%TO.N,/CONN2_DSR*%
X167399999Y-87500000D03*
%TO.P,J3,7,Pin_7*%
%TO.N,/CONN2_CTS*%
X169940000Y-87500000D03*
%TO.P,J3,8,Pin_8*%
%TO.N,/CONN2_RXD*%
X172480000Y-87500000D03*
%TO.P,J3,9,Pin_9*%
%TO.N,/CONN2_GND*%
X175020000Y-87500000D03*
%TO.P,J3,10,Pin_10*%
%TO.N,/CONN2_SHIELD*%
X177559999Y-87500000D03*
%TD*%
D14*
%TO.P,J1,1,Pin_1*%
%TO.N,/USBD+*%
X166150001Y-110850001D03*
D15*
%TO.P,J1,2,Pin_2*%
%TO.N,/USBD-*%
X163609997Y-110850000D03*
%TO.P,J1,3,Pin_3*%
%TO.N,VBUS*%
X161070001Y-110850001D03*
%TO.P,J1,4,Pin_4*%
%TO.N,unconnected-(J1-Pin_4-Pad4)*%
X158530001Y-110850001D03*
%TO.P,J1,5,Pin_5*%
%TO.N,GND*%
X155990002Y-110849998D03*
%TO.P,J1,6,Pin_6*%
X153450002Y-110850001D03*
%TO.P,J1,7,Pin_7*%
%TO.N,Net-(J1-Pin_7)*%
X150910001Y-110850001D03*
%TD*%
D16*
%TO.N,GND*%
X149932871Y-94626374D03*
X140250000Y-92250000D03*
X169950000Y-97150000D03*
X134425000Y-98775000D03*
X153700000Y-90150000D03*
X154700000Y-84800000D03*
X144495772Y-102319219D03*
X145900000Y-106500000D03*
X151550000Y-84800000D03*
X151825000Y-100600000D03*
X152282539Y-97435969D03*
X145450000Y-98450000D03*
X149100000Y-107200000D03*
X169513868Y-100400972D03*
X134950000Y-94150000D03*
X142700000Y-95450000D03*
%TO.N,+5V*%
X152800000Y-106850000D03*
X155950000Y-104600000D03*
X137000000Y-82900000D03*
X137050000Y-85800000D03*
%TO.N,VBUS*%
X142750000Y-102500000D03*
X143334073Y-96825208D03*
%TO.N,/RXD*%
X154150000Y-98850000D03*
X154800000Y-92050000D03*
%TO.N,/~{SLEEP}*%
X145750000Y-96600000D03*
X148350000Y-95000000D03*
%TO.N,/~{CTS}*%
X159200000Y-94650000D03*
X154675000Y-94375000D03*
%TO.N,/USBD+*%
X133250000Y-101100000D03*
X129200000Y-101500000D03*
%TO.N,Net-(JP1-C)*%
X142400000Y-82950000D03*
X139577737Y-82505088D03*
%TD*%
D17*
%TO.N,GND*%
X149932871Y-94217129D02*
X153700000Y-90450000D01*
X153700000Y-90450000D02*
X153700000Y-90150000D01*
X149932871Y-94626374D02*
X149932871Y-94217129D01*
%TO.N,/~{SLEEP}*%
X146625000Y-95925000D02*
X146425000Y-95925000D01*
X146425000Y-95925000D02*
X145750000Y-96600000D01*
X147550000Y-95000000D02*
X146625000Y-95925000D01*
X148350000Y-95000000D02*
X147550000Y-95000000D01*
%TO.N,VBUS*%
X143334073Y-96825208D02*
X142750000Y-97409281D01*
X142750000Y-97409281D02*
X142750000Y-102500000D01*
%TO.N,GND*%
X140250000Y-92300000D02*
X140250000Y-92250000D01*
X142700000Y-95450000D02*
X142700000Y-94750000D01*
X142700000Y-94750000D02*
X140250000Y-92300000D01*
X154675000Y-84775000D02*
X154700000Y-84800000D01*
X151575000Y-84775000D02*
X154675000Y-84775000D01*
X151550000Y-84800000D02*
X151575000Y-84775000D01*
%TO.N,/RXD*%
X153269319Y-97969319D02*
X153269319Y-93580681D01*
X153269319Y-93580681D02*
X154800000Y-92050000D01*
X154150000Y-98850000D02*
X153269319Y-97969319D01*
%TO.N,GND*%
X151975000Y-100450000D02*
X151825000Y-100600000D01*
X151975000Y-97743508D02*
X151975000Y-100450000D01*
X152282539Y-97435969D02*
X151975000Y-97743508D01*
%TO.N,/~{CTS}*%
X158925000Y-94375000D02*
X154675000Y-94375000D01*
X159200000Y-94650000D02*
X158925000Y-94375000D01*
%TO.N,GND*%
X144495772Y-99404228D02*
X144495772Y-102319219D01*
X145450000Y-98450000D02*
X144495772Y-99404228D01*
%TO.N,/USBD+*%
X129675000Y-101025000D02*
X129200000Y-101500000D01*
X133250000Y-101100000D02*
X133175000Y-101025000D01*
X133175000Y-101025000D02*
X129675000Y-101025000D01*
%TO.N,+5V*%
X153700000Y-106850000D02*
X155950000Y-104600000D01*
X152800000Y-106850000D02*
X153700000Y-106850000D01*
%TO.N,GND*%
X145900000Y-106500000D02*
X148400000Y-106500000D01*
X148400000Y-106500000D02*
X149100000Y-107200000D01*
X134275000Y-98625000D02*
X134425000Y-98775000D01*
X134275000Y-94825000D02*
X134275000Y-98625000D01*
X134950000Y-94150000D02*
X134275000Y-94825000D01*
%TO.N,Net-(JP1-C)*%
X140113585Y-83040936D02*
X139577737Y-82505088D01*
X142309064Y-83040936D02*
X140113585Y-83040936D01*
X142400000Y-82950000D02*
X142309064Y-83040936D01*
%TO.N,+5V*%
X137000000Y-85750000D02*
X137050000Y-85800000D01*
X137000000Y-82900000D02*
X137000000Y-85750000D01*
%TO.N,GND*%
X169950000Y-97150000D02*
X169950000Y-99964840D01*
X169950000Y-99964840D02*
X169513868Y-100400972D01*
%TD*%
%TA.AperFunction,Conductor*%
%TO.N,GND*%
G36*
X155524077Y-110657005D02*
G01*
X155490002Y-110784172D01*
X155490002Y-110915824D01*
X155524077Y-111042991D01*
X155556990Y-111099998D01*
X154791665Y-111099998D01*
X154791637Y-111100001D01*
X153883014Y-111100001D01*
X153915927Y-111042994D01*
X153950002Y-110915827D01*
X153950002Y-110784175D01*
X153915927Y-110657008D01*
X153883014Y-110600001D01*
X154648339Y-110600001D01*
X154648367Y-110599998D01*
X155556990Y-110599998D01*
X155524077Y-110657005D01*
G37*
%TD.AperFunction*%
%TA.AperFunction,Conductor*%
G36*
X178330953Y-73344470D02*
G01*
X178350309Y-73346001D01*
X178456060Y-73362779D01*
X178472175Y-73366452D01*
X178694833Y-73433119D01*
X178712426Y-73439884D01*
X178897982Y-73527960D01*
X178921325Y-73539040D01*
X178937699Y-73548400D01*
X179129146Y-73678093D01*
X179143907Y-73689824D01*
X179234854Y-73774155D01*
X179313471Y-73847054D01*
X179326286Y-73860893D01*
X179470041Y-74042019D01*
X179480608Y-74057641D01*
X179595226Y-74258466D01*
X179603303Y-74275511D01*
X179686140Y-74491409D01*
X179691537Y-74509481D01*
X179740670Y-74735429D01*
X179743265Y-74754110D01*
X179757635Y-74986077D01*
X179757554Y-75002618D01*
X179749195Y-75119125D01*
X179749195Y-119220458D01*
X179757528Y-119336978D01*
X179757607Y-119353489D01*
X179743239Y-119585464D01*
X179740645Y-119604145D01*
X179691512Y-119830103D01*
X179686114Y-119848175D01*
X179603283Y-120064059D01*
X179595207Y-120081103D01*
X179480590Y-120281934D01*
X179470022Y-120297558D01*
X179326270Y-120478680D01*
X179313456Y-120492518D01*
X179143901Y-120649743D01*
X179129135Y-120661479D01*
X178937691Y-120791171D01*
X178921316Y-120800531D01*
X178712427Y-120899683D01*
X178694822Y-120906452D01*
X178472178Y-120973115D01*
X178456052Y-120976792D01*
X178350372Y-120993568D01*
X178330880Y-120995101D01*
X128768265Y-120974656D01*
X128748862Y-120973120D01*
X128722180Y-120968881D01*
X128643138Y-120956324D01*
X128627027Y-120952650D01*
X128450121Y-120899683D01*
X128404371Y-120885984D01*
X128386773Y-120879218D01*
X128299280Y-120837689D01*
X128177874Y-120780062D01*
X128161500Y-120770702D01*
X127970057Y-120641013D01*
X127955292Y-120629278D01*
X127785731Y-120472053D01*
X127772926Y-120458225D01*
X127629164Y-120277094D01*
X127618599Y-120261475D01*
X127503977Y-120060645D01*
X127495901Y-120043602D01*
X127413064Y-119827716D01*
X127407666Y-119809644D01*
X127358529Y-119583691D01*
X127355934Y-119565009D01*
X127341562Y-119333045D01*
X127341643Y-119316505D01*
X127350000Y-119200001D01*
X127350000Y-116835258D01*
X174149500Y-116835258D01*
X174149500Y-117064741D01*
X174174446Y-117254215D01*
X174179452Y-117292238D01*
X174179453Y-117292240D01*
X174238842Y-117513887D01*
X174326650Y-117725876D01*
X174326657Y-117725890D01*
X174441392Y-117924617D01*
X174581081Y-118106661D01*
X174581089Y-118106670D01*
X174743330Y-118268911D01*
X174743338Y-118268918D01*
X174925382Y-118408607D01*
X174925385Y-118408608D01*
X174925388Y-118408611D01*
X175124112Y-118523344D01*
X175124117Y-118523346D01*
X175124123Y-118523349D01*
X175215480Y-118561190D01*
X175336113Y-118611158D01*
X175557762Y-118670548D01*
X175785266Y-118700500D01*
X175785273Y-118700500D01*
X176014727Y-118700500D01*
X176014734Y-118700500D01*
X176242238Y-118670548D01*
X176463887Y-118611158D01*
X176675888Y-118523344D01*
X176874612Y-118408611D01*
X177056661Y-118268919D01*
X177056665Y-118268914D01*
X177056670Y-118268911D01*
X177218911Y-118106670D01*
X177218914Y-118106665D01*
X177218919Y-118106661D01*
X177358611Y-117924612D01*
X177473344Y-117725888D01*
X177561158Y-117513887D01*
X177620548Y-117292238D01*
X177650500Y-117064734D01*
X177650500Y-116835266D01*
X177620548Y-116607762D01*
X177561158Y-116386113D01*
X177473344Y-116174112D01*
X177358611Y-115975388D01*
X177358608Y-115975385D01*
X177358607Y-115975382D01*
X177218918Y-115793338D01*
X177218911Y-115793330D01*
X177056670Y-115631089D01*
X177056661Y-115631081D01*
X176874617Y-115491392D01*
X176675890Y-115376657D01*
X176675876Y-115376650D01*
X176463887Y-115288842D01*
X176242238Y-115229452D01*
X176204215Y-115224446D01*
X176014741Y-115199500D01*
X176014734Y-115199500D01*
X175785266Y-115199500D01*
X175785258Y-115199500D01*
X175568715Y-115228009D01*
X175557762Y-115229452D01*
X175464076Y-115254554D01*
X175336112Y-115288842D01*
X175124123Y-115376650D01*
X175124109Y-115376657D01*
X174925382Y-115491392D01*
X174743338Y-115631081D01*
X174581081Y-115793338D01*
X174441392Y-115975382D01*
X174326657Y-116174109D01*
X174326650Y-116174123D01*
X174238842Y-116386112D01*
X174179453Y-116607759D01*
X174179451Y-116607770D01*
X174149500Y-116835258D01*
X127350000Y-116835258D01*
X127350000Y-108384995D01*
X128770057Y-108384995D01*
X128770057Y-108385006D01*
X128789807Y-108698943D01*
X128789808Y-108698950D01*
X128848755Y-109007959D01*
X128945963Y-109307133D01*
X128945965Y-109307138D01*
X129079900Y-109591762D01*
X129079903Y-109591768D01*
X129248457Y-109857368D01*
X129248460Y-109857372D01*
X129339286Y-109967161D01*
X130302913Y-109003534D01*
X130397829Y-109134176D01*
X130525825Y-109262172D01*
X130656465Y-109357087D01*
X129689971Y-110323580D01*
X129689972Y-110323582D01*
X129932772Y-110499986D01*
X129932790Y-110499997D01*
X130208447Y-110651541D01*
X130208455Y-110651545D01*
X130500926Y-110767341D01*
X130805620Y-110845574D01*
X130805629Y-110845576D01*
X131117701Y-110885000D01*
X131117715Y-110885001D01*
X131432285Y-110885001D01*
X131432298Y-110885000D01*
X131744370Y-110845576D01*
X131744379Y-110845574D01*
X132049073Y-110767341D01*
X132341544Y-110651545D01*
X132341552Y-110651541D01*
X132617209Y-110499997D01*
X132617219Y-110499991D01*
X132860026Y-110323580D01*
X132860027Y-110323580D01*
X131893533Y-109357087D01*
X132024175Y-109262172D01*
X132152171Y-109134176D01*
X132247086Y-109003535D01*
X133210712Y-109967161D01*
X133301544Y-109857365D01*
X133470096Y-109591768D01*
X133470099Y-109591762D01*
X133604034Y-109307138D01*
X133604036Y-109307133D01*
X133701244Y-109007959D01*
X133760191Y-108698950D01*
X133760192Y-108698943D01*
X133779943Y-108385006D01*
X133779943Y-108384995D01*
X133779943Y-108384992D01*
X140770056Y-108384992D01*
X140770056Y-108385003D01*
X140789806Y-108698940D01*
X140789807Y-108698947D01*
X140848754Y-109007956D01*
X140945962Y-109307130D01*
X140945964Y-109307135D01*
X141079899Y-109591759D01*
X141079902Y-109591765D01*
X141248456Y-109857365D01*
X141248459Y-109857369D01*
X141339285Y-109967158D01*
X142302912Y-109003531D01*
X142397828Y-109134173D01*
X142525824Y-109262169D01*
X142656464Y-109357084D01*
X141689970Y-110323577D01*
X141689971Y-110323579D01*
X141932771Y-110499983D01*
X141932789Y-110499994D01*
X142208446Y-110651538D01*
X142208454Y-110651542D01*
X142500925Y-110767338D01*
X142805619Y-110845571D01*
X142805628Y-110845573D01*
X143117700Y-110884997D01*
X143117714Y-110884998D01*
X143432284Y-110884998D01*
X143432297Y-110884997D01*
X143709326Y-110850000D01*
X149554342Y-110850000D01*
X149554342Y-110850001D01*
X149574937Y-111085404D01*
X149574939Y-111085414D01*
X149636095Y-111313656D01*
X149636097Y-111313660D01*
X149636098Y-111313664D01*
X149716005Y-111485024D01*
X149735966Y-111527831D01*
X149735968Y-111527835D01*
X149741577Y-111535845D01*
X149871506Y-111721402D01*
X150038600Y-111888496D01*
X150135385Y-111956266D01*
X150232166Y-112024033D01*
X150232168Y-112024034D01*
X150232171Y-112024036D01*
X150446338Y-112123904D01*
X150674593Y-112185064D01*
X150851035Y-112200501D01*
X150910000Y-112205660D01*
X150910001Y-112205660D01*
X150910002Y-112205660D01*
X150968967Y-112200501D01*
X151145409Y-112185064D01*
X151373664Y-112123904D01*
X151587831Y-112024036D01*
X151781402Y-111888496D01*
X151948496Y-111721402D01*
X152078733Y-111535404D01*
X152133308Y-111491781D01*
X152202806Y-111484587D01*
X152265161Y-111516110D01*
X152281880Y-111535405D01*
X152411892Y-111721079D01*
X152578919Y-111888106D01*
X152772423Y-112023601D01*
X152986509Y-112123430D01*
X152986518Y-112123434D01*
X153200002Y-112180635D01*
X153200002Y-111283013D01*
X153257009Y-111315926D01*
X153384176Y-111350001D01*
X153515828Y-111350001D01*
X153642995Y-111315926D01*
X153700002Y-111283013D01*
X153700002Y-112180634D01*
X153913485Y-112123434D01*
X153913494Y-112123430D01*
X154127580Y-112023601D01*
X154321084Y-111888106D01*
X154488107Y-111721083D01*
X154618428Y-111534968D01*
X154673005Y-111491343D01*
X154742504Y-111484151D01*
X154804858Y-111515673D01*
X154821578Y-111534968D01*
X154951896Y-111721080D01*
X155118919Y-111888103D01*
X155312423Y-112023598D01*
X155526509Y-112123427D01*
X155526518Y-112123431D01*
X155740002Y-112180632D01*
X155740002Y-111283010D01*
X155797009Y-111315923D01*
X155924176Y-111349998D01*
X156055828Y-111349998D01*
X156182995Y-111315923D01*
X156240002Y-111283010D01*
X156240002Y-112180631D01*
X156453485Y-112123431D01*
X156453494Y-112123427D01*
X156667580Y-112023598D01*
X156861084Y-111888103D01*
X157028107Y-111721080D01*
X157158120Y-111535405D01*
X157212697Y-111491780D01*
X157282196Y-111484588D01*
X157344550Y-111516110D01*
X157361270Y-111535406D01*
X157491501Y-111721396D01*
X157491506Y-111721402D01*
X157658600Y-111888496D01*
X157755385Y-111956266D01*
X157852166Y-112024033D01*
X157852168Y-112024034D01*
X157852171Y-112024036D01*
X158066338Y-112123904D01*
X158294593Y-112185064D01*
X158471035Y-112200501D01*
X158530000Y-112205660D01*
X158530001Y-112205660D01*
X158530002Y-112205660D01*
X158588967Y-112200501D01*
X158765409Y-112185064D01*
X158993664Y-112123904D01*
X159207831Y-112024036D01*
X159401402Y-111888496D01*
X159568496Y-111721402D01*
X159698426Y-111535843D01*
X159753003Y-111492218D01*
X159822501Y-111485024D01*
X159884856Y-111516547D01*
X159901576Y-111535843D01*
X160031501Y-111721396D01*
X160031506Y-111721402D01*
X160198600Y-111888496D01*
X160295385Y-111956266D01*
X160392166Y-112024033D01*
X160392168Y-112024034D01*
X160392171Y-112024036D01*
X160606338Y-112123904D01*
X160834593Y-112185064D01*
X161011035Y-112200501D01*
X161070000Y-112205660D01*
X161070001Y-112205660D01*
X161070002Y-112205660D01*
X161128967Y-112200501D01*
X161305409Y-112185064D01*
X161533664Y-112123904D01*
X161747831Y-112024036D01*
X161941402Y-111888496D01*
X162108496Y-111721402D01*
X162238425Y-111535844D01*
X162293001Y-111492220D01*
X162362499Y-111485026D01*
X162424854Y-111516549D01*
X162441574Y-111535845D01*
X162571276Y-111721079D01*
X162571502Y-111721401D01*
X162738596Y-111888495D01*
X162738602Y-111888499D01*
X162932162Y-112024032D01*
X162932164Y-112024033D01*
X162932167Y-112024035D01*
X163146334Y-112123903D01*
X163374589Y-112185063D01*
X163551031Y-112200500D01*
X163609996Y-112205659D01*
X163609997Y-112205659D01*
X163609998Y-112205659D01*
X163649231Y-112202226D01*
X163845405Y-112185063D01*
X164073660Y-112123903D01*
X164287827Y-112024035D01*
X164481398Y-111888495D01*
X164603329Y-111766563D01*
X164664648Y-111733081D01*
X164734340Y-111738065D01*
X164790274Y-111779936D01*
X164807189Y-111810914D01*
X164856203Y-111942329D01*
X164856207Y-111942336D01*
X164942453Y-112057545D01*
X164942456Y-112057548D01*
X165057665Y-112143794D01*
X165057672Y-112143798D01*
X165192518Y-112194092D01*
X165192517Y-112194092D01*
X165199445Y-112194836D01*
X165252128Y-112200501D01*
X167047873Y-112200500D01*
X167107484Y-112194092D01*
X167242332Y-112143797D01*
X167357547Y-112057547D01*
X167443797Y-111942332D01*
X167494092Y-111807484D01*
X167500501Y-111747874D01*
X167500500Y-109952129D01*
X167494092Y-109892518D01*
X167480983Y-109857372D01*
X167443798Y-109757672D01*
X167443794Y-109757665D01*
X167357548Y-109642456D01*
X167357545Y-109642453D01*
X167242336Y-109556207D01*
X167242329Y-109556203D01*
X167107483Y-109505909D01*
X167107484Y-109505909D01*
X167047884Y-109499502D01*
X167047882Y-109499501D01*
X167047874Y-109499501D01*
X167047865Y-109499501D01*
X165252130Y-109499501D01*
X165252124Y-109499502D01*
X165192517Y-109505909D01*
X165057672Y-109556203D01*
X165057665Y-109556207D01*
X164942456Y-109642453D01*
X164942453Y-109642456D01*
X164856207Y-109757665D01*
X164856203Y-109757672D01*
X164807190Y-109889085D01*
X164765319Y-109945019D01*
X164699855Y-109969436D01*
X164631582Y-109954584D01*
X164603327Y-109933434D01*
X164558978Y-109889085D01*
X164481398Y-109811505D01*
X164481394Y-109811502D01*
X164481393Y-109811501D01*
X164287831Y-109675967D01*
X164287827Y-109675965D01*
X164215967Y-109642456D01*
X164073660Y-109576097D01*
X164073656Y-109576096D01*
X164073652Y-109576094D01*
X163845410Y-109514938D01*
X163845400Y-109514936D01*
X163609998Y-109494341D01*
X163609996Y-109494341D01*
X163374593Y-109514936D01*
X163374583Y-109514938D01*
X163146341Y-109576094D01*
X163146334Y-109576096D01*
X163146334Y-109576097D01*
X163145324Y-109576568D01*
X162932168Y-109675964D01*
X162932166Y-109675965D01*
X162738594Y-109811505D01*
X162571505Y-109978594D01*
X162441573Y-110164157D01*
X162386996Y-110207781D01*
X162317497Y-110214974D01*
X162255143Y-110183452D01*
X162238423Y-110164156D01*
X162108495Y-109978598D01*
X161941403Y-109811507D01*
X161941400Y-109811505D01*
X161864519Y-109757672D01*
X161747835Y-109675968D01*
X161747831Y-109675966D01*
X161747827Y-109675964D01*
X161533664Y-109576098D01*
X161533660Y-109576097D01*
X161533656Y-109576095D01*
X161305414Y-109514939D01*
X161305404Y-109514937D01*
X161070002Y-109494342D01*
X161070000Y-109494342D01*
X160834597Y-109514937D01*
X160834587Y-109514939D01*
X160606345Y-109576095D01*
X160606336Y-109576099D01*
X160392172Y-109675965D01*
X160392170Y-109675966D01*
X160198598Y-109811506D01*
X160031506Y-109978598D01*
X159901576Y-110164159D01*
X159846999Y-110207784D01*
X159777501Y-110214978D01*
X159715146Y-110183455D01*
X159698426Y-110164159D01*
X159568495Y-109978598D01*
X159401403Y-109811507D01*
X159401400Y-109811505D01*
X159324519Y-109757672D01*
X159207835Y-109675968D01*
X159207831Y-109675966D01*
X159207827Y-109675964D01*
X158993664Y-109576098D01*
X158993660Y-109576097D01*
X158993656Y-109576095D01*
X158765414Y-109514939D01*
X158765404Y-109514937D01*
X158530002Y-109494342D01*
X158530000Y-109494342D01*
X158294597Y-109514937D01*
X158294587Y-109514939D01*
X158066345Y-109576095D01*
X158066336Y-109576099D01*
X157852172Y-109675965D01*
X157852170Y-109675966D01*
X157658598Y-109811506D01*
X157491506Y-109978598D01*
X157361272Y-110164593D01*
X157306695Y-110208218D01*
X157237197Y-110215412D01*
X157174842Y-110183889D01*
X157158122Y-110164593D01*
X157028115Y-109978925D01*
X157028110Y-109978918D01*
X156861084Y-109811892D01*
X156667580Y-109676397D01*
X156453494Y-109576568D01*
X156453488Y-109576565D01*
X156240002Y-109519362D01*
X156240002Y-110416986D01*
X156182995Y-110384073D01*
X156055828Y-110349998D01*
X155924176Y-110349998D01*
X155797009Y-110384073D01*
X155740002Y-110416986D01*
X155740002Y-109519362D01*
X155740001Y-109519362D01*
X155526515Y-109576565D01*
X155526509Y-109576568D01*
X155312424Y-109676397D01*
X155312422Y-109676398D01*
X155118928Y-109811884D01*
X155118922Y-109811889D01*
X154951893Y-109978918D01*
X154951892Y-109978920D01*
X154821575Y-110165031D01*
X154766998Y-110208656D01*
X154697499Y-110215848D01*
X154635145Y-110184326D01*
X154618425Y-110165030D01*
X154488115Y-109978927D01*
X154488110Y-109978921D01*
X154321084Y-109811895D01*
X154127580Y-109676400D01*
X153913494Y-109576571D01*
X153913488Y-109576568D01*
X153700002Y-109519365D01*
X153700002Y-110416989D01*
X153642995Y-110384076D01*
X153515828Y-110350001D01*
X153384176Y-110350001D01*
X153257009Y-110384076D01*
X153200002Y-110416989D01*
X153200002Y-109519365D01*
X153200001Y-109519365D01*
X152986515Y-109576568D01*
X152986509Y-109576571D01*
X152772424Y-109676400D01*
X152772422Y-109676401D01*
X152578928Y-109811887D01*
X152578922Y-109811892D01*
X152411893Y-109978921D01*
X152411892Y-109978923D01*
X152281881Y-110164597D01*
X152227304Y-110208222D01*
X152157805Y-110215414D01*
X152095451Y-110183892D01*
X152078731Y-110164596D01*
X151948495Y-109978598D01*
X151781403Y-109811507D01*
X151781400Y-109811505D01*
X151704519Y-109757672D01*
X151587835Y-109675968D01*
X151587831Y-109675966D01*
X151587827Y-109675964D01*
X151373664Y-109576098D01*
X151373660Y-109576097D01*
X151373656Y-109576095D01*
X151145414Y-109514939D01*
X151145404Y-109514937D01*
X150910002Y-109494342D01*
X150910000Y-109494342D01*
X150674597Y-109514937D01*
X150674587Y-109514939D01*
X150446345Y-109576095D01*
X150446336Y-109576099D01*
X150232172Y-109675965D01*
X150232170Y-109675966D01*
X150038598Y-109811506D01*
X149871506Y-109978598D01*
X149735966Y-110172170D01*
X149735965Y-110172172D01*
X149636099Y-110386336D01*
X149636095Y-110386345D01*
X149574939Y-110614587D01*
X149574937Y-110614597D01*
X149554342Y-110850000D01*
X143709326Y-110850000D01*
X143744369Y-110845573D01*
X143744378Y-110845571D01*
X144049072Y-110767338D01*
X144341543Y-110651542D01*
X144341551Y-110651538D01*
X144617208Y-110499994D01*
X144617218Y-110499988D01*
X144860025Y-110323577D01*
X144860026Y-110323577D01*
X143893532Y-109357084D01*
X144024174Y-109262169D01*
X144152170Y-109134173D01*
X144247085Y-109003532D01*
X145210711Y-109967158D01*
X145301543Y-109857362D01*
X145470095Y-109591765D01*
X145470098Y-109591759D01*
X145604033Y-109307135D01*
X145604035Y-109307130D01*
X145701243Y-109007956D01*
X145760190Y-108698947D01*
X145760191Y-108698940D01*
X145779942Y-108385003D01*
X145779942Y-108384992D01*
X145760191Y-108071055D01*
X145760190Y-108071048D01*
X145701243Y-107762039D01*
X145604035Y-107462865D01*
X145604033Y-107462860D01*
X145470098Y-107178236D01*
X145470095Y-107178230D01*
X145301541Y-106912630D01*
X145301538Y-106912626D01*
X145249729Y-106850000D01*
X151644571Y-106850000D01*
X151664244Y-107062310D01*
X151697227Y-107178233D01*
X151722596Y-107267392D01*
X151722596Y-107267394D01*
X151817632Y-107458253D01*
X151946127Y-107628406D01*
X151946128Y-107628407D01*
X152103698Y-107772052D01*
X152284981Y-107884298D01*
X152483802Y-107961321D01*
X152693390Y-108000500D01*
X152693392Y-108000500D01*
X152906608Y-108000500D01*
X152906610Y-108000500D01*
X153116198Y-107961321D01*
X153315019Y-107884298D01*
X153496302Y-107772052D01*
X153653872Y-107628407D01*
X153764862Y-107481433D01*
X153820968Y-107439800D01*
X153831701Y-107436393D01*
X153931785Y-107409577D01*
X153981904Y-107380639D01*
X154068716Y-107330520D01*
X154180520Y-107218716D01*
X154180520Y-107218714D01*
X154190728Y-107208507D01*
X154190729Y-107208504D01*
X155633175Y-105766059D01*
X155694496Y-105732576D01*
X155743639Y-105731853D01*
X155843390Y-105750500D01*
X155843392Y-105750500D01*
X156056608Y-105750500D01*
X156056610Y-105750500D01*
X156266198Y-105711321D01*
X156465019Y-105634298D01*
X156646302Y-105522052D01*
X156803872Y-105378407D01*
X156932366Y-105208255D01*
X156996890Y-105078673D01*
X157027403Y-105017394D01*
X157027403Y-105017393D01*
X157027405Y-105017389D01*
X157085756Y-104812310D01*
X157105429Y-104600000D01*
X157085756Y-104387690D01*
X157027405Y-104182611D01*
X157027403Y-104182606D01*
X157027403Y-104182605D01*
X156932367Y-103991746D01*
X156803872Y-103821593D01*
X156727201Y-103751698D01*
X156646302Y-103677948D01*
X156465019Y-103565702D01*
X156465017Y-103565701D01*
X156359952Y-103524999D01*
X156266198Y-103488679D01*
X156056610Y-103449500D01*
X155843390Y-103449500D01*
X155633802Y-103488679D01*
X155633799Y-103488679D01*
X155633799Y-103488680D01*
X155434982Y-103565701D01*
X155434980Y-103565702D01*
X155253699Y-103677947D01*
X155096127Y-103821593D01*
X154967632Y-103991746D01*
X154872596Y-104182605D01*
X154872596Y-104182607D01*
X154814244Y-104387689D01*
X154794571Y-104599999D01*
X154794571Y-104600000D01*
X154814773Y-104818018D01*
X154813158Y-104818167D01*
X154806881Y-104880118D01*
X154779713Y-104921049D01*
X153724671Y-105976091D01*
X153663348Y-106009576D01*
X153593656Y-106004592D01*
X153553452Y-105980047D01*
X153496303Y-105927949D01*
X153496302Y-105927948D01*
X153315019Y-105815702D01*
X153315017Y-105815701D01*
X153186880Y-105766061D01*
X153116198Y-105738679D01*
X152906610Y-105699500D01*
X152693390Y-105699500D01*
X152483802Y-105738679D01*
X152483799Y-105738679D01*
X152483799Y-105738680D01*
X152284982Y-105815701D01*
X152284980Y-105815702D01*
X152103699Y-105927947D01*
X151946127Y-106071593D01*
X151817632Y-106241746D01*
X151722596Y-106432605D01*
X151722596Y-106432607D01*
X151664244Y-106637689D01*
X151648265Y-106810139D01*
X151644571Y-106850000D01*
X145249729Y-106850000D01*
X145210711Y-106802836D01*
X144247084Y-107766463D01*
X144152170Y-107635823D01*
X144024174Y-107507827D01*
X143893532Y-107412911D01*
X144860026Y-106446417D01*
X144860025Y-106446415D01*
X144617226Y-106270012D01*
X144617208Y-106270001D01*
X144341551Y-106118457D01*
X144341543Y-106118453D01*
X144049072Y-106002657D01*
X143744378Y-105924424D01*
X143744369Y-105924422D01*
X143432297Y-105884998D01*
X143117700Y-105884998D01*
X142805628Y-105924422D01*
X142805619Y-105924424D01*
X142500925Y-106002657D01*
X142208454Y-106118453D01*
X142208446Y-106118457D01*
X141932786Y-106270002D01*
X141932781Y-106270005D01*
X141689971Y-106446416D01*
X141689970Y-106446417D01*
X142656465Y-107412911D01*
X142525824Y-107507827D01*
X142397828Y-107635823D01*
X142302912Y-107766463D01*
X141339285Y-106802836D01*
X141339284Y-106802836D01*
X141248458Y-106912627D01*
X141248456Y-106912630D01*
X141079902Y-107178230D01*
X141079899Y-107178236D01*
X140945964Y-107462860D01*
X140945962Y-107462865D01*
X140848754Y-107762039D01*
X140789807Y-108071048D01*
X140789806Y-108071055D01*
X140770056Y-108384992D01*
X133779943Y-108384992D01*
X133760192Y-108071058D01*
X133760191Y-108071051D01*
X133701244Y-107762042D01*
X133604036Y-107462868D01*
X133604034Y-107462863D01*
X133470099Y-107178239D01*
X133470096Y-107178233D01*
X133301542Y-106912633D01*
X133301539Y-106912629D01*
X133210712Y-106802839D01*
X132247085Y-107766466D01*
X132152171Y-107635826D01*
X132024175Y-107507830D01*
X131893533Y-107412914D01*
X132860027Y-106446420D01*
X132860026Y-106446418D01*
X132617227Y-106270015D01*
X132617209Y-106270004D01*
X132341552Y-106118460D01*
X132341544Y-106118456D01*
X132049073Y-106002660D01*
X131744379Y-105924427D01*
X131744370Y-105924425D01*
X131432298Y-105885001D01*
X131117701Y-105885001D01*
X130805629Y-105924425D01*
X130805620Y-105924427D01*
X130500926Y-106002660D01*
X130208455Y-106118456D01*
X130208447Y-106118460D01*
X129932787Y-106270005D01*
X129932782Y-106270008D01*
X129689972Y-106446419D01*
X129689971Y-106446420D01*
X130656466Y-107412914D01*
X130525825Y-107507830D01*
X130397829Y-107635826D01*
X130302913Y-107766466D01*
X129339286Y-106802839D01*
X129339285Y-106802839D01*
X129248459Y-106912630D01*
X129248457Y-106912633D01*
X129079903Y-107178233D01*
X129079900Y-107178239D01*
X128945965Y-107462863D01*
X128945963Y-107462868D01*
X128848755Y-107762042D01*
X128789808Y-108071051D01*
X128789807Y-108071058D01*
X128770057Y-108384995D01*
X127350000Y-108384995D01*
X127350000Y-103524999D01*
X134719532Y-103524999D01*
X134719532Y-103525002D01*
X134739364Y-103751687D01*
X134739366Y-103751698D01*
X134798258Y-103971489D01*
X134798261Y-103971498D01*
X134894431Y-104177733D01*
X134894432Y-104177735D01*
X135024951Y-104364138D01*
X135024952Y-104364139D01*
X135024953Y-104364140D01*
X135098133Y-104437320D01*
X135131617Y-104498641D01*
X135126633Y-104568333D01*
X135098133Y-104612681D01*
X135024952Y-104685862D01*
X134894433Y-104872265D01*
X134894432Y-104872267D01*
X134798262Y-105078502D01*
X134798259Y-105078511D01*
X134739367Y-105298302D01*
X134739365Y-105298313D01*
X134719533Y-105524998D01*
X134719533Y-105525001D01*
X134739365Y-105751686D01*
X134739367Y-105751697D01*
X134798259Y-105971488D01*
X134798262Y-105971497D01*
X134894432Y-106177732D01*
X134894433Y-106177734D01*
X135024955Y-106364141D01*
X135185859Y-106525045D01*
X135185862Y-106525047D01*
X135372267Y-106655568D01*
X135578505Y-106751739D01*
X135798309Y-106810635D01*
X135960231Y-106824801D01*
X136024999Y-106830468D01*
X136025001Y-106830468D01*
X136025003Y-106830468D01*
X136081674Y-106825509D01*
X136251693Y-106810635D01*
X136471497Y-106751739D01*
X136677735Y-106655568D01*
X136864140Y-106525047D01*
X137025048Y-106364139D01*
X137155569Y-106177734D01*
X137162893Y-106162027D01*
X137209061Y-106109588D01*
X137276254Y-106090434D01*
X137343136Y-106110647D01*
X137387656Y-106162022D01*
X137394865Y-106177481D01*
X137445974Y-106250472D01*
X138062449Y-105633997D01*
X138082370Y-105708343D01*
X138144905Y-105816657D01*
X138233343Y-105905095D01*
X138341657Y-105967630D01*
X138416002Y-105987550D01*
X137799526Y-106604025D01*
X137872513Y-106655132D01*
X137872521Y-106655136D01*
X138078668Y-106751264D01*
X138078682Y-106751269D01*
X138298389Y-106810139D01*
X138298400Y-106810141D01*
X138524998Y-106829966D01*
X138525002Y-106829966D01*
X138751599Y-106810141D01*
X138751610Y-106810139D01*
X138971317Y-106751269D01*
X138971331Y-106751264D01*
X139177478Y-106655136D01*
X139250471Y-106604024D01*
X138633997Y-105987550D01*
X138708343Y-105967630D01*
X138816657Y-105905095D01*
X138905095Y-105816657D01*
X138967630Y-105708343D01*
X138987550Y-105633997D01*
X139604024Y-106250471D01*
X139655136Y-106177478D01*
X139751264Y-105971331D01*
X139751269Y-105971317D01*
X139810139Y-105751610D01*
X139810141Y-105751599D01*
X139829966Y-105525002D01*
X139829966Y-105524997D01*
X139810141Y-105298400D01*
X139810139Y-105298389D01*
X139751269Y-105078682D01*
X139751265Y-105078673D01*
X139655134Y-104872518D01*
X139655130Y-104872512D01*
X139646188Y-104859740D01*
X139623861Y-104793534D01*
X139640873Y-104725767D01*
X139673454Y-104689351D01*
X139682546Y-104682546D01*
X139768796Y-104567331D01*
X139819091Y-104432483D01*
X139825500Y-104372873D01*
X139825499Y-102677128D01*
X139819091Y-102617517D01*
X139816779Y-102611319D01*
X139775260Y-102500000D01*
X141594571Y-102500000D01*
X141614244Y-102712310D01*
X141659756Y-102872267D01*
X141672596Y-102917392D01*
X141672596Y-102917394D01*
X141767632Y-103108253D01*
X141767634Y-103108255D01*
X141896128Y-103278407D01*
X142053698Y-103422052D01*
X142234981Y-103534298D01*
X142433802Y-103611321D01*
X142643390Y-103650500D01*
X142643392Y-103650500D01*
X142856608Y-103650500D01*
X142856610Y-103650500D01*
X143066198Y-103611321D01*
X143265019Y-103534298D01*
X143446302Y-103422052D01*
X143603872Y-103278407D01*
X143732366Y-103108255D01*
X143827405Y-102917389D01*
X143885756Y-102712310D01*
X143905429Y-102500000D01*
X143885756Y-102287690D01*
X143827405Y-102082611D01*
X143827403Y-102082606D01*
X143827403Y-102082605D01*
X143732367Y-101891746D01*
X143603872Y-101721593D01*
X143589239Y-101708253D01*
X143446302Y-101577948D01*
X143409221Y-101554988D01*
X143362587Y-101502961D01*
X143350500Y-101449562D01*
X143350500Y-98095534D01*
X143364348Y-98048373D01*
X152668817Y-98048373D01*
X152709742Y-98201105D01*
X152709743Y-98201106D01*
X152733206Y-98241745D01*
X152752918Y-98275888D01*
X152788800Y-98338036D01*
X152907668Y-98456904D01*
X152907674Y-98456909D01*
X152979714Y-98528949D01*
X153013199Y-98590272D01*
X153013810Y-98631891D01*
X153014773Y-98631981D01*
X153014244Y-98637689D01*
X153014244Y-98637690D01*
X152994571Y-98850000D01*
X153014244Y-99062310D01*
X153017383Y-99073344D01*
X153072596Y-99267392D01*
X153072596Y-99267394D01*
X153167632Y-99458253D01*
X153167634Y-99458255D01*
X153296128Y-99628407D01*
X153453698Y-99772052D01*
X153634981Y-99884298D01*
X153833802Y-99961321D01*
X154043390Y-100000500D01*
X154043392Y-100000500D01*
X154256608Y-100000500D01*
X154256610Y-100000500D01*
X154466198Y-99961321D01*
X154665019Y-99884298D01*
X154846302Y-99772052D01*
X155003872Y-99628407D01*
X155132366Y-99458255D01*
X155227405Y-99267389D01*
X155285756Y-99062310D01*
X155305429Y-98850000D01*
X155285756Y-98637690D01*
X155227405Y-98432611D01*
X155227403Y-98432606D01*
X155227403Y-98432605D01*
X155132366Y-98241745D01*
X155003872Y-98071593D01*
X154956596Y-98028495D01*
X154846302Y-97927948D01*
X154665019Y-97815702D01*
X154665017Y-97815701D01*
X154565608Y-97777190D01*
X154466198Y-97738679D01*
X154256610Y-97699500D01*
X154043390Y-97699500D01*
X154043386Y-97699500D01*
X154016601Y-97704507D01*
X153947086Y-97697475D01*
X153892409Y-97653976D01*
X153869928Y-97587822D01*
X153869819Y-97582618D01*
X153869819Y-95452259D01*
X153889504Y-95385220D01*
X153942308Y-95339465D01*
X154011466Y-95329521D01*
X154059092Y-95346830D01*
X154159981Y-95409298D01*
X154358802Y-95486321D01*
X154568390Y-95525500D01*
X154568392Y-95525500D01*
X154781608Y-95525500D01*
X154781610Y-95525500D01*
X154991198Y-95486321D01*
X155190019Y-95409298D01*
X155371302Y-95297052D01*
X155528872Y-95153407D01*
X155626013Y-95024773D01*
X155682122Y-94983137D01*
X155724967Y-94975500D01*
X158002810Y-94975500D01*
X158069849Y-94995185D01*
X158115604Y-95047989D01*
X158122074Y-95065559D01*
X158122594Y-95067387D01*
X158122596Y-95067394D01*
X158217632Y-95258253D01*
X158337810Y-95417392D01*
X158346128Y-95428407D01*
X158503698Y-95572052D01*
X158684981Y-95684298D01*
X158883802Y-95761321D01*
X159093390Y-95800500D01*
X159093392Y-95800500D01*
X159306608Y-95800500D01*
X159306610Y-95800500D01*
X159516198Y-95761321D01*
X159715019Y-95684298D01*
X159896302Y-95572052D01*
X160053872Y-95428407D01*
X160182366Y-95258255D01*
X160277405Y-95067389D01*
X160335756Y-94862310D01*
X160355429Y-94650000D01*
X160335756Y-94437690D01*
X160277405Y-94232611D01*
X160277403Y-94232606D01*
X160277403Y-94232605D01*
X160182367Y-94041746D01*
X160053872Y-93871593D01*
X160029637Y-93849500D01*
X159896302Y-93727948D01*
X159715019Y-93615702D01*
X159715017Y-93615701D01*
X159615608Y-93577190D01*
X159516198Y-93538679D01*
X159306610Y-93499500D01*
X159093390Y-93499500D01*
X158883802Y-93538679D01*
X158883799Y-93538679D01*
X158883799Y-93538680D01*
X158684982Y-93615701D01*
X158684980Y-93615702D01*
X158503696Y-93727949D01*
X158488133Y-93742137D01*
X158425329Y-93772754D01*
X158404595Y-93774500D01*
X155724967Y-93774500D01*
X155657928Y-93754815D01*
X155626013Y-93725227D01*
X155528872Y-93596593D01*
X155465345Y-93538680D01*
X155371302Y-93452948D01*
X155195123Y-93343862D01*
X155148489Y-93291835D01*
X155137385Y-93222853D01*
X155165338Y-93158819D01*
X155215608Y-93122809D01*
X155315019Y-93084298D01*
X155496302Y-92972052D01*
X155653872Y-92828407D01*
X155782366Y-92658255D01*
X155877405Y-92467389D01*
X155935756Y-92262310D01*
X155955429Y-92050000D01*
X155935756Y-91837690D01*
X155877405Y-91632611D01*
X155877403Y-91632606D01*
X155877403Y-91632605D01*
X155782367Y-91441746D01*
X155653872Y-91271593D01*
X155496302Y-91127948D01*
X155315019Y-91015702D01*
X155315017Y-91015701D01*
X155215608Y-90977190D01*
X155116198Y-90938679D01*
X154906610Y-90899500D01*
X154693390Y-90899500D01*
X154483802Y-90938679D01*
X154483799Y-90938679D01*
X154483799Y-90938680D01*
X154284982Y-91015701D01*
X154284980Y-91015702D01*
X154103699Y-91127947D01*
X153946127Y-91271593D01*
X153817632Y-91441746D01*
X153722596Y-91632605D01*
X153722596Y-91632607D01*
X153664244Y-91837689D01*
X153644571Y-92049999D01*
X153644571Y-92050000D01*
X153664773Y-92268019D01*
X153663158Y-92268168D01*
X153656881Y-92330119D01*
X153629713Y-92371050D01*
X152900605Y-93100159D01*
X152788800Y-93211963D01*
X152788798Y-93211966D01*
X152763739Y-93255370D01*
X152742687Y-93291835D01*
X152738680Y-93298775D01*
X152738678Y-93298777D01*
X152709744Y-93348890D01*
X152709743Y-93348891D01*
X152709742Y-93348896D01*
X152668818Y-93501624D01*
X152668818Y-93501626D01*
X152668818Y-93669727D01*
X152668819Y-93669740D01*
X152668819Y-97882649D01*
X152668818Y-97882667D01*
X152668818Y-98048373D01*
X152668817Y-98048373D01*
X143364348Y-98048373D01*
X143370185Y-98028495D01*
X143422989Y-97982740D01*
X143451709Y-97973646D01*
X143650271Y-97936529D01*
X143849092Y-97859506D01*
X144030375Y-97747260D01*
X144187945Y-97603615D01*
X144316439Y-97433463D01*
X144343854Y-97378406D01*
X144411476Y-97242602D01*
X144411476Y-97242601D01*
X144411478Y-97242597D01*
X144459610Y-97073430D01*
X144496889Y-97014339D01*
X144560199Y-96984782D01*
X144629439Y-96994144D01*
X144682625Y-97039454D01*
X144689876Y-97052096D01*
X144767632Y-97208253D01*
X144859743Y-97330226D01*
X144896128Y-97378407D01*
X145053698Y-97522052D01*
X145234981Y-97634298D01*
X145433802Y-97711321D01*
X145643390Y-97750500D01*
X145643392Y-97750500D01*
X145856608Y-97750500D01*
X145856610Y-97750500D01*
X146066198Y-97711321D01*
X146265019Y-97634298D01*
X146446302Y-97522052D01*
X146603872Y-97378407D01*
X146732366Y-97208255D01*
X146747683Y-97177494D01*
X146827403Y-97017394D01*
X146827403Y-97017393D01*
X146827405Y-97017389D01*
X146885756Y-96812310D01*
X146905429Y-96600000D01*
X146900136Y-96542883D01*
X146913550Y-96474315D01*
X146961608Y-96424056D01*
X146993716Y-96405520D01*
X147105520Y-96293716D01*
X147105520Y-96293714D01*
X147115728Y-96283507D01*
X147115730Y-96283504D01*
X147477640Y-95921593D01*
X147538961Y-95888110D01*
X147608653Y-95893094D01*
X147648858Y-95917640D01*
X147653698Y-95922052D01*
X147834981Y-96034298D01*
X148033802Y-96111321D01*
X148243390Y-96150500D01*
X148243392Y-96150500D01*
X148456608Y-96150500D01*
X148456610Y-96150500D01*
X148666198Y-96111321D01*
X148865019Y-96034298D01*
X149046302Y-95922052D01*
X149203872Y-95778407D01*
X149332366Y-95608255D01*
X149391907Y-95488679D01*
X149427403Y-95417394D01*
X149427403Y-95417393D01*
X149427405Y-95417389D01*
X149485756Y-95212310D01*
X149505429Y-95000000D01*
X149485756Y-94787690D01*
X149427405Y-94582611D01*
X149427403Y-94582606D01*
X149427403Y-94582605D01*
X149332367Y-94391746D01*
X149203872Y-94221593D01*
X149046302Y-94077948D01*
X148865019Y-93965702D01*
X148865017Y-93965701D01*
X148765608Y-93927190D01*
X148666198Y-93888679D01*
X148456610Y-93849500D01*
X148243390Y-93849500D01*
X148033802Y-93888679D01*
X148033799Y-93888679D01*
X148033799Y-93888680D01*
X147834982Y-93965701D01*
X147834980Y-93965702D01*
X147653699Y-94077947D01*
X147496127Y-94221593D01*
X147367628Y-94391751D01*
X147364632Y-94396591D01*
X147321210Y-94438693D01*
X147181287Y-94519477D01*
X147181282Y-94519481D01*
X146410625Y-95290139D01*
X146353506Y-95321328D01*
X146353793Y-95322397D01*
X146349387Y-95323577D01*
X146349302Y-95323624D01*
X146349049Y-95323668D01*
X146345944Y-95324500D01*
X146345943Y-95324500D01*
X146193215Y-95365423D01*
X146193214Y-95365423D01*
X146193212Y-95365424D01*
X146193209Y-95365425D01*
X146143096Y-95394359D01*
X146143095Y-95394360D01*
X146111317Y-95412706D01*
X146056281Y-95444481D01*
X146055792Y-95444857D01*
X146055305Y-95445045D01*
X146049245Y-95448544D01*
X146048699Y-95447598D01*
X145990620Y-95470046D01*
X145957530Y-95468364D01*
X145856610Y-95449500D01*
X145643390Y-95449500D01*
X145433802Y-95488679D01*
X145433799Y-95488679D01*
X145433799Y-95488680D01*
X145234982Y-95565701D01*
X145234980Y-95565702D01*
X145053699Y-95677947D01*
X144896127Y-95821593D01*
X144767632Y-95991746D01*
X144672597Y-96182605D01*
X144672595Y-96182609D01*
X144672595Y-96182611D01*
X144656595Y-96238842D01*
X144624462Y-96351776D01*
X144587182Y-96410868D01*
X144523872Y-96440426D01*
X144454633Y-96431063D01*
X144401447Y-96385752D01*
X144394196Y-96373111D01*
X144316440Y-96216954D01*
X144187945Y-96046801D01*
X144127552Y-95991745D01*
X144030375Y-95903156D01*
X143849092Y-95790910D01*
X143849090Y-95790909D01*
X143742200Y-95749500D01*
X143650271Y-95713887D01*
X143440683Y-95674708D01*
X143227463Y-95674708D01*
X143017875Y-95713887D01*
X143017872Y-95713887D01*
X143017872Y-95713888D01*
X142819055Y-95790909D01*
X142819053Y-95790910D01*
X142637772Y-95903155D01*
X142480200Y-96046801D01*
X142351705Y-96216954D01*
X142256669Y-96407813D01*
X142256669Y-96407815D01*
X142198317Y-96612897D01*
X142178644Y-96825207D01*
X142178644Y-96825208D01*
X142198317Y-97037517D01*
X142208027Y-97071647D01*
X142207439Y-97141514D01*
X142196151Y-97167572D01*
X142190426Y-97177489D01*
X142190423Y-97177494D01*
X142182181Y-97208255D01*
X142149499Y-97330224D01*
X142149499Y-97330226D01*
X142149499Y-97498327D01*
X142149500Y-97498340D01*
X142149500Y-101449562D01*
X142129815Y-101516601D01*
X142090778Y-101554988D01*
X142073924Y-101565424D01*
X142053699Y-101577947D01*
X141896127Y-101721593D01*
X141767632Y-101891746D01*
X141672596Y-102082605D01*
X141672596Y-102082607D01*
X141616886Y-102278406D01*
X141614244Y-102287690D01*
X141594571Y-102500000D01*
X139775260Y-102500000D01*
X139768797Y-102482671D01*
X139768793Y-102482664D01*
X139682547Y-102367455D01*
X139682544Y-102367452D01*
X139567335Y-102281206D01*
X139567328Y-102281202D01*
X139432482Y-102230908D01*
X139432483Y-102230908D01*
X139372883Y-102224501D01*
X139372881Y-102224500D01*
X139372873Y-102224500D01*
X139372864Y-102224500D01*
X137677129Y-102224500D01*
X137677123Y-102224501D01*
X137617516Y-102230908D01*
X137482671Y-102281202D01*
X137482664Y-102281206D01*
X137367455Y-102367452D01*
X137367452Y-102367455D01*
X137281206Y-102482664D01*
X137281202Y-102482671D01*
X137230908Y-102617516D01*
X137229632Y-102622921D01*
X137195060Y-102683637D01*
X137133149Y-102716024D01*
X137063558Y-102709798D01*
X137021274Y-102682088D01*
X136864141Y-102524955D01*
X136677734Y-102394433D01*
X136677732Y-102394432D01*
X136471497Y-102298262D01*
X136471488Y-102298259D01*
X136251697Y-102239367D01*
X136251693Y-102239366D01*
X136251692Y-102239366D01*
X136251691Y-102239365D01*
X136251686Y-102239365D01*
X136025002Y-102219533D01*
X136024998Y-102219533D01*
X135798313Y-102239365D01*
X135798302Y-102239367D01*
X135578511Y-102298259D01*
X135578502Y-102298262D01*
X135372267Y-102394432D01*
X135372265Y-102394433D01*
X135185858Y-102524955D01*
X135024954Y-102685859D01*
X134894432Y-102872266D01*
X134894431Y-102872268D01*
X134798261Y-103078503D01*
X134798258Y-103078512D01*
X134739366Y-103298303D01*
X134739364Y-103298314D01*
X134719532Y-103524999D01*
X127350000Y-103524999D01*
X127350000Y-101500000D01*
X128044571Y-101500000D01*
X128064244Y-101712310D01*
X128111503Y-101878407D01*
X128122596Y-101917392D01*
X128122596Y-101917394D01*
X128217632Y-102108253D01*
X128316645Y-102239366D01*
X128346128Y-102278407D01*
X128503698Y-102422052D01*
X128684981Y-102534298D01*
X128883802Y-102611321D01*
X129093390Y-102650500D01*
X129093392Y-102650500D01*
X129306608Y-102650500D01*
X129306610Y-102650500D01*
X129516198Y-102611321D01*
X129715019Y-102534298D01*
X129896302Y-102422052D01*
X130053872Y-102278407D01*
X130182366Y-102108255D01*
X130277405Y-101917389D01*
X130334830Y-101715565D01*
X130372110Y-101656472D01*
X130435419Y-101626915D01*
X130454096Y-101625500D01*
X132149650Y-101625500D01*
X132216689Y-101645185D01*
X132260649Y-101694228D01*
X132267634Y-101708255D01*
X132396128Y-101878407D01*
X132553698Y-102022052D01*
X132734981Y-102134298D01*
X132933802Y-102211321D01*
X133143390Y-102250500D01*
X133143392Y-102250500D01*
X133356608Y-102250500D01*
X133356610Y-102250500D01*
X133566198Y-102211321D01*
X133765019Y-102134298D01*
X133946302Y-102022052D01*
X134103872Y-101878407D01*
X134232366Y-101708255D01*
X134327405Y-101517389D01*
X134385756Y-101312310D01*
X134405429Y-101100000D01*
X134385756Y-100887690D01*
X134327405Y-100682611D01*
X134327403Y-100682606D01*
X134327403Y-100682605D01*
X134232367Y-100491746D01*
X134103872Y-100321593D01*
X133946302Y-100177948D01*
X133765019Y-100065702D01*
X133765017Y-100065701D01*
X133665608Y-100027190D01*
X133566198Y-99988679D01*
X133356610Y-99949500D01*
X133143390Y-99949500D01*
X132933802Y-99988679D01*
X132933799Y-99988679D01*
X132933799Y-99988680D01*
X132734982Y-100065701D01*
X132734980Y-100065702D01*
X132553699Y-100177947D01*
X132396127Y-100321593D01*
X132355625Y-100375227D01*
X132299515Y-100416863D01*
X132256671Y-100424500D01*
X129631844Y-100424500D01*
X129587050Y-100416127D01*
X129563798Y-100407119D01*
X129516198Y-100388679D01*
X129306610Y-100349500D01*
X129093390Y-100349500D01*
X128883802Y-100388679D01*
X128883799Y-100388679D01*
X128883799Y-100388680D01*
X128684982Y-100465701D01*
X128684980Y-100465702D01*
X128503699Y-100577947D01*
X128346127Y-100721593D01*
X128217632Y-100891746D01*
X128122596Y-101082605D01*
X128122596Y-101082607D01*
X128117648Y-101099999D01*
X128064244Y-101287690D01*
X128044571Y-101500000D01*
X127350000Y-101500000D01*
X127350000Y-97385258D01*
X128399500Y-97385258D01*
X128399500Y-97614741D01*
X128417374Y-97750500D01*
X128429452Y-97842238D01*
X128454717Y-97936529D01*
X128488842Y-98063887D01*
X128576650Y-98275876D01*
X128576656Y-98275888D01*
X128667137Y-98432607D01*
X128691392Y-98474617D01*
X128831081Y-98656661D01*
X128831089Y-98656670D01*
X128993330Y-98818911D01*
X128993338Y-98818918D01*
X129175382Y-98958607D01*
X129175385Y-98958608D01*
X129175388Y-98958611D01*
X129374112Y-99073344D01*
X129374117Y-99073346D01*
X129374123Y-99073349D01*
X129465480Y-99111190D01*
X129586113Y-99161158D01*
X129807762Y-99220548D01*
X130035266Y-99250500D01*
X130035273Y-99250500D01*
X130264727Y-99250500D01*
X130264734Y-99250500D01*
X130492238Y-99220548D01*
X130713887Y-99161158D01*
X130925888Y-99073344D01*
X131124612Y-98958611D01*
X131306661Y-98818919D01*
X131306665Y-98818914D01*
X131306670Y-98818911D01*
X131468911Y-98656670D01*
X131468914Y-98656665D01*
X131468919Y-98656661D01*
X131608611Y-98474612D01*
X131723344Y-98275888D01*
X131811158Y-98063887D01*
X131870548Y-97842238D01*
X131900500Y-97614734D01*
X131900500Y-97385266D01*
X131870548Y-97157762D01*
X131811158Y-96936113D01*
X131723344Y-96724112D01*
X131608611Y-96525388D01*
X131608608Y-96525385D01*
X131608607Y-96525382D01*
X131468918Y-96343338D01*
X131468911Y-96343330D01*
X131306670Y-96181089D01*
X131306661Y-96181081D01*
X131124617Y-96041392D01*
X130925890Y-95926657D01*
X130925876Y-95926650D01*
X130713887Y-95838842D01*
X130649512Y-95821593D01*
X130492238Y-95779452D01*
X130454215Y-95774446D01*
X130264741Y-95749500D01*
X130264734Y-95749500D01*
X130035266Y-95749500D01*
X130035258Y-95749500D01*
X129818715Y-95778009D01*
X129807762Y-95779452D01*
X129765000Y-95790910D01*
X129586112Y-95838842D01*
X129374123Y-95926650D01*
X129374109Y-95926657D01*
X129175382Y-96041392D01*
X128993338Y-96181081D01*
X128831081Y-96343338D01*
X128691392Y-96525382D01*
X128576657Y-96724109D01*
X128576650Y-96724123D01*
X128488842Y-96936112D01*
X128429453Y-97157759D01*
X128429451Y-97157770D01*
X128399500Y-97385258D01*
X127350000Y-97385258D01*
X127350000Y-82900000D01*
X135844571Y-82900000D01*
X135864244Y-83112310D01*
X135878470Y-83162310D01*
X135922596Y-83317392D01*
X135922596Y-83317394D01*
X136017632Y-83508253D01*
X136146127Y-83678406D01*
X136303699Y-83822053D01*
X136316861Y-83830202D01*
X136340777Y-83845010D01*
X136387412Y-83897036D01*
X136399500Y-83950437D01*
X136399500Y-84781615D01*
X136379815Y-84848654D01*
X136357095Y-84873164D01*
X136357935Y-84874086D01*
X136353699Y-84877946D01*
X136353698Y-84877948D01*
X136296238Y-84930329D01*
X136196127Y-85021593D01*
X136067632Y-85191746D01*
X135972596Y-85382605D01*
X135972596Y-85382607D01*
X135972595Y-85382611D01*
X135914244Y-85587690D01*
X135894571Y-85800000D01*
X135914244Y-86012310D01*
X135957671Y-86164939D01*
X135972596Y-86217392D01*
X135972596Y-86217394D01*
X136067632Y-86408253D01*
X136196127Y-86578406D01*
X136196128Y-86578407D01*
X136353698Y-86722052D01*
X136534981Y-86834298D01*
X136733802Y-86911321D01*
X136943390Y-86950500D01*
X136943392Y-86950500D01*
X137156608Y-86950500D01*
X137156610Y-86950500D01*
X137366198Y-86911321D01*
X137565019Y-86834298D01*
X137746302Y-86722052D01*
X137877844Y-86602135D01*
X153349500Y-86602135D01*
X153349500Y-88397870D01*
X153349501Y-88397876D01*
X153355908Y-88457483D01*
X153406202Y-88592328D01*
X153406206Y-88592335D01*
X153492452Y-88707544D01*
X153492455Y-88707547D01*
X153607664Y-88793793D01*
X153607671Y-88793797D01*
X153742517Y-88844091D01*
X153742516Y-88844091D01*
X153749444Y-88844835D01*
X153802127Y-88850500D01*
X155597872Y-88850499D01*
X155657483Y-88844091D01*
X155792331Y-88793796D01*
X155907546Y-88707546D01*
X155993796Y-88592331D01*
X156042810Y-88460916D01*
X156084681Y-88404984D01*
X156150145Y-88380566D01*
X156218418Y-88395417D01*
X156246673Y-88416569D01*
X156368600Y-88538496D01*
X156445480Y-88592328D01*
X156562166Y-88674033D01*
X156562168Y-88674034D01*
X156562171Y-88674036D01*
X156776338Y-88773904D01*
X157004593Y-88835064D01*
X157192919Y-88851540D01*
X157240000Y-88855660D01*
X157240001Y-88855660D01*
X157240002Y-88855660D01*
X157279235Y-88852227D01*
X157475409Y-88835064D01*
X157703664Y-88773904D01*
X157917831Y-88674036D01*
X158111402Y-88538496D01*
X158278496Y-88371402D01*
X158408427Y-88185841D01*
X158463002Y-88142218D01*
X158532500Y-88135024D01*
X158594855Y-88166547D01*
X158611574Y-88185841D01*
X158741505Y-88371401D01*
X158908599Y-88538495D01*
X159005384Y-88606265D01*
X159102165Y-88674032D01*
X159102167Y-88674033D01*
X159102170Y-88674035D01*
X159316337Y-88773903D01*
X159544592Y-88835063D01*
X159721034Y-88850500D01*
X159779999Y-88855659D01*
X159780000Y-88855659D01*
X159780001Y-88855659D01*
X159838966Y-88850500D01*
X160015408Y-88835063D01*
X160243663Y-88773903D01*
X160457830Y-88674035D01*
X160651401Y-88538495D01*
X160818495Y-88371401D01*
X160948426Y-88185841D01*
X161003002Y-88142217D01*
X161072500Y-88135023D01*
X161134855Y-88166546D01*
X161151575Y-88185842D01*
X161281500Y-88371395D01*
X161281505Y-88371401D01*
X161448599Y-88538495D01*
X161545384Y-88606265D01*
X161642165Y-88674032D01*
X161642167Y-88674033D01*
X161642170Y-88674035D01*
X161856337Y-88773903D01*
X162084592Y-88835063D01*
X162261034Y-88850500D01*
X162319999Y-88855659D01*
X162320000Y-88855659D01*
X162320001Y-88855659D01*
X162378966Y-88850500D01*
X162555408Y-88835063D01*
X162783663Y-88773903D01*
X162997830Y-88674035D01*
X163191401Y-88538495D01*
X163358495Y-88371401D01*
X163488424Y-88185842D01*
X163543001Y-88142218D01*
X163612499Y-88135024D01*
X163674854Y-88166547D01*
X163691574Y-88185843D01*
X163821499Y-88371396D01*
X163821504Y-88371402D01*
X163988598Y-88538496D01*
X164065478Y-88592328D01*
X164182164Y-88674033D01*
X164182166Y-88674034D01*
X164182169Y-88674036D01*
X164396336Y-88773904D01*
X164624591Y-88835064D01*
X164812917Y-88851540D01*
X164859998Y-88855660D01*
X164859999Y-88855660D01*
X164860000Y-88855660D01*
X164899233Y-88852227D01*
X165095407Y-88835064D01*
X165323662Y-88773904D01*
X165537829Y-88674036D01*
X165731400Y-88538496D01*
X165898494Y-88371402D01*
X166028425Y-88185840D01*
X166083001Y-88142217D01*
X166152499Y-88135023D01*
X166214854Y-88166546D01*
X166231574Y-88185842D01*
X166361499Y-88371395D01*
X166361504Y-88371401D01*
X166528598Y-88538495D01*
X166625383Y-88606265D01*
X166722164Y-88674032D01*
X166722166Y-88674033D01*
X166722169Y-88674035D01*
X166936336Y-88773903D01*
X167164591Y-88835063D01*
X167341033Y-88850500D01*
X167399998Y-88855659D01*
X167399999Y-88855659D01*
X167400000Y-88855659D01*
X167458965Y-88850500D01*
X167635407Y-88835063D01*
X167863662Y-88773903D01*
X168077829Y-88674035D01*
X168271400Y-88538495D01*
X168438494Y-88371401D01*
X168568425Y-88185839D01*
X168623001Y-88142216D01*
X168692499Y-88135022D01*
X168754854Y-88166545D01*
X168771572Y-88185838D01*
X168901505Y-88371401D01*
X169068599Y-88538495D01*
X169165384Y-88606265D01*
X169262165Y-88674032D01*
X169262167Y-88674033D01*
X169262170Y-88674035D01*
X169476337Y-88773903D01*
X169704592Y-88835063D01*
X169881034Y-88850500D01*
X169939999Y-88855659D01*
X169940000Y-88855659D01*
X169940001Y-88855659D01*
X169998966Y-88850500D01*
X170175408Y-88835063D01*
X170403663Y-88773903D01*
X170617830Y-88674035D01*
X170811401Y-88538495D01*
X170978495Y-88371401D01*
X171108426Y-88185841D01*
X171163002Y-88142217D01*
X171232500Y-88135023D01*
X171294855Y-88166546D01*
X171311575Y-88185842D01*
X171441500Y-88371395D01*
X171441505Y-88371401D01*
X171608599Y-88538495D01*
X171705384Y-88606265D01*
X171802165Y-88674032D01*
X171802167Y-88674033D01*
X171802170Y-88674035D01*
X172016337Y-88773903D01*
X172244592Y-88835063D01*
X172421034Y-88850500D01*
X172479999Y-88855659D01*
X172480000Y-88855659D01*
X172480001Y-88855659D01*
X172538966Y-88850500D01*
X172715408Y-88835063D01*
X172943663Y-88773903D01*
X173157830Y-88674035D01*
X173351401Y-88538495D01*
X173518495Y-88371401D01*
X173648426Y-88185841D01*
X173703002Y-88142217D01*
X173772500Y-88135023D01*
X173834855Y-88166546D01*
X173851575Y-88185842D01*
X173981500Y-88371395D01*
X173981505Y-88371401D01*
X174148599Y-88538495D01*
X174245384Y-88606265D01*
X174342165Y-88674032D01*
X174342167Y-88674033D01*
X174342170Y-88674035D01*
X174556337Y-88773903D01*
X174784592Y-88835063D01*
X174961034Y-88850500D01*
X175019999Y-88855659D01*
X175020000Y-88855659D01*
X175020001Y-88855659D01*
X175078966Y-88850500D01*
X175255408Y-88835063D01*
X175483663Y-88773903D01*
X175697830Y-88674035D01*
X175891401Y-88538495D01*
X176058495Y-88371401D01*
X176188424Y-88185842D01*
X176243001Y-88142218D01*
X176312499Y-88135024D01*
X176374854Y-88166547D01*
X176391573Y-88185841D01*
X176521504Y-88371401D01*
X176688598Y-88538495D01*
X176785383Y-88606265D01*
X176882164Y-88674032D01*
X176882166Y-88674033D01*
X176882169Y-88674035D01*
X177096336Y-88773903D01*
X177324591Y-88835063D01*
X177501033Y-88850500D01*
X177559998Y-88855659D01*
X177559999Y-88855659D01*
X177560000Y-88855659D01*
X177618965Y-88850500D01*
X177795407Y-88835063D01*
X178023662Y-88773903D01*
X178237829Y-88674035D01*
X178431400Y-88538495D01*
X178598494Y-88371401D01*
X178734034Y-88177830D01*
X178833902Y-87963663D01*
X178895062Y-87735408D01*
X178915658Y-87500000D01*
X178895062Y-87264592D01*
X178833902Y-87036337D01*
X178734034Y-86822171D01*
X178728424Y-86814158D01*
X178598493Y-86628597D01*
X178431401Y-86461506D01*
X178431398Y-86461504D01*
X178355351Y-86408255D01*
X178237833Y-86325967D01*
X178237829Y-86325965D01*
X178237827Y-86325964D01*
X178023662Y-86226097D01*
X178023658Y-86226096D01*
X178023654Y-86226094D01*
X177795412Y-86164938D01*
X177795402Y-86164936D01*
X177560000Y-86144341D01*
X177559998Y-86144341D01*
X177324595Y-86164936D01*
X177324585Y-86164938D01*
X177096343Y-86226094D01*
X177096334Y-86226098D01*
X176882170Y-86325964D01*
X176882168Y-86325965D01*
X176688596Y-86461505D01*
X176521507Y-86628594D01*
X176391574Y-86814158D01*
X176336997Y-86857782D01*
X176267498Y-86864975D01*
X176205144Y-86833453D01*
X176188424Y-86814157D01*
X176058494Y-86628597D01*
X175891402Y-86461506D01*
X175891399Y-86461504D01*
X175815352Y-86408255D01*
X175697834Y-86325967D01*
X175697830Y-86325965D01*
X175697828Y-86325964D01*
X175483663Y-86226097D01*
X175483659Y-86226096D01*
X175483655Y-86226094D01*
X175255413Y-86164938D01*
X175255403Y-86164936D01*
X175020001Y-86144341D01*
X175019999Y-86144341D01*
X174784596Y-86164936D01*
X174784586Y-86164938D01*
X174556344Y-86226094D01*
X174556335Y-86226098D01*
X174342171Y-86325964D01*
X174342169Y-86325965D01*
X174148597Y-86461505D01*
X173981505Y-86628597D01*
X173851575Y-86814158D01*
X173796998Y-86857783D01*
X173727500Y-86864977D01*
X173665145Y-86833454D01*
X173648425Y-86814158D01*
X173518494Y-86628597D01*
X173351402Y-86461506D01*
X173351399Y-86461504D01*
X173275352Y-86408255D01*
X173157834Y-86325967D01*
X173157830Y-86325965D01*
X173157828Y-86325964D01*
X172943663Y-86226097D01*
X172943659Y-86226096D01*
X172943655Y-86226094D01*
X172715413Y-86164938D01*
X172715403Y-86164936D01*
X172480001Y-86144341D01*
X172479999Y-86144341D01*
X172244596Y-86164936D01*
X172244586Y-86164938D01*
X172016344Y-86226094D01*
X172016335Y-86226098D01*
X171802171Y-86325964D01*
X171802169Y-86325965D01*
X171608597Y-86461505D01*
X171441505Y-86628597D01*
X171311575Y-86814158D01*
X171256998Y-86857783D01*
X171187500Y-86864977D01*
X171125145Y-86833454D01*
X171108425Y-86814158D01*
X170978494Y-86628597D01*
X170811402Y-86461506D01*
X170811399Y-86461504D01*
X170735352Y-86408255D01*
X170617834Y-86325967D01*
X170617830Y-86325965D01*
X170617828Y-86325964D01*
X170403663Y-86226097D01*
X170403659Y-86226096D01*
X170403655Y-86226094D01*
X170175413Y-86164938D01*
X170175403Y-86164936D01*
X169940001Y-86144341D01*
X169939999Y-86144341D01*
X169704596Y-86164936D01*
X169704586Y-86164938D01*
X169476344Y-86226094D01*
X169476335Y-86226098D01*
X169262171Y-86325964D01*
X169262169Y-86325965D01*
X169068597Y-86461505D01*
X168901508Y-86628594D01*
X168771574Y-86814160D01*
X168716997Y-86857784D01*
X168647498Y-86864977D01*
X168585144Y-86833455D01*
X168568424Y-86814159D01*
X168438493Y-86628597D01*
X168271401Y-86461506D01*
X168271398Y-86461504D01*
X168195351Y-86408255D01*
X168077833Y-86325967D01*
X168077829Y-86325965D01*
X168077827Y-86325964D01*
X167863662Y-86226097D01*
X167863658Y-86226096D01*
X167863654Y-86226094D01*
X167635412Y-86164938D01*
X167635402Y-86164936D01*
X167400000Y-86144341D01*
X167399998Y-86144341D01*
X167164595Y-86164936D01*
X167164585Y-86164938D01*
X166936343Y-86226094D01*
X166936334Y-86226098D01*
X166722170Y-86325964D01*
X166722168Y-86325965D01*
X166528596Y-86461505D01*
X166361507Y-86628594D01*
X166231573Y-86814160D01*
X166176996Y-86857784D01*
X166107497Y-86864977D01*
X166045143Y-86833455D01*
X166028423Y-86814159D01*
X166028422Y-86814158D01*
X165898494Y-86628600D01*
X165898493Y-86628598D01*
X165731401Y-86461507D01*
X165731398Y-86461505D01*
X165654506Y-86407664D01*
X165537833Y-86325968D01*
X165537829Y-86325966D01*
X165537825Y-86325964D01*
X165323662Y-86226098D01*
X165323658Y-86226097D01*
X165323654Y-86226095D01*
X165095412Y-86164939D01*
X165095402Y-86164937D01*
X164860000Y-86144342D01*
X164859998Y-86144342D01*
X164624595Y-86164937D01*
X164624585Y-86164939D01*
X164396343Y-86226095D01*
X164396334Y-86226099D01*
X164182170Y-86325965D01*
X164182168Y-86325966D01*
X163988596Y-86461506D01*
X163821507Y-86628595D01*
X163691574Y-86814159D01*
X163636997Y-86857783D01*
X163567498Y-86864976D01*
X163505144Y-86833454D01*
X163488424Y-86814158D01*
X163488423Y-86814157D01*
X163358495Y-86628599D01*
X163358494Y-86628597D01*
X163191402Y-86461506D01*
X163191399Y-86461504D01*
X163115352Y-86408255D01*
X162997834Y-86325967D01*
X162997830Y-86325965D01*
X162997828Y-86325964D01*
X162783663Y-86226097D01*
X162783659Y-86226096D01*
X162783655Y-86226094D01*
X162555413Y-86164938D01*
X162555403Y-86164936D01*
X162320001Y-86144341D01*
X162319999Y-86144341D01*
X162084596Y-86164936D01*
X162084586Y-86164938D01*
X161856344Y-86226094D01*
X161856335Y-86226098D01*
X161642171Y-86325964D01*
X161642169Y-86325965D01*
X161448597Y-86461505D01*
X161281505Y-86628597D01*
X161151575Y-86814158D01*
X161096998Y-86857783D01*
X161027500Y-86864977D01*
X160965145Y-86833454D01*
X160948425Y-86814158D01*
X160818494Y-86628597D01*
X160651402Y-86461506D01*
X160651399Y-86461504D01*
X160575352Y-86408255D01*
X160457834Y-86325967D01*
X160457830Y-86325965D01*
X160457828Y-86325964D01*
X160243663Y-86226097D01*
X160243659Y-86226096D01*
X160243655Y-86226094D01*
X160015413Y-86164938D01*
X160015403Y-86164936D01*
X159780001Y-86144341D01*
X159779999Y-86144341D01*
X159544596Y-86164936D01*
X159544586Y-86164938D01*
X159316344Y-86226094D01*
X159316335Y-86226098D01*
X159102171Y-86325964D01*
X159102169Y-86325965D01*
X158908597Y-86461505D01*
X158741505Y-86628597D01*
X158611575Y-86814158D01*
X158556998Y-86857783D01*
X158487500Y-86864977D01*
X158425145Y-86833454D01*
X158408425Y-86814158D01*
X158278495Y-86628598D01*
X158111403Y-86461507D01*
X158111400Y-86461505D01*
X158034508Y-86407664D01*
X157917835Y-86325968D01*
X157917831Y-86325966D01*
X157917827Y-86325964D01*
X157703664Y-86226098D01*
X157703660Y-86226097D01*
X157703656Y-86226095D01*
X157475414Y-86164939D01*
X157475404Y-86164937D01*
X157240002Y-86144342D01*
X157240000Y-86144342D01*
X157004597Y-86164937D01*
X157004587Y-86164939D01*
X156776345Y-86226095D01*
X156776336Y-86226099D01*
X156562172Y-86325965D01*
X156562170Y-86325966D01*
X156368601Y-86461504D01*
X156246673Y-86583432D01*
X156185350Y-86616916D01*
X156115658Y-86611932D01*
X156059725Y-86570060D01*
X156042810Y-86539083D01*
X155993797Y-86407671D01*
X155993793Y-86407664D01*
X155907547Y-86292455D01*
X155907544Y-86292452D01*
X155792335Y-86206206D01*
X155792328Y-86206202D01*
X155657482Y-86155908D01*
X155657483Y-86155908D01*
X155597883Y-86149501D01*
X155597881Y-86149500D01*
X155597873Y-86149500D01*
X155597864Y-86149500D01*
X153802129Y-86149500D01*
X153802123Y-86149501D01*
X153742516Y-86155908D01*
X153607671Y-86206202D01*
X153607664Y-86206206D01*
X153492455Y-86292452D01*
X153492452Y-86292455D01*
X153406206Y-86407664D01*
X153406202Y-86407671D01*
X153355908Y-86542517D01*
X153349501Y-86602116D01*
X153349500Y-86602135D01*
X137877844Y-86602135D01*
X137903872Y-86578407D01*
X138032366Y-86408255D01*
X138090027Y-86292455D01*
X138127403Y-86217394D01*
X138127403Y-86217393D01*
X138127405Y-86217389D01*
X138185756Y-86012310D01*
X138205429Y-85800000D01*
X138185756Y-85587690D01*
X138127405Y-85382611D01*
X138127403Y-85382606D01*
X138127403Y-85382605D01*
X138032367Y-85191746D01*
X137903872Y-85021593D01*
X137746299Y-84877945D01*
X137659221Y-84824028D01*
X137612586Y-84772000D01*
X137600500Y-84718602D01*
X137600500Y-83950437D01*
X137620185Y-83883398D01*
X137659222Y-83845010D01*
X137696302Y-83822052D01*
X137853872Y-83678407D01*
X137982366Y-83508255D01*
X138052507Y-83367392D01*
X138077403Y-83317394D01*
X138077403Y-83317393D01*
X138077405Y-83317389D01*
X138135756Y-83112310D01*
X138155429Y-82900000D01*
X138135756Y-82687690D01*
X138083800Y-82505087D01*
X138422308Y-82505087D01*
X138422308Y-82505088D01*
X138441981Y-82717398D01*
X138500333Y-82922480D01*
X138500333Y-82922482D01*
X138595369Y-83113341D01*
X138595371Y-83113343D01*
X138723865Y-83283495D01*
X138881435Y-83427140D01*
X139062718Y-83539386D01*
X139261539Y-83616409D01*
X139471127Y-83655588D01*
X139471129Y-83655588D01*
X139684344Y-83655588D01*
X139684347Y-83655588D01*
X139893935Y-83616409D01*
X139893942Y-83616406D01*
X139894050Y-83616386D01*
X139948928Y-83618499D01*
X140034528Y-83641437D01*
X140034530Y-83641437D01*
X140200239Y-83641437D01*
X140200255Y-83641436D01*
X141418706Y-83641436D01*
X141485745Y-83661121D01*
X141517658Y-83690707D01*
X141546128Y-83728407D01*
X141703698Y-83872052D01*
X141884981Y-83984298D01*
X142083802Y-84061321D01*
X142293390Y-84100500D01*
X142293392Y-84100500D01*
X142506608Y-84100500D01*
X142506610Y-84100500D01*
X142716198Y-84061321D01*
X142915019Y-83984298D01*
X143096302Y-83872052D01*
X143253872Y-83728407D01*
X143382366Y-83558255D01*
X143477405Y-83367389D01*
X143535756Y-83162310D01*
X143555429Y-82950000D01*
X143535756Y-82737690D01*
X143477405Y-82532611D01*
X143477403Y-82532606D01*
X143477403Y-82532605D01*
X143382367Y-82341746D01*
X143253872Y-82171593D01*
X143161845Y-82087699D01*
X143096302Y-82027948D01*
X142915019Y-81915702D01*
X142915017Y-81915701D01*
X142785950Y-81865701D01*
X142716198Y-81838679D01*
X142506610Y-81799500D01*
X142293390Y-81799500D01*
X142083802Y-81838679D01*
X142083799Y-81838679D01*
X142083799Y-81838680D01*
X141884982Y-81915701D01*
X141884980Y-81915702D01*
X141703699Y-82027947D01*
X141546127Y-82171593D01*
X141417634Y-82341743D01*
X141408979Y-82359126D01*
X141402714Y-82371707D01*
X141355214Y-82422944D01*
X141291715Y-82440436D01*
X140840216Y-82440436D01*
X140773177Y-82420751D01*
X140727422Y-82367947D01*
X140716745Y-82327876D01*
X140713493Y-82292778D01*
X140679012Y-82171593D01*
X140655142Y-82087699D01*
X140655140Y-82087694D01*
X140655140Y-82087693D01*
X140560104Y-81896834D01*
X140431609Y-81726681D01*
X140274039Y-81583036D01*
X140092756Y-81470790D01*
X140092754Y-81470789D01*
X139993345Y-81432278D01*
X139893935Y-81393767D01*
X139684347Y-81354588D01*
X139471127Y-81354588D01*
X139261539Y-81393767D01*
X139261536Y-81393767D01*
X139261536Y-81393768D01*
X139062719Y-81470789D01*
X139062717Y-81470790D01*
X138881436Y-81583035D01*
X138723864Y-81726681D01*
X138595369Y-81896834D01*
X138500333Y-82087693D01*
X138500333Y-82087695D01*
X138441981Y-82292777D01*
X138422308Y-82505087D01*
X138083800Y-82505087D01*
X138077405Y-82482611D01*
X138077403Y-82482606D01*
X138077403Y-82482605D01*
X137982367Y-82291746D01*
X137853872Y-82121593D01*
X137816686Y-82087693D01*
X137696302Y-81977948D01*
X137515019Y-81865702D01*
X137515017Y-81865701D01*
X137344130Y-81799500D01*
X137316198Y-81788679D01*
X137106610Y-81749500D01*
X136893390Y-81749500D01*
X136683802Y-81788679D01*
X136683799Y-81788679D01*
X136683799Y-81788680D01*
X136484982Y-81865701D01*
X136484980Y-81865702D01*
X136303699Y-81977947D01*
X136146127Y-82121593D01*
X136017632Y-82291746D01*
X135922596Y-82482605D01*
X135922596Y-82482607D01*
X135908369Y-82532611D01*
X135864244Y-82687690D01*
X135844571Y-82900000D01*
X127350000Y-82900000D01*
X127350000Y-79624998D01*
X138719723Y-79624998D01*
X138719723Y-79625003D01*
X138738793Y-79842976D01*
X138738793Y-79842980D01*
X138795422Y-80054323D01*
X138795424Y-80054327D01*
X138795425Y-80054331D01*
X138841661Y-80153485D01*
X138887897Y-80252639D01*
X138887898Y-80252640D01*
X139013402Y-80431878D01*
X139168123Y-80586599D01*
X139347361Y-80712103D01*
X139545670Y-80804576D01*
X139757023Y-80861208D01*
X139939926Y-80877209D01*
X139974998Y-80880278D01*
X139975000Y-80880278D01*
X139975002Y-80880278D01*
X140003254Y-80877806D01*
X140192977Y-80861208D01*
X140404330Y-80804576D01*
X140602639Y-80712103D01*
X140781877Y-80586599D01*
X140936598Y-80431878D01*
X141062102Y-80252640D01*
X141154575Y-80054331D01*
X141211207Y-79842978D01*
X141230277Y-79625001D01*
X141230277Y-79624998D01*
X143599723Y-79624998D01*
X143599723Y-79625003D01*
X143618793Y-79842976D01*
X143618793Y-79842980D01*
X143675422Y-80054323D01*
X143675424Y-80054327D01*
X143675425Y-80054331D01*
X143721661Y-80153485D01*
X143767897Y-80252639D01*
X143767898Y-80252640D01*
X143893402Y-80431878D01*
X144048123Y-80586599D01*
X144227361Y-80712103D01*
X144425670Y-80804576D01*
X144637023Y-80861208D01*
X144819926Y-80877209D01*
X144854998Y-80880278D01*
X144855000Y-80880278D01*
X144855002Y-80880278D01*
X144883254Y-80877806D01*
X145072977Y-80861208D01*
X145284330Y-80804576D01*
X145482639Y-80712103D01*
X145661877Y-80586599D01*
X145816598Y-80431878D01*
X145942102Y-80252640D01*
X146034575Y-80054331D01*
X146091207Y-79842978D01*
X146110277Y-79625001D01*
X146091207Y-79407024D01*
X146034575Y-79195671D01*
X145942102Y-78997363D01*
X145942100Y-78997360D01*
X145942099Y-78997358D01*
X145816599Y-78818125D01*
X145816596Y-78818122D01*
X145661877Y-78663403D01*
X145482639Y-78537899D01*
X145482640Y-78537899D01*
X145482638Y-78537898D01*
X145383484Y-78491662D01*
X145284330Y-78445426D01*
X145284326Y-78445425D01*
X145284322Y-78445423D01*
X145072977Y-78388794D01*
X144855002Y-78369724D01*
X144854998Y-78369724D01*
X144709682Y-78382437D01*
X144637023Y-78388794D01*
X144637020Y-78388794D01*
X144425677Y-78445423D01*
X144425668Y-78445427D01*
X144227361Y-78537899D01*
X144227357Y-78537901D01*
X144048121Y-78663403D01*
X143893402Y-78818122D01*
X143767900Y-78997358D01*
X143767898Y-78997362D01*
X143675426Y-79195669D01*
X143675422Y-79195678D01*
X143618793Y-79407021D01*
X143618793Y-79407025D01*
X143599723Y-79624998D01*
X141230277Y-79624998D01*
X141211207Y-79407024D01*
X141154575Y-79195671D01*
X141062102Y-78997363D01*
X141062100Y-78997360D01*
X141062099Y-78997358D01*
X140936599Y-78818125D01*
X140936596Y-78818122D01*
X140781877Y-78663403D01*
X140602639Y-78537899D01*
X140602640Y-78537899D01*
X140602638Y-78537898D01*
X140503484Y-78491662D01*
X140404330Y-78445426D01*
X140404326Y-78445425D01*
X140404322Y-78445423D01*
X140192977Y-78388794D01*
X139975002Y-78369724D01*
X139974998Y-78369724D01*
X139829682Y-78382437D01*
X139757023Y-78388794D01*
X139757020Y-78388794D01*
X139545677Y-78445423D01*
X139545668Y-78445427D01*
X139347361Y-78537899D01*
X139347357Y-78537901D01*
X139168121Y-78663403D01*
X139013402Y-78818122D01*
X138887900Y-78997358D01*
X138887898Y-78997362D01*
X138795426Y-79195669D01*
X138795422Y-79195678D01*
X138738793Y-79407021D01*
X138738793Y-79407025D01*
X138719723Y-79624998D01*
X127350000Y-79624998D01*
X127350000Y-76035258D01*
X148549500Y-76035258D01*
X148549500Y-76264741D01*
X148574446Y-76454215D01*
X148579452Y-76492238D01*
X148579453Y-76492240D01*
X148638842Y-76713887D01*
X148726650Y-76925876D01*
X148726657Y-76925890D01*
X148841392Y-77124617D01*
X148981081Y-77306661D01*
X148981089Y-77306670D01*
X149143330Y-77468911D01*
X149143338Y-77468918D01*
X149325382Y-77608607D01*
X149325385Y-77608608D01*
X149325388Y-77608611D01*
X149524112Y-77723344D01*
X149524117Y-77723346D01*
X149524123Y-77723349D01*
X149615480Y-77761190D01*
X149736113Y-77811158D01*
X149957762Y-77870548D01*
X150185266Y-77900500D01*
X150185273Y-77900500D01*
X150414727Y-77900500D01*
X150414734Y-77900500D01*
X150642238Y-77870548D01*
X150863887Y-77811158D01*
X151075888Y-77723344D01*
X151274612Y-77608611D01*
X151456661Y-77468919D01*
X151456665Y-77468914D01*
X151456670Y-77468911D01*
X151618911Y-77306670D01*
X151618914Y-77306665D01*
X151618919Y-77306661D01*
X151758611Y-77124612D01*
X151873344Y-76925888D01*
X151961158Y-76713887D01*
X152020548Y-76492238D01*
X152050500Y-76264734D01*
X152050500Y-76035266D01*
X152020548Y-75807762D01*
X151961158Y-75586113D01*
X151873344Y-75374112D01*
X151758611Y-75175388D01*
X151758608Y-75175385D01*
X151758607Y-75175382D01*
X151618918Y-74993338D01*
X151618911Y-74993330D01*
X151456670Y-74831089D01*
X151456661Y-74831081D01*
X151274617Y-74691392D01*
X151075890Y-74576657D01*
X151075876Y-74576650D01*
X150863887Y-74488842D01*
X150797183Y-74470969D01*
X150642238Y-74429452D01*
X150604215Y-74424446D01*
X150414741Y-74399500D01*
X150414734Y-74399500D01*
X150185266Y-74399500D01*
X150185258Y-74399500D01*
X149968715Y-74428009D01*
X149957762Y-74429452D01*
X149864076Y-74454554D01*
X149736112Y-74488842D01*
X149524123Y-74576650D01*
X149524109Y-74576657D01*
X149325382Y-74691392D01*
X149143338Y-74831081D01*
X148981081Y-74993338D01*
X148841392Y-75175382D01*
X148726657Y-75374109D01*
X148726650Y-75374123D01*
X148638842Y-75586112D01*
X148579453Y-75807759D01*
X148579451Y-75807770D01*
X148549500Y-76035258D01*
X127350000Y-76035258D01*
X127350000Y-75098669D01*
X127341695Y-74982130D01*
X127341618Y-74965653D01*
X127349950Y-74831089D01*
X127355983Y-74733654D01*
X127358574Y-74714988D01*
X127407706Y-74489019D01*
X127413096Y-74470969D01*
X127495936Y-74255053D01*
X127504007Y-74238022D01*
X127618624Y-74037190D01*
X127629187Y-74021572D01*
X127772940Y-73840443D01*
X127785748Y-73826613D01*
X127955309Y-73669380D01*
X127970056Y-73657659D01*
X128161518Y-73527951D01*
X128177865Y-73518606D01*
X128386787Y-73419436D01*
X128404375Y-73412675D01*
X128627021Y-73346009D01*
X128643122Y-73342337D01*
X128748828Y-73325556D01*
X128768306Y-73324025D01*
X178330953Y-73344470D01*
G37*
%TD.AperFunction*%
%TD*%
M02*
