M48
; DRILL file {KiCad 8.0.2} date 2025-05-16T12:47:15+0700
; FORMAT={-:-/ absolute / inch / decimal}
; #@! TF.CreationDate,2025-05-16T12:47:15+07:00
; #@! TF.GenerationSoftware,Kicad,Pcbnew,8.0.2
; #@! TF.FileFunction,Plated,1,2,PTH
FMAT,2
INCH
; #@! TA.AperFunction,Plated,PTH,ViaDrill
T1C0.0315
; #@! TA.AperFunction,Plated,PTH,ComponentDrill
T2C0.0315
; #@! TA.AperFunction,Plated,PTH,ComponentDrill
T3C0.0374
; #@! TA.AperFunction,Plated,PTH,ComponentDrill
T4C0.0394
; #@! TA.AperFunction,Plated,PTH,ComponentDrill
T5C0.0906
%
G90
G05
T1
X5.0866Y-3.9961
X5.2461Y-3.9803
X5.2923Y-3.8888
X5.313Y-3.7067
X5.3937Y-3.2638
X5.3957Y-3.378
X5.4952Y-3.2482
X5.5217Y-3.6319
X5.6063Y-3.2657
X5.6181Y-3.7579
X5.6201Y-4.0354
X5.6431Y-3.812
X5.6888Y-4.0283
X5.7264Y-3.876
X5.7382Y-3.8031
X5.7441Y-4.1929
X5.8406Y-3.7402
X5.8701Y-4.2205
X5.9029Y-3.7254
X5.9665Y-3.3386
X5.9774Y-3.9606
X5.9954Y-3.8361
X6.0157Y-4.2067
X6.0512Y-3.5492
X6.0689Y-3.8917
X6.0896Y-3.7156
X6.0906Y-3.3386
X6.0945Y-3.624
X6.1398Y-4.1181
X6.2677Y-3.7264
X6.6738Y-3.9528
X6.6909Y-3.8248
T2
X5.5108Y-3.1348
X5.703Y-3.1348
T3
X5.3553Y-4.0758
X5.3553Y-4.1545
X5.4537Y-4.0758
X5.4537Y-4.1545
T4
X5.9413Y-4.3642
X6.0413Y-4.3642
X6.0906Y-3.4449
X6.1413Y-4.3642
X6.1906Y-3.4449
X6.2413Y-4.3642
X6.2906Y-3.4449
X6.3413Y-4.3642
X6.3906Y-3.4449
X6.4413Y-4.3642
X6.4906Y-3.4449
X6.5413Y-4.3642
X6.5906Y-3.4449
X6.6906Y-3.4449
X6.7906Y-3.4449
X6.8906Y-3.4449
X6.9906Y-3.4449
T5
X5.1683Y-4.2671
X5.6407Y-4.2671
M30
