%TF.GenerationSoftware,KiCad,Pcbnew,8.0.2*%
%TF.CreationDate,2025-05-22T15:36:22+07:00*%
%TF.ProjectId,hokushime-db9-to-rs232,686f6b75-7368-4696-9d65-2d6462392d74,rev?*%
%TF.SameCoordinates,Original*%
%TF.FileFunction,Soldermask,Top*%
%TF.FilePolarity,Negative*%
%FSLAX46Y46*%
G04 Gerber Fmt 4.6, Leading zero omitted, Abs format (unit mm)*
G04 Created by KiCad (PCBNEW 8.0.2) date 2025-05-22 15:36:22*
%MOMM*%
%LPD*%
G01*
G04 APERTURE LIST*
G04 Aperture macros list*
%AMRoundRect*
0 Rectangle with rounded corners*
0 $1 Rounding radius*
0 $2 $3 $4 $5 $6 $7 $8 $9 X,Y pos of 4 corners*
0 Add a 4 corners polygon primitive as box body*
4,1,4,$2,$3,$4,$5,$6,$7,$8,$9,$2,$3,0*
0 Add four circle primitives for the rounded corners*
1,1,$1+$1,$2,$3*
1,1,$1+$1,$4,$5*
1,1,$1+$1,$6,$7*
1,1,$1+$1,$8,$9*
0 Add four rect primitives between the rounded corners*
20,1,$1+$1,$2,$3,$4,$5,0*
20,1,$1+$1,$4,$5,$6,$7,0*
20,1,$1+$1,$6,$7,$8,$9,0*
20,1,$1+$1,$8,$9,$2,$3,0*%
%AMFreePoly0*
4,1,19,0.500000,-0.750000,0.000000,-0.750000,0.000000,-0.744911,-0.071157,-0.744911,-0.207708,-0.704816,-0.327430,-0.627875,-0.420627,-0.520320,-0.479746,-0.390866,-0.500000,-0.250000,-0.500000,0.250000,-0.479746,0.390866,-0.420627,0.520320,-0.327430,0.627875,-0.207708,0.704816,-0.071157,0.744911,0.000000,0.744911,0.000000,0.750000,0.500000,0.750000,0.500000,-0.750000,0.500000,-0.750000,
$1*%
%AMFreePoly1*
4,1,19,0.000000,0.744911,0.071157,0.744911,0.207708,0.704816,0.327430,0.627875,0.420627,0.520320,0.479746,0.390866,0.500000,0.250000,0.500000,-0.250000,0.479746,-0.390866,0.420627,-0.520320,0.327430,-0.627875,0.207708,-0.704816,0.071157,-0.744911,0.000000,-0.744911,0.000000,-0.750000,-0.500000,-0.750000,-0.500000,0.750000,0.000000,0.750000,0.000000,0.744911,0.000000,0.744911,
$1*%
%AMFreePoly2*
4,1,6,1.000000,0.000000,0.500000,-0.750000,-0.500000,-0.750000,-0.500000,0.750000,0.500000,0.750000,1.000000,0.000000,1.000000,0.000000,$1*%
G04 Aperture macros list end*
%ADD10RoundRect,0.250000X-0.450000X0.325000X-0.450000X-0.325000X0.450000X-0.325000X0.450000X0.325000X0*%
%ADD11RoundRect,0.237500X0.237500X-0.300000X0.237500X0.300000X-0.237500X0.300000X-0.237500X-0.300000X0*%
%ADD12RoundRect,0.250000X-0.350000X-0.450000X0.350000X-0.450000X0.350000X0.450000X-0.350000X0.450000X0*%
%ADD13RoundRect,0.250000X-0.450000X0.350000X-0.450000X-0.350000X0.450000X-0.350000X0.450000X0.350000X0*%
%ADD14C,3.000000*%
%ADD15RoundRect,0.237500X0.300000X0.237500X-0.300000X0.237500X-0.300000X-0.237500X0.300000X-0.237500X0*%
%ADD16RoundRect,0.100000X-0.100000X0.637500X-0.100000X-0.637500X0.100000X-0.637500X0.100000X0.637500X0*%
%ADD17RoundRect,0.250000X0.450000X-0.350000X0.450000X0.350000X-0.450000X0.350000X-0.450000X-0.350000X0*%
%ADD18RoundRect,0.237500X-0.300000X-0.237500X0.300000X-0.237500X0.300000X0.237500X-0.300000X0.237500X0*%
%ADD19RoundRect,0.150000X0.825000X0.150000X-0.825000X0.150000X-0.825000X-0.150000X0.825000X-0.150000X0*%
%ADD20RoundRect,0.237500X-0.287500X-0.237500X0.287500X-0.237500X0.287500X0.237500X-0.287500X0.237500X0*%
%ADD21RoundRect,0.237500X-0.237500X0.300000X-0.237500X-0.300000X0.237500X-0.300000X0.237500X0.300000X0*%
%ADD22FreePoly0,180.000000*%
%ADD23FreePoly1,180.000000*%
%ADD24R,1.500000X1.500000*%
%ADD25FreePoly2,180.000000*%
%ADD26FreePoly2,0.000000*%
%ADD27RoundRect,0.075000X-0.415425X-0.521491X0.521491X0.415425X0.415425X0.521491X-0.521491X-0.415425X0*%
%ADD28RoundRect,0.075000X0.415425X-0.521491X0.521491X-0.415425X-0.415425X0.521491X-0.521491X0.415425X0*%
%ADD29FreePoly0,90.000000*%
%ADD30FreePoly1,90.000000*%
%ADD31C,1.000000*%
%ADD32R,1.600000X1.600000*%
%ADD33C,1.600000*%
%ADD34C,4.000000*%
%ADD35C,1.500000*%
%ADD36R,1.700000X1.700000*%
%ADD37O,1.700000X1.700000*%
G04 APERTURE END LIST*
D10*
%TO.C,D2*%
X147475001Y-101350002D03*
X147474999Y-103399998D03*
%TD*%
D11*
%TO.C,C9*%
X168025000Y-95137500D03*
X168025000Y-93412500D03*
%TD*%
%TO.C,C6*%
X168025000Y-98687500D03*
X168025000Y-96962500D03*
%TD*%
D12*
%TO.C,R1*%
X132275000Y-85325000D03*
X134275000Y-85325000D03*
%TD*%
D13*
%TO.C,R5*%
X134875000Y-80375000D03*
X134875000Y-82375000D03*
%TD*%
D14*
%TO.C,H1*%
X150300000Y-76150000D03*
%TD*%
D15*
%TO.C,C10*%
X154237502Y-102124998D03*
X152512502Y-102124998D03*
%TD*%
D16*
%TO.C,IC1*%
X165049998Y-91612499D03*
X164400000Y-91612500D03*
X163750000Y-91612501D03*
X163100000Y-91612500D03*
X162450000Y-91612500D03*
X161799998Y-91612504D03*
X161149999Y-91612501D03*
X160500001Y-91612501D03*
X159850000Y-91612500D03*
X159200001Y-91612500D03*
X158549999Y-91612501D03*
X157900001Y-91612496D03*
X157250000Y-91612500D03*
X156600000Y-91612500D03*
X156600002Y-97337501D03*
X157250000Y-97337500D03*
X157900000Y-97337499D03*
X158550000Y-97337500D03*
X159200000Y-97337500D03*
X159850002Y-97337496D03*
X160500001Y-97337499D03*
X161149999Y-97337499D03*
X161800000Y-97337500D03*
X162449999Y-97337500D03*
X163100001Y-97337499D03*
X163749999Y-97337504D03*
X164400000Y-97337500D03*
X165050000Y-97337500D03*
%TD*%
D17*
%TO.C,R8*%
X147425000Y-99425000D03*
X147425000Y-97425000D03*
%TD*%
D18*
%TO.C,C11*%
X152512498Y-103675001D03*
X154237498Y-103675001D03*
%TD*%
D12*
%TO.C,R3*%
X139975000Y-97725000D03*
X141975000Y-97725000D03*
%TD*%
%TO.C,R2*%
X132275000Y-87325000D03*
X134275000Y-87325000D03*
%TD*%
D11*
%TO.C,C4*%
X132425000Y-82287500D03*
X132425000Y-80562500D03*
%TD*%
D19*
%TO.C,U3*%
X137699998Y-93380002D03*
X137700000Y-92110000D03*
X137700000Y-90840000D03*
X137700000Y-89569999D03*
X132750002Y-89569998D03*
X132750000Y-90840000D03*
X132750000Y-92110000D03*
X132750000Y-93380001D03*
%TD*%
D11*
%TO.C,C5*%
X138025000Y-99937500D03*
X138025000Y-98212500D03*
%TD*%
D20*
%TO.C,FB1*%
X147800000Y-105275000D03*
X149550000Y-105275000D03*
%TD*%
D13*
%TO.C,R6*%
X136125000Y-98175000D03*
X136125000Y-100175000D03*
%TD*%
D12*
%TO.C,R4*%
X139975000Y-99825000D03*
X141975000Y-99825000D03*
%TD*%
D15*
%TO.C,C12*%
X154237500Y-105225003D03*
X152512500Y-105225003D03*
%TD*%
D21*
%TO.C,C8*%
X169825000Y-91612500D03*
X169825000Y-93337500D03*
%TD*%
D11*
%TO.C,C1*%
X151625000Y-82337500D03*
X151625000Y-80612500D03*
%TD*%
D15*
%TO.C,C7*%
X164637500Y-100025000D03*
X162912500Y-100025000D03*
%TD*%
D14*
%TO.C,H4*%
X175900000Y-116950000D03*
%TD*%
D22*
%TO.C,JP2*%
X173025000Y-94925000D03*
D23*
X171725000Y-94925000D03*
%TD*%
D24*
%TO.C,JP1*%
X134775000Y-77875000D03*
X132375000Y-77875000D03*
D25*
X135575000Y-77875000D03*
D26*
X131575000Y-77875000D03*
%TD*%
D10*
%TO.C,D1*%
X149625001Y-101350002D03*
X149624999Y-103399998D03*
%TD*%
D27*
%TO.C,U1*%
X141087124Y-89973789D03*
X141440679Y-90327343D03*
X141794232Y-90680899D03*
X142147785Y-91034446D03*
X142501338Y-91388002D03*
X142854894Y-91741558D03*
X143208443Y-92095108D03*
X143561998Y-92448662D03*
X143915553Y-92802214D03*
X144269106Y-93155768D03*
X144622660Y-93509321D03*
X144976211Y-93862876D03*
D28*
X146973789Y-93862876D03*
X147327343Y-93509321D03*
X147680899Y-93155768D03*
X148034446Y-92802215D03*
X148388002Y-92448662D03*
X148741558Y-92095106D03*
X149095108Y-91741557D03*
X149448662Y-91388002D03*
X149802214Y-91034447D03*
X150155768Y-90680894D03*
X150509321Y-90327340D03*
X150862876Y-89973789D03*
D27*
X150862876Y-87976211D03*
X150509321Y-87622657D03*
X150155768Y-87269101D03*
X149802215Y-86915554D03*
X149448662Y-86561998D03*
X149095106Y-86208442D03*
X148741557Y-85854892D03*
X148388002Y-85501338D03*
X148034447Y-85147786D03*
X147680894Y-84794232D03*
X147327340Y-84440679D03*
X146973789Y-84087124D03*
D28*
X144976211Y-84087124D03*
X144622657Y-84440679D03*
X144269101Y-84794232D03*
X143915554Y-85147785D03*
X143561998Y-85501338D03*
X143208442Y-85854894D03*
X142854892Y-86208443D03*
X142501338Y-86561998D03*
X142147786Y-86915553D03*
X141794232Y-87269106D03*
X141440679Y-87622660D03*
X141087124Y-87976211D03*
%TD*%
D29*
%TO.C,JP3*%
X147475000Y-112925000D03*
D30*
X147475000Y-111625000D03*
%TD*%
D31*
%TO.C,TP1*%
X160125000Y-99675000D03*
%TD*%
D17*
%TO.C,R7*%
X149475000Y-99425000D03*
X149475000Y-97425000D03*
%TD*%
D15*
%TO.C,C2*%
X164587500Y-102375000D03*
X162862500Y-102375000D03*
%TD*%
D11*
%TO.C,C3*%
X149525000Y-82337500D03*
X149525000Y-80612500D03*
%TD*%
D14*
%TO.C,H2*%
X130150000Y-97500000D03*
%TD*%
D32*
%TO.C,J2*%
X135450000Y-105112500D03*
D33*
X137950000Y-105112501D03*
X137949999Y-107112500D03*
X135450000Y-107112500D03*
D34*
X130700001Y-109972498D03*
X142700000Y-109972501D03*
%TD*%
D35*
%TO.C,Y1*%
X145050001Y-79200000D03*
X140170001Y-79200000D03*
%TD*%
D36*
%TO.C,J3*%
X177125000Y-87775000D03*
D37*
X174584999Y-87775001D03*
X172045000Y-87775000D03*
X169505000Y-87775000D03*
X166965001Y-87775001D03*
X164425001Y-87775000D03*
X161885000Y-87775000D03*
X159345000Y-87775000D03*
X156805000Y-87775000D03*
X154265001Y-87775000D03*
%TD*%
D36*
%TO.C,J1*%
X150825000Y-111275001D03*
D37*
X153365004Y-111275000D03*
X155905000Y-111275001D03*
X158445000Y-111275001D03*
X160984999Y-111274998D03*
X163524999Y-111275001D03*
X166065000Y-111275001D03*
%TD*%
M02*
