%TF.GenerationSoftware,KiCad,Pcbnew,8.0.2*%
%TF.CreationDate,2025-06-12T20:34:37+07:00*%
%TF.ProjectId,hokushime-db9-to-rs232,686f6b75-7368-4696-9d65-2d6462392d74,rev?*%
%TF.SameCoordinates,Original*%
%TF.FileFunction,Soldermask,Top*%
%TF.FilePolarity,Negative*%
%FSLAX46Y46*%
G04 Gerber Fmt 4.6, Leading zero omitted, Abs format (unit mm)*
G04 Created by KiCad (PCBNEW 8.0.2) date 2025-06-12 20:34:37*
%MOMM*%
%LPD*%
G01*
G04 APERTURE LIST*
G04 Aperture macros list*
%AMRoundRect*
0 Rectangle with rounded corners*
0 $1 Rounding radius*
0 $2 $3 $4 $5 $6 $7 $8 $9 X,Y pos of 4 corners*
0 Add a 4 corners polygon primitive as box body*
4,1,4,$2,$3,$4,$5,$6,$7,$8,$9,$2,$3,0*
0 Add four circle primitives for the rounded corners*
1,1,$1+$1,$2,$3*
1,1,$1+$1,$4,$5*
1,1,$1+$1,$6,$7*
1,1,$1+$1,$8,$9*
0 Add four rect primitives between the rounded corners*
20,1,$1+$1,$2,$3,$4,$5,0*
20,1,$1+$1,$4,$5,$6,$7,0*
20,1,$1+$1,$6,$7,$8,$9,0*
20,1,$1+$1,$8,$9,$2,$3,0*%
%AMFreePoly0*
4,1,19,0.500000,-0.750000,0.000000,-0.750000,0.000000,-0.744911,-0.071157,-0.744911,-0.207708,-0.704816,-0.327430,-0.627875,-0.420627,-0.520320,-0.479746,-0.390866,-0.500000,-0.250000,-0.500000,0.250000,-0.479746,0.390866,-0.420627,0.520320,-0.327430,0.627875,-0.207708,0.704816,-0.071157,0.744911,0.000000,0.744911,0.000000,0.750000,0.500000,0.750000,0.500000,-0.750000,0.500000,-0.750000,
$1*%
%AMFreePoly1*
4,1,19,0.000000,0.744911,0.071157,0.744911,0.207708,0.704816,0.327430,0.627875,0.420627,0.520320,0.479746,0.390866,0.500000,0.250000,0.500000,-0.250000,0.479746,-0.390866,0.420627,-0.520320,0.327430,-0.627875,0.207708,-0.704816,0.071157,-0.744911,0.000000,-0.744911,0.000000,-0.750000,-0.500000,-0.750000,-0.500000,0.750000,0.000000,0.750000,0.000000,0.744911,0.000000,0.744911,
$1*%
%AMFreePoly2*
4,1,6,1.000000,0.000000,0.500000,-0.750000,-0.500000,-0.750000,-0.500000,0.750000,0.500000,0.750000,1.000000,0.000000,1.000000,0.000000,$1*%
G04 Aperture macros list end*
%ADD10RoundRect,0.125000X-0.125000X-0.625000X0.125000X-0.625000X0.125000X0.625000X-0.125000X0.625000X0*%
%ADD11RoundRect,0.125000X-0.625000X-0.125000X0.625000X-0.125000X0.625000X0.125000X-0.625000X0.125000X0*%
%ADD12R,0.450000X1.750000*%
%ADD13RoundRect,0.250000X-0.450000X0.325000X-0.450000X-0.325000X0.450000X-0.325000X0.450000X0.325000X0*%
%ADD14RoundRect,0.237500X0.237500X-0.300000X0.237500X0.300000X-0.237500X0.300000X-0.237500X-0.300000X0*%
%ADD15RoundRect,0.250000X-0.350000X-0.450000X0.350000X-0.450000X0.350000X0.450000X-0.350000X0.450000X0*%
%ADD16RoundRect,0.250000X-0.450000X0.350000X-0.450000X-0.350000X0.450000X-0.350000X0.450000X0.350000X0*%
%ADD17C,3.000000*%
%ADD18RoundRect,0.237500X0.300000X0.237500X-0.300000X0.237500X-0.300000X-0.237500X0.300000X-0.237500X0*%
%ADD19RoundRect,0.250000X0.450000X-0.350000X0.450000X0.350000X-0.450000X0.350000X-0.450000X-0.350000X0*%
%ADD20RoundRect,0.237500X-0.300000X-0.237500X0.300000X-0.237500X0.300000X0.237500X-0.300000X0.237500X0*%
%ADD21RoundRect,0.150000X0.825000X0.150000X-0.825000X0.150000X-0.825000X-0.150000X0.825000X-0.150000X0*%
%ADD22RoundRect,0.237500X-0.287500X-0.237500X0.287500X-0.237500X0.287500X0.237500X-0.287500X0.237500X0*%
%ADD23RoundRect,0.237500X-0.237500X0.300000X-0.237500X-0.300000X0.237500X-0.300000X0.237500X0.300000X0*%
%ADD24FreePoly0,180.000000*%
%ADD25FreePoly1,180.000000*%
%ADD26R,1.500000X1.500000*%
%ADD27FreePoly2,180.000000*%
%ADD28FreePoly2,0.000000*%
%ADD29FreePoly0,90.000000*%
%ADD30FreePoly1,90.000000*%
%ADD31C,1.000000*%
%ADD32R,1.600000X1.600000*%
%ADD33C,1.600000*%
%ADD34C,4.000000*%
%ADD35C,1.500000*%
%ADD36R,1.700000X1.700000*%
%ADD37O,1.700000X1.700000*%
G04 APERTURE END LIST*
D10*
%TO.C,U1*%
X143450000Y-84800000D03*
X144249999Y-84799999D03*
X145050003Y-84799997D03*
X145850000Y-84800000D03*
X146650001Y-84799999D03*
X147449999Y-84800004D03*
X148250000Y-84800000D03*
X149050000Y-84800000D03*
D11*
X150425000Y-86175000D03*
X150425001Y-86974999D03*
X150425003Y-87775003D03*
X150425000Y-88575000D03*
X150425001Y-89375001D03*
X150424996Y-90174999D03*
X150425000Y-90975000D03*
X150425000Y-91775000D03*
D10*
X149050000Y-93150000D03*
X148250001Y-93150001D03*
X147449997Y-93150003D03*
X146650000Y-93150000D03*
X145849999Y-93150001D03*
X145050001Y-93149996D03*
X144250000Y-93150000D03*
X143450000Y-93150000D03*
D11*
X142075000Y-91775000D03*
X142074999Y-90975001D03*
X142074997Y-90174997D03*
X142075000Y-89375000D03*
X142074999Y-88574999D03*
X142075004Y-87775001D03*
X142075000Y-86975000D03*
X142075000Y-86175000D03*
%TD*%
D12*
%TO.C,IC1*%
X165050000Y-90875000D03*
X164400000Y-90875000D03*
X163750000Y-90875000D03*
X163100000Y-90875000D03*
X162450000Y-90875000D03*
X161800000Y-90875000D03*
X161150000Y-90875000D03*
X160500000Y-90875000D03*
X159850000Y-90875000D03*
X159200000Y-90875000D03*
X158550000Y-90875000D03*
X157900000Y-90875000D03*
X157250000Y-90875000D03*
X156600000Y-90875000D03*
X156600000Y-98075000D03*
X157250000Y-98075000D03*
X157900000Y-98075000D03*
X158550000Y-98075000D03*
X159200000Y-98075000D03*
X159850000Y-98075000D03*
X160500000Y-98075000D03*
X161150000Y-98075000D03*
X161800000Y-98075000D03*
X162450000Y-98075000D03*
X163100000Y-98075000D03*
X163750000Y-98075000D03*
X164400000Y-98075000D03*
X165050000Y-98075000D03*
%TD*%
D13*
%TO.C,D2*%
X147475001Y-101350002D03*
X147474999Y-103399998D03*
%TD*%
D14*
%TO.C,C9*%
X168025000Y-95137500D03*
X168025000Y-93412500D03*
%TD*%
%TO.C,C6*%
X168025000Y-98687500D03*
X168025000Y-96962500D03*
%TD*%
D15*
%TO.C,R1*%
X132275000Y-85325000D03*
X134275000Y-85325000D03*
%TD*%
D16*
%TO.C,R5*%
X134875000Y-80375000D03*
X134875000Y-82375000D03*
%TD*%
D17*
%TO.C,H1*%
X150300000Y-76150000D03*
%TD*%
D18*
%TO.C,C10*%
X154237502Y-102124998D03*
X152512502Y-102124998D03*
%TD*%
D19*
%TO.C,R8*%
X147425000Y-99425000D03*
X147425000Y-97425000D03*
%TD*%
D20*
%TO.C,C11*%
X152512498Y-103675001D03*
X154237498Y-103675001D03*
%TD*%
D15*
%TO.C,R3*%
X139975000Y-97725000D03*
X141975000Y-97725000D03*
%TD*%
%TO.C,R2*%
X132275000Y-87325000D03*
X134275000Y-87325000D03*
%TD*%
D14*
%TO.C,C4*%
X132425000Y-82287500D03*
X132425000Y-80562500D03*
%TD*%
D21*
%TO.C,U3*%
X137699998Y-93380002D03*
X137700000Y-92110000D03*
X137700000Y-90840000D03*
X137700000Y-89569999D03*
X132750002Y-89569998D03*
X132750000Y-90840000D03*
X132750000Y-92110000D03*
X132750000Y-93380001D03*
%TD*%
D14*
%TO.C,C5*%
X138025000Y-99937500D03*
X138025000Y-98212500D03*
%TD*%
D22*
%TO.C,FB1*%
X147800000Y-105275000D03*
X149550000Y-105275000D03*
%TD*%
D16*
%TO.C,R6*%
X136125000Y-98175000D03*
X136125000Y-100175000D03*
%TD*%
D15*
%TO.C,R4*%
X139975000Y-99825000D03*
X141975000Y-99825000D03*
%TD*%
D18*
%TO.C,C12*%
X154237500Y-105225003D03*
X152512500Y-105225003D03*
%TD*%
D23*
%TO.C,C8*%
X169825000Y-91612500D03*
X169825000Y-93337500D03*
%TD*%
D14*
%TO.C,C1*%
X151625000Y-82337500D03*
X151625000Y-80612500D03*
%TD*%
D18*
%TO.C,C7*%
X164612500Y-101000000D03*
X162887500Y-101000000D03*
%TD*%
D17*
%TO.C,H4*%
X175900000Y-116950000D03*
%TD*%
D24*
%TO.C,JP2*%
X173025000Y-94925000D03*
D25*
X171725000Y-94925000D03*
%TD*%
D26*
%TO.C,JP1*%
X134775000Y-77875000D03*
X132375000Y-77875000D03*
D27*
X135575000Y-77875000D03*
D28*
X131575000Y-77875000D03*
%TD*%
D13*
%TO.C,D1*%
X149625001Y-101350002D03*
X149624999Y-103399998D03*
%TD*%
D29*
%TO.C,JP3*%
X147475000Y-112925000D03*
D30*
X147475000Y-111625000D03*
%TD*%
D31*
%TO.C,TP1*%
X159550000Y-101150000D03*
%TD*%
D19*
%TO.C,R7*%
X149475000Y-99425000D03*
X149475000Y-97425000D03*
%TD*%
D18*
%TO.C,C2*%
X164587500Y-103300000D03*
X162862500Y-103300000D03*
%TD*%
D14*
%TO.C,C3*%
X149525000Y-82337500D03*
X149525000Y-80612500D03*
%TD*%
D17*
%TO.C,H2*%
X130150000Y-97500000D03*
%TD*%
D32*
%TO.C,J2*%
X135450000Y-105112500D03*
D33*
X137950000Y-105112501D03*
X137949999Y-107112500D03*
X135450000Y-107112500D03*
D34*
X130700001Y-109972498D03*
X142700000Y-109972501D03*
%TD*%
D35*
%TO.C,Y1*%
X140170001Y-79200000D03*
X145050001Y-79200000D03*
%TD*%
D36*
%TO.C,J3*%
X177070000Y-85150000D03*
D37*
X174529999Y-85150001D03*
X171990000Y-85150000D03*
X169450000Y-85150000D03*
X166910001Y-85150001D03*
X164370001Y-85150000D03*
X161830000Y-85150000D03*
X159290000Y-85150000D03*
X156750000Y-85150000D03*
X154210001Y-85150000D03*
%TD*%
D36*
%TO.C,J1*%
X150825000Y-111275001D03*
D37*
X153365004Y-111275000D03*
X155905000Y-111275001D03*
X158445000Y-111275001D03*
X160984999Y-111274998D03*
X163524999Y-111275001D03*
X166065000Y-111275001D03*
%TD*%
M02*
