%TF.GenerationSoftware,KiCad,Pcbnew,8.0.2*%
%TF.CreationDate,2025-05-18T09:32:35+07:00*%
%TF.ProjectId,hokushime-db9-to-rs232,686f6b75-7368-4696-9d65-2d6462392d74,rev?*%
%TF.SameCoordinates,Original*%
%TF.FileFunction,Plated,1,2,PTH,Drill*%
%TF.FilePolarity,Positive*%
%FSLAX46Y46*%
G04 Gerber Fmt 4.6, Leading zero omitted, Abs format (unit mm)*
G04 Created by KiCad (PCBNEW 8.0.2) date 2025-05-18 09:32:35*
%MOMM*%
%LPD*%
G01*
G04 APERTURE LIST*
%TA.AperFunction,ViaDrill*%
%ADD10C,0.800000*%
%TD*%
%TA.AperFunction,ComponentDrill*%
%ADD11C,0.800000*%
%TD*%
%TA.AperFunction,ComponentDrill*%
%ADD12C,0.950000*%
%TD*%
%TA.AperFunction,ComponentDrill*%
%ADD13C,1.000000*%
%TD*%
%TA.AperFunction,ComponentDrill*%
%ADD14C,2.300000*%
%TD*%
G04 APERTURE END LIST*
D10*
X129100000Y-101000000D03*
X133250000Y-101100000D03*
X134425000Y-98775000D03*
X134500000Y-94425000D03*
X137000000Y-82900000D03*
X137000000Y-84875000D03*
X139577737Y-82505088D03*
X140127208Y-92277208D03*
X142275000Y-102050000D03*
X142400000Y-82950000D03*
X142887787Y-95124792D03*
X143334073Y-96825208D03*
X144495772Y-102319219D03*
X145450000Y-98450000D03*
X145750000Y-96600000D03*
X146450000Y-107200000D03*
X148350000Y-95000000D03*
X149100000Y-107200000D03*
X149742717Y-94442913D03*
X151550000Y-84800000D03*
X151825000Y-100600000D03*
X152282539Y-97435969D03*
X152800000Y-106850000D03*
X153268047Y-89924543D03*
X153650000Y-98750000D03*
X153812742Y-92287257D03*
X154700000Y-84800000D03*
X154950000Y-95000000D03*
X155071755Y-90150000D03*
X155950000Y-104600000D03*
X169513868Y-100400972D03*
X169950000Y-97150000D03*
D11*
%TO.C,Y1*%
X140170001Y-79200000D03*
X145050001Y-79200000D03*
D12*
%TO.C,J2*%
X135450000Y-105112500D03*
X135450000Y-107112500D03*
X137949999Y-107112500D03*
X137950000Y-105112501D03*
D13*
%TO.C,J1*%
X150825000Y-111275001D03*
X153365004Y-111275000D03*
%TO.C,J3*%
X154265001Y-87775000D03*
%TO.C,J1*%
X155905000Y-111275001D03*
%TO.C,J3*%
X156805000Y-87775000D03*
%TO.C,J1*%
X158445000Y-111275001D03*
%TO.C,J3*%
X159345000Y-87775000D03*
%TO.C,J1*%
X160984999Y-111274998D03*
%TO.C,J3*%
X161885000Y-87775000D03*
%TO.C,J1*%
X163524999Y-111275001D03*
%TO.C,J3*%
X164425001Y-87775000D03*
%TO.C,J1*%
X166065000Y-111275001D03*
%TO.C,J3*%
X166965001Y-87775001D03*
X169505000Y-87775000D03*
X172045000Y-87775000D03*
X174584999Y-87775001D03*
X177125000Y-87775000D03*
D14*
%TO.C,J2*%
X130700001Y-109972498D03*
X142700000Y-109972501D03*
M02*
