<?xml version="1.0" standalone="no"?>
<!DOCTYPE svg PUBLIC "-//W3C//DTD SVG 1.1//EN"
"http://www.w3.org/Graphics/SVG/1.1/DTD/svg11.dtd">
<svg width="422.547" height="255.87" viewBox="0 0 8803.07 5330.63" version="1.1"
xmlns="http://www.w3.org/2000/svg"
xmlns:xlink="http://www.w3.org/1999/xlink">
<circle cx="456.654" cy="417.283" r="7.87402" style=""/>
<circle cx="372.008" cy="1027.52" r="7.87402" style=""/>
<circle cx="372.008" cy="1657.44" r="7.87402" style=""/>
<circle cx="483.819" cy="2468.86" r="7.87402" style=""/>
<circle cx="483.819" cy="2923.98" r="7.87402" style=""/>
<circle cx="1299.17" cy="2299.17" r="7.87402" style=""/>
<circle cx="1700.75" cy="2417.28" r="7.87402" style=""/>
<circle cx="1740.12" cy="1858.23" r="7.87402" style=""/>
<circle cx="1889.72" cy="1716.5" r="7.87402" style=""/>
<circle cx="2094.45" cy="1755.87" r="7.87402" style=""/>
<circle cx="2102.32" cy="1464.53" r="7.87402" style=""/>
<circle cx="2092.48" cy="992.087" r="7.87402" style=""/>
<circle cx="1532.95" cy="789.803" r="7.87402" style=""/>
<circle cx="1118.07" cy="480.276" r="7.87402" style=""/>
<circle cx="1354.29" cy="511.772" r="7.87402" style=""/>
<circle cx="1755.87" cy="377.913" r="7.87402" style=""/>
<circle cx="2070.83" cy="409.409" r="7.87402" style=""/>
<circle cx="2511.77" cy="283.425" r="7.87402" style=""/>
<circle cx="2961.54" cy="1598.39" r="7.87402" style=""/>
<circle cx="2936.97" cy="2062.95" r="7.87402" style=""/>
<circle cx="3403.5" cy="2299.17" r="7.87402" style=""/>
<circle cx="3499.96" cy="2122.01" r="7.87402" style=""/>
<circle cx="3686.18" cy="2413.74" r="7.87402" style=""/>
<circle cx="4055.08" cy="2464.53" r="7.87402" style=""/>
<circle cx="4456.65" cy="2440.91" r="7.87402" style=""/>
<circle cx="3795.24" cy="2834.61" r="7.87402" style=""/>
<circle cx="3969.25" cy="3037.76" r="7.87402" style=""/>
<circle cx="4169.25" cy="3037.76" r="7.87402" style=""/>
<circle cx="4169.25" cy="3237.76" r="7.87402" style=""/>
<circle cx="4169.25" cy="3437.76" r="7.87402" style=""/>
<circle cx="3969.25" cy="3637.76" r="7.87402" style=""/>
<circle cx="4169.25" cy="3637.76" r="7.87402" style=""/>
<circle cx="3969.25" cy="3437.76" r="7.87402" style=""/>
<circle cx="3969.25" cy="3237.76" r="7.87402" style=""/>
<circle cx="3622.01" cy="3244.06" r="7.87402" style=""/>
<circle cx="3638.07" cy="3417.28" r="7.87402" style=""/>
<circle cx="3633.98" cy="3779.49" r="7.87402" style=""/>
<circle cx="3500.12" cy="3657.28" r="7.87402" style=""/>
<circle cx="2992.09" cy="3346.42" r="7.87402" style=""/>
<circle cx="2204.69" cy="3039.33" r="7.87402" style=""/>
<circle cx="1685" cy="3173.19" r="7.87402" style=""/>
<circle cx="1685" cy="3393.66" r="7.87402" style=""/>
<circle cx="1543.27" cy="3535.39" r="7.87402" style=""/>
<circle cx="1338.54" cy="3543.27" r="7.87402" style=""/>
<circle cx="499.961" cy="3860.98" r="7.87402" style=""/>
<circle cx="499.961" cy="4316.1" r="7.87402" style=""/>
<circle cx="1165.31" cy="4834.61" r="7.87402" style=""/>
<circle cx="1984.21" cy="4803.11" r="7.87402" style=""/>
<circle cx="2779.49" cy="4708.62" r="7.87402" style=""/>
<circle cx="3435" cy="4448.78" r="7.87402" style=""/>
<circle cx="3466.5" cy="4259.8" r="7.87402" style=""/>
<circle cx="3969.25" cy="4726.73" r="7.87402" style=""/>
<circle cx="4169.25" cy="4726.73" r="7.87402" style=""/>
<circle cx="3969.25" cy="4526.73" r="7.87402" style=""/>
<circle cx="3969.25" cy="4326.73" r="7.87402" style=""/>
<circle cx="3969.25" cy="4126.73" r="7.87402" style=""/>
<circle cx="4169.25" cy="4126.73" r="7.87402" style=""/>
<circle cx="4169.25" cy="4326.73" r="7.87402" style=""/>
<circle cx="4169.25" cy="4526.73" r="7.87402" style=""/>
<circle cx="5032.24" cy="4540.12" r="7.87402" style=""/>
<circle cx="5032.24" cy="4740.12" r="7.87402" style=""/>
<circle cx="5232.24" cy="4740.12" r="7.87402" style=""/>
<circle cx="5232.24" cy="4540.12" r="7.87402" style=""/>
<circle cx="5032.24" cy="4340.12" r="7.87402" style=""/>
<circle cx="5032.24" cy="4140.12" r="7.87402" style=""/>
<circle cx="5232.24" cy="4340.12" r="7.87402" style=""/>
<circle cx="5232.24" cy="4140.12" r="7.87402" style=""/>
<circle cx="5629.88" cy="4047.2" r="7.87402" style=""/>
<circle cx="5235.39" cy="3637.76" r="7.87402" style=""/>
<circle cx="5035.39" cy="3637.76" r="7.87402" style=""/>
<circle cx="5035.39" cy="3437.76" r="7.87402" style=""/>
<circle cx="5235.39" cy="3237.76" r="7.87402" style=""/>
<circle cx="5235.39" cy="3037.76" r="7.87402" style=""/>
<circle cx="5035.39" cy="3037.76" r="7.87402" style=""/>
<circle cx="5035.39" cy="3237.76" r="7.87402" style=""/>
<circle cx="5235.39" cy="3437.76" r="7.87402" style=""/>
<circle cx="5677.13" cy="3708.62" r="7.87402" style=""/>
<circle cx="6803.11" cy="4787.36" r="7.87402" style=""/>
<circle cx="6806.26" cy="4084.21" r="7.87402" style=""/>
<circle cx="7810.98" cy="4826.73" r="7.87402" style=""/>
<circle cx="7551.14" cy="4077.13" r="7.87402" style=""/>
<circle cx="7551.14" cy="3877.13" r="7.87402" style=""/>
<circle cx="7751.14" cy="4077.13" r="7.87402" style=""/>
<circle cx="7751.14" cy="3877.13" r="7.87402" style=""/>
<circle cx="7751.14" cy="3677.13" r="7.87402" style=""/>
<circle cx="7551.14" cy="3677.13" r="7.87402" style=""/>
<circle cx="7551.14" cy="3477.13" r="7.87402" style=""/>
<circle cx="7551.14" cy="3277.13" r="7.87402" style=""/>
<circle cx="7751.14" cy="3477.13" r="7.87402" style=""/>
<circle cx="7751.14" cy="3277.13" r="7.87402" style=""/>
<circle cx="8226.73" cy="2791.3" r="7.87402" style=""/>
<circle cx="8426.73" cy="2791.3" r="7.87402" style=""/>
<circle cx="8025.16" cy="2259.8" r="7.87402" style=""/>
<circle cx="7825.16" cy="2259.8" r="7.87402" style=""/>
<circle cx="7625.16" cy="2259.8" r="7.87402" style=""/>
<circle cx="7425.16" cy="2259.8" r="7.87402" style=""/>
<circle cx="7225.16" cy="2259.8" r="7.87402" style=""/>
<circle cx="7025.16" cy="2259.8" r="7.87402" style=""/>
<circle cx="6677.13" cy="1881.85" r="7.87402" style=""/>
<circle cx="6614.13" cy="1708.62" r="7.87402" style=""/>
<circle cx="6960.59" cy="1801.54" r="7.87402" style=""/>
<circle cx="7204.69" cy="1771.61" r="7.87402" style=""/>
<circle cx="7027.52" cy="1334.61" r="7.87402" style=""/>
<circle cx="7027.52" cy="783.425" r="7.87402" style=""/>
<circle cx="7227.52" cy="783.425" r="7.87402" style=""/>
<circle cx="7427.52" cy="783.425" r="7.87402" style=""/>
<circle cx="7627.52" cy="783.425" r="7.87402" style=""/>
<circle cx="8118.07" cy="283.425" r="7.87402" style=""/>
<circle cx="8427.52" cy="783.425" r="7.87402" style=""/>
<circle cx="8227.52" cy="783.425" r="7.87402" style=""/>
<circle cx="8027.52" cy="783.425" r="7.87402" style=""/>
<circle cx="7827.52" cy="783.425" r="7.87402" style=""/>
<circle cx="7227.52" cy="1334.61" r="7.87402" style=""/>
<circle cx="7427.52" cy="1334.61" r="7.87402" style=""/>
<circle cx="7627.52" cy="1334.61" r="7.87402" style=""/>
<circle cx="7827.52" cy="1334.61" r="7.87402" style=""/>
<circle cx="8027.52" cy="1334.61" r="7.87402" style=""/>
<circle cx="8227.52" cy="1334.61" r="7.87402" style=""/>
<circle cx="8427.52" cy="1334.61" r="7.87402" style=""/>
<circle cx="8393.66" cy="1850.35" r="7.87402" style=""/>
<circle cx="8225.16" cy="2259.8" r="7.87402" style=""/>
<circle cx="8425.16" cy="2259.8" r="7.87402" style=""/>
<circle cx="8026.73" cy="2791.3" r="7.87402" style=""/>
<circle cx="7826.73" cy="2791.3" r="7.87402" style=""/>
<circle cx="7626.73" cy="2791.3" r="7.87402" style=""/>
<circle cx="7426.73" cy="2791.3" r="7.87402" style=""/>
<circle cx="7226.73" cy="2791.3" r="7.87402" style=""/>
<circle cx="7026.73" cy="2791.3" r="7.87402" style=""/>
<circle cx="6806.26" cy="3284.21" r="7.87402" style=""/>
<circle cx="6806.26" cy="3484.21" r="7.87402" style=""/>
<circle cx="6806.26" cy="3684.21" r="7.87402" style=""/>
<circle cx="6806.26" cy="3884.21" r="7.87402" style=""/>
<circle cx="6606.26" cy="4084.21" r="7.87402" style=""/>
<circle cx="6606.26" cy="3884.21" r="7.87402" style=""/>
<circle cx="6606.26" cy="3684.21" r="7.87402" style=""/>
<circle cx="6606.26" cy="3484.21" r="7.87402" style=""/>
<circle cx="6606.26" cy="3284.21" r="7.87402" style=""/>
<circle cx="6362.17" cy="3047.2" r="7.87402" style=""/>
<circle cx="6204.69" cy="2913.35" r="7.87402" style=""/>
<circle cx="6023.58" cy="2047.2" r="7.87402" style=""/>
<circle cx="5960.59" cy="1759.8" r="7.87402" style=""/>
<circle cx="5858.7" cy="1619.72" r="7.87402" style=""/>
<circle cx="6070.83" cy="1448.78" r="7.87402" style=""/>
<circle cx="6078.7" cy="1240.12" r="7.87402" style=""/>
<circle cx="6181.06" cy="897.598" r="7.87402" style=""/>
<circle cx="4633.82" cy="1170.83" r="7.87402" style=""/>
<circle cx="4578.7" cy="1115.71" r="7.87402" style=""/>
<circle cx="4468.46" cy="1115.71" r="7.87402" style=""/>
<circle cx="4523.58" cy="1170.83" r="7.87402" style=""/>
<circle cx="4468.46" cy="1225.94" r="7.87402" style=""/>
<circle cx="4523.58" cy="1281.06" r="7.87402" style=""/>
<circle cx="4578.7" cy="1225.94" r="7.87402" style=""/>
<circle cx="4633.82" cy="1281.06" r="7.87402" style=""/>
<circle cx="4578.7" cy="1336.18" r="7.87402" style=""/>
<circle cx="4468.46" cy="1336.18" r="7.87402" style=""/>
<circle cx="4413.35" cy="1281.06" r="7.87402" style=""/>
<circle cx="4413.35" cy="1170.83" r="7.87402" style=""/>
<circle cx="3497.99" cy="1620.43" r="7.87402" style=""/>
</svg>
