M48
; DRILL file KiCad 10.0.1 date 2026-05-23T07:51:55
; FORMAT={-:-/ absolute / metric / decimal}
; #@! TF.CreationDate,2026-05-23T07:51:55+07:00
; #@! TF.GenerationSoftware,Kicad,Pcbnew,10.0.1
; #@! TF.FileFunction,MixedPlating,1,2
FMAT,2
METRIC
; #@! TA.AperFunction,Plated,PTH,ComponentDrill
T1C0.200
; #@! TA.AperFunction,Plated,PTH,ViaDrill
T2C0.800
; #@! TA.AperFunction,Plated,PTH,ComponentDrill
T3C1.000
; #@! TA.AperFunction,Plated,PTH,ComponentDrill
T4C1.200
; #@! TA.AperFunction,NonPlated,NPTH,ComponentDrill
T5C0.650
; #@! TA.AperFunction,NonPlated,NPTH,ComponentDrill
T6C2.000
; #@! TA.AperFunction,NonPlated,NPTH,ComponentDrill
T7C3.200
%
G90
G05
T1
X132.85Y-91.67
X132.85Y-93.07
X133.55Y-90.97
X133.55Y-92.37
X133.55Y-93.77
X134.25Y-91.67
X134.25Y-93.07
X134.95Y-90.97
X134.95Y-92.37
X134.95Y-93.77
X135.65Y-91.67
X135.65Y-93.07
T2
X91.0Y-82.9
X93.3Y-106.0
X93.8Y-121.8
X94.0Y-83.3
X96.269Y-86.831
X96.4Y-121.7
X98.2Y-117.1
X98.2Y-119.9
X98.4Y-107.5
X98.9Y-100.4
X99.1Y-81.6
X100.8Y-98.6
X103.1Y-82.0
X103.375Y-89.4
X103.4Y-99.1
X103.5Y-95.4
X104.8Y-115.4
X112.1Y-136.6
X114.1Y-103.0
X114.412Y-97.1
X114.8Y-119.3
X120.025Y-106.0
X120.425Y-133.3
X120.825Y-130.9
X121.225Y-97.38
X121.25Y-103.75
X121.252Y-123.248
X122.8Y-118.0
X122.952Y-124.8
X123.004Y-120.2
X123.615Y-107.455
X125.0Y-112.8
X128.3Y-108.1
X133.4Y-107.8
X148.3Y-128.2
X148.9Y-123.9
X151.206Y-97.371
X152.5Y-99.15
X153.3Y-102.8
X153.9Y-95.2
X154.0Y-92.55
X155.3Y-88.2
X155.6Y-113.8
X157.6Y-115.5
X160.8Y-98.5
X161.6Y-100.7
X165.2Y-99.68
X168.3Y-99.3
T3
X127.21Y-115.38
X127.21Y-117.92
X127.21Y-120.46
X127.21Y-123.0
X127.21Y-129.21
X127.21Y-131.75
X127.21Y-134.29
X127.21Y-136.83
X129.75Y-115.38
X129.75Y-117.92
X129.75Y-120.46
X129.75Y-123.0
X129.75Y-129.21
X129.75Y-131.75
X129.75Y-134.29
X129.75Y-136.83
X140.71Y-129.38
X140.71Y-131.92
X140.71Y-134.46
X140.71Y-137.0
X140.75Y-115.38
X140.75Y-117.92
X140.75Y-120.46
X140.75Y-123.0
X143.25Y-129.38
X143.25Y-131.92
X143.25Y-134.46
X143.25Y-137.0
X143.29Y-115.38
X143.29Y-117.92
X143.29Y-120.46
X143.29Y-123.0
X160.7Y-118.51
X160.7Y-121.05
X160.7Y-123.59
X160.7Y-126.13
X160.7Y-128.67
X163.24Y-118.51
X163.24Y-121.05
X163.24Y-123.59
X163.24Y-126.13
X163.24Y-128.67
X166.02Y-105.5
X166.04Y-112.25
X166.05Y-86.75
X166.05Y-93.75
X168.56Y-105.5
X168.58Y-112.25
X168.59Y-86.75
X168.59Y-93.75
X171.1Y-105.5
X171.12Y-112.25
X171.13Y-86.75
X171.13Y-93.75
X172.7Y-118.42
X172.7Y-120.96
X172.7Y-123.5
X172.7Y-126.04
X172.7Y-128.58
X173.64Y-105.5
X173.66Y-112.25
X173.67Y-86.75
X173.67Y-93.75
X175.24Y-118.42
X175.24Y-120.96
X175.24Y-123.5
X175.24Y-126.04
X175.24Y-128.58
X176.18Y-105.5
X176.2Y-112.25
X176.21Y-86.75
X176.21Y-93.75
X178.72Y-105.5
X178.74Y-112.25
X178.75Y-86.75
X178.75Y-93.75
X181.26Y-105.5
X181.28Y-112.25
X181.29Y-86.75
X181.29Y-93.75
X183.8Y-105.5
X183.82Y-112.25
X183.83Y-86.75
X183.83Y-93.75
T4
X81.525Y-89.85
X81.525Y-97.85
T5
X82.945Y-108.155
X82.945Y-113.935
X83.15Y-125.835
X83.15Y-131.615
T6
X102.0Y-137.8
X108.7Y-80.4
X163.2Y-137.6
X179.9Y-80.4
T7
X82.6Y-82.1
X91.6Y-138.2
X176.0Y-138.1
X183.4Y-100.3
M30
