%TF.GenerationSoftware,KiCad,Pcbnew,10.0.1*%
%TF.CreationDate,2026-05-23T07:07:49+07:00*%
%TF.ProjectId,regi,72656769-2e6b-4696-9361-645f70636258,rev?*%
%TF.SameCoordinates,Original*%
%TF.FileFunction,Paste,Top*%
%TF.FilePolarity,Positive*%
%FSLAX46Y46*%
G04 Gerber Fmt 4.6, Leading zero omitted, Abs format (unit mm)*
G04 Created by KiCad (PCBNEW 10.0.1) date 2026-05-23 07:07:49*
%MOMM*%
%LPD*%
G01*
G04 APERTURE LIST*
G04 Aperture macros list*
%AMRoundRect*
0 Rectangle with rounded corners*
0 $1 Rounding radius*
0 $2 $3 $4 $5 $6 $7 $8 $9 X,Y pos of 4 corners*
0 Add a 4 corners polygon primitive as box body*
4,1,4,$2,$3,$4,$5,$6,$7,$8,$9,$2,$3,0*
0 Add four circle primitives for the rounded corners*
1,1,$1+$1,$2,$3*
1,1,$1+$1,$4,$5*
1,1,$1+$1,$6,$7*
1,1,$1+$1,$8,$9*
0 Add four rect primitives between the rounded corners*
20,1,$1+$1,$2,$3,$4,$5,0*
20,1,$1+$1,$4,$5,$6,$7,0*
20,1,$1+$1,$6,$7,$8,$9,0*
20,1,$1+$1,$8,$9,$2,$3,0*%
G04 Aperture macros list end*
%ADD10RoundRect,0.250000X0.337500X0.475000X-0.337500X0.475000X-0.337500X-0.475000X0.337500X-0.475000X0*%
%ADD11RoundRect,0.250000X0.350000X0.450000X-0.350000X0.450000X-0.350000X-0.450000X0.350000X-0.450000X0*%
%ADD12RoundRect,0.200000X0.200000X-0.750000X0.200000X0.750000X-0.200000X0.750000X-0.200000X-0.750000X0*%
%ADD13R,1.600000X0.700000*%
%ADD14R,1.500000X1.200000*%
%ADD15R,2.200000X1.200000*%
%ADD16R,1.500000X1.600000*%
%ADD17RoundRect,0.150000X-0.825000X-0.150000X0.825000X-0.150000X0.825000X0.150000X-0.825000X0.150000X0*%
%ADD18RoundRect,0.250000X-0.450000X0.350000X-0.450000X-0.350000X0.450000X-0.350000X0.450000X0.350000X0*%
%ADD19RoundRect,0.250000X-0.337500X-0.475000X0.337500X-0.475000X0.337500X0.475000X-0.337500X0.475000X0*%
%ADD20RoundRect,0.250000X0.450000X0.275000X-0.450000X0.275000X-0.450000X-0.275000X0.450000X-0.275000X0*%
%ADD21RoundRect,0.093750X-0.156250X-0.093750X0.156250X-0.093750X0.156250X0.093750X-0.156250X0.093750X0*%
%ADD22RoundRect,0.075000X-0.250000X-0.075000X0.250000X-0.075000X0.250000X0.075000X-0.250000X0.075000X0*%
%ADD23RoundRect,0.375000X-0.625000X-0.375000X0.625000X-0.375000X0.625000X0.375000X-0.625000X0.375000X0*%
%ADD24RoundRect,0.500000X-0.500000X-1.400000X0.500000X-1.400000X0.500000X1.400000X-0.500000X1.400000X0*%
%ADD25RoundRect,0.200000X-0.200000X0.750000X-0.200000X-0.750000X0.200000X-0.750000X0.200000X0.750000X0*%
%ADD26RoundRect,0.250000X0.475000X-0.337500X0.475000X0.337500X-0.475000X0.337500X-0.475000X-0.337500X0*%
%ADD27RoundRect,0.250000X-0.350000X-0.450000X0.350000X-0.450000X0.350000X0.450000X-0.350000X0.450000X0*%
%ADD28RoundRect,0.150000X-0.425000X0.150000X-0.425000X-0.150000X0.425000X-0.150000X0.425000X0.150000X0*%
%ADD29RoundRect,0.075000X-0.500000X0.075000X-0.500000X-0.075000X0.500000X-0.075000X0.500000X0.075000X0*%
%ADD30RoundRect,0.250000X-0.750000X0.840000X-0.750000X-0.840000X0.750000X-0.840000X0.750000X0.840000X0*%
%ADD31RoundRect,0.250000X-0.475000X0.337500X-0.475000X-0.337500X0.475000X-0.337500X0.475000X0.337500X0*%
%ADD32RoundRect,0.250000X0.450000X-0.350000X0.450000X0.350000X-0.450000X0.350000X-0.450000X-0.350000X0*%
%ADD33RoundRect,0.250001X-0.462499X-0.624999X0.462499X-0.624999X0.462499X0.624999X-0.462499X0.624999X0*%
%ADD34R,0.900000X0.900000*%
%ADD35R,1.500000X0.900000*%
%ADD36R,0.900000X1.500000*%
G04 APERTURE END LIST*
D10*
%TO.C,C24*%
X109787500Y-115000000D03*
X107712500Y-115000000D03*
%TD*%
D11*
%TO.C,R5*%
X95445000Y-127625000D03*
X93445000Y-127625000D03*
%TD*%
D12*
%TO.C,Q2*%
X111250000Y-126600000D03*
X113150000Y-126600000D03*
X112200000Y-123600000D03*
%TD*%
D13*
%TO.C,Card1*%
X92525275Y-97049660D03*
X92525275Y-95949660D03*
X92525275Y-94849660D03*
X92525275Y-93749660D03*
X92525275Y-92649660D03*
X92525275Y-91549660D03*
X92525275Y-90449660D03*
X92525275Y-89349660D03*
D14*
X91525275Y-87049660D03*
D15*
X81925275Y-87049660D03*
X81925275Y-102549660D03*
D16*
X91525275Y-101649660D03*
D13*
X92525275Y-88249660D03*
%TD*%
D11*
%TO.C,R38*%
X102900000Y-110700000D03*
X100900000Y-110700000D03*
%TD*%
D17*
%TO.C,U1*%
X99845000Y-123575000D03*
X99845000Y-124845000D03*
X99845000Y-126115000D03*
X99845000Y-127385000D03*
X99845000Y-128655000D03*
X99845000Y-129925000D03*
X99845000Y-131195000D03*
X99845000Y-132465000D03*
X104795000Y-132465000D03*
X104795000Y-131195000D03*
X104795000Y-129925000D03*
X104795000Y-128655000D03*
X104795000Y-127385000D03*
X104795000Y-126115000D03*
X104795000Y-124845000D03*
X104795000Y-123575000D03*
%TD*%
D18*
%TO.C,R12*%
X108500000Y-127200000D03*
X108500000Y-129200000D03*
%TD*%
D19*
%TO.C,C21*%
X107712500Y-104000000D03*
X109787500Y-104000000D03*
%TD*%
D18*
%TO.C,R4*%
X115375000Y-90150000D03*
X115375000Y-92150000D03*
%TD*%
D11*
%TO.C,R6*%
X95445000Y-130625000D03*
X93445000Y-130625000D03*
%TD*%
D20*
%TO.C,SW3*%
X110135000Y-91950000D03*
X106535000Y-91950000D03*
X110135000Y-90510000D03*
X106535000Y-90510000D03*
%TD*%
D21*
%TO.C,U3*%
X95150000Y-110962500D03*
D22*
X95075000Y-111500000D03*
D21*
X95150000Y-112037500D03*
X96850000Y-112037500D03*
D22*
X96925000Y-111500000D03*
D21*
X96850000Y-110962500D03*
%TD*%
D23*
%TO.C,U9*%
X108000000Y-107200000D03*
X108000000Y-109500000D03*
D24*
X114300000Y-109500000D03*
D23*
X108000000Y-111800000D03*
%TD*%
D11*
%TO.C,R30*%
X151000000Y-88150000D03*
X149000000Y-88150000D03*
%TD*%
D25*
%TO.C,Q1*%
X113150000Y-129600000D03*
X111250000Y-129600000D03*
X112200000Y-132600000D03*
%TD*%
D11*
%TO.C,R27*%
X98906841Y-89235943D03*
X96906841Y-89235943D03*
%TD*%
D26*
%TO.C,C10*%
X108135000Y-86937500D03*
X108135000Y-84862500D03*
%TD*%
D27*
%TO.C,R8*%
X113125000Y-99900000D03*
X115125000Y-99900000D03*
%TD*%
D18*
%TO.C,R2*%
X115095000Y-84912500D03*
X115095000Y-86912500D03*
%TD*%
D11*
%TO.C,R35*%
X91500000Y-109750000D03*
X89500000Y-109750000D03*
%TD*%
D28*
%TO.C,J1*%
X84225000Y-125525000D03*
X84225000Y-126325000D03*
D29*
X84225000Y-127475000D03*
X84225000Y-128475000D03*
X84225000Y-128975000D03*
X84225000Y-129975000D03*
D28*
X84225000Y-131125000D03*
X84225000Y-131925000D03*
X84225000Y-131925000D03*
X84225000Y-131125000D03*
D29*
X84225000Y-130475000D03*
X84225000Y-129475000D03*
X84225000Y-127975000D03*
X84225000Y-126975000D03*
D28*
X84225000Y-126325000D03*
X84225000Y-125525000D03*
D30*
X83650000Y-123615000D03*
X79720000Y-123615000D03*
X83650000Y-133835000D03*
X79720000Y-133835000D03*
%TD*%
D11*
%TO.C,R28*%
X98931435Y-95703942D03*
X96931435Y-95703942D03*
%TD*%
D31*
%TO.C,C4*%
X113125000Y-90142500D03*
X113125000Y-92217500D03*
%TD*%
D32*
%TO.C,R11*%
X115700000Y-128900000D03*
X115700000Y-126900000D03*
%TD*%
D11*
%TO.C,R26*%
X98900000Y-91400000D03*
X96900000Y-91400000D03*
%TD*%
%TO.C,R39*%
X102900000Y-113100000D03*
X100900000Y-113100000D03*
%TD*%
D10*
%TO.C,C7*%
X103087500Y-120400000D03*
X101012500Y-120400000D03*
%TD*%
D11*
%TO.C,R29*%
X151000000Y-85900000D03*
X149000000Y-85900000D03*
%TD*%
%TO.C,R10*%
X98925275Y-93549660D03*
X96925275Y-93549660D03*
%TD*%
%TO.C,R37*%
X91500000Y-112900000D03*
X89500000Y-112900000D03*
%TD*%
D26*
%TO.C,C2*%
X112625000Y-86937500D03*
X112625000Y-84862500D03*
%TD*%
D33*
%TO.C,D1*%
X106887500Y-100900000D03*
X109862500Y-100900000D03*
%TD*%
D34*
%TO.C,U2*%
X132850000Y-90970000D03*
X132850000Y-92370000D03*
X132850000Y-93770000D03*
X134250000Y-90970000D03*
X134250000Y-92370000D03*
X134250000Y-93770000D03*
X135650000Y-90970000D03*
X135650000Y-92370000D03*
X135650000Y-93770000D03*
D35*
X127000000Y-84650000D03*
X127000000Y-85920000D03*
X127000000Y-87190000D03*
X127000000Y-88460000D03*
X127000000Y-89730000D03*
X127000000Y-91000000D03*
X127000000Y-92270000D03*
X127000000Y-93540000D03*
X127000000Y-94810000D03*
X127000000Y-96080000D03*
X127000000Y-97350000D03*
X127000000Y-98620000D03*
X127000000Y-99890000D03*
X127000000Y-101160000D03*
D36*
X128765000Y-102410000D03*
X130035000Y-102410000D03*
X131305000Y-102410000D03*
X132575000Y-102410000D03*
X133845000Y-102410000D03*
X135115000Y-102410000D03*
X136385000Y-102410000D03*
X137655000Y-102410000D03*
X138925000Y-102410000D03*
X140195000Y-102410000D03*
X141465000Y-102410000D03*
X142735000Y-102410000D03*
D35*
X144500000Y-101160000D03*
X144500000Y-99890000D03*
X144500000Y-98620000D03*
X144500000Y-97350000D03*
X144500000Y-96080000D03*
X144500000Y-94810000D03*
X144500000Y-93540000D03*
X144500000Y-92270000D03*
X144500000Y-91000000D03*
X144500000Y-89730000D03*
X144500000Y-88460000D03*
X144500000Y-87190000D03*
X144500000Y-85920000D03*
X144500000Y-84650000D03*
%TD*%
D26*
%TO.C,C11*%
X110375000Y-86937500D03*
X110375000Y-84862500D03*
%TD*%
D28*
%TO.C,J4*%
X84020000Y-107845000D03*
X84020000Y-108645000D03*
D29*
X84020000Y-109795000D03*
X84020000Y-110795000D03*
X84020000Y-111295000D03*
X84020000Y-112295000D03*
D28*
X84020000Y-113445000D03*
X84020000Y-114245000D03*
X84020000Y-114245000D03*
X84020000Y-113445000D03*
D29*
X84020000Y-112795000D03*
X84020000Y-111795000D03*
X84020000Y-110295000D03*
X84020000Y-109295000D03*
D28*
X84020000Y-108645000D03*
X84020000Y-107845000D03*
D30*
X83445000Y-105935000D03*
X79515000Y-105935000D03*
X83445000Y-116155000D03*
X79515000Y-116155000D03*
%TD*%
D26*
%TO.C,C8*%
X105875000Y-86937500D03*
X105875000Y-84862500D03*
%TD*%
D20*
%TO.C,SW1*%
X110125000Y-97150000D03*
X106525000Y-97150000D03*
X110125000Y-95710000D03*
X106525000Y-95710000D03*
%TD*%
M02*
