%TF.GenerationSoftware,KiCad,Pcbnew,10.0.1*%
%TF.CreationDate,2026-05-23T07:08:15+07:00*%
%TF.ProjectId,regi,72656769-2e6b-4696-9361-645f70636258,rev?*%
%TF.SameCoordinates,Original*%
%TF.FileFunction,Drillmap*%
%TF.FilePolarity,Positive*%
%FSLAX45Y45*%
G04 Gerber Fmt 4.5, Leading zero omitted, Abs format (unit mm)*
G04 Created by KiCad (PCBNEW 10.0.1) date 2026-05-23 07:08:15*
%MOMM*%
%LPD*%
G01*
G04 APERTURE LIST*
%ADD10C,0.050000*%
%ADD11C,0.200000*%
%ADD12C,0.100000*%
%ADD13C,0.120000*%
G04 APERTURE END LIST*
D10*
X7700000Y-7700000D02*
X12190000Y-7700000D01*
X7700000Y-14430000D02*
X7700000Y-7700000D01*
X12190000Y-7700000D02*
X12600000Y-8320000D01*
X12600000Y-8320000D02*
X14550000Y-8320000D01*
X14970000Y-7700000D02*
X14550000Y-8320000D01*
X14970000Y-7700000D02*
X18840000Y-7700000D01*
X18840000Y-7700000D02*
X18840000Y-14430000D01*
X18840000Y-14430000D02*
X7700000Y-14430000D01*
D11*
D12*
X13275000Y-9157000D02*
X13295000Y-9177000D01*
X13295000Y-9157000D02*
X13275000Y-9177000D01*
X13275000Y-9297000D02*
X13295000Y-9317000D01*
X13295000Y-9297000D02*
X13275000Y-9317000D01*
X13345000Y-9087000D02*
X13365000Y-9107000D01*
X13365000Y-9087000D02*
X13345000Y-9107000D01*
X13345000Y-9227000D02*
X13365000Y-9247000D01*
X13365000Y-9227000D02*
X13345000Y-9247000D01*
X13345000Y-9367000D02*
X13365000Y-9387000D01*
X13365000Y-9367000D02*
X13345000Y-9387000D01*
X13415000Y-9157000D02*
X13435000Y-9177000D01*
X13435000Y-9157000D02*
X13415000Y-9177000D01*
X13415000Y-9297000D02*
X13435000Y-9317000D01*
X13435000Y-9297000D02*
X13415000Y-9317000D01*
X13485000Y-9087000D02*
X13505000Y-9107000D01*
X13505000Y-9087000D02*
X13485000Y-9107000D01*
X13485000Y-9227000D02*
X13505000Y-9247000D01*
X13505000Y-9227000D02*
X13485000Y-9247000D01*
X13485000Y-9367000D02*
X13505000Y-9387000D01*
X13505000Y-9367000D02*
X13485000Y-9387000D01*
X13555000Y-9157000D02*
X13575000Y-9177000D01*
X13575000Y-9157000D02*
X13555000Y-9177000D01*
X13555000Y-9297000D02*
X13575000Y-9317000D01*
X13575000Y-9297000D02*
X13555000Y-9317000D01*
X9140000Y-8290000D02*
G75*
G02*
X9060000Y-8290000I-40000J0D01*
G01*
X9060000Y-8290000D02*
G75*
G02*
X9140000Y-8290000I40000J0D01*
G01*
X9370000Y-10600000D02*
G75*
G02*
X9290000Y-10600000I-40000J0D01*
G01*
X9290000Y-10600000D02*
G75*
G02*
X9370000Y-10600000I40000J0D01*
G01*
X9420000Y-12180000D02*
G75*
G02*
X9340000Y-12180000I-40000J0D01*
G01*
X9340000Y-12180000D02*
G75*
G02*
X9420000Y-12180000I40000J0D01*
G01*
X9440000Y-8330000D02*
G75*
G02*
X9360000Y-8330000I-40000J0D01*
G01*
X9360000Y-8330000D02*
G75*
G02*
X9440000Y-8330000I40000J0D01*
G01*
X9666875Y-8683125D02*
G75*
G02*
X9586875Y-8683125I-40000J0D01*
G01*
X9586875Y-8683125D02*
G75*
G02*
X9666875Y-8683125I40000J0D01*
G01*
X9680000Y-12170000D02*
G75*
G02*
X9600000Y-12170000I-40000J0D01*
G01*
X9600000Y-12170000D02*
G75*
G02*
X9680000Y-12170000I40000J0D01*
G01*
X9860000Y-11710000D02*
G75*
G02*
X9780000Y-11710000I-40000J0D01*
G01*
X9780000Y-11710000D02*
G75*
G02*
X9860000Y-11710000I40000J0D01*
G01*
X9860000Y-11990000D02*
G75*
G02*
X9780000Y-11990000I-40000J0D01*
G01*
X9780000Y-11990000D02*
G75*
G02*
X9860000Y-11990000I40000J0D01*
G01*
X9880000Y-10750000D02*
G75*
G02*
X9800000Y-10750000I-40000J0D01*
G01*
X9800000Y-10750000D02*
G75*
G02*
X9880000Y-10750000I40000J0D01*
G01*
X9930000Y-10040000D02*
G75*
G02*
X9850000Y-10040000I-40000J0D01*
G01*
X9850000Y-10040000D02*
G75*
G02*
X9930000Y-10040000I40000J0D01*
G01*
X9950000Y-8160000D02*
G75*
G02*
X9870000Y-8160000I-40000J0D01*
G01*
X9870000Y-8160000D02*
G75*
G02*
X9950000Y-8160000I40000J0D01*
G01*
X10120000Y-9860000D02*
G75*
G02*
X10040000Y-9860000I-40000J0D01*
G01*
X10040000Y-9860000D02*
G75*
G02*
X10120000Y-9860000I40000J0D01*
G01*
X10350000Y-8200000D02*
G75*
G02*
X10270000Y-8200000I-40000J0D01*
G01*
X10270000Y-8200000D02*
G75*
G02*
X10350000Y-8200000I40000J0D01*
G01*
X10377500Y-8940000D02*
G75*
G02*
X10297500Y-8940000I-40000J0D01*
G01*
X10297500Y-8940000D02*
G75*
G02*
X10377500Y-8940000I40000J0D01*
G01*
X10380000Y-9910000D02*
G75*
G02*
X10300000Y-9910000I-40000J0D01*
G01*
X10300000Y-9910000D02*
G75*
G02*
X10380000Y-9910000I40000J0D01*
G01*
X10390000Y-9540000D02*
G75*
G02*
X10310000Y-9540000I-40000J0D01*
G01*
X10310000Y-9540000D02*
G75*
G02*
X10390000Y-9540000I40000J0D01*
G01*
X10520000Y-11540000D02*
G75*
G02*
X10440000Y-11540000I-40000J0D01*
G01*
X10440000Y-11540000D02*
G75*
G02*
X10520000Y-11540000I40000J0D01*
G01*
X11250000Y-13660000D02*
G75*
G02*
X11170000Y-13660000I-40000J0D01*
G01*
X11170000Y-13660000D02*
G75*
G02*
X11250000Y-13660000I40000J0D01*
G01*
X11450000Y-10300000D02*
G75*
G02*
X11370000Y-10300000I-40000J0D01*
G01*
X11370000Y-10300000D02*
G75*
G02*
X11450000Y-10300000I40000J0D01*
G01*
X11481250Y-9710000D02*
G75*
G02*
X11401250Y-9710000I-40000J0D01*
G01*
X11401250Y-9710000D02*
G75*
G02*
X11481250Y-9710000I40000J0D01*
G01*
X11520000Y-11930000D02*
G75*
G02*
X11440000Y-11930000I-40000J0D01*
G01*
X11440000Y-11930000D02*
G75*
G02*
X11520000Y-11930000I40000J0D01*
G01*
X12042500Y-10600000D02*
G75*
G02*
X11962500Y-10600000I-40000J0D01*
G01*
X11962500Y-10600000D02*
G75*
G02*
X12042500Y-10600000I40000J0D01*
G01*
X12082500Y-13330000D02*
G75*
G02*
X12002500Y-13330000I-40000J0D01*
G01*
X12002500Y-13330000D02*
G75*
G02*
X12082500Y-13330000I40000J0D01*
G01*
X12122500Y-13090000D02*
G75*
G02*
X12042500Y-13090000I-40000J0D01*
G01*
X12042500Y-13090000D02*
G75*
G02*
X12122500Y-13090000I40000J0D01*
G01*
X12162500Y-9738000D02*
G75*
G02*
X12082500Y-9738000I-40000J0D01*
G01*
X12082500Y-9738000D02*
G75*
G02*
X12162500Y-9738000I40000J0D01*
G01*
X12165000Y-10375000D02*
G75*
G02*
X12085000Y-10375000I-40000J0D01*
G01*
X12085000Y-10375000D02*
G75*
G02*
X12165000Y-10375000I40000J0D01*
G01*
X12165208Y-12324792D02*
G75*
G02*
X12085208Y-12324792I-40000J0D01*
G01*
X12085208Y-12324792D02*
G75*
G02*
X12165208Y-12324792I40000J0D01*
G01*
X12320000Y-11800000D02*
G75*
G02*
X12240000Y-11800000I-40000J0D01*
G01*
X12240000Y-11800000D02*
G75*
G02*
X12320000Y-11800000I40000J0D01*
G01*
X12335208Y-12480000D02*
G75*
G02*
X12255208Y-12480000I-40000J0D01*
G01*
X12255208Y-12480000D02*
G75*
G02*
X12335208Y-12480000I40000J0D01*
G01*
X12340416Y-12020000D02*
G75*
G02*
X12260416Y-12020000I-40000J0D01*
G01*
X12260416Y-12020000D02*
G75*
G02*
X12340416Y-12020000I40000J0D01*
G01*
X12401477Y-10745508D02*
G75*
G02*
X12321477Y-10745508I-40000J0D01*
G01*
X12321477Y-10745508D02*
G75*
G02*
X12401477Y-10745508I40000J0D01*
G01*
X12540000Y-11280000D02*
G75*
G02*
X12460000Y-11280000I-40000J0D01*
G01*
X12460000Y-11280000D02*
G75*
G02*
X12540000Y-11280000I40000J0D01*
G01*
X12870000Y-10810000D02*
G75*
G02*
X12790000Y-10810000I-40000J0D01*
G01*
X12790000Y-10810000D02*
G75*
G02*
X12870000Y-10810000I40000J0D01*
G01*
X13380000Y-10780000D02*
G75*
G02*
X13300000Y-10780000I-40000J0D01*
G01*
X13300000Y-10780000D02*
G75*
G02*
X13380000Y-10780000I40000J0D01*
G01*
X14870000Y-12820000D02*
G75*
G02*
X14790000Y-12820000I-40000J0D01*
G01*
X14790000Y-12820000D02*
G75*
G02*
X14870000Y-12820000I40000J0D01*
G01*
X14930000Y-12390000D02*
G75*
G02*
X14850000Y-12390000I-40000J0D01*
G01*
X14850000Y-12390000D02*
G75*
G02*
X14930000Y-12390000I40000J0D01*
G01*
X15160602Y-9737078D02*
G75*
G02*
X15080602Y-9737078I-40000J0D01*
G01*
X15080602Y-9737078D02*
G75*
G02*
X15160602Y-9737078I40000J0D01*
G01*
X15290000Y-9915000D02*
G75*
G02*
X15210000Y-9915000I-40000J0D01*
G01*
X15210000Y-9915000D02*
G75*
G02*
X15290000Y-9915000I40000J0D01*
G01*
X15370000Y-10280000D02*
G75*
G02*
X15290000Y-10280000I-40000J0D01*
G01*
X15290000Y-10280000D02*
G75*
G02*
X15370000Y-10280000I40000J0D01*
G01*
X15430000Y-9520000D02*
G75*
G02*
X15350000Y-9520000I-40000J0D01*
G01*
X15350000Y-9520000D02*
G75*
G02*
X15430000Y-9520000I40000J0D01*
G01*
X15440000Y-9255000D02*
G75*
G02*
X15360000Y-9255000I-40000J0D01*
G01*
X15360000Y-9255000D02*
G75*
G02*
X15440000Y-9255000I40000J0D01*
G01*
X15570000Y-8820000D02*
G75*
G02*
X15490000Y-8820000I-40000J0D01*
G01*
X15490000Y-8820000D02*
G75*
G02*
X15570000Y-8820000I40000J0D01*
G01*
X15600000Y-11380000D02*
G75*
G02*
X15520000Y-11380000I-40000J0D01*
G01*
X15520000Y-11380000D02*
G75*
G02*
X15600000Y-11380000I40000J0D01*
G01*
X15800000Y-11550000D02*
G75*
G02*
X15720000Y-11550000I-40000J0D01*
G01*
X15720000Y-11550000D02*
G75*
G02*
X15800000Y-11550000I40000J0D01*
G01*
X16120000Y-9850000D02*
G75*
G02*
X16040000Y-9850000I-40000J0D01*
G01*
X16040000Y-9850000D02*
G75*
G02*
X16120000Y-9850000I40000J0D01*
G01*
X16200000Y-10070000D02*
G75*
G02*
X16120000Y-10070000I-40000J0D01*
G01*
X16120000Y-10070000D02*
G75*
G02*
X16200000Y-10070000I40000J0D01*
G01*
X16560000Y-9968000D02*
G75*
G02*
X16480000Y-9968000I-40000J0D01*
G01*
X16480000Y-9968000D02*
G75*
G02*
X16560000Y-9968000I40000J0D01*
G01*
X16870000Y-9930000D02*
G75*
G02*
X16790000Y-9930000I-40000J0D01*
G01*
X16790000Y-9930000D02*
G75*
G02*
X16870000Y-9930000I40000J0D01*
G01*
X12721000Y-11488000D02*
X12721000Y-11588000D01*
X12671000Y-11538000D02*
X12771000Y-11538000D01*
X12721000Y-11742000D02*
X12721000Y-11842000D01*
X12671000Y-11792000D02*
X12771000Y-11792000D01*
X12721000Y-11996000D02*
X12721000Y-12096000D01*
X12671000Y-12046000D02*
X12771000Y-12046000D01*
X12721000Y-12250000D02*
X12721000Y-12350000D01*
X12671000Y-12300000D02*
X12771000Y-12300000D01*
X12721000Y-12871000D02*
X12721000Y-12971000D01*
X12671000Y-12921000D02*
X12771000Y-12921000D01*
X12721000Y-13125000D02*
X12721000Y-13225000D01*
X12671000Y-13175000D02*
X12771000Y-13175000D01*
X12721000Y-13379000D02*
X12721000Y-13479000D01*
X12671000Y-13429000D02*
X12771000Y-13429000D01*
X12721000Y-13633000D02*
X12721000Y-13733000D01*
X12671000Y-13683000D02*
X12771000Y-13683000D01*
X12975000Y-11488000D02*
X12975000Y-11588000D01*
X12925000Y-11538000D02*
X13025000Y-11538000D01*
X12975000Y-11742000D02*
X12975000Y-11842000D01*
X12925000Y-11792000D02*
X13025000Y-11792000D01*
X12975000Y-11996000D02*
X12975000Y-12096000D01*
X12925000Y-12046000D02*
X13025000Y-12046000D01*
X12975000Y-12250000D02*
X12975000Y-12350000D01*
X12925000Y-12300000D02*
X13025000Y-12300000D01*
X12975000Y-12871000D02*
X12975000Y-12971000D01*
X12925000Y-12921000D02*
X13025000Y-12921000D01*
X12975000Y-13125000D02*
X12975000Y-13225000D01*
X12925000Y-13175000D02*
X13025000Y-13175000D01*
X12975000Y-13379000D02*
X12975000Y-13479000D01*
X12925000Y-13429000D02*
X13025000Y-13429000D01*
X12975000Y-13633000D02*
X12975000Y-13733000D01*
X12925000Y-13683000D02*
X13025000Y-13683000D01*
X14071000Y-12888000D02*
X14071000Y-12988000D01*
X14021000Y-12938000D02*
X14121000Y-12938000D01*
X14071000Y-13142000D02*
X14071000Y-13242000D01*
X14021000Y-13192000D02*
X14121000Y-13192000D01*
X14071000Y-13396000D02*
X14071000Y-13496000D01*
X14021000Y-13446000D02*
X14121000Y-13446000D01*
X14071000Y-13650000D02*
X14071000Y-13750000D01*
X14021000Y-13700000D02*
X14121000Y-13700000D01*
X14075000Y-11488000D02*
X14075000Y-11588000D01*
X14025000Y-11538000D02*
X14125000Y-11538000D01*
X14075000Y-11742000D02*
X14075000Y-11842000D01*
X14025000Y-11792000D02*
X14125000Y-11792000D01*
X14075000Y-11996000D02*
X14075000Y-12096000D01*
X14025000Y-12046000D02*
X14125000Y-12046000D01*
X14075000Y-12250000D02*
X14075000Y-12350000D01*
X14025000Y-12300000D02*
X14125000Y-12300000D01*
X14325000Y-12888000D02*
X14325000Y-12988000D01*
X14275000Y-12938000D02*
X14375000Y-12938000D01*
X14325000Y-13142000D02*
X14325000Y-13242000D01*
X14275000Y-13192000D02*
X14375000Y-13192000D01*
X14325000Y-13396000D02*
X14325000Y-13496000D01*
X14275000Y-13446000D02*
X14375000Y-13446000D01*
X14325000Y-13650000D02*
X14325000Y-13750000D01*
X14275000Y-13700000D02*
X14375000Y-13700000D01*
X14329000Y-11488000D02*
X14329000Y-11588000D01*
X14279000Y-11538000D02*
X14379000Y-11538000D01*
X14329000Y-11742000D02*
X14329000Y-11842000D01*
X14279000Y-11792000D02*
X14379000Y-11792000D01*
X14329000Y-11996000D02*
X14329000Y-12096000D01*
X14279000Y-12046000D02*
X14379000Y-12046000D01*
X14329000Y-12250000D02*
X14329000Y-12350000D01*
X14279000Y-12300000D02*
X14379000Y-12300000D01*
X16070000Y-11801000D02*
X16070000Y-11901000D01*
X16020000Y-11851000D02*
X16120000Y-11851000D01*
X16070000Y-12055000D02*
X16070000Y-12155000D01*
X16020000Y-12105000D02*
X16120000Y-12105000D01*
X16070000Y-12309000D02*
X16070000Y-12409000D01*
X16020000Y-12359000D02*
X16120000Y-12359000D01*
X16070000Y-12563000D02*
X16070000Y-12663000D01*
X16020000Y-12613000D02*
X16120000Y-12613000D01*
X16070000Y-12817000D02*
X16070000Y-12917000D01*
X16020000Y-12867000D02*
X16120000Y-12867000D01*
X16324000Y-11801000D02*
X16324000Y-11901000D01*
X16274000Y-11851000D02*
X16374000Y-11851000D01*
X16324000Y-12055000D02*
X16324000Y-12155000D01*
X16274000Y-12105000D02*
X16374000Y-12105000D01*
X16324000Y-12309000D02*
X16324000Y-12409000D01*
X16274000Y-12359000D02*
X16374000Y-12359000D01*
X16324000Y-12563000D02*
X16324000Y-12663000D01*
X16274000Y-12613000D02*
X16374000Y-12613000D01*
X16324000Y-12817000D02*
X16324000Y-12917000D01*
X16274000Y-12867000D02*
X16374000Y-12867000D01*
X16602000Y-10500000D02*
X16602000Y-10600000D01*
X16552000Y-10550000D02*
X16652000Y-10550000D01*
X16604000Y-11175000D02*
X16604000Y-11275000D01*
X16554000Y-11225000D02*
X16654000Y-11225000D01*
X16605000Y-8625000D02*
X16605000Y-8725000D01*
X16555000Y-8675000D02*
X16655000Y-8675000D01*
X16605000Y-9325000D02*
X16605000Y-9425000D01*
X16555000Y-9375000D02*
X16655000Y-9375000D01*
X16856000Y-10500000D02*
X16856000Y-10600000D01*
X16806000Y-10550000D02*
X16906000Y-10550000D01*
X16858000Y-11175000D02*
X16858000Y-11275000D01*
X16808000Y-11225000D02*
X16908000Y-11225000D01*
X16859000Y-8625000D02*
X16859000Y-8725000D01*
X16809000Y-8675000D02*
X16909000Y-8675000D01*
X16859000Y-9325000D02*
X16859000Y-9425000D01*
X16809000Y-9375000D02*
X16909000Y-9375000D01*
X17110000Y-10500000D02*
X17110000Y-10600000D01*
X17060000Y-10550000D02*
X17160000Y-10550000D01*
X17112000Y-11175000D02*
X17112000Y-11275000D01*
X17062000Y-11225000D02*
X17162000Y-11225000D01*
X17113000Y-8625000D02*
X17113000Y-8725000D01*
X17063000Y-8675000D02*
X17163000Y-8675000D01*
X17113000Y-9325000D02*
X17113000Y-9425000D01*
X17063000Y-9375000D02*
X17163000Y-9375000D01*
X17270000Y-11792000D02*
X17270000Y-11892000D01*
X17220000Y-11842000D02*
X17320000Y-11842000D01*
X17270000Y-12046000D02*
X17270000Y-12146000D01*
X17220000Y-12096000D02*
X17320000Y-12096000D01*
X17270000Y-12300000D02*
X17270000Y-12400000D01*
X17220000Y-12350000D02*
X17320000Y-12350000D01*
X17270000Y-12554000D02*
X17270000Y-12654000D01*
X17220000Y-12604000D02*
X17320000Y-12604000D01*
X17270000Y-12808000D02*
X17270000Y-12908000D01*
X17220000Y-12858000D02*
X17320000Y-12858000D01*
X17364000Y-10500000D02*
X17364000Y-10600000D01*
X17314000Y-10550000D02*
X17414000Y-10550000D01*
X17366000Y-11175000D02*
X17366000Y-11275000D01*
X17316000Y-11225000D02*
X17416000Y-11225000D01*
X17367000Y-8625000D02*
X17367000Y-8725000D01*
X17317000Y-8675000D02*
X17417000Y-8675000D01*
X17367000Y-9325000D02*
X17367000Y-9425000D01*
X17317000Y-9375000D02*
X17417000Y-9375000D01*
X17524000Y-11792000D02*
X17524000Y-11892000D01*
X17474000Y-11842000D02*
X17574000Y-11842000D01*
X17524000Y-12046000D02*
X17524000Y-12146000D01*
X17474000Y-12096000D02*
X17574000Y-12096000D01*
X17524000Y-12300000D02*
X17524000Y-12400000D01*
X17474000Y-12350000D02*
X17574000Y-12350000D01*
X17524000Y-12554000D02*
X17524000Y-12654000D01*
X17474000Y-12604000D02*
X17574000Y-12604000D01*
X17524000Y-12808000D02*
X17524000Y-12908000D01*
X17474000Y-12858000D02*
X17574000Y-12858000D01*
X17618000Y-10500000D02*
X17618000Y-10600000D01*
X17568000Y-10550000D02*
X17668000Y-10550000D01*
X17620000Y-11175000D02*
X17620000Y-11275000D01*
X17570000Y-11225000D02*
X17670000Y-11225000D01*
X17621000Y-8625000D02*
X17621000Y-8725000D01*
X17571000Y-8675000D02*
X17671000Y-8675000D01*
X17621000Y-9325000D02*
X17621000Y-9425000D01*
X17571000Y-9375000D02*
X17671000Y-9375000D01*
X17872000Y-10500000D02*
X17872000Y-10600000D01*
X17822000Y-10550000D02*
X17922000Y-10550000D01*
X17874000Y-11175000D02*
X17874000Y-11275000D01*
X17824000Y-11225000D02*
X17924000Y-11225000D01*
X17875000Y-8625000D02*
X17875000Y-8725000D01*
X17825000Y-8675000D02*
X17925000Y-8675000D01*
X17875000Y-9325000D02*
X17875000Y-9425000D01*
X17825000Y-9375000D02*
X17925000Y-9375000D01*
X18126000Y-10500000D02*
X18126000Y-10600000D01*
X18076000Y-10550000D02*
X18176000Y-10550000D01*
X18128000Y-11175000D02*
X18128000Y-11275000D01*
X18078000Y-11225000D02*
X18178000Y-11225000D01*
X18129000Y-8625000D02*
X18129000Y-8725000D01*
X18079000Y-8675000D02*
X18179000Y-8675000D01*
X18129000Y-9325000D02*
X18129000Y-9425000D01*
X18079000Y-9375000D02*
X18179000Y-9375000D01*
X18380000Y-10500000D02*
X18380000Y-10600000D01*
X18330000Y-10550000D02*
X18430000Y-10550000D01*
X18382000Y-11175000D02*
X18382000Y-11275000D01*
X18332000Y-11225000D02*
X18432000Y-11225000D01*
X18383000Y-8625000D02*
X18383000Y-8725000D01*
X18333000Y-8675000D02*
X18433000Y-8675000D01*
X18383000Y-9325000D02*
X18383000Y-9425000D01*
X18333000Y-9375000D02*
X18433000Y-9375000D01*
D13*
X8194954Y-9027393D02*
X8194954Y-8942539D01*
X8110101Y-8942539D01*
X8110101Y-9027393D01*
X8194954Y-9027393D01*
X8194954Y-9827393D02*
X8194954Y-9742539D01*
X8110101Y-9742539D01*
X8110101Y-9827393D01*
X8194954Y-9827393D01*
D11*
X7958277Y-14743984D02*
X7958277Y-14543984D01*
X7958277Y-14543984D02*
X8005896Y-14543984D01*
X8005896Y-14543984D02*
X8034467Y-14553508D01*
X8034467Y-14553508D02*
X8053515Y-14572555D01*
X8053515Y-14572555D02*
X8063039Y-14591603D01*
X8063039Y-14591603D02*
X8072562Y-14629698D01*
X8072562Y-14629698D02*
X8072562Y-14658269D01*
X8072562Y-14658269D02*
X8063039Y-14696365D01*
X8063039Y-14696365D02*
X8053515Y-14715412D01*
X8053515Y-14715412D02*
X8034467Y-14734460D01*
X8034467Y-14734460D02*
X8005896Y-14743984D01*
X8005896Y-14743984D02*
X7958277Y-14743984D01*
X8158277Y-14743984D02*
X8158277Y-14610650D01*
X8158277Y-14648746D02*
X8167801Y-14629698D01*
X8167801Y-14629698D02*
X8177324Y-14620174D01*
X8177324Y-14620174D02*
X8196372Y-14610650D01*
X8196372Y-14610650D02*
X8215420Y-14610650D01*
X8282086Y-14743984D02*
X8282086Y-14610650D01*
X8282086Y-14543984D02*
X8272562Y-14553508D01*
X8272562Y-14553508D02*
X8282086Y-14563031D01*
X8282086Y-14563031D02*
X8291610Y-14553508D01*
X8291610Y-14553508D02*
X8282086Y-14543984D01*
X8282086Y-14543984D02*
X8282086Y-14563031D01*
X8405896Y-14743984D02*
X8386848Y-14734460D01*
X8386848Y-14734460D02*
X8377324Y-14715412D01*
X8377324Y-14715412D02*
X8377324Y-14543984D01*
X8510658Y-14743984D02*
X8491610Y-14734460D01*
X8491610Y-14734460D02*
X8482086Y-14715412D01*
X8482086Y-14715412D02*
X8482086Y-14543984D01*
X8739229Y-14743984D02*
X8739229Y-14543984D01*
X8739229Y-14543984D02*
X8805896Y-14686841D01*
X8805896Y-14686841D02*
X8872563Y-14543984D01*
X8872563Y-14543984D02*
X8872563Y-14743984D01*
X9053515Y-14743984D02*
X9053515Y-14639222D01*
X9053515Y-14639222D02*
X9043991Y-14620174D01*
X9043991Y-14620174D02*
X9024944Y-14610650D01*
X9024944Y-14610650D02*
X8986848Y-14610650D01*
X8986848Y-14610650D02*
X8967801Y-14620174D01*
X9053515Y-14734460D02*
X9034467Y-14743984D01*
X9034467Y-14743984D02*
X8986848Y-14743984D01*
X8986848Y-14743984D02*
X8967801Y-14734460D01*
X8967801Y-14734460D02*
X8958277Y-14715412D01*
X8958277Y-14715412D02*
X8958277Y-14696365D01*
X8958277Y-14696365D02*
X8967801Y-14677317D01*
X8967801Y-14677317D02*
X8986848Y-14667793D01*
X8986848Y-14667793D02*
X9034467Y-14667793D01*
X9034467Y-14667793D02*
X9053515Y-14658269D01*
X9148753Y-14610650D02*
X9148753Y-14810650D01*
X9148753Y-14620174D02*
X9167801Y-14610650D01*
X9167801Y-14610650D02*
X9205896Y-14610650D01*
X9205896Y-14610650D02*
X9224944Y-14620174D01*
X9224944Y-14620174D02*
X9234467Y-14629698D01*
X9234467Y-14629698D02*
X9243991Y-14648746D01*
X9243991Y-14648746D02*
X9243991Y-14705888D01*
X9243991Y-14705888D02*
X9234467Y-14724936D01*
X9234467Y-14724936D02*
X9224944Y-14734460D01*
X9224944Y-14734460D02*
X9205896Y-14743984D01*
X9205896Y-14743984D02*
X9167801Y-14743984D01*
X9167801Y-14743984D02*
X9148753Y-14734460D01*
X9329705Y-14724936D02*
X9339229Y-14734460D01*
X9339229Y-14734460D02*
X9329705Y-14743984D01*
X9329705Y-14743984D02*
X9320182Y-14734460D01*
X9320182Y-14734460D02*
X9329705Y-14724936D01*
X9329705Y-14724936D02*
X9329705Y-14743984D01*
X9329705Y-14620174D02*
X9339229Y-14629698D01*
X9339229Y-14629698D02*
X9329705Y-14639222D01*
X9329705Y-14639222D02*
X9320182Y-14629698D01*
X9320182Y-14629698D02*
X9329705Y-14620174D01*
X9329705Y-14620174D02*
X9329705Y-14639222D01*
D12*
X7677500Y-15062500D02*
X7697500Y-15082500D01*
X7697500Y-15062500D02*
X7677500Y-15082500D01*
D11*
X7996372Y-14963984D02*
X8015420Y-14963984D01*
X8015420Y-14963984D02*
X8034467Y-14973508D01*
X8034467Y-14973508D02*
X8043991Y-14983031D01*
X8043991Y-14983031D02*
X8053515Y-15002079D01*
X8053515Y-15002079D02*
X8063039Y-15040174D01*
X8063039Y-15040174D02*
X8063039Y-15087793D01*
X8063039Y-15087793D02*
X8053515Y-15125888D01*
X8053515Y-15125888D02*
X8043991Y-15144936D01*
X8043991Y-15144936D02*
X8034467Y-15154460D01*
X8034467Y-15154460D02*
X8015420Y-15163984D01*
X8015420Y-15163984D02*
X7996372Y-15163984D01*
X7996372Y-15163984D02*
X7977324Y-15154460D01*
X7977324Y-15154460D02*
X7967801Y-15144936D01*
X7967801Y-15144936D02*
X7958277Y-15125888D01*
X7958277Y-15125888D02*
X7948753Y-15087793D01*
X7948753Y-15087793D02*
X7948753Y-15040174D01*
X7948753Y-15040174D02*
X7958277Y-15002079D01*
X7958277Y-15002079D02*
X7967801Y-14983031D01*
X7967801Y-14983031D02*
X7977324Y-14973508D01*
X7977324Y-14973508D02*
X7996372Y-14963984D01*
X8148753Y-15144936D02*
X8158277Y-15154460D01*
X8158277Y-15154460D02*
X8148753Y-15163984D01*
X8148753Y-15163984D02*
X8139229Y-15154460D01*
X8139229Y-15154460D02*
X8148753Y-15144936D01*
X8148753Y-15144936D02*
X8148753Y-15163984D01*
X8234467Y-14983031D02*
X8243991Y-14973508D01*
X8243991Y-14973508D02*
X8263039Y-14963984D01*
X8263039Y-14963984D02*
X8310658Y-14963984D01*
X8310658Y-14963984D02*
X8329705Y-14973508D01*
X8329705Y-14973508D02*
X8339229Y-14983031D01*
X8339229Y-14983031D02*
X8348753Y-15002079D01*
X8348753Y-15002079D02*
X8348753Y-15021127D01*
X8348753Y-15021127D02*
X8339229Y-15049698D01*
X8339229Y-15049698D02*
X8224943Y-15163984D01*
X8224943Y-15163984D02*
X8348753Y-15163984D01*
X8472563Y-14963984D02*
X8491610Y-14963984D01*
X8491610Y-14963984D02*
X8510658Y-14973508D01*
X8510658Y-14973508D02*
X8520182Y-14983031D01*
X8520182Y-14983031D02*
X8529705Y-15002079D01*
X8529705Y-15002079D02*
X8539229Y-15040174D01*
X8539229Y-15040174D02*
X8539229Y-15087793D01*
X8539229Y-15087793D02*
X8529705Y-15125888D01*
X8529705Y-15125888D02*
X8520182Y-15144936D01*
X8520182Y-15144936D02*
X8510658Y-15154460D01*
X8510658Y-15154460D02*
X8491610Y-15163984D01*
X8491610Y-15163984D02*
X8472563Y-15163984D01*
X8472563Y-15163984D02*
X8453515Y-15154460D01*
X8453515Y-15154460D02*
X8443991Y-15144936D01*
X8443991Y-15144936D02*
X8434467Y-15125888D01*
X8434467Y-15125888D02*
X8424944Y-15087793D01*
X8424944Y-15087793D02*
X8424944Y-15040174D01*
X8424944Y-15040174D02*
X8434467Y-15002079D01*
X8434467Y-15002079D02*
X8443991Y-14983031D01*
X8443991Y-14983031D02*
X8453515Y-14973508D01*
X8453515Y-14973508D02*
X8472563Y-14963984D01*
X8663039Y-14963984D02*
X8682086Y-14963984D01*
X8682086Y-14963984D02*
X8701134Y-14973508D01*
X8701134Y-14973508D02*
X8710658Y-14983031D01*
X8710658Y-14983031D02*
X8720182Y-15002079D01*
X8720182Y-15002079D02*
X8729705Y-15040174D01*
X8729705Y-15040174D02*
X8729705Y-15087793D01*
X8729705Y-15087793D02*
X8720182Y-15125888D01*
X8720182Y-15125888D02*
X8710658Y-15144936D01*
X8710658Y-15144936D02*
X8701134Y-15154460D01*
X8701134Y-15154460D02*
X8682086Y-15163984D01*
X8682086Y-15163984D02*
X8663039Y-15163984D01*
X8663039Y-15163984D02*
X8643991Y-15154460D01*
X8643991Y-15154460D02*
X8634467Y-15144936D01*
X8634467Y-15144936D02*
X8624944Y-15125888D01*
X8624944Y-15125888D02*
X8615420Y-15087793D01*
X8615420Y-15087793D02*
X8615420Y-15040174D01*
X8615420Y-15040174D02*
X8624944Y-15002079D01*
X8624944Y-15002079D02*
X8634467Y-14983031D01*
X8634467Y-14983031D02*
X8643991Y-14973508D01*
X8643991Y-14973508D02*
X8663039Y-14963984D01*
X8815420Y-15163984D02*
X8815420Y-15030650D01*
X8815420Y-15049698D02*
X8824944Y-15040174D01*
X8824944Y-15040174D02*
X8843991Y-15030650D01*
X8843991Y-15030650D02*
X8872563Y-15030650D01*
X8872563Y-15030650D02*
X8891610Y-15040174D01*
X8891610Y-15040174D02*
X8901134Y-15059222D01*
X8901134Y-15059222D02*
X8901134Y-15163984D01*
X8901134Y-15059222D02*
X8910658Y-15040174D01*
X8910658Y-15040174D02*
X8929705Y-15030650D01*
X8929705Y-15030650D02*
X8958277Y-15030650D01*
X8958277Y-15030650D02*
X8977325Y-15040174D01*
X8977325Y-15040174D02*
X8986848Y-15059222D01*
X8986848Y-15059222D02*
X8986848Y-15163984D01*
X9082086Y-15163984D02*
X9082086Y-15030650D01*
X9082086Y-15049698D02*
X9091610Y-15040174D01*
X9091610Y-15040174D02*
X9110658Y-15030650D01*
X9110658Y-15030650D02*
X9139229Y-15030650D01*
X9139229Y-15030650D02*
X9158277Y-15040174D01*
X9158277Y-15040174D02*
X9167801Y-15059222D01*
X9167801Y-15059222D02*
X9167801Y-15163984D01*
X9167801Y-15059222D02*
X9177325Y-15040174D01*
X9177325Y-15040174D02*
X9196372Y-15030650D01*
X9196372Y-15030650D02*
X9224944Y-15030650D01*
X9224944Y-15030650D02*
X9243991Y-15040174D01*
X9243991Y-15040174D02*
X9253515Y-15059222D01*
X9253515Y-15059222D02*
X9253515Y-15163984D01*
X9643991Y-14954460D02*
X9472563Y-15211603D01*
X9901134Y-14963984D02*
X9920182Y-14963984D01*
X9920182Y-14963984D02*
X9939229Y-14973508D01*
X9939229Y-14973508D02*
X9948753Y-14983031D01*
X9948753Y-14983031D02*
X9958277Y-15002079D01*
X9958277Y-15002079D02*
X9967801Y-15040174D01*
X9967801Y-15040174D02*
X9967801Y-15087793D01*
X9967801Y-15087793D02*
X9958277Y-15125888D01*
X9958277Y-15125888D02*
X9948753Y-15144936D01*
X9948753Y-15144936D02*
X9939229Y-15154460D01*
X9939229Y-15154460D02*
X9920182Y-15163984D01*
X9920182Y-15163984D02*
X9901134Y-15163984D01*
X9901134Y-15163984D02*
X9882087Y-15154460D01*
X9882087Y-15154460D02*
X9872563Y-15144936D01*
X9872563Y-15144936D02*
X9863039Y-15125888D01*
X9863039Y-15125888D02*
X9853515Y-15087793D01*
X9853515Y-15087793D02*
X9853515Y-15040174D01*
X9853515Y-15040174D02*
X9863039Y-15002079D01*
X9863039Y-15002079D02*
X9872563Y-14983031D01*
X9872563Y-14983031D02*
X9882087Y-14973508D01*
X9882087Y-14973508D02*
X9901134Y-14963984D01*
X10053515Y-15144936D02*
X10063039Y-15154460D01*
X10063039Y-15154460D02*
X10053515Y-15163984D01*
X10053515Y-15163984D02*
X10043991Y-15154460D01*
X10043991Y-15154460D02*
X10053515Y-15144936D01*
X10053515Y-15144936D02*
X10053515Y-15163984D01*
X10186848Y-14963984D02*
X10205896Y-14963984D01*
X10205896Y-14963984D02*
X10224944Y-14973508D01*
X10224944Y-14973508D02*
X10234468Y-14983031D01*
X10234468Y-14983031D02*
X10243991Y-15002079D01*
X10243991Y-15002079D02*
X10253515Y-15040174D01*
X10253515Y-15040174D02*
X10253515Y-15087793D01*
X10253515Y-15087793D02*
X10243991Y-15125888D01*
X10243991Y-15125888D02*
X10234468Y-15144936D01*
X10234468Y-15144936D02*
X10224944Y-15154460D01*
X10224944Y-15154460D02*
X10205896Y-15163984D01*
X10205896Y-15163984D02*
X10186848Y-15163984D01*
X10186848Y-15163984D02*
X10167801Y-15154460D01*
X10167801Y-15154460D02*
X10158277Y-15144936D01*
X10158277Y-15144936D02*
X10148753Y-15125888D01*
X10148753Y-15125888D02*
X10139229Y-15087793D01*
X10139229Y-15087793D02*
X10139229Y-15040174D01*
X10139229Y-15040174D02*
X10148753Y-15002079D01*
X10148753Y-15002079D02*
X10158277Y-14983031D01*
X10158277Y-14983031D02*
X10167801Y-14973508D01*
X10167801Y-14973508D02*
X10186848Y-14963984D01*
X10377325Y-14963984D02*
X10396372Y-14963984D01*
X10396372Y-14963984D02*
X10415420Y-14973508D01*
X10415420Y-14973508D02*
X10424944Y-14983031D01*
X10424944Y-14983031D02*
X10434468Y-15002079D01*
X10434468Y-15002079D02*
X10443991Y-15040174D01*
X10443991Y-15040174D02*
X10443991Y-15087793D01*
X10443991Y-15087793D02*
X10434468Y-15125888D01*
X10434468Y-15125888D02*
X10424944Y-15144936D01*
X10424944Y-15144936D02*
X10415420Y-15154460D01*
X10415420Y-15154460D02*
X10396372Y-15163984D01*
X10396372Y-15163984D02*
X10377325Y-15163984D01*
X10377325Y-15163984D02*
X10358277Y-15154460D01*
X10358277Y-15154460D02*
X10348753Y-15144936D01*
X10348753Y-15144936D02*
X10339229Y-15125888D01*
X10339229Y-15125888D02*
X10329706Y-15087793D01*
X10329706Y-15087793D02*
X10329706Y-15040174D01*
X10329706Y-15040174D02*
X10339229Y-15002079D01*
X10339229Y-15002079D02*
X10348753Y-14983031D01*
X10348753Y-14983031D02*
X10358277Y-14973508D01*
X10358277Y-14973508D02*
X10377325Y-14963984D01*
X10510658Y-14963984D02*
X10643991Y-14963984D01*
X10643991Y-14963984D02*
X10558277Y-15163984D01*
X10729706Y-15163984D02*
X10767801Y-15163984D01*
X10767801Y-15163984D02*
X10786849Y-15154460D01*
X10786849Y-15154460D02*
X10796372Y-15144936D01*
X10796372Y-15144936D02*
X10815420Y-15116365D01*
X10815420Y-15116365D02*
X10824944Y-15078269D01*
X10824944Y-15078269D02*
X10824944Y-15002079D01*
X10824944Y-15002079D02*
X10815420Y-14983031D01*
X10815420Y-14983031D02*
X10805896Y-14973508D01*
X10805896Y-14973508D02*
X10786849Y-14963984D01*
X10786849Y-14963984D02*
X10748753Y-14963984D01*
X10748753Y-14963984D02*
X10729706Y-14973508D01*
X10729706Y-14973508D02*
X10720182Y-14983031D01*
X10720182Y-14983031D02*
X10710658Y-15002079D01*
X10710658Y-15002079D02*
X10710658Y-15049698D01*
X10710658Y-15049698D02*
X10720182Y-15068746D01*
X10720182Y-15068746D02*
X10729706Y-15078269D01*
X10729706Y-15078269D02*
X10748753Y-15087793D01*
X10748753Y-15087793D02*
X10786849Y-15087793D01*
X10786849Y-15087793D02*
X10805896Y-15078269D01*
X10805896Y-15078269D02*
X10815420Y-15068746D01*
X10815420Y-15068746D02*
X10824944Y-15049698D01*
X10901134Y-14963984D02*
X10901134Y-15002079D01*
X10977325Y-14963984D02*
X10977325Y-15002079D01*
X11272563Y-15240174D02*
X11263039Y-15230650D01*
X11263039Y-15230650D02*
X11243991Y-15202079D01*
X11243991Y-15202079D02*
X11234468Y-15183031D01*
X11234468Y-15183031D02*
X11224944Y-15154460D01*
X11224944Y-15154460D02*
X11215420Y-15106841D01*
X11215420Y-15106841D02*
X11215420Y-15068746D01*
X11215420Y-15068746D02*
X11224944Y-15021127D01*
X11224944Y-15021127D02*
X11234468Y-14992555D01*
X11234468Y-14992555D02*
X11243991Y-14973508D01*
X11243991Y-14973508D02*
X11263039Y-14944936D01*
X11263039Y-14944936D02*
X11272563Y-14935412D01*
X11453515Y-15163984D02*
X11339229Y-15163984D01*
X11396372Y-15163984D02*
X11396372Y-14963984D01*
X11396372Y-14963984D02*
X11377325Y-14992555D01*
X11377325Y-14992555D02*
X11358277Y-15011603D01*
X11358277Y-15011603D02*
X11339229Y-15021127D01*
X11529706Y-14983031D02*
X11539229Y-14973508D01*
X11539229Y-14973508D02*
X11558277Y-14963984D01*
X11558277Y-14963984D02*
X11605896Y-14963984D01*
X11605896Y-14963984D02*
X11624944Y-14973508D01*
X11624944Y-14973508D02*
X11634468Y-14983031D01*
X11634468Y-14983031D02*
X11643991Y-15002079D01*
X11643991Y-15002079D02*
X11643991Y-15021127D01*
X11643991Y-15021127D02*
X11634468Y-15049698D01*
X11634468Y-15049698D02*
X11520182Y-15163984D01*
X11520182Y-15163984D02*
X11643991Y-15163984D01*
X11882087Y-15163984D02*
X11882087Y-14963984D01*
X11967801Y-15163984D02*
X11967801Y-15059222D01*
X11967801Y-15059222D02*
X11958277Y-15040174D01*
X11958277Y-15040174D02*
X11939230Y-15030650D01*
X11939230Y-15030650D02*
X11910658Y-15030650D01*
X11910658Y-15030650D02*
X11891610Y-15040174D01*
X11891610Y-15040174D02*
X11882087Y-15049698D01*
X12091610Y-15163984D02*
X12072563Y-15154460D01*
X12072563Y-15154460D02*
X12063039Y-15144936D01*
X12063039Y-15144936D02*
X12053515Y-15125888D01*
X12053515Y-15125888D02*
X12053515Y-15068746D01*
X12053515Y-15068746D02*
X12063039Y-15049698D01*
X12063039Y-15049698D02*
X12072563Y-15040174D01*
X12072563Y-15040174D02*
X12091610Y-15030650D01*
X12091610Y-15030650D02*
X12120182Y-15030650D01*
X12120182Y-15030650D02*
X12139230Y-15040174D01*
X12139230Y-15040174D02*
X12148753Y-15049698D01*
X12148753Y-15049698D02*
X12158277Y-15068746D01*
X12158277Y-15068746D02*
X12158277Y-15125888D01*
X12158277Y-15125888D02*
X12148753Y-15144936D01*
X12148753Y-15144936D02*
X12139230Y-15154460D01*
X12139230Y-15154460D02*
X12120182Y-15163984D01*
X12120182Y-15163984D02*
X12091610Y-15163984D01*
X12272563Y-15163984D02*
X12253515Y-15154460D01*
X12253515Y-15154460D02*
X12243991Y-15135412D01*
X12243991Y-15135412D02*
X12243991Y-14963984D01*
X12424944Y-15154460D02*
X12405896Y-15163984D01*
X12405896Y-15163984D02*
X12367801Y-15163984D01*
X12367801Y-15163984D02*
X12348753Y-15154460D01*
X12348753Y-15154460D02*
X12339230Y-15135412D01*
X12339230Y-15135412D02*
X12339230Y-15059222D01*
X12339230Y-15059222D02*
X12348753Y-15040174D01*
X12348753Y-15040174D02*
X12367801Y-15030650D01*
X12367801Y-15030650D02*
X12405896Y-15030650D01*
X12405896Y-15030650D02*
X12424944Y-15040174D01*
X12424944Y-15040174D02*
X12434468Y-15059222D01*
X12434468Y-15059222D02*
X12434468Y-15078269D01*
X12434468Y-15078269D02*
X12339230Y-15097317D01*
X12510658Y-15154460D02*
X12529706Y-15163984D01*
X12529706Y-15163984D02*
X12567801Y-15163984D01*
X12567801Y-15163984D02*
X12586849Y-15154460D01*
X12586849Y-15154460D02*
X12596372Y-15135412D01*
X12596372Y-15135412D02*
X12596372Y-15125888D01*
X12596372Y-15125888D02*
X12586849Y-15106841D01*
X12586849Y-15106841D02*
X12567801Y-15097317D01*
X12567801Y-15097317D02*
X12539230Y-15097317D01*
X12539230Y-15097317D02*
X12520182Y-15087793D01*
X12520182Y-15087793D02*
X12510658Y-15068746D01*
X12510658Y-15068746D02*
X12510658Y-15059222D01*
X12510658Y-15059222D02*
X12520182Y-15040174D01*
X12520182Y-15040174D02*
X12539230Y-15030650D01*
X12539230Y-15030650D02*
X12567801Y-15030650D01*
X12567801Y-15030650D02*
X12586849Y-15040174D01*
X12663039Y-15240174D02*
X12672563Y-15230650D01*
X12672563Y-15230650D02*
X12691611Y-15202079D01*
X12691611Y-15202079D02*
X12701134Y-15183031D01*
X12701134Y-15183031D02*
X12710658Y-15154460D01*
X12710658Y-15154460D02*
X12720182Y-15106841D01*
X12720182Y-15106841D02*
X12720182Y-15068746D01*
X12720182Y-15068746D02*
X12710658Y-15021127D01*
X12710658Y-15021127D02*
X12701134Y-14992555D01*
X12701134Y-14992555D02*
X12691611Y-14973508D01*
X12691611Y-14973508D02*
X12672563Y-14944936D01*
X12672563Y-14944936D02*
X12663039Y-14935412D01*
D12*
X7697500Y-15336500D02*
G75*
G02*
X7617500Y-15336500I-40000J0D01*
G01*
X7617500Y-15336500D02*
G75*
G02*
X7697500Y-15336500I40000J0D01*
G01*
D11*
X7996372Y-15227984D02*
X8015420Y-15227984D01*
X8015420Y-15227984D02*
X8034467Y-15237508D01*
X8034467Y-15237508D02*
X8043991Y-15247031D01*
X8043991Y-15247031D02*
X8053515Y-15266079D01*
X8053515Y-15266079D02*
X8063039Y-15304174D01*
X8063039Y-15304174D02*
X8063039Y-15351793D01*
X8063039Y-15351793D02*
X8053515Y-15389888D01*
X8053515Y-15389888D02*
X8043991Y-15408936D01*
X8043991Y-15408936D02*
X8034467Y-15418460D01*
X8034467Y-15418460D02*
X8015420Y-15427984D01*
X8015420Y-15427984D02*
X7996372Y-15427984D01*
X7996372Y-15427984D02*
X7977324Y-15418460D01*
X7977324Y-15418460D02*
X7967801Y-15408936D01*
X7967801Y-15408936D02*
X7958277Y-15389888D01*
X7958277Y-15389888D02*
X7948753Y-15351793D01*
X7948753Y-15351793D02*
X7948753Y-15304174D01*
X7948753Y-15304174D02*
X7958277Y-15266079D01*
X7958277Y-15266079D02*
X7967801Y-15247031D01*
X7967801Y-15247031D02*
X7977324Y-15237508D01*
X7977324Y-15237508D02*
X7996372Y-15227984D01*
X8148753Y-15408936D02*
X8158277Y-15418460D01*
X8158277Y-15418460D02*
X8148753Y-15427984D01*
X8148753Y-15427984D02*
X8139229Y-15418460D01*
X8139229Y-15418460D02*
X8148753Y-15408936D01*
X8148753Y-15408936D02*
X8148753Y-15427984D01*
X8272562Y-15313698D02*
X8253515Y-15304174D01*
X8253515Y-15304174D02*
X8243991Y-15294650D01*
X8243991Y-15294650D02*
X8234467Y-15275603D01*
X8234467Y-15275603D02*
X8234467Y-15266079D01*
X8234467Y-15266079D02*
X8243991Y-15247031D01*
X8243991Y-15247031D02*
X8253515Y-15237508D01*
X8253515Y-15237508D02*
X8272562Y-15227984D01*
X8272562Y-15227984D02*
X8310658Y-15227984D01*
X8310658Y-15227984D02*
X8329705Y-15237508D01*
X8329705Y-15237508D02*
X8339229Y-15247031D01*
X8339229Y-15247031D02*
X8348753Y-15266079D01*
X8348753Y-15266079D02*
X8348753Y-15275603D01*
X8348753Y-15275603D02*
X8339229Y-15294650D01*
X8339229Y-15294650D02*
X8329705Y-15304174D01*
X8329705Y-15304174D02*
X8310658Y-15313698D01*
X8310658Y-15313698D02*
X8272562Y-15313698D01*
X8272562Y-15313698D02*
X8253515Y-15323222D01*
X8253515Y-15323222D02*
X8243991Y-15332746D01*
X8243991Y-15332746D02*
X8234467Y-15351793D01*
X8234467Y-15351793D02*
X8234467Y-15389888D01*
X8234467Y-15389888D02*
X8243991Y-15408936D01*
X8243991Y-15408936D02*
X8253515Y-15418460D01*
X8253515Y-15418460D02*
X8272562Y-15427984D01*
X8272562Y-15427984D02*
X8310658Y-15427984D01*
X8310658Y-15427984D02*
X8329705Y-15418460D01*
X8329705Y-15418460D02*
X8339229Y-15408936D01*
X8339229Y-15408936D02*
X8348753Y-15389888D01*
X8348753Y-15389888D02*
X8348753Y-15351793D01*
X8348753Y-15351793D02*
X8339229Y-15332746D01*
X8339229Y-15332746D02*
X8329705Y-15323222D01*
X8329705Y-15323222D02*
X8310658Y-15313698D01*
X8472563Y-15227984D02*
X8491610Y-15227984D01*
X8491610Y-15227984D02*
X8510658Y-15237508D01*
X8510658Y-15237508D02*
X8520182Y-15247031D01*
X8520182Y-15247031D02*
X8529705Y-15266079D01*
X8529705Y-15266079D02*
X8539229Y-15304174D01*
X8539229Y-15304174D02*
X8539229Y-15351793D01*
X8539229Y-15351793D02*
X8529705Y-15389888D01*
X8529705Y-15389888D02*
X8520182Y-15408936D01*
X8520182Y-15408936D02*
X8510658Y-15418460D01*
X8510658Y-15418460D02*
X8491610Y-15427984D01*
X8491610Y-15427984D02*
X8472563Y-15427984D01*
X8472563Y-15427984D02*
X8453515Y-15418460D01*
X8453515Y-15418460D02*
X8443991Y-15408936D01*
X8443991Y-15408936D02*
X8434467Y-15389888D01*
X8434467Y-15389888D02*
X8424944Y-15351793D01*
X8424944Y-15351793D02*
X8424944Y-15304174D01*
X8424944Y-15304174D02*
X8434467Y-15266079D01*
X8434467Y-15266079D02*
X8443991Y-15247031D01*
X8443991Y-15247031D02*
X8453515Y-15237508D01*
X8453515Y-15237508D02*
X8472563Y-15227984D01*
X8663039Y-15227984D02*
X8682086Y-15227984D01*
X8682086Y-15227984D02*
X8701134Y-15237508D01*
X8701134Y-15237508D02*
X8710658Y-15247031D01*
X8710658Y-15247031D02*
X8720182Y-15266079D01*
X8720182Y-15266079D02*
X8729705Y-15304174D01*
X8729705Y-15304174D02*
X8729705Y-15351793D01*
X8729705Y-15351793D02*
X8720182Y-15389888D01*
X8720182Y-15389888D02*
X8710658Y-15408936D01*
X8710658Y-15408936D02*
X8701134Y-15418460D01*
X8701134Y-15418460D02*
X8682086Y-15427984D01*
X8682086Y-15427984D02*
X8663039Y-15427984D01*
X8663039Y-15427984D02*
X8643991Y-15418460D01*
X8643991Y-15418460D02*
X8634467Y-15408936D01*
X8634467Y-15408936D02*
X8624944Y-15389888D01*
X8624944Y-15389888D02*
X8615420Y-15351793D01*
X8615420Y-15351793D02*
X8615420Y-15304174D01*
X8615420Y-15304174D02*
X8624944Y-15266079D01*
X8624944Y-15266079D02*
X8634467Y-15247031D01*
X8634467Y-15247031D02*
X8643991Y-15237508D01*
X8643991Y-15237508D02*
X8663039Y-15227984D01*
X8815420Y-15427984D02*
X8815420Y-15294650D01*
X8815420Y-15313698D02*
X8824944Y-15304174D01*
X8824944Y-15304174D02*
X8843991Y-15294650D01*
X8843991Y-15294650D02*
X8872563Y-15294650D01*
X8872563Y-15294650D02*
X8891610Y-15304174D01*
X8891610Y-15304174D02*
X8901134Y-15323222D01*
X8901134Y-15323222D02*
X8901134Y-15427984D01*
X8901134Y-15323222D02*
X8910658Y-15304174D01*
X8910658Y-15304174D02*
X8929705Y-15294650D01*
X8929705Y-15294650D02*
X8958277Y-15294650D01*
X8958277Y-15294650D02*
X8977325Y-15304174D01*
X8977325Y-15304174D02*
X8986848Y-15323222D01*
X8986848Y-15323222D02*
X8986848Y-15427984D01*
X9082086Y-15427984D02*
X9082086Y-15294650D01*
X9082086Y-15313698D02*
X9091610Y-15304174D01*
X9091610Y-15304174D02*
X9110658Y-15294650D01*
X9110658Y-15294650D02*
X9139229Y-15294650D01*
X9139229Y-15294650D02*
X9158277Y-15304174D01*
X9158277Y-15304174D02*
X9167801Y-15323222D01*
X9167801Y-15323222D02*
X9167801Y-15427984D01*
X9167801Y-15323222D02*
X9177325Y-15304174D01*
X9177325Y-15304174D02*
X9196372Y-15294650D01*
X9196372Y-15294650D02*
X9224944Y-15294650D01*
X9224944Y-15294650D02*
X9243991Y-15304174D01*
X9243991Y-15304174D02*
X9253515Y-15323222D01*
X9253515Y-15323222D02*
X9253515Y-15427984D01*
X9643991Y-15218460D02*
X9472563Y-15475603D01*
X9901134Y-15227984D02*
X9920182Y-15227984D01*
X9920182Y-15227984D02*
X9939229Y-15237508D01*
X9939229Y-15237508D02*
X9948753Y-15247031D01*
X9948753Y-15247031D02*
X9958277Y-15266079D01*
X9958277Y-15266079D02*
X9967801Y-15304174D01*
X9967801Y-15304174D02*
X9967801Y-15351793D01*
X9967801Y-15351793D02*
X9958277Y-15389888D01*
X9958277Y-15389888D02*
X9948753Y-15408936D01*
X9948753Y-15408936D02*
X9939229Y-15418460D01*
X9939229Y-15418460D02*
X9920182Y-15427984D01*
X9920182Y-15427984D02*
X9901134Y-15427984D01*
X9901134Y-15427984D02*
X9882087Y-15418460D01*
X9882087Y-15418460D02*
X9872563Y-15408936D01*
X9872563Y-15408936D02*
X9863039Y-15389888D01*
X9863039Y-15389888D02*
X9853515Y-15351793D01*
X9853515Y-15351793D02*
X9853515Y-15304174D01*
X9853515Y-15304174D02*
X9863039Y-15266079D01*
X9863039Y-15266079D02*
X9872563Y-15247031D01*
X9872563Y-15247031D02*
X9882087Y-15237508D01*
X9882087Y-15237508D02*
X9901134Y-15227984D01*
X10053515Y-15408936D02*
X10063039Y-15418460D01*
X10063039Y-15418460D02*
X10053515Y-15427984D01*
X10053515Y-15427984D02*
X10043991Y-15418460D01*
X10043991Y-15418460D02*
X10053515Y-15408936D01*
X10053515Y-15408936D02*
X10053515Y-15427984D01*
X10186848Y-15227984D02*
X10205896Y-15227984D01*
X10205896Y-15227984D02*
X10224944Y-15237508D01*
X10224944Y-15237508D02*
X10234468Y-15247031D01*
X10234468Y-15247031D02*
X10243991Y-15266079D01*
X10243991Y-15266079D02*
X10253515Y-15304174D01*
X10253515Y-15304174D02*
X10253515Y-15351793D01*
X10253515Y-15351793D02*
X10243991Y-15389888D01*
X10243991Y-15389888D02*
X10234468Y-15408936D01*
X10234468Y-15408936D02*
X10224944Y-15418460D01*
X10224944Y-15418460D02*
X10205896Y-15427984D01*
X10205896Y-15427984D02*
X10186848Y-15427984D01*
X10186848Y-15427984D02*
X10167801Y-15418460D01*
X10167801Y-15418460D02*
X10158277Y-15408936D01*
X10158277Y-15408936D02*
X10148753Y-15389888D01*
X10148753Y-15389888D02*
X10139229Y-15351793D01*
X10139229Y-15351793D02*
X10139229Y-15304174D01*
X10139229Y-15304174D02*
X10148753Y-15266079D01*
X10148753Y-15266079D02*
X10158277Y-15247031D01*
X10158277Y-15247031D02*
X10167801Y-15237508D01*
X10167801Y-15237508D02*
X10186848Y-15227984D01*
X10320182Y-15227984D02*
X10443991Y-15227984D01*
X10443991Y-15227984D02*
X10377325Y-15304174D01*
X10377325Y-15304174D02*
X10405896Y-15304174D01*
X10405896Y-15304174D02*
X10424944Y-15313698D01*
X10424944Y-15313698D02*
X10434468Y-15323222D01*
X10434468Y-15323222D02*
X10443991Y-15342269D01*
X10443991Y-15342269D02*
X10443991Y-15389888D01*
X10443991Y-15389888D02*
X10434468Y-15408936D01*
X10434468Y-15408936D02*
X10424944Y-15418460D01*
X10424944Y-15418460D02*
X10405896Y-15427984D01*
X10405896Y-15427984D02*
X10348753Y-15427984D01*
X10348753Y-15427984D02*
X10329706Y-15418460D01*
X10329706Y-15418460D02*
X10320182Y-15408936D01*
X10634468Y-15427984D02*
X10520182Y-15427984D01*
X10577325Y-15427984D02*
X10577325Y-15227984D01*
X10577325Y-15227984D02*
X10558277Y-15256555D01*
X10558277Y-15256555D02*
X10539229Y-15275603D01*
X10539229Y-15275603D02*
X10520182Y-15285127D01*
X10815420Y-15227984D02*
X10720182Y-15227984D01*
X10720182Y-15227984D02*
X10710658Y-15323222D01*
X10710658Y-15323222D02*
X10720182Y-15313698D01*
X10720182Y-15313698D02*
X10739229Y-15304174D01*
X10739229Y-15304174D02*
X10786849Y-15304174D01*
X10786849Y-15304174D02*
X10805896Y-15313698D01*
X10805896Y-15313698D02*
X10815420Y-15323222D01*
X10815420Y-15323222D02*
X10824944Y-15342269D01*
X10824944Y-15342269D02*
X10824944Y-15389888D01*
X10824944Y-15389888D02*
X10815420Y-15408936D01*
X10815420Y-15408936D02*
X10805896Y-15418460D01*
X10805896Y-15418460D02*
X10786849Y-15427984D01*
X10786849Y-15427984D02*
X10739229Y-15427984D01*
X10739229Y-15427984D02*
X10720182Y-15418460D01*
X10720182Y-15418460D02*
X10710658Y-15408936D01*
X10901134Y-15227984D02*
X10901134Y-15266079D01*
X10977325Y-15227984D02*
X10977325Y-15266079D01*
X11272563Y-15504174D02*
X11263039Y-15494650D01*
X11263039Y-15494650D02*
X11243991Y-15466079D01*
X11243991Y-15466079D02*
X11234468Y-15447031D01*
X11234468Y-15447031D02*
X11224944Y-15418460D01*
X11224944Y-15418460D02*
X11215420Y-15370841D01*
X11215420Y-15370841D02*
X11215420Y-15332746D01*
X11215420Y-15332746D02*
X11224944Y-15285127D01*
X11224944Y-15285127D02*
X11234468Y-15256555D01*
X11234468Y-15256555D02*
X11243991Y-15237508D01*
X11243991Y-15237508D02*
X11263039Y-15208936D01*
X11263039Y-15208936D02*
X11272563Y-15199412D01*
X11434468Y-15294650D02*
X11434468Y-15427984D01*
X11386848Y-15218460D02*
X11339229Y-15361317D01*
X11339229Y-15361317D02*
X11463039Y-15361317D01*
X11567801Y-15313698D02*
X11548753Y-15304174D01*
X11548753Y-15304174D02*
X11539229Y-15294650D01*
X11539229Y-15294650D02*
X11529706Y-15275603D01*
X11529706Y-15275603D02*
X11529706Y-15266079D01*
X11529706Y-15266079D02*
X11539229Y-15247031D01*
X11539229Y-15247031D02*
X11548753Y-15237508D01*
X11548753Y-15237508D02*
X11567801Y-15227984D01*
X11567801Y-15227984D02*
X11605896Y-15227984D01*
X11605896Y-15227984D02*
X11624944Y-15237508D01*
X11624944Y-15237508D02*
X11634468Y-15247031D01*
X11634468Y-15247031D02*
X11643991Y-15266079D01*
X11643991Y-15266079D02*
X11643991Y-15275603D01*
X11643991Y-15275603D02*
X11634468Y-15294650D01*
X11634468Y-15294650D02*
X11624944Y-15304174D01*
X11624944Y-15304174D02*
X11605896Y-15313698D01*
X11605896Y-15313698D02*
X11567801Y-15313698D01*
X11567801Y-15313698D02*
X11548753Y-15323222D01*
X11548753Y-15323222D02*
X11539229Y-15332746D01*
X11539229Y-15332746D02*
X11529706Y-15351793D01*
X11529706Y-15351793D02*
X11529706Y-15389888D01*
X11529706Y-15389888D02*
X11539229Y-15408936D01*
X11539229Y-15408936D02*
X11548753Y-15418460D01*
X11548753Y-15418460D02*
X11567801Y-15427984D01*
X11567801Y-15427984D02*
X11605896Y-15427984D01*
X11605896Y-15427984D02*
X11624944Y-15418460D01*
X11624944Y-15418460D02*
X11634468Y-15408936D01*
X11634468Y-15408936D02*
X11643991Y-15389888D01*
X11643991Y-15389888D02*
X11643991Y-15351793D01*
X11643991Y-15351793D02*
X11634468Y-15332746D01*
X11634468Y-15332746D02*
X11624944Y-15323222D01*
X11624944Y-15323222D02*
X11605896Y-15313698D01*
X11882087Y-15427984D02*
X11882087Y-15227984D01*
X11967801Y-15427984D02*
X11967801Y-15323222D01*
X11967801Y-15323222D02*
X11958277Y-15304174D01*
X11958277Y-15304174D02*
X11939230Y-15294650D01*
X11939230Y-15294650D02*
X11910658Y-15294650D01*
X11910658Y-15294650D02*
X11891610Y-15304174D01*
X11891610Y-15304174D02*
X11882087Y-15313698D01*
X12091610Y-15427984D02*
X12072563Y-15418460D01*
X12072563Y-15418460D02*
X12063039Y-15408936D01*
X12063039Y-15408936D02*
X12053515Y-15389888D01*
X12053515Y-15389888D02*
X12053515Y-15332746D01*
X12053515Y-15332746D02*
X12063039Y-15313698D01*
X12063039Y-15313698D02*
X12072563Y-15304174D01*
X12072563Y-15304174D02*
X12091610Y-15294650D01*
X12091610Y-15294650D02*
X12120182Y-15294650D01*
X12120182Y-15294650D02*
X12139230Y-15304174D01*
X12139230Y-15304174D02*
X12148753Y-15313698D01*
X12148753Y-15313698D02*
X12158277Y-15332746D01*
X12158277Y-15332746D02*
X12158277Y-15389888D01*
X12158277Y-15389888D02*
X12148753Y-15408936D01*
X12148753Y-15408936D02*
X12139230Y-15418460D01*
X12139230Y-15418460D02*
X12120182Y-15427984D01*
X12120182Y-15427984D02*
X12091610Y-15427984D01*
X12272563Y-15427984D02*
X12253515Y-15418460D01*
X12253515Y-15418460D02*
X12243991Y-15399412D01*
X12243991Y-15399412D02*
X12243991Y-15227984D01*
X12424944Y-15418460D02*
X12405896Y-15427984D01*
X12405896Y-15427984D02*
X12367801Y-15427984D01*
X12367801Y-15427984D02*
X12348753Y-15418460D01*
X12348753Y-15418460D02*
X12339230Y-15399412D01*
X12339230Y-15399412D02*
X12339230Y-15323222D01*
X12339230Y-15323222D02*
X12348753Y-15304174D01*
X12348753Y-15304174D02*
X12367801Y-15294650D01*
X12367801Y-15294650D02*
X12405896Y-15294650D01*
X12405896Y-15294650D02*
X12424944Y-15304174D01*
X12424944Y-15304174D02*
X12434468Y-15323222D01*
X12434468Y-15323222D02*
X12434468Y-15342269D01*
X12434468Y-15342269D02*
X12339230Y-15361317D01*
X12510658Y-15418460D02*
X12529706Y-15427984D01*
X12529706Y-15427984D02*
X12567801Y-15427984D01*
X12567801Y-15427984D02*
X12586849Y-15418460D01*
X12586849Y-15418460D02*
X12596372Y-15399412D01*
X12596372Y-15399412D02*
X12596372Y-15389888D01*
X12596372Y-15389888D02*
X12586849Y-15370841D01*
X12586849Y-15370841D02*
X12567801Y-15361317D01*
X12567801Y-15361317D02*
X12539230Y-15361317D01*
X12539230Y-15361317D02*
X12520182Y-15351793D01*
X12520182Y-15351793D02*
X12510658Y-15332746D01*
X12510658Y-15332746D02*
X12510658Y-15323222D01*
X12510658Y-15323222D02*
X12520182Y-15304174D01*
X12520182Y-15304174D02*
X12539230Y-15294650D01*
X12539230Y-15294650D02*
X12567801Y-15294650D01*
X12567801Y-15294650D02*
X12586849Y-15304174D01*
X12663039Y-15504174D02*
X12672563Y-15494650D01*
X12672563Y-15494650D02*
X12691611Y-15466079D01*
X12691611Y-15466079D02*
X12701134Y-15447031D01*
X12701134Y-15447031D02*
X12710658Y-15418460D01*
X12710658Y-15418460D02*
X12720182Y-15370841D01*
X12720182Y-15370841D02*
X12720182Y-15332746D01*
X12720182Y-15332746D02*
X12710658Y-15285127D01*
X12710658Y-15285127D02*
X12701134Y-15256555D01*
X12701134Y-15256555D02*
X12691611Y-15237508D01*
X12691611Y-15237508D02*
X12672563Y-15208936D01*
X12672563Y-15208936D02*
X12663039Y-15199412D01*
D12*
X7647500Y-15550500D02*
X7647500Y-15650500D01*
X7597500Y-15600500D02*
X7697500Y-15600500D01*
D11*
X8063039Y-15691984D02*
X7948753Y-15691984D01*
X8005896Y-15691984D02*
X8005896Y-15491984D01*
X8005896Y-15491984D02*
X7986848Y-15520555D01*
X7986848Y-15520555D02*
X7967801Y-15539603D01*
X7967801Y-15539603D02*
X7948753Y-15549127D01*
X8148753Y-15672936D02*
X8158277Y-15682460D01*
X8158277Y-15682460D02*
X8148753Y-15691984D01*
X8148753Y-15691984D02*
X8139229Y-15682460D01*
X8139229Y-15682460D02*
X8148753Y-15672936D01*
X8148753Y-15672936D02*
X8148753Y-15691984D01*
X8282086Y-15491984D02*
X8301134Y-15491984D01*
X8301134Y-15491984D02*
X8320182Y-15501508D01*
X8320182Y-15501508D02*
X8329705Y-15511031D01*
X8329705Y-15511031D02*
X8339229Y-15530079D01*
X8339229Y-15530079D02*
X8348753Y-15568174D01*
X8348753Y-15568174D02*
X8348753Y-15615793D01*
X8348753Y-15615793D02*
X8339229Y-15653888D01*
X8339229Y-15653888D02*
X8329705Y-15672936D01*
X8329705Y-15672936D02*
X8320182Y-15682460D01*
X8320182Y-15682460D02*
X8301134Y-15691984D01*
X8301134Y-15691984D02*
X8282086Y-15691984D01*
X8282086Y-15691984D02*
X8263039Y-15682460D01*
X8263039Y-15682460D02*
X8253515Y-15672936D01*
X8253515Y-15672936D02*
X8243991Y-15653888D01*
X8243991Y-15653888D02*
X8234467Y-15615793D01*
X8234467Y-15615793D02*
X8234467Y-15568174D01*
X8234467Y-15568174D02*
X8243991Y-15530079D01*
X8243991Y-15530079D02*
X8253515Y-15511031D01*
X8253515Y-15511031D02*
X8263039Y-15501508D01*
X8263039Y-15501508D02*
X8282086Y-15491984D01*
X8472563Y-15491984D02*
X8491610Y-15491984D01*
X8491610Y-15491984D02*
X8510658Y-15501508D01*
X8510658Y-15501508D02*
X8520182Y-15511031D01*
X8520182Y-15511031D02*
X8529705Y-15530079D01*
X8529705Y-15530079D02*
X8539229Y-15568174D01*
X8539229Y-15568174D02*
X8539229Y-15615793D01*
X8539229Y-15615793D02*
X8529705Y-15653888D01*
X8529705Y-15653888D02*
X8520182Y-15672936D01*
X8520182Y-15672936D02*
X8510658Y-15682460D01*
X8510658Y-15682460D02*
X8491610Y-15691984D01*
X8491610Y-15691984D02*
X8472563Y-15691984D01*
X8472563Y-15691984D02*
X8453515Y-15682460D01*
X8453515Y-15682460D02*
X8443991Y-15672936D01*
X8443991Y-15672936D02*
X8434467Y-15653888D01*
X8434467Y-15653888D02*
X8424944Y-15615793D01*
X8424944Y-15615793D02*
X8424944Y-15568174D01*
X8424944Y-15568174D02*
X8434467Y-15530079D01*
X8434467Y-15530079D02*
X8443991Y-15511031D01*
X8443991Y-15511031D02*
X8453515Y-15501508D01*
X8453515Y-15501508D02*
X8472563Y-15491984D01*
X8663039Y-15491984D02*
X8682086Y-15491984D01*
X8682086Y-15491984D02*
X8701134Y-15501508D01*
X8701134Y-15501508D02*
X8710658Y-15511031D01*
X8710658Y-15511031D02*
X8720182Y-15530079D01*
X8720182Y-15530079D02*
X8729705Y-15568174D01*
X8729705Y-15568174D02*
X8729705Y-15615793D01*
X8729705Y-15615793D02*
X8720182Y-15653888D01*
X8720182Y-15653888D02*
X8710658Y-15672936D01*
X8710658Y-15672936D02*
X8701134Y-15682460D01*
X8701134Y-15682460D02*
X8682086Y-15691984D01*
X8682086Y-15691984D02*
X8663039Y-15691984D01*
X8663039Y-15691984D02*
X8643991Y-15682460D01*
X8643991Y-15682460D02*
X8634467Y-15672936D01*
X8634467Y-15672936D02*
X8624944Y-15653888D01*
X8624944Y-15653888D02*
X8615420Y-15615793D01*
X8615420Y-15615793D02*
X8615420Y-15568174D01*
X8615420Y-15568174D02*
X8624944Y-15530079D01*
X8624944Y-15530079D02*
X8634467Y-15511031D01*
X8634467Y-15511031D02*
X8643991Y-15501508D01*
X8643991Y-15501508D02*
X8663039Y-15491984D01*
X8815420Y-15691984D02*
X8815420Y-15558650D01*
X8815420Y-15577698D02*
X8824944Y-15568174D01*
X8824944Y-15568174D02*
X8843991Y-15558650D01*
X8843991Y-15558650D02*
X8872563Y-15558650D01*
X8872563Y-15558650D02*
X8891610Y-15568174D01*
X8891610Y-15568174D02*
X8901134Y-15587222D01*
X8901134Y-15587222D02*
X8901134Y-15691984D01*
X8901134Y-15587222D02*
X8910658Y-15568174D01*
X8910658Y-15568174D02*
X8929705Y-15558650D01*
X8929705Y-15558650D02*
X8958277Y-15558650D01*
X8958277Y-15558650D02*
X8977325Y-15568174D01*
X8977325Y-15568174D02*
X8986848Y-15587222D01*
X8986848Y-15587222D02*
X8986848Y-15691984D01*
X9082086Y-15691984D02*
X9082086Y-15558650D01*
X9082086Y-15577698D02*
X9091610Y-15568174D01*
X9091610Y-15568174D02*
X9110658Y-15558650D01*
X9110658Y-15558650D02*
X9139229Y-15558650D01*
X9139229Y-15558650D02*
X9158277Y-15568174D01*
X9158277Y-15568174D02*
X9167801Y-15587222D01*
X9167801Y-15587222D02*
X9167801Y-15691984D01*
X9167801Y-15587222D02*
X9177325Y-15568174D01*
X9177325Y-15568174D02*
X9196372Y-15558650D01*
X9196372Y-15558650D02*
X9224944Y-15558650D01*
X9224944Y-15558650D02*
X9243991Y-15568174D01*
X9243991Y-15568174D02*
X9253515Y-15587222D01*
X9253515Y-15587222D02*
X9253515Y-15691984D01*
X9643991Y-15482460D02*
X9472563Y-15739603D01*
X9901134Y-15491984D02*
X9920182Y-15491984D01*
X9920182Y-15491984D02*
X9939229Y-15501508D01*
X9939229Y-15501508D02*
X9948753Y-15511031D01*
X9948753Y-15511031D02*
X9958277Y-15530079D01*
X9958277Y-15530079D02*
X9967801Y-15568174D01*
X9967801Y-15568174D02*
X9967801Y-15615793D01*
X9967801Y-15615793D02*
X9958277Y-15653888D01*
X9958277Y-15653888D02*
X9948753Y-15672936D01*
X9948753Y-15672936D02*
X9939229Y-15682460D01*
X9939229Y-15682460D02*
X9920182Y-15691984D01*
X9920182Y-15691984D02*
X9901134Y-15691984D01*
X9901134Y-15691984D02*
X9882087Y-15682460D01*
X9882087Y-15682460D02*
X9872563Y-15672936D01*
X9872563Y-15672936D02*
X9863039Y-15653888D01*
X9863039Y-15653888D02*
X9853515Y-15615793D01*
X9853515Y-15615793D02*
X9853515Y-15568174D01*
X9853515Y-15568174D02*
X9863039Y-15530079D01*
X9863039Y-15530079D02*
X9872563Y-15511031D01*
X9872563Y-15511031D02*
X9882087Y-15501508D01*
X9882087Y-15501508D02*
X9901134Y-15491984D01*
X10053515Y-15672936D02*
X10063039Y-15682460D01*
X10063039Y-15682460D02*
X10053515Y-15691984D01*
X10053515Y-15691984D02*
X10043991Y-15682460D01*
X10043991Y-15682460D02*
X10053515Y-15672936D01*
X10053515Y-15672936D02*
X10053515Y-15691984D01*
X10186848Y-15491984D02*
X10205896Y-15491984D01*
X10205896Y-15491984D02*
X10224944Y-15501508D01*
X10224944Y-15501508D02*
X10234468Y-15511031D01*
X10234468Y-15511031D02*
X10243991Y-15530079D01*
X10243991Y-15530079D02*
X10253515Y-15568174D01*
X10253515Y-15568174D02*
X10253515Y-15615793D01*
X10253515Y-15615793D02*
X10243991Y-15653888D01*
X10243991Y-15653888D02*
X10234468Y-15672936D01*
X10234468Y-15672936D02*
X10224944Y-15682460D01*
X10224944Y-15682460D02*
X10205896Y-15691984D01*
X10205896Y-15691984D02*
X10186848Y-15691984D01*
X10186848Y-15691984D02*
X10167801Y-15682460D01*
X10167801Y-15682460D02*
X10158277Y-15672936D01*
X10158277Y-15672936D02*
X10148753Y-15653888D01*
X10148753Y-15653888D02*
X10139229Y-15615793D01*
X10139229Y-15615793D02*
X10139229Y-15568174D01*
X10139229Y-15568174D02*
X10148753Y-15530079D01*
X10148753Y-15530079D02*
X10158277Y-15511031D01*
X10158277Y-15511031D02*
X10167801Y-15501508D01*
X10167801Y-15501508D02*
X10186848Y-15491984D01*
X10320182Y-15491984D02*
X10443991Y-15491984D01*
X10443991Y-15491984D02*
X10377325Y-15568174D01*
X10377325Y-15568174D02*
X10405896Y-15568174D01*
X10405896Y-15568174D02*
X10424944Y-15577698D01*
X10424944Y-15577698D02*
X10434468Y-15587222D01*
X10434468Y-15587222D02*
X10443991Y-15606269D01*
X10443991Y-15606269D02*
X10443991Y-15653888D01*
X10443991Y-15653888D02*
X10434468Y-15672936D01*
X10434468Y-15672936D02*
X10424944Y-15682460D01*
X10424944Y-15682460D02*
X10405896Y-15691984D01*
X10405896Y-15691984D02*
X10348753Y-15691984D01*
X10348753Y-15691984D02*
X10329706Y-15682460D01*
X10329706Y-15682460D02*
X10320182Y-15672936D01*
X10539229Y-15691984D02*
X10577325Y-15691984D01*
X10577325Y-15691984D02*
X10596372Y-15682460D01*
X10596372Y-15682460D02*
X10605896Y-15672936D01*
X10605896Y-15672936D02*
X10624944Y-15644365D01*
X10624944Y-15644365D02*
X10634468Y-15606269D01*
X10634468Y-15606269D02*
X10634468Y-15530079D01*
X10634468Y-15530079D02*
X10624944Y-15511031D01*
X10624944Y-15511031D02*
X10615420Y-15501508D01*
X10615420Y-15501508D02*
X10596372Y-15491984D01*
X10596372Y-15491984D02*
X10558277Y-15491984D01*
X10558277Y-15491984D02*
X10539229Y-15501508D01*
X10539229Y-15501508D02*
X10529706Y-15511031D01*
X10529706Y-15511031D02*
X10520182Y-15530079D01*
X10520182Y-15530079D02*
X10520182Y-15577698D01*
X10520182Y-15577698D02*
X10529706Y-15596746D01*
X10529706Y-15596746D02*
X10539229Y-15606269D01*
X10539229Y-15606269D02*
X10558277Y-15615793D01*
X10558277Y-15615793D02*
X10596372Y-15615793D01*
X10596372Y-15615793D02*
X10615420Y-15606269D01*
X10615420Y-15606269D02*
X10624944Y-15596746D01*
X10624944Y-15596746D02*
X10634468Y-15577698D01*
X10805896Y-15558650D02*
X10805896Y-15691984D01*
X10758277Y-15482460D02*
X10710658Y-15625317D01*
X10710658Y-15625317D02*
X10834468Y-15625317D01*
X10901134Y-15491984D02*
X10901134Y-15530079D01*
X10977325Y-15491984D02*
X10977325Y-15530079D01*
X11272563Y-15768174D02*
X11263039Y-15758650D01*
X11263039Y-15758650D02*
X11243991Y-15730079D01*
X11243991Y-15730079D02*
X11234468Y-15711031D01*
X11234468Y-15711031D02*
X11224944Y-15682460D01*
X11224944Y-15682460D02*
X11215420Y-15634841D01*
X11215420Y-15634841D02*
X11215420Y-15596746D01*
X11215420Y-15596746D02*
X11224944Y-15549127D01*
X11224944Y-15549127D02*
X11234468Y-15520555D01*
X11234468Y-15520555D02*
X11243991Y-15501508D01*
X11243991Y-15501508D02*
X11263039Y-15472936D01*
X11263039Y-15472936D02*
X11272563Y-15463412D01*
X11377325Y-15577698D02*
X11358277Y-15568174D01*
X11358277Y-15568174D02*
X11348753Y-15558650D01*
X11348753Y-15558650D02*
X11339229Y-15539603D01*
X11339229Y-15539603D02*
X11339229Y-15530079D01*
X11339229Y-15530079D02*
X11348753Y-15511031D01*
X11348753Y-15511031D02*
X11358277Y-15501508D01*
X11358277Y-15501508D02*
X11377325Y-15491984D01*
X11377325Y-15491984D02*
X11415420Y-15491984D01*
X11415420Y-15491984D02*
X11434468Y-15501508D01*
X11434468Y-15501508D02*
X11443991Y-15511031D01*
X11443991Y-15511031D02*
X11453515Y-15530079D01*
X11453515Y-15530079D02*
X11453515Y-15539603D01*
X11453515Y-15539603D02*
X11443991Y-15558650D01*
X11443991Y-15558650D02*
X11434468Y-15568174D01*
X11434468Y-15568174D02*
X11415420Y-15577698D01*
X11415420Y-15577698D02*
X11377325Y-15577698D01*
X11377325Y-15577698D02*
X11358277Y-15587222D01*
X11358277Y-15587222D02*
X11348753Y-15596746D01*
X11348753Y-15596746D02*
X11339229Y-15615793D01*
X11339229Y-15615793D02*
X11339229Y-15653888D01*
X11339229Y-15653888D02*
X11348753Y-15672936D01*
X11348753Y-15672936D02*
X11358277Y-15682460D01*
X11358277Y-15682460D02*
X11377325Y-15691984D01*
X11377325Y-15691984D02*
X11415420Y-15691984D01*
X11415420Y-15691984D02*
X11434468Y-15682460D01*
X11434468Y-15682460D02*
X11443991Y-15672936D01*
X11443991Y-15672936D02*
X11453515Y-15653888D01*
X11453515Y-15653888D02*
X11453515Y-15615793D01*
X11453515Y-15615793D02*
X11443991Y-15596746D01*
X11443991Y-15596746D02*
X11434468Y-15587222D01*
X11434468Y-15587222D02*
X11415420Y-15577698D01*
X11624944Y-15558650D02*
X11624944Y-15691984D01*
X11577325Y-15482460D02*
X11529706Y-15625317D01*
X11529706Y-15625317D02*
X11653515Y-15625317D01*
X11882087Y-15691984D02*
X11882087Y-15491984D01*
X11967801Y-15691984D02*
X11967801Y-15587222D01*
X11967801Y-15587222D02*
X11958277Y-15568174D01*
X11958277Y-15568174D02*
X11939230Y-15558650D01*
X11939230Y-15558650D02*
X11910658Y-15558650D01*
X11910658Y-15558650D02*
X11891610Y-15568174D01*
X11891610Y-15568174D02*
X11882087Y-15577698D01*
X12091610Y-15691984D02*
X12072563Y-15682460D01*
X12072563Y-15682460D02*
X12063039Y-15672936D01*
X12063039Y-15672936D02*
X12053515Y-15653888D01*
X12053515Y-15653888D02*
X12053515Y-15596746D01*
X12053515Y-15596746D02*
X12063039Y-15577698D01*
X12063039Y-15577698D02*
X12072563Y-15568174D01*
X12072563Y-15568174D02*
X12091610Y-15558650D01*
X12091610Y-15558650D02*
X12120182Y-15558650D01*
X12120182Y-15558650D02*
X12139230Y-15568174D01*
X12139230Y-15568174D02*
X12148753Y-15577698D01*
X12148753Y-15577698D02*
X12158277Y-15596746D01*
X12158277Y-15596746D02*
X12158277Y-15653888D01*
X12158277Y-15653888D02*
X12148753Y-15672936D01*
X12148753Y-15672936D02*
X12139230Y-15682460D01*
X12139230Y-15682460D02*
X12120182Y-15691984D01*
X12120182Y-15691984D02*
X12091610Y-15691984D01*
X12272563Y-15691984D02*
X12253515Y-15682460D01*
X12253515Y-15682460D02*
X12243991Y-15663412D01*
X12243991Y-15663412D02*
X12243991Y-15491984D01*
X12424944Y-15682460D02*
X12405896Y-15691984D01*
X12405896Y-15691984D02*
X12367801Y-15691984D01*
X12367801Y-15691984D02*
X12348753Y-15682460D01*
X12348753Y-15682460D02*
X12339230Y-15663412D01*
X12339230Y-15663412D02*
X12339230Y-15587222D01*
X12339230Y-15587222D02*
X12348753Y-15568174D01*
X12348753Y-15568174D02*
X12367801Y-15558650D01*
X12367801Y-15558650D02*
X12405896Y-15558650D01*
X12405896Y-15558650D02*
X12424944Y-15568174D01*
X12424944Y-15568174D02*
X12434468Y-15587222D01*
X12434468Y-15587222D02*
X12434468Y-15606269D01*
X12434468Y-15606269D02*
X12339230Y-15625317D01*
X12510658Y-15682460D02*
X12529706Y-15691984D01*
X12529706Y-15691984D02*
X12567801Y-15691984D01*
X12567801Y-15691984D02*
X12586849Y-15682460D01*
X12586849Y-15682460D02*
X12596372Y-15663412D01*
X12596372Y-15663412D02*
X12596372Y-15653888D01*
X12596372Y-15653888D02*
X12586849Y-15634841D01*
X12586849Y-15634841D02*
X12567801Y-15625317D01*
X12567801Y-15625317D02*
X12539230Y-15625317D01*
X12539230Y-15625317D02*
X12520182Y-15615793D01*
X12520182Y-15615793D02*
X12510658Y-15596746D01*
X12510658Y-15596746D02*
X12510658Y-15587222D01*
X12510658Y-15587222D02*
X12520182Y-15568174D01*
X12520182Y-15568174D02*
X12539230Y-15558650D01*
X12539230Y-15558650D02*
X12567801Y-15558650D01*
X12567801Y-15558650D02*
X12586849Y-15568174D01*
X12663039Y-15768174D02*
X12672563Y-15758650D01*
X12672563Y-15758650D02*
X12691611Y-15730079D01*
X12691611Y-15730079D02*
X12701134Y-15711031D01*
X12701134Y-15711031D02*
X12710658Y-15682460D01*
X12710658Y-15682460D02*
X12720182Y-15634841D01*
X12720182Y-15634841D02*
X12720182Y-15596746D01*
X12720182Y-15596746D02*
X12710658Y-15549127D01*
X12710658Y-15549127D02*
X12701134Y-15520555D01*
X12701134Y-15520555D02*
X12691611Y-15501508D01*
X12691611Y-15501508D02*
X12672563Y-15472936D01*
X12672563Y-15472936D02*
X12663039Y-15463412D01*
D13*
X7679927Y-15906927D02*
X7679927Y-15822073D01*
X7595073Y-15822073D01*
X7595073Y-15906927D01*
X7679927Y-15906927D01*
D11*
X8063039Y-15955984D02*
X7948753Y-15955984D01*
X8005896Y-15955984D02*
X8005896Y-15755984D01*
X8005896Y-15755984D02*
X7986848Y-15784555D01*
X7986848Y-15784555D02*
X7967801Y-15803603D01*
X7967801Y-15803603D02*
X7948753Y-15813127D01*
X8148753Y-15936936D02*
X8158277Y-15946460D01*
X8158277Y-15946460D02*
X8148753Y-15955984D01*
X8148753Y-15955984D02*
X8139229Y-15946460D01*
X8139229Y-15946460D02*
X8148753Y-15936936D01*
X8148753Y-15936936D02*
X8148753Y-15955984D01*
X8234467Y-15775031D02*
X8243991Y-15765508D01*
X8243991Y-15765508D02*
X8263039Y-15755984D01*
X8263039Y-15755984D02*
X8310658Y-15755984D01*
X8310658Y-15755984D02*
X8329705Y-15765508D01*
X8329705Y-15765508D02*
X8339229Y-15775031D01*
X8339229Y-15775031D02*
X8348753Y-15794079D01*
X8348753Y-15794079D02*
X8348753Y-15813127D01*
X8348753Y-15813127D02*
X8339229Y-15841698D01*
X8339229Y-15841698D02*
X8224943Y-15955984D01*
X8224943Y-15955984D02*
X8348753Y-15955984D01*
X8472563Y-15755984D02*
X8491610Y-15755984D01*
X8491610Y-15755984D02*
X8510658Y-15765508D01*
X8510658Y-15765508D02*
X8520182Y-15775031D01*
X8520182Y-15775031D02*
X8529705Y-15794079D01*
X8529705Y-15794079D02*
X8539229Y-15832174D01*
X8539229Y-15832174D02*
X8539229Y-15879793D01*
X8539229Y-15879793D02*
X8529705Y-15917888D01*
X8529705Y-15917888D02*
X8520182Y-15936936D01*
X8520182Y-15936936D02*
X8510658Y-15946460D01*
X8510658Y-15946460D02*
X8491610Y-15955984D01*
X8491610Y-15955984D02*
X8472563Y-15955984D01*
X8472563Y-15955984D02*
X8453515Y-15946460D01*
X8453515Y-15946460D02*
X8443991Y-15936936D01*
X8443991Y-15936936D02*
X8434467Y-15917888D01*
X8434467Y-15917888D02*
X8424944Y-15879793D01*
X8424944Y-15879793D02*
X8424944Y-15832174D01*
X8424944Y-15832174D02*
X8434467Y-15794079D01*
X8434467Y-15794079D02*
X8443991Y-15775031D01*
X8443991Y-15775031D02*
X8453515Y-15765508D01*
X8453515Y-15765508D02*
X8472563Y-15755984D01*
X8663039Y-15755984D02*
X8682086Y-15755984D01*
X8682086Y-15755984D02*
X8701134Y-15765508D01*
X8701134Y-15765508D02*
X8710658Y-15775031D01*
X8710658Y-15775031D02*
X8720182Y-15794079D01*
X8720182Y-15794079D02*
X8729705Y-15832174D01*
X8729705Y-15832174D02*
X8729705Y-15879793D01*
X8729705Y-15879793D02*
X8720182Y-15917888D01*
X8720182Y-15917888D02*
X8710658Y-15936936D01*
X8710658Y-15936936D02*
X8701134Y-15946460D01*
X8701134Y-15946460D02*
X8682086Y-15955984D01*
X8682086Y-15955984D02*
X8663039Y-15955984D01*
X8663039Y-15955984D02*
X8643991Y-15946460D01*
X8643991Y-15946460D02*
X8634467Y-15936936D01*
X8634467Y-15936936D02*
X8624944Y-15917888D01*
X8624944Y-15917888D02*
X8615420Y-15879793D01*
X8615420Y-15879793D02*
X8615420Y-15832174D01*
X8615420Y-15832174D02*
X8624944Y-15794079D01*
X8624944Y-15794079D02*
X8634467Y-15775031D01*
X8634467Y-15775031D02*
X8643991Y-15765508D01*
X8643991Y-15765508D02*
X8663039Y-15755984D01*
X8815420Y-15955984D02*
X8815420Y-15822650D01*
X8815420Y-15841698D02*
X8824944Y-15832174D01*
X8824944Y-15832174D02*
X8843991Y-15822650D01*
X8843991Y-15822650D02*
X8872563Y-15822650D01*
X8872563Y-15822650D02*
X8891610Y-15832174D01*
X8891610Y-15832174D02*
X8901134Y-15851222D01*
X8901134Y-15851222D02*
X8901134Y-15955984D01*
X8901134Y-15851222D02*
X8910658Y-15832174D01*
X8910658Y-15832174D02*
X8929705Y-15822650D01*
X8929705Y-15822650D02*
X8958277Y-15822650D01*
X8958277Y-15822650D02*
X8977325Y-15832174D01*
X8977325Y-15832174D02*
X8986848Y-15851222D01*
X8986848Y-15851222D02*
X8986848Y-15955984D01*
X9082086Y-15955984D02*
X9082086Y-15822650D01*
X9082086Y-15841698D02*
X9091610Y-15832174D01*
X9091610Y-15832174D02*
X9110658Y-15822650D01*
X9110658Y-15822650D02*
X9139229Y-15822650D01*
X9139229Y-15822650D02*
X9158277Y-15832174D01*
X9158277Y-15832174D02*
X9167801Y-15851222D01*
X9167801Y-15851222D02*
X9167801Y-15955984D01*
X9167801Y-15851222D02*
X9177325Y-15832174D01*
X9177325Y-15832174D02*
X9196372Y-15822650D01*
X9196372Y-15822650D02*
X9224944Y-15822650D01*
X9224944Y-15822650D02*
X9243991Y-15832174D01*
X9243991Y-15832174D02*
X9253515Y-15851222D01*
X9253515Y-15851222D02*
X9253515Y-15955984D01*
X9643991Y-15746460D02*
X9472563Y-16003603D01*
X9901134Y-15755984D02*
X9920182Y-15755984D01*
X9920182Y-15755984D02*
X9939229Y-15765508D01*
X9939229Y-15765508D02*
X9948753Y-15775031D01*
X9948753Y-15775031D02*
X9958277Y-15794079D01*
X9958277Y-15794079D02*
X9967801Y-15832174D01*
X9967801Y-15832174D02*
X9967801Y-15879793D01*
X9967801Y-15879793D02*
X9958277Y-15917888D01*
X9958277Y-15917888D02*
X9948753Y-15936936D01*
X9948753Y-15936936D02*
X9939229Y-15946460D01*
X9939229Y-15946460D02*
X9920182Y-15955984D01*
X9920182Y-15955984D02*
X9901134Y-15955984D01*
X9901134Y-15955984D02*
X9882087Y-15946460D01*
X9882087Y-15946460D02*
X9872563Y-15936936D01*
X9872563Y-15936936D02*
X9863039Y-15917888D01*
X9863039Y-15917888D02*
X9853515Y-15879793D01*
X9853515Y-15879793D02*
X9853515Y-15832174D01*
X9853515Y-15832174D02*
X9863039Y-15794079D01*
X9863039Y-15794079D02*
X9872563Y-15775031D01*
X9872563Y-15775031D02*
X9882087Y-15765508D01*
X9882087Y-15765508D02*
X9901134Y-15755984D01*
X10053515Y-15936936D02*
X10063039Y-15946460D01*
X10063039Y-15946460D02*
X10053515Y-15955984D01*
X10053515Y-15955984D02*
X10043991Y-15946460D01*
X10043991Y-15946460D02*
X10053515Y-15936936D01*
X10053515Y-15936936D02*
X10053515Y-15955984D01*
X10186848Y-15755984D02*
X10205896Y-15755984D01*
X10205896Y-15755984D02*
X10224944Y-15765508D01*
X10224944Y-15765508D02*
X10234468Y-15775031D01*
X10234468Y-15775031D02*
X10243991Y-15794079D01*
X10243991Y-15794079D02*
X10253515Y-15832174D01*
X10253515Y-15832174D02*
X10253515Y-15879793D01*
X10253515Y-15879793D02*
X10243991Y-15917888D01*
X10243991Y-15917888D02*
X10234468Y-15936936D01*
X10234468Y-15936936D02*
X10224944Y-15946460D01*
X10224944Y-15946460D02*
X10205896Y-15955984D01*
X10205896Y-15955984D02*
X10186848Y-15955984D01*
X10186848Y-15955984D02*
X10167801Y-15946460D01*
X10167801Y-15946460D02*
X10158277Y-15936936D01*
X10158277Y-15936936D02*
X10148753Y-15917888D01*
X10148753Y-15917888D02*
X10139229Y-15879793D01*
X10139229Y-15879793D02*
X10139229Y-15832174D01*
X10139229Y-15832174D02*
X10148753Y-15794079D01*
X10148753Y-15794079D02*
X10158277Y-15775031D01*
X10158277Y-15775031D02*
X10167801Y-15765508D01*
X10167801Y-15765508D02*
X10186848Y-15755984D01*
X10424944Y-15822650D02*
X10424944Y-15955984D01*
X10377325Y-15746460D02*
X10329706Y-15889317D01*
X10329706Y-15889317D02*
X10453515Y-15889317D01*
X10510658Y-15755984D02*
X10643991Y-15755984D01*
X10643991Y-15755984D02*
X10558277Y-15955984D01*
X10710658Y-15775031D02*
X10720182Y-15765508D01*
X10720182Y-15765508D02*
X10739229Y-15755984D01*
X10739229Y-15755984D02*
X10786849Y-15755984D01*
X10786849Y-15755984D02*
X10805896Y-15765508D01*
X10805896Y-15765508D02*
X10815420Y-15775031D01*
X10815420Y-15775031D02*
X10824944Y-15794079D01*
X10824944Y-15794079D02*
X10824944Y-15813127D01*
X10824944Y-15813127D02*
X10815420Y-15841698D01*
X10815420Y-15841698D02*
X10701134Y-15955984D01*
X10701134Y-15955984D02*
X10824944Y-15955984D01*
X10901134Y-15755984D02*
X10901134Y-15794079D01*
X10977325Y-15755984D02*
X10977325Y-15794079D01*
X11272563Y-16032174D02*
X11263039Y-16022650D01*
X11263039Y-16022650D02*
X11243991Y-15994079D01*
X11243991Y-15994079D02*
X11234468Y-15975031D01*
X11234468Y-15975031D02*
X11224944Y-15946460D01*
X11224944Y-15946460D02*
X11215420Y-15898841D01*
X11215420Y-15898841D02*
X11215420Y-15860746D01*
X11215420Y-15860746D02*
X11224944Y-15813127D01*
X11224944Y-15813127D02*
X11234468Y-15784555D01*
X11234468Y-15784555D02*
X11243991Y-15765508D01*
X11243991Y-15765508D02*
X11263039Y-15736936D01*
X11263039Y-15736936D02*
X11272563Y-15727412D01*
X11339229Y-15775031D02*
X11348753Y-15765508D01*
X11348753Y-15765508D02*
X11367801Y-15755984D01*
X11367801Y-15755984D02*
X11415420Y-15755984D01*
X11415420Y-15755984D02*
X11434468Y-15765508D01*
X11434468Y-15765508D02*
X11443991Y-15775031D01*
X11443991Y-15775031D02*
X11453515Y-15794079D01*
X11453515Y-15794079D02*
X11453515Y-15813127D01*
X11453515Y-15813127D02*
X11443991Y-15841698D01*
X11443991Y-15841698D02*
X11329706Y-15955984D01*
X11329706Y-15955984D02*
X11453515Y-15955984D01*
X11691610Y-15955984D02*
X11691610Y-15755984D01*
X11777325Y-15955984D02*
X11777325Y-15851222D01*
X11777325Y-15851222D02*
X11767801Y-15832174D01*
X11767801Y-15832174D02*
X11748753Y-15822650D01*
X11748753Y-15822650D02*
X11720182Y-15822650D01*
X11720182Y-15822650D02*
X11701134Y-15832174D01*
X11701134Y-15832174D02*
X11691610Y-15841698D01*
X11901134Y-15955984D02*
X11882087Y-15946460D01*
X11882087Y-15946460D02*
X11872563Y-15936936D01*
X11872563Y-15936936D02*
X11863039Y-15917888D01*
X11863039Y-15917888D02*
X11863039Y-15860746D01*
X11863039Y-15860746D02*
X11872563Y-15841698D01*
X11872563Y-15841698D02*
X11882087Y-15832174D01*
X11882087Y-15832174D02*
X11901134Y-15822650D01*
X11901134Y-15822650D02*
X11929706Y-15822650D01*
X11929706Y-15822650D02*
X11948753Y-15832174D01*
X11948753Y-15832174D02*
X11958277Y-15841698D01*
X11958277Y-15841698D02*
X11967801Y-15860746D01*
X11967801Y-15860746D02*
X11967801Y-15917888D01*
X11967801Y-15917888D02*
X11958277Y-15936936D01*
X11958277Y-15936936D02*
X11948753Y-15946460D01*
X11948753Y-15946460D02*
X11929706Y-15955984D01*
X11929706Y-15955984D02*
X11901134Y-15955984D01*
X12082087Y-15955984D02*
X12063039Y-15946460D01*
X12063039Y-15946460D02*
X12053515Y-15927412D01*
X12053515Y-15927412D02*
X12053515Y-15755984D01*
X12234468Y-15946460D02*
X12215420Y-15955984D01*
X12215420Y-15955984D02*
X12177325Y-15955984D01*
X12177325Y-15955984D02*
X12158277Y-15946460D01*
X12158277Y-15946460D02*
X12148753Y-15927412D01*
X12148753Y-15927412D02*
X12148753Y-15851222D01*
X12148753Y-15851222D02*
X12158277Y-15832174D01*
X12158277Y-15832174D02*
X12177325Y-15822650D01*
X12177325Y-15822650D02*
X12215420Y-15822650D01*
X12215420Y-15822650D02*
X12234468Y-15832174D01*
X12234468Y-15832174D02*
X12243991Y-15851222D01*
X12243991Y-15851222D02*
X12243991Y-15870269D01*
X12243991Y-15870269D02*
X12148753Y-15889317D01*
X12320182Y-15946460D02*
X12339230Y-15955984D01*
X12339230Y-15955984D02*
X12377325Y-15955984D01*
X12377325Y-15955984D02*
X12396372Y-15946460D01*
X12396372Y-15946460D02*
X12405896Y-15927412D01*
X12405896Y-15927412D02*
X12405896Y-15917888D01*
X12405896Y-15917888D02*
X12396372Y-15898841D01*
X12396372Y-15898841D02*
X12377325Y-15889317D01*
X12377325Y-15889317D02*
X12348753Y-15889317D01*
X12348753Y-15889317D02*
X12329706Y-15879793D01*
X12329706Y-15879793D02*
X12320182Y-15860746D01*
X12320182Y-15860746D02*
X12320182Y-15851222D01*
X12320182Y-15851222D02*
X12329706Y-15832174D01*
X12329706Y-15832174D02*
X12348753Y-15822650D01*
X12348753Y-15822650D02*
X12377325Y-15822650D01*
X12377325Y-15822650D02*
X12396372Y-15832174D01*
X12472563Y-16032174D02*
X12482087Y-16022650D01*
X12482087Y-16022650D02*
X12501134Y-15994079D01*
X12501134Y-15994079D02*
X12510658Y-15975031D01*
X12510658Y-15975031D02*
X12520182Y-15946460D01*
X12520182Y-15946460D02*
X12529706Y-15898841D01*
X12529706Y-15898841D02*
X12529706Y-15860746D01*
X12529706Y-15860746D02*
X12520182Y-15813127D01*
X12520182Y-15813127D02*
X12510658Y-15784555D01*
X12510658Y-15784555D02*
X12501134Y-15765508D01*
X12501134Y-15765508D02*
X12482087Y-15736936D01*
X12482087Y-15736936D02*
X12472563Y-15727412D01*
M02*
