%TF.GenerationSoftware,KiCad,Pcbnew,10.0.1*%
%TF.CreationDate,2026-05-23T07:07:49+07:00*%
%TF.ProjectId,regi,72656769-2e6b-4696-9361-645f70636258,rev?*%
%TF.SameCoordinates,Original*%
%TF.FileFunction,Soldermask,Bot*%
%TF.FilePolarity,Negative*%
%FSLAX46Y46*%
G04 Gerber Fmt 4.6, Leading zero omitted, Abs format (unit mm)*
G04 Created by KiCad (PCBNEW 10.0.1) date 2026-05-23 07:07:49*
%MOMM*%
%LPD*%
G01*
G04 APERTURE LIST*
%ADD10C,2.000000*%
%ADD11C,1.200000*%
%ADD12C,3.200000*%
%ADD13C,0.650000*%
%ADD14R,1.700000X1.700000*%
%ADD15C,1.700000*%
G04 APERTURE END LIST*
D10*
%TO.C,H4*%
X163200000Y-137600000D03*
%TD*%
D11*
%TO.C,Card1*%
X81525275Y-89849660D03*
X81525275Y-97849660D03*
%TD*%
D12*
%TO.C,H6*%
X91600000Y-138200000D03*
%TD*%
D10*
%TO.C,H3*%
X179900000Y-80400000D03*
%TD*%
%TO.C,H1*%
X108700000Y-80400000D03*
%TD*%
D13*
%TO.C,J1*%
X83150000Y-125835000D03*
X83150000Y-131615000D03*
%TD*%
D12*
%TO.C,H7*%
X183400000Y-100300000D03*
%TD*%
%TO.C,H8*%
X176000000Y-138100000D03*
%TD*%
D10*
%TO.C,H2*%
X102000000Y-137800000D03*
%TD*%
D12*
%TO.C,H5*%
X82600000Y-82100000D03*
%TD*%
D13*
%TO.C,J4*%
X82945000Y-108155000D03*
X82945000Y-113935000D03*
%TD*%
D14*
%TO.C,J8*%
X172700000Y-118420000D03*
D15*
X175240000Y-118420000D03*
X172700000Y-120960000D03*
X175240000Y-120960000D03*
X172700000Y-123500000D03*
X175240000Y-123500000D03*
X172700000Y-126040000D03*
X175240000Y-126040000D03*
X172700000Y-128580000D03*
X175240000Y-128580000D03*
%TD*%
D14*
%TO.C,J12*%
X143250000Y-129380000D03*
D15*
X140710000Y-129380000D03*
X143250000Y-131920000D03*
X140710000Y-131920000D03*
X143250000Y-134460000D03*
X140710000Y-134460000D03*
X143250000Y-137000000D03*
X140710000Y-137000000D03*
%TD*%
D14*
%TO.C,J6*%
X183820000Y-112250000D03*
D15*
X181280000Y-112250000D03*
X178740000Y-112250000D03*
X176200000Y-112250000D03*
X173660000Y-112250000D03*
X171120000Y-112250000D03*
X168580000Y-112250000D03*
X166040000Y-112250000D03*
%TD*%
D14*
%TO.C,J2*%
X183830000Y-93750000D03*
D15*
X181290000Y-93750000D03*
X178750000Y-93750000D03*
X176210000Y-93750000D03*
X173670000Y-93750000D03*
X171130000Y-93750000D03*
X168590000Y-93750000D03*
X166050000Y-93750000D03*
%TD*%
D14*
%TO.C,J10*%
X129750000Y-129210000D03*
D15*
X127210000Y-129210000D03*
X129750000Y-131750000D03*
X127210000Y-131750000D03*
X129750000Y-134290000D03*
X127210000Y-134290000D03*
X129750000Y-136830000D03*
X127210000Y-136830000D03*
%TD*%
D14*
%TO.C,J7*%
X183800000Y-105500000D03*
D15*
X181260000Y-105500000D03*
X178720000Y-105500000D03*
X176180000Y-105500000D03*
X173640000Y-105500000D03*
X171100000Y-105500000D03*
X168560000Y-105500000D03*
X166020000Y-105500000D03*
%TD*%
D14*
%TO.C,J5*%
X183830000Y-86750000D03*
D15*
X181290000Y-86750000D03*
X178750000Y-86750000D03*
X176210000Y-86750000D03*
X173670000Y-86750000D03*
X171130000Y-86750000D03*
X168590000Y-86750000D03*
X166050000Y-86750000D03*
%TD*%
D14*
%TO.C,J11*%
X143290000Y-115380000D03*
D15*
X140750000Y-115380000D03*
X143290000Y-117920000D03*
X140750000Y-117920000D03*
X143290000Y-120460000D03*
X140750000Y-120460000D03*
X143290000Y-123000000D03*
X140750000Y-123000000D03*
%TD*%
D14*
%TO.C,J3*%
X163240000Y-118510000D03*
D15*
X160700000Y-118510000D03*
X163240000Y-121050000D03*
X160700000Y-121050000D03*
X163240000Y-123590000D03*
X160700000Y-123590000D03*
X163240000Y-126130000D03*
X160700000Y-126130000D03*
X163240000Y-128670000D03*
X160700000Y-128670000D03*
%TD*%
D14*
%TO.C,J9*%
X129750000Y-115380000D03*
D15*
X127210000Y-115380000D03*
X129750000Y-117920000D03*
X127210000Y-117920000D03*
X129750000Y-120460000D03*
X127210000Y-120460000D03*
X129750000Y-123000000D03*
X127210000Y-123000000D03*
%TD*%
M02*
