%TF.GenerationSoftware,KiCad,Pcbnew,10.0.1*%
%TF.CreationDate,2026-05-23T07:07:49+07:00*%
%TF.ProjectId,regi,72656769-2e6b-4696-9361-645f70636258,rev?*%
%TF.SameCoordinates,Original*%
%TF.FileFunction,Legend,Bot*%
%TF.FilePolarity,Positive*%
%FSLAX46Y46*%
G04 Gerber Fmt 4.6, Leading zero omitted, Abs format (unit mm)*
G04 Created by KiCad (PCBNEW 10.0.1) date 2026-05-23 07:07:49*
%MOMM*%
%LPD*%
G01*
G04 APERTURE LIST*
%ADD10C,0.150000*%
%ADD11C,0.120000*%
G04 APERTURE END LIST*
D10*
X174303333Y-115104819D02*
X174303333Y-115819104D01*
X174303333Y-115819104D02*
X174350952Y-115961961D01*
X174350952Y-115961961D02*
X174446190Y-116057200D01*
X174446190Y-116057200D02*
X174589047Y-116104819D01*
X174589047Y-116104819D02*
X174684285Y-116104819D01*
X173684285Y-115533390D02*
X173779523Y-115485771D01*
X173779523Y-115485771D02*
X173827142Y-115438152D01*
X173827142Y-115438152D02*
X173874761Y-115342914D01*
X173874761Y-115342914D02*
X173874761Y-115295295D01*
X173874761Y-115295295D02*
X173827142Y-115200057D01*
X173827142Y-115200057D02*
X173779523Y-115152438D01*
X173779523Y-115152438D02*
X173684285Y-115104819D01*
X173684285Y-115104819D02*
X173493809Y-115104819D01*
X173493809Y-115104819D02*
X173398571Y-115152438D01*
X173398571Y-115152438D02*
X173350952Y-115200057D01*
X173350952Y-115200057D02*
X173303333Y-115295295D01*
X173303333Y-115295295D02*
X173303333Y-115342914D01*
X173303333Y-115342914D02*
X173350952Y-115438152D01*
X173350952Y-115438152D02*
X173398571Y-115485771D01*
X173398571Y-115485771D02*
X173493809Y-115533390D01*
X173493809Y-115533390D02*
X173684285Y-115533390D01*
X173684285Y-115533390D02*
X173779523Y-115581009D01*
X173779523Y-115581009D02*
X173827142Y-115628628D01*
X173827142Y-115628628D02*
X173874761Y-115723866D01*
X173874761Y-115723866D02*
X173874761Y-115914342D01*
X173874761Y-115914342D02*
X173827142Y-116009580D01*
X173827142Y-116009580D02*
X173779523Y-116057200D01*
X173779523Y-116057200D02*
X173684285Y-116104819D01*
X173684285Y-116104819D02*
X173493809Y-116104819D01*
X173493809Y-116104819D02*
X173398571Y-116057200D01*
X173398571Y-116057200D02*
X173350952Y-116009580D01*
X173350952Y-116009580D02*
X173303333Y-115914342D01*
X173303333Y-115914342D02*
X173303333Y-115723866D01*
X173303333Y-115723866D02*
X173350952Y-115628628D01*
X173350952Y-115628628D02*
X173398571Y-115581009D01*
X173398571Y-115581009D02*
X173493809Y-115533390D01*
X142789523Y-126454819D02*
X142789523Y-127169104D01*
X142789523Y-127169104D02*
X142837142Y-127311961D01*
X142837142Y-127311961D02*
X142932380Y-127407200D01*
X142932380Y-127407200D02*
X143075237Y-127454819D01*
X143075237Y-127454819D02*
X143170475Y-127454819D01*
X141789523Y-127454819D02*
X142360951Y-127454819D01*
X142075237Y-127454819D02*
X142075237Y-126454819D01*
X142075237Y-126454819D02*
X142170475Y-126597676D01*
X142170475Y-126597676D02*
X142265713Y-126692914D01*
X142265713Y-126692914D02*
X142360951Y-126740533D01*
X141408570Y-126550057D02*
X141360951Y-126502438D01*
X141360951Y-126502438D02*
X141265713Y-126454819D01*
X141265713Y-126454819D02*
X141027618Y-126454819D01*
X141027618Y-126454819D02*
X140932380Y-126502438D01*
X140932380Y-126502438D02*
X140884761Y-126550057D01*
X140884761Y-126550057D02*
X140837142Y-126645295D01*
X140837142Y-126645295D02*
X140837142Y-126740533D01*
X140837142Y-126740533D02*
X140884761Y-126883390D01*
X140884761Y-126883390D02*
X141456189Y-127454819D01*
X141456189Y-127454819D02*
X140837142Y-127454819D01*
X185654819Y-111916666D02*
X186369104Y-111916666D01*
X186369104Y-111916666D02*
X186511961Y-111869047D01*
X186511961Y-111869047D02*
X186607200Y-111773809D01*
X186607200Y-111773809D02*
X186654819Y-111630952D01*
X186654819Y-111630952D02*
X186654819Y-111535714D01*
X185654819Y-112821428D02*
X185654819Y-112630952D01*
X185654819Y-112630952D02*
X185702438Y-112535714D01*
X185702438Y-112535714D02*
X185750057Y-112488095D01*
X185750057Y-112488095D02*
X185892914Y-112392857D01*
X185892914Y-112392857D02*
X186083390Y-112345238D01*
X186083390Y-112345238D02*
X186464342Y-112345238D01*
X186464342Y-112345238D02*
X186559580Y-112392857D01*
X186559580Y-112392857D02*
X186607200Y-112440476D01*
X186607200Y-112440476D02*
X186654819Y-112535714D01*
X186654819Y-112535714D02*
X186654819Y-112726190D01*
X186654819Y-112726190D02*
X186607200Y-112821428D01*
X186607200Y-112821428D02*
X186559580Y-112869047D01*
X186559580Y-112869047D02*
X186464342Y-112916666D01*
X186464342Y-112916666D02*
X186226247Y-112916666D01*
X186226247Y-112916666D02*
X186131009Y-112869047D01*
X186131009Y-112869047D02*
X186083390Y-112821428D01*
X186083390Y-112821428D02*
X186035771Y-112726190D01*
X186035771Y-112726190D02*
X186035771Y-112535714D01*
X186035771Y-112535714D02*
X186083390Y-112440476D01*
X186083390Y-112440476D02*
X186131009Y-112392857D01*
X186131009Y-112392857D02*
X186226247Y-112345238D01*
X185664819Y-93416666D02*
X186379104Y-93416666D01*
X186379104Y-93416666D02*
X186521961Y-93369047D01*
X186521961Y-93369047D02*
X186617200Y-93273809D01*
X186617200Y-93273809D02*
X186664819Y-93130952D01*
X186664819Y-93130952D02*
X186664819Y-93035714D01*
X185760057Y-93845238D02*
X185712438Y-93892857D01*
X185712438Y-93892857D02*
X185664819Y-93988095D01*
X185664819Y-93988095D02*
X185664819Y-94226190D01*
X185664819Y-94226190D02*
X185712438Y-94321428D01*
X185712438Y-94321428D02*
X185760057Y-94369047D01*
X185760057Y-94369047D02*
X185855295Y-94416666D01*
X185855295Y-94416666D02*
X185950533Y-94416666D01*
X185950533Y-94416666D02*
X186093390Y-94369047D01*
X186093390Y-94369047D02*
X186664819Y-93797619D01*
X186664819Y-93797619D02*
X186664819Y-94416666D01*
X129289523Y-126284819D02*
X129289523Y-126999104D01*
X129289523Y-126999104D02*
X129337142Y-127141961D01*
X129337142Y-127141961D02*
X129432380Y-127237200D01*
X129432380Y-127237200D02*
X129575237Y-127284819D01*
X129575237Y-127284819D02*
X129670475Y-127284819D01*
X128289523Y-127284819D02*
X128860951Y-127284819D01*
X128575237Y-127284819D02*
X128575237Y-126284819D01*
X128575237Y-126284819D02*
X128670475Y-126427676D01*
X128670475Y-126427676D02*
X128765713Y-126522914D01*
X128765713Y-126522914D02*
X128860951Y-126570533D01*
X127670475Y-126284819D02*
X127575237Y-126284819D01*
X127575237Y-126284819D02*
X127479999Y-126332438D01*
X127479999Y-126332438D02*
X127432380Y-126380057D01*
X127432380Y-126380057D02*
X127384761Y-126475295D01*
X127384761Y-126475295D02*
X127337142Y-126665771D01*
X127337142Y-126665771D02*
X127337142Y-126903866D01*
X127337142Y-126903866D02*
X127384761Y-127094342D01*
X127384761Y-127094342D02*
X127432380Y-127189580D01*
X127432380Y-127189580D02*
X127479999Y-127237200D01*
X127479999Y-127237200D02*
X127575237Y-127284819D01*
X127575237Y-127284819D02*
X127670475Y-127284819D01*
X127670475Y-127284819D02*
X127765713Y-127237200D01*
X127765713Y-127237200D02*
X127813332Y-127189580D01*
X127813332Y-127189580D02*
X127860951Y-127094342D01*
X127860951Y-127094342D02*
X127908570Y-126903866D01*
X127908570Y-126903866D02*
X127908570Y-126665771D01*
X127908570Y-126665771D02*
X127860951Y-126475295D01*
X127860951Y-126475295D02*
X127813332Y-126380057D01*
X127813332Y-126380057D02*
X127765713Y-126332438D01*
X127765713Y-126332438D02*
X127670475Y-126284819D01*
X185634819Y-105166666D02*
X186349104Y-105166666D01*
X186349104Y-105166666D02*
X186491961Y-105119047D01*
X186491961Y-105119047D02*
X186587200Y-105023809D01*
X186587200Y-105023809D02*
X186634819Y-104880952D01*
X186634819Y-104880952D02*
X186634819Y-104785714D01*
X185634819Y-105547619D02*
X185634819Y-106214285D01*
X185634819Y-106214285D02*
X186634819Y-105785714D01*
X185664819Y-86416666D02*
X186379104Y-86416666D01*
X186379104Y-86416666D02*
X186521961Y-86369047D01*
X186521961Y-86369047D02*
X186617200Y-86273809D01*
X186617200Y-86273809D02*
X186664819Y-86130952D01*
X186664819Y-86130952D02*
X186664819Y-86035714D01*
X185664819Y-87369047D02*
X185664819Y-86892857D01*
X185664819Y-86892857D02*
X186141009Y-86845238D01*
X186141009Y-86845238D02*
X186093390Y-86892857D01*
X186093390Y-86892857D02*
X186045771Y-86988095D01*
X186045771Y-86988095D02*
X186045771Y-87226190D01*
X186045771Y-87226190D02*
X186093390Y-87321428D01*
X186093390Y-87321428D02*
X186141009Y-87369047D01*
X186141009Y-87369047D02*
X186236247Y-87416666D01*
X186236247Y-87416666D02*
X186474342Y-87416666D01*
X186474342Y-87416666D02*
X186569580Y-87369047D01*
X186569580Y-87369047D02*
X186617200Y-87321428D01*
X186617200Y-87321428D02*
X186664819Y-87226190D01*
X186664819Y-87226190D02*
X186664819Y-86988095D01*
X186664819Y-86988095D02*
X186617200Y-86892857D01*
X186617200Y-86892857D02*
X186569580Y-86845238D01*
X142829523Y-112454819D02*
X142829523Y-113169104D01*
X142829523Y-113169104D02*
X142877142Y-113311961D01*
X142877142Y-113311961D02*
X142972380Y-113407200D01*
X142972380Y-113407200D02*
X143115237Y-113454819D01*
X143115237Y-113454819D02*
X143210475Y-113454819D01*
X141829523Y-113454819D02*
X142400951Y-113454819D01*
X142115237Y-113454819D02*
X142115237Y-112454819D01*
X142115237Y-112454819D02*
X142210475Y-112597676D01*
X142210475Y-112597676D02*
X142305713Y-112692914D01*
X142305713Y-112692914D02*
X142400951Y-112740533D01*
X140877142Y-113454819D02*
X141448570Y-113454819D01*
X141162856Y-113454819D02*
X141162856Y-112454819D01*
X141162856Y-112454819D02*
X141258094Y-112597676D01*
X141258094Y-112597676D02*
X141353332Y-112692914D01*
X141353332Y-112692914D02*
X141448570Y-112740533D01*
X162303333Y-115584819D02*
X162303333Y-116299104D01*
X162303333Y-116299104D02*
X162350952Y-116441961D01*
X162350952Y-116441961D02*
X162446190Y-116537200D01*
X162446190Y-116537200D02*
X162589047Y-116584819D01*
X162589047Y-116584819D02*
X162684285Y-116584819D01*
X161922380Y-115584819D02*
X161303333Y-115584819D01*
X161303333Y-115584819D02*
X161636666Y-115965771D01*
X161636666Y-115965771D02*
X161493809Y-115965771D01*
X161493809Y-115965771D02*
X161398571Y-116013390D01*
X161398571Y-116013390D02*
X161350952Y-116061009D01*
X161350952Y-116061009D02*
X161303333Y-116156247D01*
X161303333Y-116156247D02*
X161303333Y-116394342D01*
X161303333Y-116394342D02*
X161350952Y-116489580D01*
X161350952Y-116489580D02*
X161398571Y-116537200D01*
X161398571Y-116537200D02*
X161493809Y-116584819D01*
X161493809Y-116584819D02*
X161779523Y-116584819D01*
X161779523Y-116584819D02*
X161874761Y-116537200D01*
X161874761Y-116537200D02*
X161922380Y-116489580D01*
X128813333Y-112454819D02*
X128813333Y-113169104D01*
X128813333Y-113169104D02*
X128860952Y-113311961D01*
X128860952Y-113311961D02*
X128956190Y-113407200D01*
X128956190Y-113407200D02*
X129099047Y-113454819D01*
X129099047Y-113454819D02*
X129194285Y-113454819D01*
X128289523Y-113454819D02*
X128099047Y-113454819D01*
X128099047Y-113454819D02*
X128003809Y-113407200D01*
X128003809Y-113407200D02*
X127956190Y-113359580D01*
X127956190Y-113359580D02*
X127860952Y-113216723D01*
X127860952Y-113216723D02*
X127813333Y-113026247D01*
X127813333Y-113026247D02*
X127813333Y-112645295D01*
X127813333Y-112645295D02*
X127860952Y-112550057D01*
X127860952Y-112550057D02*
X127908571Y-112502438D01*
X127908571Y-112502438D02*
X128003809Y-112454819D01*
X128003809Y-112454819D02*
X128194285Y-112454819D01*
X128194285Y-112454819D02*
X128289523Y-112502438D01*
X128289523Y-112502438D02*
X128337142Y-112550057D01*
X128337142Y-112550057D02*
X128384761Y-112645295D01*
X128384761Y-112645295D02*
X128384761Y-112883390D01*
X128384761Y-112883390D02*
X128337142Y-112978628D01*
X128337142Y-112978628D02*
X128289523Y-113026247D01*
X128289523Y-113026247D02*
X128194285Y-113073866D01*
X128194285Y-113073866D02*
X128003809Y-113073866D01*
X128003809Y-113073866D02*
X127908571Y-113026247D01*
X127908571Y-113026247D02*
X127860952Y-112978628D01*
X127860952Y-112978628D02*
X127813333Y-112883390D01*
%TO.C,J8*%
D11*
X171370000Y-117090000D02*
X171370000Y-118420000D01*
X171370000Y-119690000D02*
X171370000Y-129910000D01*
X172700000Y-117090000D02*
X171370000Y-117090000D01*
X173970000Y-117090000D02*
X173970000Y-119690000D01*
X173970000Y-119690000D02*
X171370000Y-119690000D01*
X176570000Y-117090000D02*
X173970000Y-117090000D01*
X176570000Y-117090000D02*
X176570000Y-129910000D01*
X176570000Y-129910000D02*
X171370000Y-129910000D01*
%TO.C,J12*%
X139330000Y-128000000D02*
X139330000Y-138380000D01*
X141980000Y-128000000D02*
X139330000Y-128000000D01*
X141980000Y-130650000D02*
X141980000Y-128000000D01*
X144630000Y-128000000D02*
X143250000Y-128000000D01*
X144630000Y-129380000D02*
X144630000Y-128000000D01*
X144630000Y-130650000D02*
X141980000Y-130650000D01*
X144630000Y-130650000D02*
X144630000Y-138380000D01*
X144630000Y-138380000D02*
X139330000Y-138380000D01*
%TO.C,J6*%
X164660000Y-113630000D02*
X164660000Y-110870000D01*
X182550000Y-110870000D02*
X164660000Y-110870000D01*
X182550000Y-113630000D02*
X164660000Y-113630000D01*
X182550000Y-113630000D02*
X182550000Y-110870000D01*
X183820000Y-113630000D02*
X185200000Y-113630000D01*
X185200000Y-113630000D02*
X185200000Y-112250000D01*
%TO.C,J2*%
X164670000Y-95130000D02*
X164670000Y-92370000D01*
X182560000Y-92370000D02*
X164670000Y-92370000D01*
X182560000Y-95130000D02*
X164670000Y-95130000D01*
X182560000Y-95130000D02*
X182560000Y-92370000D01*
X183830000Y-95130000D02*
X185210000Y-95130000D01*
X185210000Y-95130000D02*
X185210000Y-93750000D01*
%TO.C,J10*%
X125830000Y-127830000D02*
X125830000Y-138210000D01*
X128480000Y-127830000D02*
X125830000Y-127830000D01*
X128480000Y-130480000D02*
X128480000Y-127830000D01*
X131130000Y-127830000D02*
X129750000Y-127830000D01*
X131130000Y-129210000D02*
X131130000Y-127830000D01*
X131130000Y-130480000D02*
X128480000Y-130480000D01*
X131130000Y-130480000D02*
X131130000Y-138210000D01*
X131130000Y-138210000D02*
X125830000Y-138210000D01*
%TO.C,J7*%
X164640000Y-106880000D02*
X164640000Y-104120000D01*
X182530000Y-104120000D02*
X164640000Y-104120000D01*
X182530000Y-106880000D02*
X164640000Y-106880000D01*
X182530000Y-106880000D02*
X182530000Y-104120000D01*
X183800000Y-106880000D02*
X185180000Y-106880000D01*
X185180000Y-106880000D02*
X185180000Y-105500000D01*
%TO.C,J5*%
X164670000Y-88130000D02*
X164670000Y-85370000D01*
X182560000Y-85370000D02*
X164670000Y-85370000D01*
X182560000Y-88130000D02*
X164670000Y-88130000D01*
X182560000Y-88130000D02*
X182560000Y-85370000D01*
X183830000Y-88130000D02*
X185210000Y-88130000D01*
X185210000Y-88130000D02*
X185210000Y-86750000D01*
%TO.C,J11*%
X139370000Y-114000000D02*
X139370000Y-124380000D01*
X142020000Y-114000000D02*
X139370000Y-114000000D01*
X142020000Y-116650000D02*
X142020000Y-114000000D01*
X144670000Y-114000000D02*
X143290000Y-114000000D01*
X144670000Y-115380000D02*
X144670000Y-114000000D01*
X144670000Y-116650000D02*
X142020000Y-116650000D01*
X144670000Y-116650000D02*
X144670000Y-124380000D01*
X144670000Y-124380000D02*
X139370000Y-124380000D01*
%TO.C,J3*%
X159320000Y-117130000D02*
X159320000Y-130050000D01*
X161970000Y-117130000D02*
X159320000Y-117130000D01*
X161970000Y-119780000D02*
X161970000Y-117130000D01*
X164620000Y-117130000D02*
X163240000Y-117130000D01*
X164620000Y-118510000D02*
X164620000Y-117130000D01*
X164620000Y-119780000D02*
X161970000Y-119780000D01*
X164620000Y-119780000D02*
X164620000Y-130050000D01*
X164620000Y-130050000D02*
X159320000Y-130050000D01*
%TO.C,J9*%
X125830000Y-114000000D02*
X125830000Y-124380000D01*
X128480000Y-114000000D02*
X125830000Y-114000000D01*
X128480000Y-116650000D02*
X128480000Y-114000000D01*
X131130000Y-114000000D02*
X129750000Y-114000000D01*
X131130000Y-115380000D02*
X131130000Y-114000000D01*
X131130000Y-116650000D02*
X128480000Y-116650000D01*
X131130000Y-116650000D02*
X131130000Y-124380000D01*
X131130000Y-124380000D02*
X125830000Y-124380000D01*
%TD*%
M02*
